<svg width="24" height="24" viewBox="0 0 24 24" fill="none" xmlns="http://www.w3.org/2000/svg">
<g >
<path d="M11.9998 0C10.0902 0 8.2589 0.758569 6.90864 2.10883C5.55837 3.45909 4.7998 5.29044 4.7998 7.2C4.7998 11.1768 11.9998 24 11.9998 24C11.9998 24 19.1998 11.1768 19.1998 7.2C19.1998 5.29044 18.4412 3.45909 17.091 2.10883C15.7407 0.758569 13.9094 0 11.9998 0V0ZM11.9998 11.3208C11.2403 11.3208 10.4979 11.0956 9.86641 10.6736C9.23493 10.2517 8.74275 9.65197 8.45211 8.9503C8.16147 8.24864 8.08542 7.47654 8.23359 6.73165C8.38176 5.98677 8.74748 5.30254 9.28451 4.76551C9.82155 4.22848 10.5058 3.86275 11.2507 3.71458C11.9955 3.56642 12.7676 3.64246 13.4693 3.9331C14.171 4.22374 14.7707 4.71593 15.1926 5.34741C15.6146 5.97889 15.8398 6.72132 15.8398 7.4808C15.8398 8.49923 15.4352 9.47595 14.7151 10.1961C13.995 10.9162 13.0182 11.3208 11.9998 11.3208Z" fill="white"/>
</g>
</svg>
