<svg width="20" height="20" viewBox="0 0 20 20" fill="none" xmlns="http://www.w3.org/2000/svg">
<path d="M17.2339 5.294H14.1179V4.118C14.1179 3.02584 13.6841 1.97841 12.9118 1.20613C12.1395 0.433859 11.0921 0 9.99993 0C8.90777 0 7.86034 0.433859 7.08806 1.20613C6.31579 1.97841 5.88193 3.02584 5.88193 4.118V5.294H2.76593L1.15393 20H18.8459L17.2339 5.294ZM12.5499 5.294H7.44993V4.118C7.44993 3.4417 7.71859 2.7931 8.19681 2.31488C8.67503 1.83666 9.32363 1.568 9.99993 1.568C10.6762 1.568 11.3248 1.83666 11.8031 2.31488C12.2813 2.7931 12.5499 3.4417 12.5499 4.118V5.294ZM7.44993 10.2V6.862H12.5499V10.2H14.1179V6.862H15.8279L17.0959 18.432H2.89593L4.16393 6.862H5.87393V10.2H7.44993Z" fill="#07021B"/>
</svg>
