<svg width="20" height="20" viewBox="0 0 20 20" fill="none" xmlns="http://www.w3.org/2000/svg">
<g clip-path="url(#clip0)">
<path d="M15.2 1.4C16.1017 1.4 16.9665 1.75821 17.6042 2.39584C18.2418 3.03346 18.6 3.89826 18.6 4.8V15.2C18.6 16.1017 18.2418 16.9665 17.6042 17.6042C16.9665 18.2418 16.1017 18.6 15.2 18.6H4.8C3.89826 18.6 3.03346 18.2418 2.39584 17.6042C1.75821 16.9665 1.4 16.1017 1.4 15.2V4.8C1.4 3.89826 1.75821 3.03346 2.39584 2.39584C3.03346 1.75821 3.89826 1.4 4.8 1.4H15.2ZM15.2 0H4.8C3.52696 0 2.30606 0.505713 1.40589 1.40589C0.505713 2.30606 0 3.52696 0 4.8L0 15.2C0 16.473 0.505713 17.6939 1.40589 18.5941C2.30606 19.4943 3.52696 20 4.8 20H15.2C16.473 20 17.6939 19.4943 18.5941 18.5941C19.4943 17.6939 20 16.473 20 15.2V4.8C20 3.52696 19.4943 2.30606 18.5941 1.40589C17.6939 0.505713 16.473 0 15.2 0V0Z" fill="white"/>
<path d="M9.99998 6.60019C10.6724 6.60019 11.3298 6.7996 11.8889 7.1732C12.448 7.54679 12.8838 8.0778 13.1412 8.69907C13.3985 9.32034 13.4658 10.004 13.3347 10.6635C13.2035 11.323 12.8796 11.9289 12.4041 12.4044C11.9286 12.8799 11.3228 13.2037 10.6633 13.3349C10.0038 13.4661 9.32013 13.3987 8.69886 13.1414C8.07759 12.884 7.54658 12.4483 7.17299 11.8891C6.79939 11.33 6.59998 10.6726 6.59998 10.0002C6.59998 9.09846 6.9582 8.23365 7.59582 7.59603C8.23344 6.95841 9.09825 6.60019 9.99998 6.60019ZM9.99998 5.2002C9.05063 5.2002 8.1226 5.48171 7.33325 6.00914C6.54389 6.53657 5.92866 7.28623 5.56536 8.16331C5.20206 9.0404 5.10701 10.0055 5.29221 10.9366C5.47742 11.8677 5.93458 12.723 6.60587 13.3943C7.27716 14.0656 8.13244 14.5228 9.06355 14.708C9.99466 14.8932 10.9598 14.7981 11.8369 14.4348C12.7139 14.0715 13.4636 13.4563 13.991 12.6669C14.5185 11.8776 14.8 10.9495 14.8 10.0002C14.8 8.72715 14.2943 7.50626 13.3941 6.60608C12.4939 5.70591 11.273 5.2002 9.99998 5.2002Z" fill="white"/>
<path d="M15.4 5.7999C16.0627 5.7999 16.6 5.26264 16.6 4.5999C16.6 3.93716 16.0627 3.3999 15.4 3.3999C14.7373 3.3999 14.2 3.93716 14.2 4.5999C14.2 5.26264 14.7373 5.7999 15.4 5.7999Z" fill="white"/>
</g>
<defs>
<clipPath id="clip0">
<rect width="20" height="20" fill="white"/>
</clipPath>
</defs>
</svg>
