<svg width="16" height="16" viewBox="0 0 16 16" fill="none" xmlns="http://www.w3.org/2000/svg">
<path d="M8.5984 13.6544V2.3456H12.1936C10.424 7.1808 10.144 8.0352 10.1344 8.2656C10.2106 8.98496 10.5531 9.64981 11.0946 10.1294C11.6362 10.6091 12.3375 10.8688 13.0608 10.8576C13.7775 10.8559 14.4689 10.5926 15.0051 10.1171C15.5413 9.64153 15.8855 8.98656 15.9728 8.2752C15.9728 8.0512 15.6944 7.2048 13.9184 2.3456H14.176V1.12H1.8144V2.3392H2.08C0 8 0 8.0496 0 8.1232C0.0439873 8.86875 0.373681 9.56866 0.920511 10.0773C1.46734 10.586 2.18922 10.8643 2.936 10.8544C3.68223 10.8578 4.40229 10.5796 4.95244 10.0754C5.5026 9.5712 5.84239 8.87809 5.904 8.1344V8.1152C5.904 8.0496 5.904 8.0256 3.7984 2.3552H7.392V13.6512H0V14.88H16V13.6544H8.5984ZM13.0544 9.6384C12.7282 9.63866 12.4083 9.54925 12.1295 9.37994C11.8507 9.21063 11.6238 8.96795 11.4736 8.6784H14.632C14.4826 8.96792 14.2564 9.21069 13.9781 9.38004C13.6998 9.5494 13.3802 9.63879 13.0544 9.6384ZM11.5392 7.5024L13.0544 3.464L14.544 7.5024H11.5392ZM2.9456 9.6384C2.61946 9.63848 2.29956 9.549 2.0208 9.37971C1.74204 9.21042 1.51512 8.96783 1.3648 8.6784H4.5232C4.37341 8.96758 4.14706 9.21005 3.86885 9.37934C3.59064 9.54864 3.27127 9.63825 2.9456 9.6384ZM1.4592 7.5024L2.9744 3.464L4.464 7.5024H1.4592Z" fill="#07021B"/>
</svg>
