<svg width="16" height="16" viewBox="0 0 16 16" fill="none" xmlns="http://www.w3.org/2000/svg">
<g clip-path="url(#clip0)">
<path d="M12.1601 10.5839C11.6369 10.0671 10.9841 10.0671 10.4657 10.5839C10.0689 10.9775 9.66572 11.3695 9.28332 11.7695C9.24815 11.819 9.19506 11.8529 9.13532 11.864C9.07558 11.875 9.01388 11.8624 8.96332 11.8287C8.70732 11.6895 8.43372 11.5759 8.18732 11.4223C7.05822 10.6919 6.05665 9.7811 5.22252 8.72629C4.78882 8.21312 4.43104 7.64034 4.16012 7.02549C4.12871 6.97426 4.11738 6.91322 4.12831 6.85413C4.13924 6.79504 4.17166 6.74209 4.21932 6.70549C4.61612 6.32309 5.00172 5.92949 5.39052 5.53749C5.93292 4.99189 5.93292 4.35189 5.39052 3.80309C5.08012 3.48309 4.77132 3.18389 4.46092 2.87029C4.15052 2.55669 3.82092 2.23029 3.50092 1.91029C2.97772 1.40789 2.32652 1.40789 1.80652 1.91989C1.40652 2.31349 1.02412 2.71989 0.617716 3.10229C0.255479 3.44219 0.0382763 3.90869 0.0113156 4.40469C-0.0526844 5.23349 0.150516 6.01589 0.436916 6.77909C1.03777 8.3369 1.9045 9.77857 2.99852 11.0399C4.43697 12.765 6.22587 14.1645 8.24652 15.1455C9.16492 15.5919 10.1169 15.9343 11.1537 15.9919C11.8657 16.0319 12.4849 15.8527 12.9809 15.2959C13.3201 14.9167 13.7041 14.5695 14.0625 14.2079C14.5953 13.6687 14.5985 13.0159 14.0625 12.4831C13.4342 11.8484 12.8001 11.2154 12.1601 10.5839Z" fill="#07021B"/>
<path d="M11.528 7.93114L12.7568 7.72154C12.558 6.57127 11.9993 5.51376 11.1611 4.70122C10.323 3.88869 9.2487 3.36304 8.09281 3.19994L7.92001 4.43194C8.81462 4.55759 9.64616 4.96422 10.2947 5.59315C10.9431 6.22209 11.375 7.0408 11.528 7.93114Z" fill="#07021B"/>
<path d="M13.4496 2.5904C12.0493 1.18075 10.2244 0.270552 8.256 0L8.0816 1.2352C9.73947 1.46829 11.2805 2.22168 12.4828 3.38681C13.685 4.55194 14.4863 6.06865 14.7712 7.7184L16 7.5072C15.6802 5.6435 14.7889 3.9253 13.4496 2.5904Z" fill="#07021B"/>
</g>
<defs>
<clipPath id="clip0">
<rect width="16" height="16" fill="white"/>
</clipPath>
</defs>
</svg>
