<svg width="40" height="40" viewBox="0 0 40 40" fill="none" xmlns="http://www.w3.org/2000/svg">
<path d="M30.4 0H28V3.2H21.2V0H18.8V3.2H12V0H9.6V3.2H0V40H40V3.2H30.4V0ZM28 8.8H30.4V5.6H37.6V12H2.4V5.6H9.6V8.8H12V5.6H18.8V8.8H21.2V5.6H28V8.8ZM30.6 20.532V14.4H37.6V20.532H30.6ZM21.2 20.532V14.4H28.2V20.532H21.2ZM11.8 20.532V14.4H18.8V20.532H11.8ZM2.4 20.532V14.4H9.4V20.532H2.4ZM30.6 29.068V22.932H37.6V29.068H30.6ZM21.2 29.068V22.932H28.2V29.068H21.2ZM11.8 29.068V22.932H18.8V29.068H11.8ZM2.4 29.068V22.932H9.4V29.068H2.4ZM30.6 37.6V31.468H37.6V37.6H30.6ZM21.2 37.6V31.468H28.2V37.6H21.2ZM11.8 37.6V31.468H18.8V37.6H11.8ZM2.4 37.6V31.468H9.4V37.6H2.4Z" fill="#E9484A"/>
</svg>
