<svg width="40" height="40" viewBox="0 0 40 40" fill="none" xmlns="http://www.w3.org/2000/svg">
<path d="M20 2.872L23.236 5.004L23.9 5.444L24.7 5.396L28.568 5.168L30.304 8.632L30.66 9.344L31.372 9.7L34.836 11.436L34.608 15.304L34.56 16.104L35 16.768L37.128 20L34.996 23.236L34.556 23.9L34.604 24.7L34.832 28.568L31.368 30.304L30.656 30.66L30.3 31.372L28.564 34.836L24.696 34.608L23.896 34.56L23.232 35L20 37.128L16.764 34.996L16.1 34.556L15.3 34.604L11.432 34.832L9.696 31.368L9.34 30.656L8.628 30.3L5.164 28.564L5.392 24.696L5.44 23.896L5 23.232L2.872 20L5.004 16.764L5.444 16.1L5.396 15.3L5.168 11.432L8.632 9.696L9.344 9.34L9.7 8.628L11.436 5.164L15.304 5.392L16.104 5.44L16.768 5L20 2.872ZM20 0L15.444 3L10 2.68L7.556 7.556L2.68 10L3 15.444L0 20L3 24.556L2.68 30L7.556 32.444L10 37.32L15.444 37L20 40L24.556 37L30 37.32L32.444 32.444L37.32 30L37 24.556L40 20L37 15.444L37.32 10L32.444 7.556L30 2.68L24.556 3L20 0Z" fill="#E9484A"/>
<path d="M25.9 28.648H14.428V26.692L20.112 20.492C20.7734 19.7903 21.3605 19.0223 21.864 18.2C22.2018 17.6432 22.3867 17.0071 22.4 16.356C22.4261 15.6383 22.1755 14.9381 21.7 14.4C21.4639 14.1494 21.1767 13.9526 20.8578 13.8228C20.539 13.6931 20.1959 13.6334 19.852 13.648C19.4547 13.6243 19.0571 13.6875 18.6868 13.8333C18.3165 13.979 17.9825 14.2038 17.708 14.492C17.1721 15.1376 16.9006 15.9622 16.948 16.8H14.1C14.0847 15.8215 14.326 14.8561 14.8 14C15.2709 13.1682 15.9762 12.4935 16.828 12.06C17.7697 11.5847 18.8134 11.3471 19.868 11.368C21.524 11.368 22.8307 11.784 23.788 12.616C24.2695 13.048 24.6483 13.5821 24.8968 14.1794C25.1452 14.7767 25.257 15.4219 25.224 16.068C25.2019 17.0048 24.9549 17.9225 24.504 18.744C23.8608 19.9094 23.0674 20.9852 22.144 21.944L18 26.376H25.92L25.9 28.648Z" fill="#E9484A"/>
</svg>
