<svg width="20" height="20" viewBox="0 0 20 20" fill="none" xmlns="http://www.w3.org/2000/svg">
<g clip-path="url(#clip0)">
<path d="M16.6 1.938C15.9899 1.32303 15.2639 0.835113 14.464 0.502465C13.6641 0.169816 12.8063 -0.000962503 11.94 4.08017e-06H8.05798C6.30885 0.00422905 4.63257 0.700941 3.39575 1.93777C2.15892 3.17459 1.46221 4.85087 1.45798 6.6V9.652C1.45612 11.0078 1.87543 12.3308 2.65798 13.438C3.33784 14.4048 4.26286 15.1731 5.33798 15.664L5.35798 20L9.22598 16.254H11.94C13.6891 16.2498 15.3654 15.5531 16.6022 14.3162C17.839 13.0794 18.5358 11.4031 18.54 9.654V6.6C18.541 5.73325 18.37 4.87491 18.037 4.07467C17.704 3.27443 17.2156 2.5482 16.6 1.938ZM6.52598 17.276V15.276C6.52498 15.1561 6.48805 15.0392 6.41996 14.9404C6.35187 14.8417 6.25574 14.7656 6.14398 14.722C5.11867 14.3289 4.23598 13.6353 3.61147 12.7321C2.98696 11.8288 2.64975 10.7581 2.64398 9.66V6.6C2.64978 5.16556 3.22232 3.79155 4.23682 2.77743C5.25132 1.7633 6.62554 1.19127 8.05998 1.186H11.94C13.3744 1.19127 14.7486 1.7633 15.7631 2.77743C16.7776 3.79155 17.3502 5.16556 17.356 6.6V9.652C17.3544 11.0877 16.7832 12.4642 15.7678 13.4792C14.7524 14.4943 13.3757 15.0649 11.94 15.066H8.97998C8.90239 15.0656 8.82549 15.0806 8.75373 15.1101C8.68198 15.1396 8.6168 15.1831 8.56198 15.238L6.52598 17.276Z" fill="#4E4A65"/>
<path d="M10.65 13.848C10.9193 13.8488 11.1862 13.7961 11.4351 13.6931C11.6839 13.5902 11.9099 13.4389 12.1 13.248L13.958 11.376L11.482 8.90999C11.3698 8.80006 11.219 8.73848 11.062 8.73848C10.9049 8.73848 10.7541 8.80006 10.642 8.90999L10.242 9.30999L8.59999 7.68199L8.99999 7.28199C9.10993 7.16984 9.17151 7.01904 9.17151 6.86199C9.17151 6.70494 9.10993 6.55415 8.99999 6.44199L6.50399 3.98399L4.66999 5.81999C4.28589 6.2044 4.07013 6.72558 4.07013 7.26899C4.07013 7.81241 4.28589 8.33359 4.66999 8.71799L9.19999 13.25C9.39021 13.4405 9.61628 13.5914 9.86516 13.6941C10.114 13.7967 10.3808 13.849 10.65 13.848ZM7.34599 7.26199C7.23515 7.37375 7.17265 7.52459 7.17199 7.68199C7.17193 7.75971 7.18728 7.83666 7.21715 7.90841C7.24701 7.98016 7.2908 8.04527 7.34599 8.09999L9.81799 10.572C9.93015 10.6819 10.0809 10.7435 10.238 10.7435C10.395 10.7435 10.5458 10.6819 10.658 10.572L11.058 10.172L12.278 11.392L11.26 12.41C11.098 12.5714 10.8787 12.6621 10.65 12.6621C10.4213 12.6621 10.2019 12.5714 10.04 12.41L5.50999 7.87999C5.42981 7.79993 5.36619 7.70485 5.32279 7.60018C5.27938 7.49551 5.25704 7.3833 5.25704 7.26999C5.25704 7.15668 5.27938 7.04448 5.32279 6.93981C5.36619 6.83514 5.42981 6.74005 5.50999 6.65999L6.53199 5.63799L7.75399 6.85799L7.34599 7.26199Z" fill="#4E4A65"/>
<path d="M13.4 4.94199C13.8273 5.36982 14.1659 5.8779 14.3962 6.43703C14.6265 6.99615 14.744 7.59529 14.742 8.19999V8.24999H15.928V8.19999C15.928 6.66174 15.3169 5.18649 14.2292 4.09877C13.1415 3.01106 11.6662 2.39999 10.128 2.39999H10.078V3.59999H10.128C10.7351 3.59565 11.337 3.71205 11.8987 3.94244C12.4604 4.17283 12.9708 4.5126 13.4 4.94199Z" fill="#4E4A65"/>
<path d="M12.412 8.20001V8.25001H13.6V8.20001C13.5989 7.28093 13.2331 6.39986 12.5828 5.75035C11.9326 5.10084 11.0511 4.73601 10.132 4.73601H10.082V5.92201H10.132C10.7362 5.92254 11.3155 6.16265 11.7429 6.58968C12.1703 7.01672 12.4109 7.59582 12.412 8.20001Z" fill="#4E4A65"/>
</g>
<defs>
<clipPath id="clip0">
<rect width="20" height="20" fill="white"/>
</clipPath>
</defs>
</svg>
