<svg width="20" height="20" viewBox="0 0 20 20" fill="none" xmlns="http://www.w3.org/2000/svg">
<g clip-path="url(#clip0)">
<path d="M19.5086 8.05055C19.5736 7.86715 19.6094 7.67 19.6094 7.46461C19.6094 6.85793 19.3004 6.32211 18.8316 6.00609V1.75781C18.8316 0.788555 18.0431 0 17.0738 0H2.92617C1.95691 0 1.16836 0.788555 1.16836 1.75781V6.00609C0.69957 6.32211 0.390625 6.85793 0.390625 7.46461C0.390625 7.67 0.426367 7.86715 0.491406 8.05055H0V15.5505H1.17188V13.7573H18.8281V15.5505H20V8.05055H19.5086ZM2.92617 1.17188H17.0738C17.3969 1.17188 17.6598 1.43473 17.6598 1.75781V5.7068H16.4896V5.12086C16.4896 4.1516 15.701 3.36305 14.7318 3.36305H11.1719C10.722 3.36305 10.3112 3.53313 10 3.81207C9.68875 3.53309 9.27801 3.36305 8.82812 3.36305H5.26824C4.29898 3.36305 3.51043 4.1516 3.51043 5.12086V5.7068H2.34023V1.75781C2.34023 1.43473 2.60309 1.17188 2.92617 1.17188ZM9.41406 5.7068H4.6823V5.12086C4.6823 4.79777 4.94516 4.53492 5.26824 4.53492H8.82812C9.15121 4.53492 9.41406 4.79777 9.41406 5.12086V5.7068ZM10.5859 5.12086C10.5859 4.79777 10.8488 4.53492 11.1719 4.53492H14.7318C15.0548 4.53492 15.3177 4.79777 15.3177 5.12086V5.7068H10.5859V5.12086ZM1.5625 7.46461C1.5625 7.14152 1.82535 6.87867 2.14844 6.87867H17.8516C18.1746 6.87867 18.4375 7.14152 18.4375 7.46461C18.4375 7.78769 18.1746 8.05055 17.8516 8.05055H2.14844C1.82535 8.05055 1.5625 7.78769 1.5625 7.46461ZM1.17188 9.22242H18.8281V12.5855H1.17188V9.22242Z" fill="#FBAF3F"/>
</g>
<defs>
<clipPath id="clip0">
<rect width="20" height="20" fill="white"/>
</clipPath>
</defs>
</svg>
