<svg width="16" height="16" viewBox="0 0 16 16" fill="none" xmlns="http://www.w3.org/2000/svg">
<g clip-path="url(#clip0)">
<path d="M12.4506 0H3.54941C2.60805 0 1.70524 0.373955 1.0396 1.0396C0.373955 1.70524 0 2.60805 0 3.54941L0 12.4506C0 13.392 0.373955 14.2948 1.0396 14.9604C1.70524 15.626 2.60805 16 3.54941 16H12.4506C13.392 16 14.2948 15.626 14.9604 14.9604C15.626 14.2948 16 13.392 16 12.4506V3.54941C16 2.60805 15.626 1.70524 14.9604 1.0396C14.2948 0.373955 13.392 0 12.4506 0ZM8 12.1176C7.18586 12.1165 6.39033 11.874 5.71396 11.4208C5.03759 10.9677 4.51074 10.3242 4.19999 9.57168C3.88923 8.81918 3.80853 7.99144 3.96807 7.19309C4.12762 6.39473 4.52025 5.66159 5.09635 5.08631C5.67244 4.51104 6.40615 4.11945 7.20473 3.96105C8.00331 3.80264 8.83093 3.88453 9.58299 4.19636C10.3351 4.50818 10.9778 5.03595 11.43 5.71297C11.8822 6.38999 12.1235 7.18586 12.1235 8C12.121 9.09232 11.6856 10.1391 10.9127 10.9109C10.1397 11.6828 9.09232 12.1167 8 12.1176ZM13.0165 4.33765C12.8462 4.50806 12.622 4.61415 12.3823 4.63781C12.1425 4.66148 11.902 4.60126 11.7016 4.46743C11.5013 4.3336 11.3536 4.13443 11.2836 3.90387C11.2137 3.67332 11.2259 3.42565 11.3181 3.20308C11.4104 2.98051 11.5769 2.79681 11.7895 2.6833C12.002 2.56979 12.2473 2.53349 12.4835 2.58058C12.7198 2.62768 12.9324 2.75526 13.0852 2.94158C13.2379 3.1279 13.3213 3.36143 13.3212 3.60235C13.3217 3.87966 13.2121 4.14584 13.0165 4.34235V4.33765Z" fill="#282624"/>
<path d="M7.99995 5.29407C7.46478 5.29407 6.94162 5.45276 6.49664 5.75009C6.05166 6.04742 5.70484 6.47002 5.50004 6.96445C5.29524 7.45889 5.24165 8.00295 5.34606 8.52784C5.45047 9.05273 5.70818 9.53487 6.0866 9.9133C6.46503 10.2917 6.94717 10.5494 7.47206 10.6538C7.99695 10.7582 8.54101 10.7047 9.03545 10.4999C9.52988 10.2951 9.95248 9.94824 10.2498 9.50326C10.5471 9.05828 10.7058 8.53512 10.7058 7.99995C10.7058 7.28231 10.4208 6.59405 9.9133 6.0866C9.40585 5.57915 8.7176 5.29407 7.99995 5.29407Z" fill="#282624"/>
</g>
<defs>
<clipPath id="clip0">
<rect width="16" height="16" fill="white"/>
</clipPath>
</defs>
</svg>
