<svg width="16" height="16" viewBox="0 0 16 16" fill="none" xmlns="http://www.w3.org/2000/svg">
<g clip-path="url(#clip0)">
<path d="M14.8229 2.66663C14.8229 3.86328 13.8529 4.83337 12.6562 4.83337C11.4596 4.83337 10.4896 3.86328 10.4896 2.66663C10.4896 1.47009 11.4596 0.5 12.6562 0.5C13.8529 0.5 14.8229 1.47009 14.8229 2.66663Z" fill="#282624"/>
<path d="M12.6562 5.33337C11.1855 5.33337 9.98962 4.13733 9.98962 2.66663C9.98962 1.19604 11.1855 0 12.6562 0C14.127 0 15.3229 1.19604 15.3229 2.66663C15.3229 4.13733 14.127 5.33337 12.6562 5.33337ZM12.6562 1C11.7369 1 10.9896 1.74805 10.9896 2.66663C10.9896 3.58533 11.7369 4.33337 12.6562 4.33337C13.5756 4.33337 14.3229 3.58533 14.3229 2.66663C14.3229 1.74805 13.5756 1 12.6562 1Z" fill="#282624"/>
<path d="M14.8229 13.3334C14.8229 14.5299 13.8529 15.5 12.6562 15.5C11.4596 15.5 10.4896 14.5299 10.4896 13.3334C10.4896 12.1367 11.4596 11.1666 12.6562 11.1666C13.8529 11.1666 14.8229 12.1367 14.8229 13.3334Z" fill="#282624"/>
<path d="M12.6562 16C11.1855 16 9.98962 14.804 9.98962 13.3334C9.98962 11.8627 11.1855 10.6666 12.6562 10.6666C14.127 10.6666 15.3229 11.8627 15.3229 13.3334C15.3229 14.804 14.127 16 12.6562 16ZM12.6562 11.6666C11.7369 11.6666 10.9896 12.4147 10.9896 13.3334C10.9896 14.252 11.7369 15 12.6562 15C13.5756 15 14.3229 14.252 14.3229 13.3334C14.3229 12.4147 13.5756 11.6666 12.6562 11.6666Z" fill="#282624"/>
<path d="M5.48962 8C5.48962 9.19666 4.51953 10.1666 3.32288 10.1666C2.12634 10.1666 1.15625 9.19666 1.15625 8C1.15625 6.80334 2.12634 5.83337 3.32288 5.83337C4.51953 5.83337 5.48962 6.80334 5.48962 8Z" fill="#282624"/>
<path d="M3.32288 10.6666C1.85229 10.6666 0.65625 9.4707 0.65625 8C0.65625 6.5293 1.85229 5.33337 3.32288 5.33337C4.79358 5.33337 5.98962 6.5293 5.98962 8C5.98962 9.4707 4.79358 10.6666 3.32288 10.6666ZM3.32288 6.33337C2.40356 6.33337 1.65625 7.0813 1.65625 8C1.65625 8.9187 2.40356 9.66663 3.32288 9.66663C4.24231 9.66663 4.98962 8.9187 4.98962 8C4.98962 7.0813 4.24231 6.33337 3.32288 6.33337Z" fill="#282624"/>
<path d="M4.89695 7.68006C4.66489 7.68006 4.43955 7.55933 4.31687 7.34339C4.13486 7.02406 4.24692 6.61671 4.56626 6.43397L10.7522 2.90736C11.0715 2.72401 11.4789 2.83607 11.6616 3.15662C11.8436 3.47596 11.7315 3.88331 11.4122 4.06605L5.22617 7.59266C5.12217 7.65198 5.00888 7.68006 4.89695 7.68006Z" fill="#282624"/>
<path d="M11.0823 13.1801C10.9702 13.1801 10.8569 13.152 10.7529 13.0927L4.5669 9.56604C4.24756 9.38403 4.13562 8.97668 4.31763 8.65662C4.4989 8.33667 4.90686 8.224 5.22693 8.40735L11.413 11.934C11.7323 12.116 11.8442 12.5233 11.6622 12.8434C11.5389 13.0593 11.3136 13.1801 11.0823 13.1801Z" fill="#282624"/>
</g>
<defs>
<clipPath id="clip0">
<rect width="16" height="16" fill="white"/>
</clipPath>
</defs>
</svg>
