<svg width="20" height="20" viewBox="0 0 20 20" fill="none" xmlns="http://www.w3.org/2000/svg">
<g clip-path="url(#clip0)">
<path d="M16.9099 1.36537e-05C16.1967 -0.00242722 15.5216 0.322514 15.0789 0.88178C14.6362 1.44089 14.4746 2.17239 14.6406 2.86606C13.6777 2.27262 12.4444 2.35393 11.5677 3.06865L9.27557 4.93089L5.54301 3.15302L5.71235 2.81511C5.79457 2.65035 5.72775 2.4502 5.56299 2.36782C5.39824 2.28559 5.19808 2.35241 5.1157 2.51717L4.94011 2.86606L3.88932 2.36614C3.78085 2.30451 3.64706 2.30847 3.54256 2.37666C3.43806 2.44486 3.38039 2.56553 3.39306 2.68971C3.40572 2.81373 3.48657 2.92037 3.60282 2.96598L4.64187 3.46087L4.44751 3.84912C4.36529 4.01388 4.43211 4.21419 4.59687 4.29641C4.76162 4.37864 4.96178 4.31182 5.04416 4.14706L5.244 3.74722L8.70227 5.39557L8.12012 5.86849C7.91707 6.03432 7.74529 6.23523 7.61318 6.46162C7.14712 7.44362 7.47084 8.6189 8.37397 9.22363L11.5401 11.2512L8.25513 12.7119C7.70837 12.9473 7.37458 13.5068 7.42691 14.0996L3.25316 11.5545C3.15141 11.491 3.02357 11.4871 2.91815 11.5441C2.81274 11.6012 2.74607 11.7104 2.74348 11.8302C2.74104 11.9501 2.80297 12.0619 2.90595 12.1234L15.1472 19.5885C16.1216 20.1877 17.3637 20.1282 18.2763 19.4385C18.4235 19.3281 18.4533 19.1191 18.3428 18.9719C18.2325 18.8247 18.0235 18.7948 17.8763 18.9052C17.1813 19.4297 16.236 19.4748 15.4942 19.0192L9.22019 15.1928C9.24185 15.1844 9.26519 15.1807 9.28686 15.1711L13.9746 13.0865C14.9004 12.6692 15.3266 11.5914 14.9369 10.6537C14.7923 10.3063 14.5443 10.0116 14.2267 9.80959L11.7233 8.04331L12.5898 7.61006L13.7619 8.42516L14.795 9.14476C15.3004 9.50738 15.986 9.48663 16.4687 9.09411L17.6017 9.63293C17.7093 9.68419 17.8359 9.67412 17.934 9.60654C18.0321 9.53911 18.0867 9.42439 18.0772 9.3057C18.0679 9.18686 17.9957 9.08221 17.8883 9.0311L16.8508 8.53713C16.93 8.32798 16.9544 8.1022 16.9219 7.88099C16.8661 7.51974 16.665 7.19709 16.3652 6.98778L15.4768 6.37101L15.5768 6.34995C15.9366 6.27215 16.1651 5.91761 16.0873 5.55789L15.8874 4.63631C15.8694 4.55301 15.8414 4.47338 15.816 4.39268C16.6734 4.84851 17.7233 4.72555 18.4522 4.08421C19.1811 3.44272 19.4365 2.41694 19.0934 1.50863C18.7504 0.600469 17.8807 -0.000444013 16.9099 1.36537e-05ZM15.9828 7.53439C16.1331 7.63889 16.2337 7.80075 16.2612 7.98183C16.2885 8.16276 16.2403 8.3472 16.1277 8.49152C15.887 8.76932 15.4733 8.8157 15.1768 8.59815L14.3677 8.03492L13.8792 7.69503L12.8068 6.94919H12.8051L12.4995 6.73653C12.3608 6.64026 12.2638 6.49473 12.2283 6.32966L12.1006 5.73745C12.0629 5.5646 12.0955 5.38382 12.1913 5.23508C12.287 5.08634 12.4379 4.98169 12.6107 4.94431L13.287 4.79801C13.4669 4.75911 13.5813 4.58184 13.5424 4.40198C13.5036 4.22197 13.3262 4.10755 13.1463 4.14645L12.4702 4.29275C11.7511 4.44897 11.294 5.15759 11.4484 5.87703L11.5759 6.46956C11.6356 6.73866 11.7773 6.98245 11.9816 7.16749L11.2981 7.50968C11.2589 7.52935 11.224 7.55636 11.1952 7.58931C11.0678 7.73652 11.011 7.93179 11.0399 8.12432C11.0663 8.31074 11.1717 8.47687 11.3291 8.58015L13.8572 10.3644C14.0655 10.4947 14.2284 10.6862 14.3238 10.9127C14.5739 11.5155 14.3 12.2081 13.7048 12.4762L9.01592 14.5635C8.84857 14.6378 8.65818 14.6401 8.48915 14.5698C8.32012 14.4994 8.18755 14.3627 8.12241 14.1916C8.00936 13.841 8.18526 13.4625 8.52607 13.3228L11.811 11.8601C12.0348 11.7605 12.1859 11.5458 12.2043 11.3014C12.2228 11.057 12.1056 10.8222 11.8992 10.69L8.73323 8.66253C8.12408 8.24712 7.89846 7.45582 8.197 6.78153C8.28762 6.63065 8.40387 6.49671 8.54071 6.38596L11.988 3.58658C12.7822 2.93761 13.9393 2.9971 14.6627 3.72418C14.9518 4.01281 15.1512 4.37895 15.2369 4.77833L15.4368 5.69977L14.9639 5.79984C14.7691 5.84149 14.6174 5.99511 14.5784 6.19053C14.5393 6.38611 14.62 6.58611 14.784 6.69961L15.9828 7.53439ZM16.9099 3.99908C15.9897 3.99908 15.2435 3.25309 15.2435 2.33288C15.2435 1.41252 15.9897 0.666525 16.9099 0.666525C17.8301 0.666525 18.5762 1.41252 18.5762 2.33288C18.575 3.25263 17.8296 3.99802 16.9099 3.99908Z" fill="#FBAF3F"/>
<path d="M3.74603 9.33155C3.89477 9.3317 4.02551 9.2333 4.0667 9.09036C4.10774 8.94742 4.04916 8.79456 3.923 8.71569L1.25695 7.04933C1.10043 6.95185 0.894479 6.9996 0.796996 7.15597C0.699361 7.31249 0.747111 7.51844 0.903632 7.61592L3.56968 9.28227C3.62277 9.31477 3.68379 9.33185 3.74603 9.33155Z" fill="#FBAF3F"/>
<path d="M3.23619 7.61417L5.90223 9.28053C6.0586 9.37801 6.26455 9.33026 6.36203 9.17389C6.45967 9.01737 6.41192 8.81157 6.2554 8.71394L3.58936 7.04773C3.43299 6.95009 3.22704 6.99784 3.1294 7.15436C3.03192 7.31073 3.07967 7.51668 3.23619 7.61417Z" fill="#FBAF3F"/>
</g>
<defs>
<clipPath id="clip0">
<rect width="20" height="20" fill="white"/>
</clipPath>
</defs>
</svg>
