<svg width="15" height="21" viewBox="0 0 15 21" fill="none" xmlns="http://www.w3.org/2000/svg">
<path d="M7.70587 1.65084C10.9412 1.65084 13.5882 4.22118 13.5882 7.36269C13.5882 8.84778 7.70587 18.7864 7.70587 18.7864C7.70587 18.7864 1.82352 8.84778 1.82352 7.36269C1.82352 4.22118 4.47057 1.65084 7.70587 1.65084ZM7.70587 10.2186C9.35293 10.2186 10.647 8.96201 10.647 7.36269C10.647 5.76338 9.35293 4.50677 7.70587 4.50677C6.05881 4.50677 4.76469 5.76338 4.76469 7.36269C4.76469 8.96201 6.05881 10.2186 7.70587 10.2186ZM7.70587 0.794067C3.99999 0.794067 0.941162 3.76423 0.941162 7.36269C0.941162 8.90489 5.11763 16.1589 6.94116 19.1862L7.70587 20.5L8.47058 19.1862C10.2941 16.1589 14.4706 8.90489 14.4706 7.36269C14.4706 3.76423 11.4118 0.794067 7.70587 0.794067ZM7.70587 9.36184C6.58822 9.36184 5.64704 8.44795 5.64704 7.36269C5.64704 6.27744 6.58822 5.36355 7.70587 5.36355C8.82352 5.36355 9.76469 6.27744 9.76469 7.36269C9.76469 8.44795 8.82352 9.36184 7.70587 9.36184Z" fill="#FBAF3F"/>
</svg>
