<svg width="20" height="21" viewBox="0 0 20 21" fill="none" xmlns="http://www.w3.org/2000/svg">
<path d="M16.1 20.5C15.3 20.5 14.3 20.3 13.2 19.9C10.8 19 8.09998 17.2 5.79998 14.8C3.39998 12.4 1.59998 9.8 0.699976 7.4C-0.100024 5.2 -0.100024 3.4 0.699976 2.6C0.699976 2.4 0.899976 2.3 0.999976 2.1C1.69998 1.4 2.59998 0.5 3.69998 0.5C4.49998 0.5 5.29998 1 5.99998 2C8.29998 4.8 7.29998 5.9 6.09998 7L5.89998 7.2C5.69998 7.4 5.29998 8.3 8.79998 11.7C9.89998 12.8 10.9 13.6 11.6 14.1C12.1 14.4 12.9 14.9 13.3 14.5L13.5 14.3C14.7 13.1 15.7 12.1 18.5 14.4C19.5 15.2 19.9 15.9 20 16.7C20 17.8 19.1 18.7 18.4 19.4C18.3 19.5 18.1 19.6 18 19.8C17.6 20.3 16.9 20.5 16.1 20.5ZM3.59998 1.2C2.79998 1.2 2.09998 2 1.39998 2.6C1.29998 2.7 1.19998 2.9 1.09998 3C0.499976 3.6 0.499976 5.2 1.29998 7.1C2.19998 9.4 3.89998 12 6.19998 14.3C8.49998 16.6 11 18.3 13.4 19.2C15.3 19.9 16.9 20 17.5 19.4C17.6 19.3 17.8 19.2 17.9 19C18.6 18.3 19.4 17.6 19.3 16.8C19.3 16.2 18.9 15.6 18.1 15C15.7 13.1 15.1 13.8 14 14.9L13.8 15.1C13.3 15.6 12.4 15.5 11.3 14.8C10.5 14.3 9.49998 13.4 8.39997 12.3C5.39997 9.4 4.49998 7.6 5.39998 6.7L5.59998 6.5C6.69998 5.4 7.39998 4.7 5.49998 2.4C4.89998 1.6 4.29998 1.2 3.59998 1.2C3.69998 1.2 3.69998 1.2 3.59998 1.2Z" fill="#FBAF3F"/>
</svg>
