<svg width="20" height="20" viewBox="0 0 20 20" fill="none" xmlns="http://www.w3.org/2000/svg">
<path d="M16.1 20C15.3 20 14.3 19.8 13.2 19.4C10.8 18.5 8.09998 16.7 5.79998 14.3C3.39998 11.9 1.59998 9.3 0.699976 6.9C-0.100024 4.7 -0.100024 2.9 0.699976 2.1C0.699976 1.9 0.899976 1.8 0.999976 1.6C1.69998 0.9 2.59998 0 3.69998 0C4.49998 0 5.29998 0.5 5.99998 1.5C8.29998 4.3 7.29998 5.4 6.09998 6.5L5.89998 6.7C5.69998 6.9 5.29998 7.8 8.79998 11.2C9.89998 12.3 10.9 13.1 11.6 13.6C12.1 13.9 12.9 14.4 13.3 14L13.5 13.8C14.7 12.6 15.7 11.6 18.5 13.9C19.5 14.7 19.9 15.4 20 16.2C20 17.3 19.1 18.2 18.4 18.9C18.3 19 18.1 19.1 18 19.3C17.6 19.8 16.9 20 16.1 20Z" fill="#282624"/>
</svg>
