<svg width="20" height="20" viewBox="0 0 20 20" fill="none" xmlns="http://www.w3.org/2000/svg">
<g clip-path="url(#clip0)">
<path d="M19.9069 6.46385C14.4489 0.991359 5.58803 0.979649 0.115589 6.43768C0.106867 6.4464 0.0981455 6.45513 0.0894236 6.46385C-0.0328031 6.59042 -0.0292984 6.79214 0.0972693 6.91436C0.220731 7.0336 0.416476 7.0336 0.539938 6.91436C5.74984 1.69123 14.2075 1.68051 19.4306 6.89043C19.4386 6.89839 19.4466 6.9064 19.4545 6.91436C19.5789 7.0393 19.7811 7.03974 19.906 6.91532C20.0309 6.7909 20.0313 6.58878 19.9069 6.46385Z" fill="#FBAF3F"/>
<path d="M18.106 8.26491C15.961 6.10629 13.0415 4.89557 9.99837 4.90262C6.9552 4.89557 4.03574 6.10629 1.89069 8.26491C1.76847 8.39147 1.77197 8.59319 1.89854 8.71542C2.022 8.83466 2.21775 8.83466 2.34121 8.71542C6.56271 4.48651 13.4132 4.4805 17.6421 8.702C17.6466 8.70646 17.6511 8.71096 17.6555 8.71542C17.7821 8.83769 17.9838 8.83418 18.106 8.70761C18.2253 8.58411 18.2253 8.38837 18.106 8.26491Z" fill="#FBAF3F"/>
<path d="M16.3028 10.0684C14.6357 8.38812 12.365 7.44567 9.99811 7.45169C7.63119 7.44567 5.36049 8.38812 3.69345 10.0684C3.56911 10.193 3.56935 10.3948 3.69392 10.5191C3.8185 10.6434 4.0203 10.6432 4.1446 10.5186C7.3677 7.28581 12.6013 7.27797 15.834 10.5011C15.8399 10.5069 15.8458 10.5128 15.8516 10.5186C15.9759 10.6432 16.1777 10.6434 16.3023 10.5191C16.4269 10.3948 16.4271 10.193 16.3028 10.0684Z" fill="#FBAF3F"/>
<path d="M14.5024 11.8685C13.3107 10.6692 11.6888 9.99656 9.99819 10.0005C8.30757 9.99656 6.68564 10.6692 5.494 11.8685C5.37173 11.9951 5.37524 12.1968 5.50181 12.319C5.62527 12.4383 5.82101 12.4383 5.94451 12.319C8.17905 10.0802 11.8054 10.0768 14.0442 12.3113C14.0467 12.3139 14.0493 12.3164 14.0519 12.319C14.1784 12.4413 14.3801 12.4378 14.5024 12.3112C14.6216 12.1878 14.6216 11.992 14.5024 11.8685Z" fill="#FBAF3F"/>
<path d="M12.7095 13.6757C12.7069 13.6731 12.7043 13.6705 12.7017 13.668C11.9853 12.9502 11.0124 12.5476 9.99828 12.5493C8.98419 12.5476 8.01124 12.9502 7.29488 13.668C7.168 13.7899 7.16397 13.9915 7.28588 14.1184C7.40779 14.2453 7.60947 14.2493 7.73636 14.1274C7.73899 14.1249 7.74157 14.1223 7.74412 14.1197C8.98933 12.8754 11.0072 12.8754 12.2524 14.1197C12.3751 14.2459 12.5768 14.2488 12.703 14.1262C12.8292 14.0035 12.8321 13.8019 12.7095 13.6757Z" fill="#FBAF3F"/>
<path d="M10.8999 15.473C10.8996 15.4727 10.8993 15.4724 10.899 15.4721C10.3953 14.9901 9.60132 14.9901 9.0976 15.4721C8.59965 15.9695 8.59926 16.7765 9.09669 17.2744C9.59412 17.7724 10.4011 17.7728 10.899 17.2754C11.397 16.7779 11.3974 15.971 10.8999 15.473ZM9.99831 17.01C9.64637 17.01 9.36109 16.7248 9.36109 16.3728C9.36109 16.0209 9.64637 15.7356 9.99831 15.7356C10.3503 15.7356 10.6355 16.0209 10.6355 16.3728C10.6355 16.7248 10.3502 17.01 9.99831 17.01Z" fill="#FBAF3F"/>
</g>
<defs>
<clipPath id="clip0">
<rect width="20" height="20" fill="white"/>
</clipPath>
</defs>
</svg>
