<svg width="20" height="20" viewBox="0 0 20 20" fill="none" xmlns="http://www.w3.org/2000/svg">
<g clip-path="url(#clip0)">
<path d="M9.99972 1.01829e-07C8.27619 -0.000245829 6.58185 0.444977 5.08108 1.29248C3.58031 2.13997 2.32405 3.36098 1.4342 4.83703C0.544343 6.31308 0.0510924 7.99406 0.00229978 9.7169C-0.0464929 11.4397 0.350829 13.146 1.15572 14.67L1.17972 14.716L0.701719 19.296L5.28372 18.82L5.32972 18.844C6.67199 19.5524 8.15789 19.9459 9.67482 19.9948C11.1917 20.0437 12.6999 19.7467 14.085 19.1262C15.4701 18.5058 16.6958 17.5782 17.6693 16.4138C18.6427 15.2494 19.3383 13.8786 19.7034 12.4055C20.0685 10.9323 20.0934 9.39539 19.7764 7.91116C19.4594 6.42692 18.8087 5.03431 17.8736 3.83887C16.9385 2.64343 15.7436 1.67651 14.3794 1.0114C13.0152 0.346279 11.5174 0.000410402 9.99972 1.01829e-07ZM9.99972 18.756C8.50014 18.7566 7.0256 18.3716 5.71772 17.638C5.62408 17.586 5.51883 17.5585 5.41172 17.558C5.37372 17.558 5.32772 17.558 4.74172 17.624L2.31172 17.878L2.09972 17.9L2.43772 14.652C2.45082 14.5238 2.4243 14.3947 2.36172 14.282C1.42143 12.6049 1.05932 10.6648 1.3313 8.76142C1.60328 6.85801 2.49423 5.09704 3.8666 3.75036C5.23897 2.40367 7.01646 1.54616 8.92468 1.31019C10.8329 1.07422 12.7657 1.47292 14.4248 2.44473C16.0839 3.41654 17.3769 4.90744 18.1044 6.68726C18.8319 8.46709 18.9532 10.4369 18.4498 12.2925C17.9464 14.1482 16.8461 15.7866 15.3189 16.9548C13.7917 18.1229 11.9225 18.7559 9.99972 18.756Z" fill="#4E4A65"/>
<path d="M11.776 10.34L8.36599 8.29399C8.23295 8.21415 8.07489 8.18692 7.92281 8.21763C7.77073 8.24834 7.63562 8.33478 7.54399 8.45999L4.79999 12.228L5.79999 12.962L8.21399 9.65399L11.634 11.706C11.7694 11.786 11.93 11.8121 12.0838 11.7792C12.2376 11.7462 12.3733 11.6565 12.464 11.528L15.1 7.76199L14.08 7.04999L11.776 10.34Z" fill="#4E4A65"/>
</g>
<defs>
<clipPath id="clip0">
<rect width="20" height="20" fill="white"/>
</clipPath>
</defs>
</svg>
