<svg width="20" height="20" viewBox="0 0 20 20" fill="none" xmlns="http://www.w3.org/2000/svg">
<g clip-path="url(#clip0)">
<path d="M14.234 13.128C15.5447 11.5362 16.1928 9.50119 16.0441 7.44459C15.8954 5.38799 14.9612 3.46741 13.4351 2.08074C11.9091 0.694075 9.90805 -0.0523976 7.84664 -0.00402892C5.78524 0.0443398 3.82143 0.883843 2.36208 2.34056C0.902726 3.79727 0.0596709 5.75955 0.00757122 7.82087C-0.0445284 9.88218 0.698321 11.8845 2.08222 13.4131C3.46612 14.9417 5.38501 15.8793 7.44134 16.0318C9.49767 16.1842 11.5338 15.5398 13.128 14.232L18.938 20.042L20.044 18.936L14.234 13.128ZM12.6 12.6C11.3814 13.7558 9.7597 14.3901 8.08033 14.3678C6.40095 14.3456 4.79661 13.6686 3.60901 12.481C2.42141 11.2934 1.7444 9.68906 1.72217 8.00968C1.69995 6.33031 2.33426 4.70861 3.49001 3.49C4.70863 2.33424 6.33032 1.69993 8.0097 1.72216C9.68907 1.74438 11.2934 2.42139 12.481 3.609C13.6686 4.7966 14.3456 6.40094 14.3678 8.08031C14.3901 9.75969 13.7558 11.3814 12.6 12.6Z" fill="#E9484A"/>
</g>
<defs>
<clipPath id="clip0">
<rect width="20" height="20" fill="white"/>
</clipPath>
</defs>
</svg>
