<svg width="16" height="16" viewBox="0 0 16 16" fill="none" xmlns="http://www.w3.org/2000/svg">
<g clip-path="url(#clip0)">
<path d="M11.3872 10.5024C12.4358 9.22896 12.9543 7.60096 12.8353 5.95567C12.7163 4.31039 11.969 2.77393 10.7481 1.66459C9.52727 0.555261 7.92646 -0.041917 6.27734 -0.00322199C4.62821 0.035473 3.05717 0.707075 1.88969 1.87245C0.722206 3.03782 0.0477611 4.60764 0.00608139 6.2567C-0.0355983 7.90575 0.558681 9.50764 1.6658 10.7305C2.77292 11.9534 4.30803 12.7035 5.95309 12.8254C7.59816 12.9474 9.22709 12.4318 10.5024 11.3856L15.1504 16.0336L16.0352 15.1488L11.3872 10.5024ZM10.08 10.08C9.10514 11.0046 7.80778 11.5121 6.46428 11.4943C5.12079 11.4765 3.83731 10.9349 2.88723 9.9848C1.93715 9.03472 1.39554 7.75125 1.37776 6.40775C1.35998 5.06425 1.86743 3.76689 2.79204 2.792C3.76693 1.8674 5.06428 1.35994 6.40778 1.37773C7.75128 1.39551 9.03475 1.93712 9.98483 2.8872C10.9349 3.83728 11.4765 5.12075 11.4943 6.46425C11.5121 7.80775 11.0046 9.10511 10.08 10.08Z" fill="#07021B"/>
</g>
<defs>
<clipPath id="clip0">
<rect width="16" height="16" fill="white"/>
</clipPath>
</defs>
</svg>
