<svg width="20" height="20" viewBox="0 0 20 20" fill="none" xmlns="http://www.w3.org/2000/svg">
<g clip-path="url(#clip0)">
<path d="M13.376 9.82623L8.20001 6.84223C8.16969 6.82472 8.13532 6.81548 8.10031 6.81543C8.0653 6.81538 8.0309 6.82451 8.00053 6.84192C7.97016 6.85934 7.94489 6.88441 7.92725 6.91465C7.90961 6.94489 7.90022 6.97922 7.90001 7.01423V12.9862C7.90022 13.0212 7.90961 13.0556 7.92725 13.0858C7.94489 13.116 7.97016 13.1411 8.00053 13.1585C8.0309 13.1759 8.0653 13.1851 8.10031 13.185C8.13532 13.185 8.16969 13.1757 8.20001 13.1582L13.376 10.1742C13.4068 10.1568 13.4324 10.1315 13.4502 10.1009C13.468 10.0704 13.4774 10.0356 13.4774 10.0002C13.4774 9.96485 13.468 9.9301 13.4502 9.89954C13.4324 9.86897 13.4068 9.84367 13.376 9.82623Z" fill="white"/>
<path d="M16.8 3.7999C17.2774 3.7999 17.7352 3.98954 18.0728 4.32711C18.4104 4.66468 18.6 5.12251 18.6 5.5999V14.3999C18.6 14.8773 18.4104 15.3351 18.0728 15.6727C17.7352 16.0103 17.2774 16.1999 16.8 16.1999H3.2C2.72261 16.1999 2.26477 16.0103 1.92721 15.6727C1.58964 15.3351 1.4 14.8773 1.4 14.3999V5.5999C1.4 5.12251 1.58964 4.66468 1.92721 4.32711C2.26477 3.98954 2.72261 3.7999 3.2 3.7999H16.8ZM16.8 2.3999H3.2C2.35131 2.3999 1.53737 2.73704 0.937258 3.33716C0.337142 3.93728 0 4.75121 0 5.5999L0 14.3999C0 15.2486 0.337142 16.0625 0.937258 16.6626C1.53737 17.2628 2.35131 17.5999 3.2 17.5999H16.8C17.6487 17.5999 18.4626 17.2628 19.0627 16.6626C19.6629 16.0625 20 15.2486 20 14.3999V5.5999C20 4.75121 19.6629 3.93728 19.0627 3.33716C18.4626 2.73704 17.6487 2.3999 16.8 2.3999Z" fill="white"/>
</g>
<defs>
<clipPath id="clip0">
<rect width="20" height="20" fill="white"/>
</clipPath>
</defs>
</svg>
