<svg width="160" height="40" viewBox="0 0 160 40" fill="none" xmlns="http://www.w3.org/2000/svg">
<g clip-path="url(#clip0)">
<path d="M28.634 6.90434C28.9137 7.18477 29.2704 7.37596 29.6589 7.4537C30.0474 7.53145 30.4503 7.49224 30.8165 7.34105C31.1827 7.18986 31.4957 6.93349 31.716 6.6044C31.9363 6.27531 32.0539 5.88831 32.0539 5.49241C32.0539 5.09651 31.9363 4.70951 31.716 4.38042C31.4957 4.05133 31.1827 3.79496 30.8165 3.64377C30.4503 3.49258 30.0474 3.45338 29.6589 3.53112C29.2704 3.60886 28.9137 3.80005 28.634 4.08048C28.2601 4.4554 28.0501 4.96311 28.0501 5.49241C28.0501 6.02171 28.2601 6.52943 28.634 6.90434Z" fill="#07021B"/>
<path d="M25.1013 3.17214C25.3613 3.43254 25.6928 3.61 26.0539 3.68206C26.4149 3.75413 26.7892 3.71755 27.1294 3.57696C27.4696 3.43638 27.7604 3.1981 27.9651 2.8923C28.1697 2.58649 28.2789 2.2269 28.2789 1.85904C28.2789 1.49118 28.1697 1.1316 27.9651 0.825789C27.7604 0.519982 27.4696 0.281707 27.1294 0.14112C26.7892 0.000533994 26.4149 -0.0360424 26.0539 0.0360205C25.6928 0.108083 25.3613 0.285546 25.1013 0.545946C24.9284 0.718206 24.7912 0.922863 24.6976 1.14819C24.604 1.37351 24.5558 1.61508 24.5558 1.85904C24.5558 2.10301 24.604 2.34457 24.6976 2.5699C24.7912 2.79522 24.9284 2.99988 25.1013 3.17214Z" fill="#07021B"/>
<path d="M25.1013 10.4295C25.363 10.6972 25.6986 10.8809 26.0653 10.9571C26.4319 11.0333 26.813 10.9987 27.1599 10.8575C27.5068 10.7163 27.8036 10.4751 28.0126 10.1645C28.2216 9.85397 28.3332 9.48823 28.3332 9.11401C28.3332 8.73979 28.2216 8.37406 28.0126 8.06352C27.8036 7.75297 27.5068 7.51171 27.1599 7.37054C26.813 7.22936 26.4319 7.19468 26.0653 7.27092C25.6986 7.34716 25.363 7.53086 25.1013 7.79856C24.7575 8.15026 24.565 8.62238 24.565 9.11401C24.565 9.60564 24.7575 10.0778 25.1013 10.4295Z" fill="#07021B"/>
<path d="M22.7885 7.20555C23.738 7.20555 24.5078 6.43645 24.5078 5.4877C24.5078 4.53896 23.738 3.76986 22.7885 3.76986C21.839 3.76986 21.0692 4.53896 21.0692 5.4877C21.0692 6.43645 21.839 7.20555 22.7885 7.20555Z" fill="#07021B"/>
<path d="M19.1569 3.43099C20.0257 3.43099 20.7301 2.72721 20.7301 1.85904C20.7301 0.99088 20.0257 0.287094 19.1569 0.287094C18.288 0.287094 17.5836 0.99088 17.5836 1.85904C17.5836 2.72721 18.288 3.43099 19.1569 3.43099Z" fill="#07021B"/>
<path d="M22.7885 14.4629C23.738 14.4629 24.5078 13.6938 24.5078 12.745C24.5078 11.7963 23.738 11.0272 22.7885 11.0272C21.839 11.0272 21.0692 11.7963 21.0692 12.745C21.0692 13.6938 21.839 14.4629 22.7885 14.4629Z" fill="#07021B"/>
<path d="M19.1569 10.6883C20.0257 10.6883 20.7301 9.98453 20.7301 9.11637C20.7301 8.2482 20.0257 7.54442 19.1569 7.54442C18.288 7.54442 17.5836 8.2482 17.5836 9.11637C17.5836 9.98453 18.288 10.6883 19.1569 10.6883Z" fill="#07021B"/>
<path d="M15.5252 6.91846C16.316 6.91846 16.9571 6.27789 16.9571 5.48771C16.9571 4.69752 16.316 4.05695 15.5252 4.05695C14.7344 4.05695 14.0933 4.69752 14.0933 5.48771C14.0933 6.27789 14.7344 6.91846 15.5252 6.91846Z" fill="#07021B"/>
<path d="M10.9845 2.77209C11.1648 2.95277 11.3948 3.07592 11.6452 3.12594C11.8957 3.17597 12.1553 3.15062 12.3914 3.05311C12.6274 2.95561 12.8292 2.79032 12.9711 2.57818C13.1131 2.36604 13.1889 2.11659 13.1889 1.8614C13.1889 1.60621 13.1131 1.35675 12.9711 1.14461C12.8292 0.932473 12.6274 0.767188 12.3914 0.669681C12.1553 0.572174 11.8957 0.546828 11.6452 0.596853C11.3948 0.646878 11.1648 0.770024 10.9845 0.950701C10.7443 1.19305 10.6095 1.52033 10.6095 1.8614C10.6095 2.20246 10.7443 2.52974 10.9845 2.77209Z" fill="#07021B"/>
<path d="M19.1569 17.9409C20.0257 17.9409 20.7301 17.2371 20.7301 16.369C20.7301 15.5008 20.0257 14.797 19.1569 14.797C18.288 14.797 17.5836 15.5008 17.5836 16.369C17.5836 17.2371 18.288 17.9409 19.1569 17.9409Z" fill="#07021B"/>
<path d="M15.5252 14.1758C16.316 14.1758 16.9571 13.5352 16.9571 12.745C16.9571 11.9548 16.316 11.3143 15.5252 11.3143C14.7344 11.3143 14.0933 11.9548 14.0933 12.745C14.0933 13.5352 14.7344 14.1758 15.5252 14.1758Z" fill="#07021B"/>
<path d="M10.9845 10.0247C11.1648 10.2054 11.3948 10.3285 11.6452 10.3786C11.8957 10.4286 12.1554 10.4032 12.3914 10.3057C12.6274 10.2082 12.8292 10.0429 12.9711 9.8308C13.1131 9.61866 13.1889 9.3692 13.1889 9.11401C13.1889 8.85882 13.1131 8.60937 12.9711 8.39723C12.8292 8.18509 12.6274 8.0198 12.3914 7.9223C12.1554 7.82479 11.8957 7.79945 11.6452 7.84947C11.3948 7.89949 11.1648 8.02264 10.9845 8.20332C10.8644 8.32271 10.7691 8.46462 10.7041 8.6209C10.6391 8.77719 10.6057 8.94477 10.6057 9.11401C10.6057 9.28326 10.6391 9.45084 10.7041 9.60712C10.7691 9.76341 10.8644 9.90532 10.9845 10.0247Z" fill="#07021B"/>
<path d="M7.45172 6.29721C7.61189 6.45693 7.81584 6.56562 8.03781 6.60956C8.25978 6.6535 8.4898 6.63072 8.69881 6.54409C8.90783 6.45746 9.08646 6.31088 9.21213 6.12285C9.3378 5.93483 9.40487 5.7138 9.40487 5.4877C9.40487 5.26161 9.3378 5.04058 9.21213 4.85256C9.08646 4.66453 8.90783 4.51795 8.69881 4.43132C8.4898 4.34469 8.25978 4.32191 8.03781 4.36585C7.81584 4.40979 7.61189 4.51848 7.45172 4.6782C7.34519 4.78443 7.26067 4.91061 7.203 5.04951C7.14534 5.18842 7.11565 5.33732 7.11565 5.4877C7.11565 5.63809 7.14534 5.78699 7.203 5.9259C7.26067 6.0648 7.34519 6.19098 7.45172 6.29721Z" fill="#07021B"/>
<path d="M28.634 35.9289C28.9137 36.2094 29.2704 36.4006 29.6589 36.4783C30.0474 36.556 30.4503 36.5168 30.8165 36.3656C31.1827 36.2144 31.4957 35.9581 31.716 35.629C31.9363 35.2999 32.0539 34.9129 32.0539 34.517C32.0539 34.1211 31.9363 33.7341 31.716 33.405C31.4957 33.0759 31.1827 32.8196 30.8165 32.6684C30.4503 32.5172 30.0474 32.478 29.6589 32.5557C29.2704 32.6335 28.9137 32.8246 28.634 33.1051C28.2601 33.48 28.0501 33.9877 28.0501 34.517C28.0501 35.0463 28.2601 35.554 28.634 35.9289Z" fill="#07021B"/>
<path d="M10.9845 17.282C11.1648 17.4627 11.3948 17.5859 11.6452 17.6359C11.8957 17.6859 12.1554 17.6606 12.3914 17.5631C12.6274 17.4655 12.8292 17.3003 12.9711 17.0881C13.1131 16.876 13.1889 16.6265 13.1889 16.3713C13.1889 16.1161 13.1131 15.8667 12.9711 15.6546C12.8292 15.4424 12.6274 15.2771 12.3914 15.1796C12.1554 15.0821 11.8957 15.0568 11.6452 15.1068C11.3948 15.1568 11.1648 15.28 10.9845 15.4606C10.8644 15.58 10.7691 15.7219 10.7041 15.8782C10.6391 16.0345 10.6057 16.2021 10.6057 16.3713C10.6057 16.5406 10.6391 16.7082 10.7041 16.8644C10.7691 17.0207 10.8644 17.1626 10.9845 17.282Z" fill="#07021B"/>
<path d="M3.92369 24.337C4.06368 24.478 4.24243 24.5743 4.43728 24.6136C4.63212 24.653 4.83427 24.6336 5.01807 24.558C5.20187 24.4823 5.35905 24.3538 5.46965 24.1888C5.58026 24.0238 5.63931 23.8296 5.63931 23.631C5.63931 23.4324 5.58026 23.2383 5.46965 23.0732C5.35905 22.9082 5.20187 22.7797 5.01807 22.7041C4.83427 22.6284 4.63212 22.6091 4.43728 22.6484C4.24243 22.6877 4.06368 22.784 3.92369 22.925C3.7373 23.1128 3.63271 23.3666 3.63271 23.631C3.63271 23.8955 3.7373 24.1492 3.92369 24.337Z" fill="#07021B"/>
<path d="M7.45172 28.0645C7.61189 28.2242 7.81584 28.3329 8.03781 28.3768C8.25978 28.4208 8.4898 28.398 8.69881 28.3114C8.90783 28.2247 9.08646 28.0781 9.21213 27.8901C9.3378 27.7021 9.40487 27.4811 9.40487 27.255C9.40487 27.0289 9.3378 26.8078 9.21213 26.6198C9.08646 26.4318 8.90783 26.2852 8.69881 26.1986C8.4898 26.112 8.25978 26.0892 8.03781 26.1331C7.81584 26.1771 7.61189 26.2857 7.45172 26.4455C7.34519 26.5517 7.26067 26.6779 7.203 26.8168C7.14534 26.9557 7.11565 27.1046 7.11565 27.255C7.11565 27.4054 7.14534 27.5543 7.203 27.6932C7.26067 27.8321 7.34519 27.9582 7.45172 28.0645Z" fill="#07021B"/>
<path d="M10.9845 31.792C11.1648 31.9727 11.3948 32.0958 11.6452 32.1458C11.8957 32.1959 12.1554 32.1705 12.3914 32.073C12.6274 31.9755 12.8292 31.8102 12.9711 31.5981C13.1131 31.3859 13.1889 31.1365 13.1889 30.8813C13.1889 30.6261 13.1131 30.3766 12.9711 30.1645C12.8292 29.9524 12.6274 29.7871 12.3914 29.6896C12.1554 29.5921 11.8957 29.5667 11.6452 29.6167C11.3948 29.6668 11.1648 29.7899 10.9845 29.9706C10.8644 30.09 10.7691 30.2319 10.7041 30.3882C10.6391 30.5445 10.6057 30.712 10.6057 30.8813C10.6057 31.0505 10.6391 31.2181 10.7041 31.3744C10.7691 31.5307 10.8644 31.6726 10.9845 31.792Z" fill="#07021B"/>
<path d="M15.5252 35.9431C16.316 35.9431 16.9571 35.3025 16.9571 34.5123C16.9571 33.7221 16.316 33.0815 15.5252 33.0815C14.7344 33.0815 14.0933 33.7221 14.0933 34.5123C14.0933 35.3025 14.7344 35.9431 15.5252 35.9431Z" fill="#07021B"/>
<path d="M7.45172 13.5545C7.61189 13.7142 7.81584 13.8229 8.03781 13.8669C8.25978 13.9108 8.4898 13.888 8.69881 13.8014C8.90783 13.7148 9.08646 13.5682 9.21213 13.3802C9.3378 13.1922 9.40487 12.9711 9.40487 12.745C9.40487 12.5189 9.3378 12.2979 9.21213 12.1099C9.08646 11.9219 8.90783 11.7753 8.69881 11.6886C8.4898 11.602 8.25978 11.5792 8.03781 11.6232C7.81584 11.6671 7.61189 11.7758 7.45172 11.9355C7.34519 12.0418 7.26067 12.1679 7.203 12.3068C7.14534 12.4457 7.11565 12.5946 7.11565 12.745C7.11565 12.8954 7.14534 13.0443 7.203 13.1832C7.26067 13.3221 7.34519 13.4483 7.45172 13.5545Z" fill="#07021B"/>
<path d="M3.92369 9.82233C4.06368 9.96334 4.24243 10.0596 4.43728 10.099C4.63212 10.1383 4.83427 10.1189 5.01807 10.0433C5.20187 9.96767 5.35905 9.83919 5.46965 9.67416C5.58026 9.50912 5.63931 9.31498 5.63931 9.11637C5.63931 8.91775 5.58026 8.72361 5.46965 8.55858C5.35905 8.39354 5.20187 8.26506 5.01807 8.18943C4.83427 8.11379 4.63212 8.09442 4.43728 8.13376C4.24243 8.1731 4.06368 8.26939 3.92369 8.4104C3.7373 8.59816 3.63271 8.85191 3.63271 9.11637C3.63271 9.38083 3.7373 9.63457 3.92369 9.82233Z" fill="#07021B"/>
<path d="M25.1013 39.4541C25.363 39.7218 25.6986 39.9055 26.0653 39.9817C26.4319 40.0579 26.813 40.0233 27.1599 39.8821C27.5068 39.7409 27.8036 39.4996 28.0126 39.1891C28.2216 38.8786 28.3332 38.5128 28.3332 38.1386C28.3332 37.7644 28.2216 37.3986 28.0126 37.0881C27.8036 36.7776 27.5068 36.5363 27.1599 36.3951C26.813 36.254 26.4319 36.2193 26.0653 36.2955C25.6986 36.3718 25.363 36.5554 25.1013 36.8232C24.7575 37.1748 24.565 37.647 24.565 38.1386C24.565 38.6302 24.7575 39.1024 25.1013 39.4541Z" fill="#07021B"/>
<path d="M3.92369 17.0797C4.06368 17.2207 4.24243 17.317 4.43728 17.3563C4.63212 17.3956 4.83427 17.3763 5.01807 17.3006C5.20187 17.225 5.35905 17.0965 5.46965 16.9315C5.58026 16.7665 5.63931 16.5723 5.63931 16.3737C5.63931 16.1751 5.58026 15.9809 5.46965 15.8159C5.35905 15.6509 5.20187 15.5224 5.01807 15.4468C4.83427 15.3711 4.63212 15.3517 4.43728 15.3911C4.24243 15.4304 4.06368 15.5267 3.92369 15.6677C3.7373 15.8555 3.63271 16.1092 3.63271 16.3737C3.63271 16.6382 3.7373 16.8919 3.92369 17.0797Z" fill="#07021B"/>
<path d="M1.0033 21.0001C1.5574 21.0001 2.00659 20.5513 2.00659 19.9976C2.00659 19.444 1.5574 18.9952 1.0033 18.9952C0.449192 18.9952 0 19.444 0 19.9976C0 20.5513 0.449192 21.0001 1.0033 21.0001Z" fill="#07021B"/>
<path d="M19.1569 39.7082C20.0257 39.7082 20.7301 39.0044 20.7301 38.1363C20.7301 37.2681 20.0257 36.5643 19.1569 36.5643C18.288 36.5643 17.5836 37.2681 17.5836 38.1363C17.5836 39.0044 18.288 39.7082 19.1569 39.7082Z" fill="#07021B"/>
<path d="M0.29204 13.451C0.432027 13.592 0.610781 13.6883 0.805624 13.7276C1.00047 13.767 1.20261 13.7476 1.38642 13.672C1.57022 13.5963 1.7274 13.4679 1.838 13.3028C1.94861 13.1378 2.00765 12.9436 2.00765 12.745C2.00765 12.5464 1.94861 12.3523 1.838 12.1872C1.7274 12.0222 1.57022 11.8937 1.38642 11.8181C1.20261 11.7425 1.00047 11.7231 0.805624 11.7624C0.610781 11.8018 0.432027 11.898 0.29204 12.0391C0.105648 12.2268 0.00106049 12.4806 0.00106049 12.745C0.00106049 13.0095 0.105648 13.2632 0.29204 13.451Z" fill="#07021B"/>
<path d="M25.1013 32.1967C25.363 32.4644 25.6986 32.6481 26.0653 32.7244C26.4319 32.8006 26.813 32.7659 27.1599 32.6248C27.5068 32.4836 27.8036 32.2423 28.0126 31.9318C28.2216 31.6212 28.3332 31.2555 28.3332 30.8813C28.3332 30.5071 28.2216 30.1413 28.0126 29.8308C27.8036 29.5202 27.5068 29.279 27.1599 29.1378C26.813 28.9966 26.4319 28.962 26.0653 29.0382C25.6986 29.1144 25.363 29.2981 25.1013 29.5658C24.7575 29.9175 24.565 30.3897 24.565 30.8813C24.565 31.3729 24.7575 31.845 25.1013 32.1967Z" fill="#07021B"/>
<path d="M22.7885 28.9728C23.738 28.9728 24.5078 28.2037 24.5078 27.255C24.5078 26.3062 23.738 25.5371 22.7885 25.5371C21.839 25.5371 21.0692 26.3062 21.0692 27.255C21.0692 28.2037 21.839 28.9728 22.7885 28.9728Z" fill="#07021B"/>
<path d="M19.1569 25.1983C20.0257 25.1983 20.7301 24.4945 20.7301 23.6263C20.7301 22.7581 20.0257 22.0544 19.1569 22.0544C18.288 22.0544 17.5836 22.7581 17.5836 23.6263C17.5836 24.4945 18.288 25.1983 19.1569 25.1983Z" fill="#07021B"/>
<path d="M15.5252 21.4284C16.316 21.4284 16.9571 20.7878 16.9571 19.9976C16.9571 19.2075 16.316 18.5669 15.5252 18.5669C14.7344 18.5669 14.0933 19.2075 14.0933 19.9976C14.0933 20.7878 14.7344 21.4284 15.5252 21.4284Z" fill="#07021B"/>
<path d="M22.7885 36.2301C23.738 36.2301 24.5078 35.461 24.5078 34.5123C24.5078 33.5636 23.738 32.7944 22.7885 32.7944C21.839 32.7944 21.0692 33.5636 21.0692 34.5123C21.0692 35.461 21.839 36.2301 22.7885 36.2301Z" fill="#07021B"/>
<path d="M19.1569 32.4556C20.0257 32.4556 20.7301 31.7518 20.7301 30.8836C20.7301 30.0155 20.0257 29.3117 19.1569 29.3117C18.288 29.3117 17.5836 30.0155 17.5836 30.8836C17.5836 31.7518 18.288 32.4556 19.1569 32.4556Z" fill="#07021B"/>
<path d="M15.5252 28.6857C16.316 28.6857 16.9571 28.0452 16.9571 27.255C16.9571 26.4648 16.316 25.8242 15.5252 25.8242C14.7344 25.8242 14.0933 26.4648 14.0933 27.255C14.0933 28.0452 14.7344 28.6857 15.5252 28.6857Z" fill="#07021B"/>
<path d="M10.9845 24.5394C11.1648 24.72 11.3948 24.8432 11.6452 24.8932C11.8957 24.9432 12.1553 24.9179 12.3914 24.8204C12.6274 24.7229 12.8292 24.5576 12.9711 24.3454C13.1131 24.1333 13.1889 23.8839 13.1889 23.6287C13.1889 23.3735 13.1131 23.124 12.9711 22.9119C12.8292 22.6997 12.6274 22.5345 12.3914 22.4369C12.1553 22.3394 11.8957 22.3141 11.6452 22.3641C11.3948 22.4141 11.1648 22.5373 10.9845 22.718C10.7443 22.9603 10.6095 23.2876 10.6095 23.6287C10.6095 23.9697 10.7443 24.297 10.9845 24.5394Z" fill="#07021B"/>
<path d="M7.45172 20.8072C7.61189 20.9669 7.81584 21.0756 8.03781 21.1195C8.25978 21.1634 8.4898 21.1407 8.69881 21.054C8.90783 20.9674 9.08646 20.8208 9.21213 20.6328C9.3378 20.4448 9.40487 20.2237 9.40487 19.9976C9.40487 19.7716 9.3378 19.5505 9.21213 19.3625C9.08646 19.1745 8.90783 19.0279 8.69881 18.9413C8.4898 18.8546 8.25978 18.8319 8.03781 18.8758C7.81584 18.9197 7.61189 19.0284 7.45172 19.1881C7.34519 19.2944 7.26067 19.4205 7.203 19.5595C7.14534 19.6984 7.11565 19.8473 7.11565 19.9976C7.11565 20.148 7.14534 20.2969 7.203 20.4358C7.26067 20.5747 7.34519 20.7009 7.45172 20.8072Z" fill="#07021B"/>
<path d="M10.9845 39.0634C11.1648 39.2441 11.3948 39.3672 11.6452 39.4173C11.8957 39.4673 12.1554 39.4419 12.3914 39.3444C12.6274 39.2469 12.8292 39.0816 12.9711 38.8695C13.1131 38.6574 13.1889 38.4079 13.1889 38.1527C13.1889 37.8975 13.1131 37.6481 12.9711 37.4359C12.8292 37.2238 12.6274 37.0585 12.3914 36.961C12.1554 36.8635 11.8957 36.8382 11.6452 36.8882C11.3948 36.9382 11.1648 37.0614 10.9845 37.242C10.8644 37.3614 10.7691 37.5033 10.7041 37.6596C10.6391 37.8159 10.6057 37.9835 10.6057 38.1527C10.6057 38.322 10.6391 38.4895 10.7041 38.6458C10.7691 38.8021 10.8644 38.944 10.9845 39.0634Z" fill="#07021B"/>
<path d="M7.45172 35.3218C7.61189 35.4815 7.81584 35.5902 8.03781 35.6342C8.25978 35.6781 8.4898 35.6553 8.69881 35.5687C8.90783 35.4821 9.08646 35.3355 9.21213 35.1474C9.3378 34.9594 9.40487 34.7384 9.40487 34.5123C9.40487 34.2862 9.3378 34.0652 9.21213 33.8772C9.08646 33.6891 8.90783 33.5425 8.69881 33.4559C8.4898 33.3693 8.25978 33.3465 8.03781 33.3904C7.81584 33.4344 7.61189 33.5431 7.45172 33.7028C7.34519 33.809 7.26067 33.9352 7.203 34.0741C7.14534 34.213 7.11565 34.3619 7.11565 34.5123C7.11565 34.6627 7.14534 34.8116 7.203 34.9505C7.26067 35.0894 7.34519 35.2156 7.45172 35.3218Z" fill="#07021B"/>
<path d="M3.92369 31.5896C4.06368 31.7306 4.24243 31.8269 4.43728 31.8662C4.63212 31.9056 4.83427 31.8862 5.01807 31.8106C5.20187 31.7349 5.35905 31.6065 5.46965 31.4414C5.58026 31.2764 5.63931 31.0823 5.63931 30.8836C5.63931 30.685 5.58026 30.4909 5.46965 30.3258C5.35905 30.1608 5.20187 30.0323 5.01807 29.9567C4.83427 29.8811 4.63212 29.8617 4.43728 29.901C4.24243 29.9404 4.06368 30.0367 3.92369 30.1777C3.7373 30.3654 3.63271 30.6192 3.63271 30.8836C3.63271 31.1481 3.7373 31.4018 3.92369 31.5896Z" fill="#07021B"/>
<path d="M0.29204 27.9609C0.431745 28.1004 0.609678 28.1953 0.803351 28.2337C0.997024 28.2721 1.19774 28.2522 1.38014 28.1767C1.56253 28.1011 1.71842 27.9732 1.82809 27.8092C1.93776 27.6451 1.99629 27.4523 1.99629 27.255C1.99629 27.0577 1.93776 26.8648 1.82809 26.7008C1.71842 26.5367 1.56253 26.4088 1.38014 26.3333C1.19774 26.2577 0.997024 26.2379 0.803351 26.2763C0.609678 26.3147 0.431745 26.4096 0.29204 26.549C0.105648 26.7368 0.00106049 26.9905 0.00106049 27.255C0.00106049 27.5194 0.105648 27.7732 0.29204 27.9609Z" fill="#07021B"/>
<path d="M65.6477 13.451C65.7877 13.592 65.9664 13.6883 66.1613 13.7276C66.3561 13.767 66.5582 13.7476 66.742 13.672C66.9259 13.5963 67.083 13.4679 67.1936 13.3028C67.3042 13.1378 67.3633 12.9436 67.3633 12.745C67.3633 12.5464 67.3042 12.3523 67.1936 12.1872C67.083 12.0222 66.9259 11.8937 66.742 11.8181C66.5582 11.7425 66.3561 11.7231 66.1613 11.7624C65.9664 11.8018 65.7877 11.898 65.6477 12.0391C65.4613 12.2268 65.3567 12.4806 65.3567 12.745C65.3567 13.0095 65.4613 13.2632 65.6477 13.451Z" fill="#07021B"/>
<path d="M62.0207 9.82233C62.1604 9.96175 62.3384 10.0567 62.532 10.095C62.7257 10.1334 62.9264 10.1136 63.1088 10.0381C63.2912 9.96251 63.4471 9.83462 63.5568 9.67057C63.6664 9.50651 63.725 9.31365 63.725 9.11637C63.725 8.91908 63.6664 8.72622 63.5568 8.56217C63.4471 8.39811 63.2912 8.27023 63.1088 8.19467C62.9264 8.11912 62.7257 8.09929 62.532 8.13768C62.3384 8.17608 62.1604 8.27099 62.0207 8.4104C61.9279 8.50307 61.8542 8.61312 61.8039 8.73425C61.7537 8.85539 61.7278 8.98523 61.7278 9.11637C61.7278 9.2475 61.7537 9.37735 61.8039 9.49848C61.8542 9.61962 61.9279 9.72967 62.0207 9.82233Z" fill="#07021B"/>
<path d="M58.4079 6.19367C58.5476 6.33309 58.7256 6.42799 58.9192 6.46639C59.1129 6.50479 59.3136 6.48495 59.496 6.4094C59.6784 6.33384 59.8343 6.20596 59.944 6.0419C60.0536 5.87785 60.1122 5.68499 60.1122 5.4877C60.1122 5.29042 60.0536 5.09756 59.944 4.93351C59.8343 4.76945 59.6784 4.64156 59.496 4.56601C59.3136 4.49046 59.1129 4.47062 58.9192 4.50902C58.7256 4.54742 58.5476 4.64232 58.4079 4.78174C58.2215 4.9695 58.1169 5.22325 58.1169 5.4877C58.1169 5.75216 58.2215 6.00591 58.4079 6.19367Z" fill="#07021B"/>
<path d="M54.7574 2.56972C54.8974 2.71073 55.0762 2.80702 55.271 2.84636C55.4658 2.8857 55.668 2.86632 55.8518 2.79069C56.0356 2.71506 56.1928 2.58657 56.3034 2.42154C56.414 2.25651 56.473 2.06237 56.473 1.86375C56.473 1.66513 56.414 1.47099 56.3034 1.30596C56.1928 1.14093 56.0356 1.01244 55.8518 0.936809C55.668 0.861175 55.4658 0.8418 55.271 0.881142C55.0762 0.920484 54.8974 1.01677 54.7574 1.15778C54.571 1.34554 54.4664 1.59929 54.4664 1.86375C54.4664 2.12821 54.571 2.38196 54.7574 2.56972Z" fill="#07021B"/>
<path d="M62.7273 17.3715C63.2814 17.3715 63.7306 16.9226 63.7306 16.369C63.7306 15.8153 63.2814 15.3665 62.7273 15.3665C62.1732 15.3665 61.724 15.8153 61.724 16.369C61.724 16.9226 62.1732 17.3715 62.7273 17.3715Z" fill="#07021B"/>
<path d="M65.6477 20.7083C65.7877 20.8493 65.9664 20.9456 66.1613 20.985C66.3561 21.0243 66.5582 21.0049 66.742 20.9293C66.9259 20.8537 67.083 20.7252 67.1936 20.5601C67.3042 20.3951 67.3633 20.201 67.3633 20.0024C67.3633 19.8037 67.3042 19.6096 67.1936 19.4446C67.083 19.2795 66.9259 19.151 66.742 19.0754C66.5582 18.9998 66.3561 18.9804 66.1613 19.0197C65.9664 19.0591 65.7877 19.1554 65.6477 19.2964C65.4613 19.4841 65.3567 19.7379 65.3567 20.0024C65.3567 20.2668 65.4613 20.5206 65.6477 20.7083Z" fill="#07021B"/>
<path d="M58.4079 13.451C58.5479 13.592 58.7267 13.6883 58.9215 13.7276C59.1163 13.767 59.3185 13.7476 59.5023 13.672C59.6861 13.5963 59.8433 13.4679 59.9539 13.3028C60.0645 13.1378 60.1235 12.9436 60.1235 12.745C60.1235 12.5464 60.0645 12.3523 59.9539 12.1872C59.8433 12.0222 59.6861 11.8937 59.5023 11.8181C59.3185 11.7425 59.1163 11.7231 58.9215 11.7624C58.7267 11.8018 58.5479 11.898 58.4079 12.0391C58.2215 12.2268 58.1169 12.4806 58.1169 12.745C58.1169 13.0095 58.2215 13.2632 58.4079 13.451Z" fill="#07021B"/>
<path d="M54.7574 9.82233C54.8974 9.96334 55.0762 10.0596 55.271 10.099C55.4658 10.1383 55.668 10.1189 55.8518 10.0433C56.0356 9.96767 56.1928 9.83919 56.3034 9.67416C56.414 9.50912 56.473 9.31498 56.473 9.11637C56.473 8.91775 56.414 8.72361 56.3034 8.55858C56.1928 8.39354 56.0356 8.26506 55.8518 8.18943C55.668 8.11379 55.4658 8.09442 55.271 8.13376C55.0762 8.1731 54.8974 8.26939 54.7574 8.4104C54.571 8.59816 54.4664 8.85191 54.4664 9.11637C54.4664 9.38083 54.571 9.63457 54.7574 9.82233Z" fill="#07021B"/>
<path d="M51.8323 6.49018C52.3864 6.49018 52.8356 6.04136 52.8356 5.48771C52.8356 4.93406 52.3864 4.48524 51.8323 4.48524C51.2782 4.48524 50.829 4.93406 50.829 5.48771C50.829 6.04136 51.2782 6.49018 51.8323 6.49018Z" fill="#07021B"/>
<path d="M48.2054 2.86151C48.7595 2.86151 49.2087 2.41269 49.2087 1.85904C49.2087 1.30539 48.7595 0.856571 48.2054 0.856571C47.6513 0.856571 47.2021 1.30539 47.2021 1.85904C47.2021 2.41269 47.6513 2.86151 48.2054 2.86151Z" fill="#07021B"/>
<path d="M65.6477 27.9609C65.7874 28.1004 65.9653 28.1953 66.159 28.2337C66.3526 28.2721 66.5534 28.2522 66.7358 28.1767C66.9182 28.1011 67.074 27.9732 67.1837 27.8092C67.2934 27.6451 67.3519 27.4523 67.3519 27.255C67.3519 27.0577 67.2934 26.8648 67.1837 26.7008C67.074 26.5367 66.9182 26.4088 66.7358 26.3333C66.5534 26.2577 66.3526 26.2379 66.159 26.2763C65.9653 26.3147 65.7874 26.4096 65.6477 26.549C65.4613 26.7368 65.3567 26.9905 65.3567 27.255C65.3567 27.5194 65.4613 27.7732 65.6477 27.9609Z" fill="#07021B"/>
<path d="M54.7574 17.0797C54.8974 17.2207 55.0762 17.317 55.271 17.3563C55.4658 17.3956 55.668 17.3763 55.8518 17.3006C56.0356 17.225 56.1928 17.0965 56.3034 16.9315C56.414 16.7665 56.473 16.5723 56.473 16.3737C56.473 16.1751 56.414 15.9809 56.3034 15.8159C56.1928 15.6509 56.0356 15.5224 55.8518 15.4468C55.668 15.3711 55.4658 15.3517 55.271 15.3911C55.0762 15.4304 54.8974 15.5267 54.7574 15.6677C54.571 15.8555 54.4664 16.1092 54.4664 16.3737C54.4664 16.6382 54.571 16.8919 54.7574 17.0797Z" fill="#07021B"/>
<path d="M51.1258 13.451C51.2658 13.592 51.4445 13.6883 51.6394 13.7276C51.8342 13.767 52.0363 13.7476 52.2201 13.672C52.4039 13.5963 52.5611 13.4679 52.6717 13.3028C52.7823 13.1378 52.8414 12.9436 52.8414 12.745C52.8414 12.5464 52.7823 12.3523 52.6717 12.1872C52.5611 12.0222 52.4039 11.8937 52.2201 11.8181C52.0363 11.7425 51.8342 11.7231 51.6394 11.7624C51.4445 11.8018 51.2658 11.898 51.1258 12.0391C50.9394 12.2268 50.8348 12.4806 50.8348 12.745C50.8348 13.0095 50.9394 13.2632 51.1258 13.451Z" fill="#07021B"/>
<path d="M47.4941 9.82233C47.6341 9.96334 47.8129 10.0596 48.0077 10.099C48.2025 10.1383 48.4047 10.1189 48.5885 10.0433C48.7723 9.96767 48.9295 9.83919 49.0401 9.67416C49.1507 9.50912 49.2097 9.31498 49.2097 9.11637C49.2097 8.91775 49.1507 8.72361 49.0401 8.55858C48.9295 8.39354 48.7723 8.26506 48.5885 8.18943C48.4047 8.11379 48.2025 8.09442 48.0077 8.13376C47.8129 8.1731 47.6341 8.26939 47.4941 8.4104C47.3077 8.59816 47.2031 8.85191 47.2031 9.11637C47.2031 9.38083 47.3077 9.63457 47.4941 9.82233Z" fill="#07021B"/>
<path d="M43.8625 6.19367C44.0022 6.33309 44.1801 6.42799 44.3738 6.46639C44.5674 6.50479 44.7682 6.48495 44.9506 6.4094C45.133 6.33384 45.2888 6.20596 45.3985 6.0419C45.5082 5.87785 45.5667 5.68499 45.5667 5.4877C45.5667 5.29042 45.5082 5.09756 45.3985 4.93351C45.2888 4.76945 45.133 4.64156 44.9506 4.56601C44.7682 4.49046 44.5674 4.47062 44.3738 4.50902C44.1801 4.54742 44.0022 4.64232 43.8625 4.78174C43.6761 4.9695 43.5715 5.22325 43.5715 5.4877C43.5715 5.75216 43.6761 6.00591 43.8625 6.19367Z" fill="#07021B"/>
<path d="M40.9421 2.86151C41.4962 2.86151 41.9454 2.41269 41.9454 1.85904C41.9454 1.30539 41.4962 0.856571 40.9421 0.856571C40.388 0.856571 39.9388 1.30539 39.9388 1.85904C39.9388 2.41269 40.388 2.86151 40.9421 2.86151Z" fill="#07021B"/>
<path d="M62.0207 31.5896C62.1604 31.729 62.3384 31.8239 62.532 31.8623C62.7257 31.9007 62.9264 31.8809 63.1088 31.8053C63.2912 31.7298 63.4471 31.6019 63.5568 31.4378C63.6664 31.2738 63.725 31.0809 63.725 30.8836C63.725 30.6863 63.6664 30.4935 63.5568 30.3294C63.4471 30.1654 63.2912 30.0375 63.1088 29.9619C62.9264 29.8864 62.7257 29.8665 62.532 29.9049C62.3384 29.9433 62.1604 30.0382 62.0207 30.1777C61.9279 30.2703 61.8542 30.3804 61.8039 30.5015C61.7537 30.6226 61.7278 30.7525 61.7278 30.8836C61.7278 31.0148 61.7537 31.1446 61.8039 31.2657C61.8542 31.3869 61.9279 31.4969 62.0207 31.5896Z" fill="#07021B"/>
<path d="M48.2054 17.3715C48.7595 17.3715 49.2087 16.9226 49.2087 16.369C49.2087 15.8153 48.7595 15.3665 48.2054 15.3665C47.6513 15.3665 47.2021 15.8153 47.2021 16.369C47.2021 16.9226 47.6513 17.3715 48.2054 17.3715Z" fill="#07021B"/>
<path d="M43.8625 13.451C44.0024 13.592 44.1812 13.6883 44.376 13.7276C44.5709 13.767 44.773 13.7476 44.9568 13.672C45.1406 13.5963 45.2978 13.4679 45.4084 13.3028C45.519 13.1378 45.5781 12.9436 45.5781 12.745C45.5781 12.5464 45.519 12.3523 45.4084 12.1872C45.2978 12.0222 45.1406 11.8937 44.9568 11.8181C44.773 11.7425 44.5709 11.7231 44.376 11.7624C44.1812 11.8018 44.0024 11.898 43.8625 12.0391C43.6761 12.2268 43.5715 12.4806 43.5715 12.745C43.5715 13.0095 43.6761 13.2632 43.8625 13.451Z" fill="#07021B"/>
<path d="M40.2355 9.82233C40.3752 9.96175 40.5532 10.0567 40.7468 10.095C40.9405 10.1334 41.1412 10.1136 41.3236 10.0381C41.506 9.96251 41.6619 9.83462 41.7716 9.67057C41.8812 9.50651 41.9398 9.31365 41.9398 9.11637C41.9398 8.91908 41.8812 8.72622 41.7716 8.56217C41.6619 8.39811 41.506 8.27023 41.3236 8.19467C41.1412 8.11912 40.9405 8.09929 40.7468 8.13768C40.5532 8.17608 40.3752 8.27099 40.2355 8.4104C40.1426 8.50307 40.069 8.61312 40.0187 8.73425C39.9685 8.85539 39.9426 8.98523 39.9426 9.11637C39.9426 9.2475 39.9685 9.37735 40.0187 9.49848C40.069 9.61962 40.1426 9.72967 40.2355 9.82233Z" fill="#07021B"/>
<path d="M36.6039 6.19367C36.7436 6.33309 36.9215 6.42799 37.1152 6.46639C37.3088 6.50479 37.5096 6.48495 37.692 6.4094C37.8744 6.33384 38.0302 6.20596 38.1399 6.0419C38.2496 5.87785 38.3081 5.68499 38.3081 5.4877C38.3081 5.29042 38.2496 5.09756 38.1399 4.93351C38.0302 4.76945 37.8744 4.64156 37.692 4.56601C37.5096 4.49046 37.3088 4.47062 37.1152 4.50902C36.9215 4.54742 36.7436 4.64232 36.6039 4.78174C36.4175 4.9695 36.3129 5.22325 36.3129 5.4877C36.3129 5.75216 36.4175 6.00591 36.6039 6.19367Z" fill="#07021B"/>
<path d="M58.4079 35.2183C58.5479 35.3593 58.7267 35.4556 58.9215 35.4949C59.1163 35.5342 59.3185 35.5149 59.5023 35.4392C59.6861 35.3636 59.8433 35.2351 59.9539 35.0701C60.0645 34.9051 60.1235 34.7109 60.1235 34.5123C60.1235 34.3137 60.0645 34.1195 59.9539 33.9545C59.8433 33.7895 59.6861 33.661 59.5023 33.5854C59.3185 33.5097 59.1163 33.4903 58.9215 33.5297C58.7267 33.569 58.5479 33.6653 58.4079 33.8063C58.2215 33.9941 58.1169 34.2478 58.1169 34.5123C58.1169 34.7768 58.2215 35.0305 58.4079 35.2183Z" fill="#07021B"/>
<path d="M40.2355 31.5896C40.3752 31.729 40.5532 31.8239 40.7468 31.8623C40.9405 31.9007 41.1412 31.8809 41.3236 31.8053C41.506 31.7298 41.6619 31.6019 41.7716 31.4378C41.8812 31.2738 41.9398 31.0809 41.9398 30.8836C41.9398 30.6863 41.8812 30.4935 41.7716 30.3294C41.6619 30.1654 41.506 30.0375 41.3236 29.9619C41.1412 29.8864 40.9405 29.8665 40.7468 29.9049C40.5532 29.9433 40.3752 30.0382 40.2355 30.1777C40.1426 30.2703 40.069 30.3804 40.0187 30.5015C39.9685 30.6226 39.9426 30.7525 39.9426 30.8836C39.9426 31.0148 39.9685 31.1446 40.0187 31.2657C40.069 31.3869 40.1426 31.4969 40.2355 31.5896Z" fill="#07021B"/>
<path d="M43.8625 35.2183C44.0024 35.3593 44.1812 35.4556 44.376 35.4949C44.5709 35.5342 44.773 35.5149 44.9568 35.4392C45.1406 35.3636 45.2978 35.2351 45.4084 35.0701C45.519 34.9051 45.5781 34.7109 45.5781 34.5123C45.5781 34.3137 45.519 34.1195 45.4084 33.9545C45.2978 33.7895 45.1406 33.661 44.9568 33.5854C44.773 33.5097 44.5709 33.4903 44.376 33.5297C44.1812 33.569 44.0024 33.6653 43.8625 33.8063C43.6761 33.9941 43.5715 34.2478 43.5715 34.5123C43.5715 34.7768 43.6761 35.0305 43.8625 35.2183Z" fill="#07021B"/>
<path d="M54.7574 38.8469C54.8974 38.9879 55.0762 39.0842 55.271 39.1236C55.4658 39.1629 55.668 39.1435 55.8518 39.0679C56.0356 38.9923 56.1928 38.8638 56.3034 38.6988C56.414 38.5337 56.473 38.3396 56.473 38.141C56.473 37.9423 56.414 37.7482 56.3034 37.5832C56.1928 37.4181 56.0356 37.2897 55.8518 37.214C55.668 37.1384 55.4658 37.119 55.271 37.1584C55.0762 37.1977 54.8974 37.294 54.7574 37.435C54.571 37.6228 54.4664 37.8765 54.4664 38.141C54.4664 38.4054 54.571 38.6592 54.7574 38.8469Z" fill="#07021B"/>
<path d="M48.2054 39.1387C48.7595 39.1387 49.2087 38.6899 49.2087 38.1363C49.2087 37.5826 48.7595 37.1338 48.2054 37.1338C47.6513 37.1338 47.2021 37.5826 47.2021 38.1363C47.2021 38.6899 47.6513 39.1387 48.2054 39.1387Z" fill="#07021B"/>
<path d="M62.7273 24.6288C63.2814 24.6288 63.7306 24.18 63.7306 23.6263C63.7306 23.0727 63.2814 22.6238 62.7273 22.6238C62.1732 22.6238 61.724 23.0727 61.724 23.6263C61.724 24.18 62.1732 24.6288 62.7273 24.6288Z" fill="#07021B"/>
<path d="M58.4079 27.9609C58.5476 28.1004 58.7256 28.1953 58.9192 28.2337C59.1129 28.2721 59.3136 28.2522 59.496 28.1767C59.6784 28.1011 59.8343 27.9732 59.944 27.8092C60.0536 27.6451 60.1122 27.4523 60.1122 27.255C60.1122 27.0577 60.0536 26.8648 59.944 26.7008C59.8343 26.5367 59.6784 26.4088 59.496 26.3333C59.3136 26.2577 59.1129 26.2379 58.9192 26.2763C58.7256 26.3147 58.5476 26.4096 58.4079 26.549C58.2215 26.7368 58.1169 26.9905 58.1169 27.255C58.1169 27.5194 58.2215 27.7732 58.4079 27.9609Z" fill="#07021B"/>
<path d="M54.7574 24.337C54.8974 24.478 55.0762 24.5743 55.271 24.6136C55.4658 24.653 55.668 24.6336 55.8518 24.558C56.0356 24.4823 56.1928 24.3538 56.3034 24.1888C56.414 24.0238 56.473 23.8296 56.473 23.631C56.473 23.4324 56.414 23.2383 56.3034 23.0732C56.1928 22.9082 56.0356 22.7797 55.8518 22.7041C55.668 22.6284 55.4658 22.6091 55.271 22.6484C55.0762 22.6877 54.8974 22.784 54.7574 22.925C54.571 23.1128 54.4664 23.3666 54.4664 23.631C54.4664 23.8955 54.571 24.1492 54.7574 24.337Z" fill="#07021B"/>
<path d="M51.8323 21.0001C52.3864 21.0001 52.8356 20.5513 52.8356 19.9976C52.8356 19.444 52.3864 18.9952 51.8323 18.9952C51.2782 18.9952 50.829 19.444 50.829 19.9976C50.829 20.5513 51.2782 21.0001 51.8323 21.0001Z" fill="#07021B"/>
<path d="M58.4079 20.7083C58.5479 20.8493 58.7267 20.9456 58.9215 20.985C59.1163 21.0243 59.3185 21.0049 59.5023 20.9293C59.6861 20.8537 59.8433 20.7252 59.9539 20.5601C60.0645 20.3951 60.1235 20.201 60.1235 20.0024C60.1235 19.8037 60.0645 19.6096 59.9539 19.4446C59.8433 19.2795 59.6861 19.151 59.5023 19.0754C59.3185 18.9998 59.1163 18.9804 58.9215 19.0197C58.7267 19.0591 58.5479 19.1554 58.4079 19.2964C58.2215 19.4841 58.1169 19.7379 58.1169 20.0024C58.1169 20.2668 58.2215 20.5206 58.4079 20.7083Z" fill="#07021B"/>
<path d="M54.7574 31.5896C54.8974 31.7306 55.0762 31.8269 55.271 31.8662C55.4658 31.9056 55.668 31.8862 55.8518 31.8106C56.0356 31.7349 56.1928 31.6065 56.3034 31.4414C56.414 31.2764 56.473 31.0823 56.473 30.8836C56.473 30.685 56.414 30.4909 56.3034 30.3258C56.1928 30.1608 56.0356 30.0323 55.8518 29.9567C55.668 29.8811 55.4658 29.8617 55.271 29.901C55.0762 29.9404 54.8974 30.0367 54.7574 30.1777C54.571 30.3654 54.4664 30.6192 54.4664 30.8836C54.4664 31.1481 54.571 31.4018 54.7574 31.5896Z" fill="#07021B"/>
<path d="M51.1258 27.9609C51.2655 28.1004 51.4434 28.1953 51.6371 28.2337C51.8308 28.2721 52.0315 28.2522 52.2139 28.1767C52.3963 28.1011 52.5521 27.9732 52.6618 27.8092C52.7715 27.6451 52.83 27.4523 52.83 27.255C52.83 27.0577 52.7715 26.8648 52.6618 26.7008C52.5521 26.5367 52.3963 26.4088 52.2139 26.3333C52.0315 26.2577 51.8308 26.2379 51.6371 26.2763C51.4434 26.3147 51.2655 26.4096 51.1258 26.549C50.9394 26.7368 50.8348 26.9905 50.8348 27.255C50.8348 27.5194 50.9394 27.7732 51.1258 27.9609Z" fill="#07021B"/>
<path d="M48.2054 24.6288C48.7595 24.6288 49.2087 24.18 49.2087 23.6263C49.2087 23.0727 48.7595 22.6238 48.2054 22.6238C47.6513 22.6238 47.2021 23.0727 47.2021 23.6263C47.2021 24.18 47.6513 24.6288 48.2054 24.6288Z" fill="#07021B"/>
<path d="M51.8323 35.5148C52.3864 35.5148 52.8356 35.0659 52.8356 34.5123C52.8356 33.9586 52.3864 33.5098 51.8323 33.5098C51.2782 33.5098 50.829 33.9586 50.829 34.5123C50.829 35.0659 51.2782 35.5148 51.8323 35.5148Z" fill="#07021B"/>
<path d="M47.4941 31.5896C47.6341 31.7306 47.8129 31.8269 48.0077 31.8662C48.2025 31.9056 48.4047 31.8862 48.5885 31.8106C48.7723 31.7349 48.9295 31.6065 49.0401 31.4414C49.1507 31.2764 49.2097 31.0823 49.2097 30.8836C49.2097 30.685 49.1507 30.4909 49.0401 30.3258C48.9295 30.1608 48.7723 30.0323 48.5885 29.9567C48.4047 29.8811 48.2025 29.8617 48.0077 29.901C47.8129 29.9404 47.6341 30.0367 47.4941 30.1777C47.3077 30.3654 47.2031 30.6192 47.2031 30.8836C47.2031 31.1481 47.3077 31.4018 47.4941 31.5896Z" fill="#07021B"/>
<path d="M43.8625 27.9609C44.0022 28.1004 44.1801 28.1953 44.3738 28.2337C44.5674 28.2721 44.7682 28.2522 44.9506 28.1767C45.133 28.1011 45.2888 27.9732 45.3985 27.8092C45.5082 27.6451 45.5667 27.4523 45.5667 27.255C45.5667 27.0577 45.5082 26.8648 45.3985 26.7008C45.2888 26.5367 45.133 26.4088 44.9506 26.3333C44.7682 26.2577 44.5674 26.2379 44.3738 26.2763C44.1801 26.3147 44.0022 26.4096 43.8625 26.549C43.6761 26.7368 43.5715 26.9905 43.5715 27.255C43.5715 27.5194 43.6761 27.7732 43.8625 27.9609Z" fill="#07021B"/>
<path d="M40.9421 39.1387C41.4962 39.1387 41.9454 38.6899 41.9454 38.1363C41.9454 37.5826 41.4962 37.1338 40.9421 37.1338C40.388 37.1338 39.9388 37.5826 39.9388 38.1363C39.9388 38.6899 40.388 39.1387 40.9421 39.1387Z" fill="#07021B"/>
<path d="M36.6039 35.2183C36.7438 35.3593 36.9226 35.4556 37.1174 35.4949C37.3123 35.5342 37.5144 35.5149 37.6982 35.4392C37.882 35.3636 38.0392 35.2351 38.1498 35.0701C38.2604 34.9051 38.3195 34.7109 38.3195 34.5123C38.3195 34.3137 38.2604 34.1195 38.1498 33.9545C38.0392 33.7895 37.882 33.661 37.6982 33.5854C37.5144 33.5097 37.3123 33.4903 37.1174 33.5297C36.9226 33.569 36.7438 33.6653 36.6039 33.8063C36.4175 33.9941 36.3129 34.2478 36.3129 34.5123C36.3129 34.7768 36.4175 35.0305 36.6039 35.2183Z" fill="#07021B"/>
<path d="M25.1013 17.6868C25.363 17.9545 25.6986 18.1382 26.0653 18.2144C26.4319 18.2907 26.813 18.256 27.1599 18.1148C27.5068 17.9736 27.8036 17.7324 28.0126 17.4218C28.2216 17.1113 28.3332 16.7456 28.3332 16.3713C28.3332 15.9971 28.2216 15.6314 28.0126 15.3208C27.8036 15.0103 27.5068 14.769 27.1599 14.6279C26.813 14.4867 26.4319 14.452 26.0653 14.5282C25.6986 14.6045 25.363 14.7882 25.1013 15.0559C24.7575 15.4076 24.565 15.8797 24.565 16.3713C24.565 16.863 24.7575 17.3351 25.1013 17.6868Z" fill="#07021B"/>
<path d="M25.1013 24.9441C25.363 25.2118 25.6986 25.3955 26.0653 25.4718C26.4319 25.548 26.813 25.5133 27.1599 25.3721C27.5068 25.231 27.8036 24.9897 28.0126 24.6792C28.2216 24.3686 28.3332 24.0029 28.3332 23.6287C28.3332 23.2544 28.2216 22.8887 28.0126 22.5782C27.8036 22.2676 27.5068 22.0264 27.1599 21.8852C26.813 21.744 26.4319 21.7093 26.0653 21.7856C25.6986 21.8618 25.363 22.0455 25.1013 22.3132C24.7575 22.6649 24.565 23.137 24.565 23.6287C24.565 24.1203 24.7575 24.5924 25.1013 24.9441Z" fill="#07021B"/>
<path d="M22.7885 21.7155C23.738 21.7155 24.5078 20.9464 24.5078 19.9977C24.5078 19.0489 23.738 18.2798 22.7885 18.2798C21.839 18.2798 21.0692 19.0489 21.0692 19.9977C21.0692 20.9464 21.839 21.7155 22.7885 21.7155Z" fill="#07021B"/>
<path d="M40.9421 18.5151C42.1283 18.5151 43.09 17.5543 43.09 16.369C43.09 15.1837 42.1283 14.2228 40.9421 14.2228C39.7558 14.2228 38.7942 15.1837 38.7942 16.369C38.7942 17.5543 39.7558 18.5151 40.9421 18.5151Z" fill="#07021B"/>
<path d="M33.6788 25.7724C34.865 25.7724 35.8267 24.8116 35.8267 23.6263C35.8267 22.441 34.865 21.4802 33.6788 21.4802C32.4925 21.4802 31.5309 22.441 31.5309 23.6263C31.5309 24.8116 32.4925 25.7724 33.6788 25.7724Z" fill="#07021B"/>
<path d="M35.7984 28.7704C36.0983 29.0696 36.4802 29.2732 36.8958 29.3555C37.3114 29.4378 37.7422 29.3952 38.1336 29.2331C38.525 29.0709 38.8595 28.7964 39.0949 28.4443C39.3302 28.0922 39.4558 27.6784 39.4558 27.255C39.4558 26.8316 39.3302 26.4177 39.0949 26.0656C38.8595 25.7135 38.525 25.4391 38.1336 25.2769C37.7422 25.1147 37.3114 25.0721 36.8958 25.1544C36.4802 25.2368 36.0983 25.4404 35.7984 25.7395C35.599 25.9384 35.4408 26.1746 35.3329 26.4347C35.225 26.6947 35.1694 26.9735 35.1694 27.255C35.1694 27.5365 35.225 27.8152 35.3329 28.0753C35.4408 28.3353 35.599 28.5715 35.7984 28.7704Z" fill="#07021B"/>
<path d="M35.7984 14.2605C36.0988 14.5606 36.4815 14.7649 36.8982 14.8476C37.3148 14.9304 37.7466 14.8878 38.1391 14.7254C38.5315 14.5629 38.8669 14.2878 39.1029 13.9349C39.3389 13.582 39.4648 13.1671 39.4648 12.7427C39.4648 12.3182 39.3389 11.9033 39.1029 11.5504C38.8669 11.1975 38.5315 10.9224 38.1391 10.76C37.7466 10.5975 37.3148 10.555 36.8982 10.6377C36.4815 10.7205 36.0988 10.9248 35.7984 11.2249C35.5983 11.4238 35.4395 11.6604 35.3312 11.9208C35.2228 12.1813 35.167 12.4606 35.167 12.7427C35.167 13.0248 35.2228 13.304 35.3312 13.5645C35.4395 13.825 35.5983 14.0615 35.7984 14.2605Z" fill="#07021B"/>
<path d="M32.162 10.6318C32.4625 10.9319 32.8452 11.1362 33.2618 11.219C33.6784 11.3017 34.1103 11.2592 34.5027 11.0967C34.8951 10.9343 35.2305 10.6592 35.4665 10.3063C35.7025 9.95335 35.8285 9.53845 35.8285 9.11402C35.8285 8.68958 35.7025 8.27468 35.4665 7.92177C35.2305 7.56885 34.8951 7.29378 34.5027 7.13132C34.1103 6.96886 33.6784 6.92631 33.2618 7.00906C32.8452 7.0918 32.4625 7.29613 32.162 7.59619C31.9625 7.79549 31.8042 8.03211 31.6962 8.29254C31.5882 8.55297 31.5327 8.83211 31.5327 9.11402C31.5327 9.39592 31.5882 9.67506 31.6962 9.93549C31.8042 10.1959 31.9625 10.4325 32.162 10.6318Z" fill="#07021B"/>
<path d="M33.6788 18.5151C34.865 18.5151 35.8267 17.5543 35.8267 16.369C35.8267 15.1837 34.865 14.2228 33.6788 14.2228C32.4925 14.2228 31.5309 15.1837 31.5309 16.369C31.5309 17.5543 32.4925 18.5151 33.6788 18.5151Z" fill="#07021B"/>
<path d="M28.634 21.4143C28.9137 21.6947 29.2704 21.8859 29.6589 21.9636C30.0474 22.0414 30.4503 22.0022 30.8165 21.851C31.1827 21.6998 31.4957 21.4434 31.716 21.1143C31.9363 20.7853 32.0539 20.3983 32.0539 20.0024C32.0539 19.6064 31.9363 19.2194 31.716 18.8904C31.4957 18.5613 31.1827 18.3049 30.8165 18.1537C30.4503 18.0025 30.0474 17.9633 29.6589 18.0411C29.2704 18.1188 28.9137 18.31 28.634 18.5904C28.2601 18.9653 28.0501 19.4731 28.0501 20.0024C28.0501 20.5316 28.2601 21.0394 28.634 21.4143Z" fill="#07021B"/>
<path d="M28.634 14.157C28.9137 14.4374 29.2704 14.6286 29.6589 14.7063C30.0474 14.7841 30.4503 14.7449 30.8165 14.5937C31.1827 14.4425 31.4958 14.1861 31.716 13.857C31.9363 13.5279 32.0539 13.1409 32.0539 12.745C32.0539 12.3491 31.9363 11.9621 31.716 11.633C31.4958 11.304 31.1827 11.0476 30.8165 10.8964C30.4503 10.7452 30.0474 10.706 29.6589 10.7837C29.2704 10.8615 28.9137 11.0527 28.634 11.3331C28.4477 11.5181 28.2999 11.7381 28.199 11.9804C28.0981 12.2227 28.0462 12.4826 28.0462 12.745C28.0462 13.0075 28.0981 13.2673 28.199 13.5096C28.2999 13.7519 28.4477 13.9719 28.634 14.157Z" fill="#07021B"/>
<path d="M44.5737 22.1438C45.76 22.1438 46.7216 21.1829 46.7216 19.9976C46.7216 18.8124 45.76 17.8515 44.5737 17.8515C43.3875 17.8515 42.4258 18.8124 42.4258 19.9976C42.4258 21.1829 43.3875 22.1438 44.5737 22.1438Z" fill="#07021B"/>
<path d="M40.9421 25.7724C42.1283 25.7724 43.09 24.8116 43.09 23.6263C43.09 22.441 42.1283 21.4802 40.9421 21.4802C39.7558 21.4802 38.7942 22.441 38.7942 23.6263C38.7942 24.8116 39.7558 25.7724 40.9421 25.7724Z" fill="#07021B"/>
<path d="M35.7984 21.5178C36.0988 21.8179 36.4815 22.0222 36.8982 22.105C37.3148 22.1877 37.7466 22.1452 38.1391 21.9827C38.5315 21.8202 38.8669 21.5452 39.1029 21.1922C39.3389 20.8393 39.4648 20.4244 39.4648 20C39.4648 19.5756 39.3389 19.1607 39.1029 18.8078C38.8669 18.4548 38.5315 18.1798 38.1391 18.0173C37.7466 17.8548 37.3148 17.8123 36.8982 17.895C36.4815 17.9778 36.0988 18.1821 35.7984 18.4822C35.5983 18.6812 35.4395 18.9177 35.3312 19.1782C35.2228 19.4386 35.167 19.7179 35.167 20C35.167 20.2821 35.2228 20.5614 35.3312 20.8218C35.4395 21.0823 35.5983 21.3188 35.7984 21.5178Z" fill="#07021B"/>
<path d="M32.162 32.3991C32.4625 32.6992 32.8452 32.9035 33.2618 32.9862C33.6784 33.069 34.1103 33.0264 34.5027 32.864C34.8951 32.7015 35.2305 32.4265 35.4665 32.0735C35.7025 31.7206 35.8285 31.3057 35.8285 30.8813C35.8285 30.4569 35.7025 30.042 35.4665 29.689C35.2305 29.3361 34.8951 29.0611 34.5027 28.8986C34.1103 28.7361 33.6784 28.6936 33.2618 28.7763C32.8452 28.8591 32.4625 29.0634 32.162 29.3635C31.9625 29.5628 31.8042 29.7994 31.6962 30.0598C31.5882 30.3202 31.5327 30.5994 31.5327 30.8813C31.5327 31.1632 31.5882 31.4423 31.6962 31.7028C31.8042 31.9632 31.9625 32.1998 32.162 32.3991Z" fill="#07021B"/>
<path d="M28.634 28.6716C28.9137 28.952 29.2704 29.1432 29.6589 29.221C30.0474 29.2987 30.4503 29.2595 30.8165 29.1083C31.1827 28.9571 31.4957 28.7008 31.716 28.3717C31.9363 28.0426 32.0539 27.6556 32.0539 27.2597C32.0539 26.8638 31.9363 26.4768 31.716 26.1477C31.4957 25.8186 31.1827 25.5622 30.8165 25.411C30.4503 25.2599 30.0474 25.2206 29.6589 25.2984C29.2704 25.3761 28.9137 25.5673 28.634 25.8477C28.2601 26.2227 28.0501 26.7304 28.0501 27.2597C28.0501 27.789 28.2601 28.2967 28.634 28.6716Z" fill="#07021B"/>
<path d="M95.1201 14.8253C94.5995 13.7562 93.7447 12.8855 92.6849 12.345C91.4898 11.804 90.1858 11.5459 88.8745 11.5908C87.5633 11.6357 86.2801 11.9824 85.1248 12.6038C83.9712 13.2969 83.0447 14.3109 82.4588 15.5218C81.7861 16.9162 81.4535 18.4501 81.4885 19.9976V20.0259C81.4521 21.5731 81.783 23.1069 82.4541 24.5017C83.041 25.7131 83.9672 26.7284 85.1201 27.4244C86.2941 28.1086 87.6331 28.4586 88.992 28.4363C90.2664 28.5085 91.5377 28.2473 92.6802 27.6785C93.74 27.138 94.5948 26.2673 95.1154 25.1983V28.2386H98.5492V11.799H95.1154L95.1201 14.8253ZM92.6472 24.7511C91.8602 25.2049 90.965 25.4375 90.0565 25.4242C89.3799 25.4588 88.7036 25.3501 88.0721 25.1051C87.4405 24.8602 86.8679 24.4845 86.3919 24.0028C85.4781 23.0427 85.0212 21.7202 85.0212 20.0353C85.0212 18.3504 85.4922 17.0326 86.3919 16.0678C86.8629 15.5759 87.4333 15.1898 88.0651 14.935C88.6969 14.6802 89.3757 14.5626 90.0565 14.59C90.965 14.5766 91.8602 14.8092 92.6472 15.263C93.4127 15.7114 94.0388 16.363 94.456 17.1455C94.9106 18.0248 95.1388 19.0034 95.1201 19.9929C95.1349 20.9745 94.9068 21.9446 94.456 22.8168C94.0466 23.6184 93.4198 24.2887 92.6472 24.7511Z" fill="#07021B"/>
<path d="M103.829 15.2865V11.799H100.396V28.2386H103.829V20.1765C103.829 18.5057 104.301 17.3103 105.205 16.5808C106.254 15.8115 107.537 15.4274 108.837 15.4936H109.859V11.799C108.589 11.7743 107.337 12.1 106.241 12.7403C105.216 13.3487 104.381 14.2304 103.829 15.2865Z" fill="#07021B"/>
<path d="M125.224 24.737C124.87 24.3793 124.696 23.7346 124.696 22.798V14.6888H128.705V11.799H124.696V7.71385H121.229V11.799H114.805V7.71385H111.338V22.7415C111.338 24.7088 111.796 26.1207 112.713 26.9773C113.63 27.8339 114.971 28.2574 116.736 28.248H118.846V25.2736H117.188C116.302 25.2736 115.685 25.0947 115.332 24.737C114.979 24.3793 114.805 23.7346 114.805 22.798V14.6888H121.229V22.7415C121.229 24.7088 121.686 26.1207 122.6 26.9773C123.514 27.8339 124.855 28.2574 126.623 28.248H128.733V25.2736H127.075C126.194 25.2736 125.572 25.0947 125.224 24.737Z" fill="#07021B"/>
<path d="M154.301 20.0871L159.788 11.799H155.992L152.463 17.4609L148.483 11.799H144.597L150.141 19.6964L144.654 28.2292H148.483L152.04 22.412L156.109 28.2292H160L154.301 20.0871Z" fill="#07021B"/>
<path d="M141.488 22.5015C141.322 23.4301 140.796 24.2556 140.024 24.7982C139.174 25.3941 138.154 25.698 137.117 25.6642C135.901 25.7015 134.717 25.2624 133.82 24.4405C132.935 23.6279 132.464 22.3728 132.407 20.6754H145.191C145.508 18.8445 145.206 16.9603 144.334 15.3194C143.674 14.1534 142.693 13.2011 141.507 12.5756C140.183 11.9134 138.723 11.5686 137.242 11.5686C135.761 11.5686 134.301 11.9134 132.977 12.5756C131.745 13.2471 130.734 14.2605 130.066 15.4936C129.338 16.8714 128.975 18.412 129.011 19.9694C128.973 21.536 129.336 23.0863 130.066 24.4735C130.735 25.7068 131.746 26.7215 132.977 27.3962C134.291 28.0888 135.759 28.4369 137.244 28.408C138.541 28.4264 139.826 28.1664 141.013 27.6456C142.085 27.1819 143.027 26.4609 143.754 25.5465C144.46 24.6502 144.937 23.5953 145.144 22.4732L141.488 22.5015ZM133.891 15.5312C134.819 14.7087 136.028 14.2725 137.268 14.3123C138.083 14.3018 138.889 14.4806 139.623 14.8347C140.336 15.1823 140.925 15.741 141.309 16.4349C141.628 17.0141 141.813 17.6574 141.851 18.3174H132.501C132.625 17.2553 133.117 16.2698 133.891 15.5312Z" fill="#07021B"/>
</g>
<defs>
<clipPath id="clip0">
<rect width="160" height="40" fill="white"/>
</clipPath>
</defs>
</svg>
