<svg width="40" height="40" viewBox="0 0 40 40" fill="none" xmlns="http://www.w3.org/2000/svg">
<path d="M33.064 9.60014H26.02V5.64014H0V30.5681H5.304C5.52081 31.6405 6.10191 32.6049 6.94872 33.2976C7.79554 33.9904 8.85593 34.3688 9.95 34.3688C11.0441 34.3688 12.1045 33.9904 12.9513 33.2976C13.7981 32.6049 14.3792 31.6405 14.596 30.5681H27.06L27.756 30.6441C27.9889 31.7063 28.58 32.6561 29.43 33.3342C30.2801 34.0124 31.3375 34.3776 32.4248 34.3687C33.5122 34.3598 34.5635 33.9773 35.4023 33.2853C36.2411 32.5933 36.8165 31.634 37.032 30.5681H40V20.8921L33.064 9.60014ZM30.4 28.0001C30.5485 27.7343 30.7671 27.5143 31.032 27.3641C31.4224 27.1151 31.8731 26.9769 32.336 26.9641H32.4C32.8397 26.9652 33.2719 27.078 33.656 27.2921C34.1151 27.5578 34.4752 27.9659 34.6816 28.4545C34.888 28.9432 34.9296 29.4858 34.8 30.0001C34.6784 30.5087 34.3983 30.9654 34 31.3041C33.5967 31.6397 33.0959 31.8361 32.572 31.8641L32.38 31.9001C31.9652 31.8831 31.5614 31.7621 31.2056 31.5483C30.8498 31.3344 30.5536 31.0345 30.344 30.6761C30.1086 30.2673 29.9893 29.802 29.9992 29.3303C30.0091 28.8587 30.1477 28.3987 30.4 28.0001ZM32.46 24.4241C31.3634 24.4244 30.3009 24.8048 29.4533 25.5006C28.6058 26.1965 28.0258 27.1646 27.812 28.2401H26V11.8841H31.792L32.88 14.0001H28.4V21.6001H37.68V28.2641H37.088C36.876 27.1878 36.2972 26.2183 35.4504 25.521C34.6035 24.8237 33.541 24.4417 32.444 24.4401L32.46 24.4241ZM30.716 19.3081V16.3081H34.316L36.152 19.3081H30.716ZM23.72 12.7561V28.2641H14.644C14.4291 27.1896 13.8486 26.2227 13.0012 25.5279C12.1538 24.8332 11.0918 24.4535 9.996 24.4535C8.90019 24.4535 7.83822 24.8332 6.9908 25.5279C6.14338 26.2227 5.56285 27.1896 5.348 28.2641H2.332V21.4241H19.848V19.1161H2.332V7.91614H23.72V10.4361H17.36V12.7441L23.72 12.7561ZM12.36 30.0001C12.2435 30.5119 11.9625 30.9713 11.56 31.3081C11.1516 31.6417 10.6468 31.8352 10.12 31.8601L9.944 31.8881C9.53705 31.872 9.14021 31.7566 8.788 31.5521C8.41913 31.3393 8.11285 31.033 7.9 30.6641C7.67211 30.2635 7.55606 29.809 7.564 29.3481C7.57692 28.879 7.71502 28.4219 7.964 28.0241C8.11542 27.7568 8.33663 27.5356 8.604 27.3841C8.99549 27.1375 9.44555 26.9994 9.908 26.9841H9.976C10.4156 26.9857 10.8477 27.0985 11.232 27.3121C11.6893 27.5742 12.0499 27.9768 12.26 28.4601C12.462 28.9485 12.4971 29.4898 12.36 30.0001Z" fill="#E9484A"/>
</svg>
