<svg width="40" height="40" viewBox="0 0 40 40" fill="none" xmlns="http://www.w3.org/2000/svg">
<path d="M33.656 23.9202V18.1522H31.8921V0.28418H24.968V18.1522H23.2V23.9202C23.2 24.0522 16.8 39.7162 16.8 39.7162H40C40 39.7162 33.656 24.0522 33.656 23.9202ZM27.28 2.59218H29.6V18.1522H27.28V2.59218ZM25.516 20.4642H31.344V22.7642H25.516V20.4642ZM27.276 31.4682V37.4082H20.312L25.448 25.0762H31.412L36.548 37.4082H29.6V31.5122L27.276 31.4682Z" fill="#E9484A"/>
<path d="M18.108 14.6282L20.4 12.3202V0.28418H0V12.3202L2.312 14.6322L3.344 15.6642L5.656 17.9762H6.744V39.7162H13.676V17.9762H14.76L17.072 15.6642L18.108 14.6282ZM11.364 37.4282H9.052V26.7082H11.364V37.4282ZM11.364 24.4202H9.052V17.9762H11.364V24.4202ZM6.736 15.6642L2.312 11.2402V2.59218H18.108V11.2362L13.68 15.6642H6.736Z" fill="#E9484A"/>
</svg>
