<svg width="20" height="20" viewBox="0 0 20 20" fill="none" xmlns="http://www.w3.org/2000/svg">
<g clip-path="url(#clip0)">
<path d="M12.344 2.96802C12.344 2.50442 12.2065 2.05124 11.949 1.66577C11.6914 1.2803 11.3253 0.979863 10.897 0.802451C10.4687 0.625039 9.99741 0.57862 9.54271 0.669064C9.08802 0.759508 8.67036 0.982752 8.34255 1.31057C8.01473 1.63838 7.79149 2.05604 7.70105 2.51073C7.6106 2.96542 7.65702 3.43672 7.83443 3.86503C8.01184 4.29334 8.31228 4.65943 8.69775 4.91699C9.08322 5.17455 9.53641 5.31202 10 5.31202C10.6215 5.31149 11.2174 5.06437 11.6569 4.6249C12.0963 4.18543 12.3435 3.58953 12.344 2.96802Z" fill="#4E4A65"/>
<path d="M5.89796 12.344C5.89743 11.7225 5.6503 11.1266 5.21083 10.6871C4.77136 10.2477 4.17546 10.0005 3.55396 10C3.24614 10 2.94134 10.0606 2.65695 10.1784C2.37256 10.2962 2.11416 10.4689 1.8965 10.6865C1.67884 10.9042 1.50618 11.1626 1.38839 11.447C1.27059 11.7314 1.20996 12.0362 1.20996 12.344C1.20996 12.6518 1.27059 12.9566 1.38839 13.241C1.50618 13.5254 1.67884 13.7838 1.8965 14.0015C2.11416 14.2191 2.37256 14.3918 2.65695 14.5096C2.94134 14.6274 3.24614 14.688 3.55396 14.688C4.17546 14.6875 4.77136 14.4403 5.21083 14.0009C5.6503 13.5614 5.89743 12.9655 5.89796 12.344Z" fill="#4E4A65"/>
<path d="M18.518 15.2979C16.662 14.1879 14.834 14.7099 13.8 15.9239L10.6 13.7879V9.9999H13.516V8.49391C13.516 7.59191 12.916 6.4359 12.14 5.9599C9.376 4.24191 6.484 6.1999 6.484 8.8279V9.9999H9.414V13.7879L6.214 15.9239C5.17 14.7099 3.342 14.1879 1.486 15.2979C1.03234 15.5707 0.657036 15.9563 0.396627 16.4172C0.136219 16.8781 -0.000423988 17.3985 9.88274e-07 17.9279V19.3759H7.07V18.1999C7.06828 17.7615 6.98415 17.3273 6.822 16.9199L10 14.7999L13.178 16.9239C13.0163 17.33 12.9322 17.7628 12.93 18.1999V19.3719H20V17.9279C20.0008 17.3989 19.8648 16.8787 19.6051 16.4179C19.3454 15.957 18.9709 15.5712 18.518 15.2979Z" fill="#4E4A65"/>
<path d="M18.828 12.344C18.8186 11.7187 18.5634 11.1222 18.1176 10.6836C17.6719 10.245 17.0714 9.9994 16.446 10C16.1382 10 15.8334 10.0606 15.549 10.1784C15.2647 10.2962 15.0063 10.4689 14.7886 10.6865C14.5709 10.9042 14.3983 11.1626 14.2805 11.447C14.1627 11.7314 14.1021 12.0362 14.1021 12.344C14.1021 12.6518 14.1627 12.9566 14.2805 13.241C14.3983 13.5254 14.5709 13.7838 14.7886 14.0015C15.0063 14.2191 15.2647 14.3918 15.549 14.5096C15.8334 14.6274 16.1382 14.688 16.446 14.688C17.0714 14.6886 17.6719 14.443 18.1176 14.0044C18.5634 13.5658 18.8186 12.9693 18.828 12.344Z" fill="#4E4A65"/>
</g>
<defs>
<clipPath id="clip0">
<rect width="20" height="20" fill="white"/>
</clipPath>
</defs>
</svg>
