<svg width="16" height="16" viewBox="0 0 16 16" fill="none" xmlns="http://www.w3.org/2000/svg">
<path d="M15.9568 7.9232C15.8128 7.6656 12.3616 1.5872 8 1.5872C3.6384 1.5872 0.1872 7.6656 0.0432 7.9232L0 8L0.0432 8.0768C0.1872 8.3344 3.6384 14.4128 8 14.4128C12.3616 14.4128 15.8128 8.3328 15.9568 8.0768L16 8L15.9568 7.9232ZM14.5408 8C14.0192 8.824 11.104 13.1616 8 13.1616C6.1792 13.1616 4.4416 11.6704 3.3056 10.4192C2.62546 9.66428 2.00795 8.8552 1.4592 8C1.9808 7.176 4.896 2.8384 8 2.8384C9.8208 2.8384 11.5584 4.3296 12.6944 5.5808C13.3745 6.33573 13.992 7.1448 14.5408 8Z" fill="#07021B"/>
<path d="M8.00001 4.7152C7.35034 4.7152 6.71526 4.90785 6.17508 5.26879C5.63489 5.62973 5.21387 6.14274 4.96525 6.74296C4.71663 7.34318 4.65158 8.00365 4.77833 8.64083C4.90507 9.27802 5.21792 9.86332 5.67731 10.3227C6.1367 10.7821 6.72199 11.0949 7.35918 11.2217C7.99637 11.3484 8.65683 11.2834 9.25705 11.0348C9.85727 10.7861 10.3703 10.3651 10.7312 9.82494C11.0922 9.28476 11.2848 8.64967 11.2848 8C11.284 7.12908 10.9376 6.29407 10.3218 5.67823C9.70595 5.0624 8.87094 4.71605 8.00001 4.7152ZM8.00001 10.0336C7.59781 10.0336 7.20463 9.91433 6.8702 9.69088C6.53578 9.46742 6.27513 9.14982 6.12121 8.77823C5.96729 8.40664 5.92702 7.99775 6.00549 7.60327C6.08395 7.20879 6.27764 6.84643 6.56204 6.56203C6.84644 6.27762 7.2088 6.08394 7.60328 6.00548C7.99776 5.92701 8.40665 5.96728 8.77824 6.1212C9.14983 6.27512 9.46744 6.53577 9.69089 6.87019C9.91435 7.20462 10.0336 7.59779 10.0336 8C10.0332 8.53922 9.8188 9.05622 9.43752 9.43751C9.05624 9.81879 8.53923 10.0332 8.00001 10.0336Z" fill="#07021B"/>
</svg>
