<svg width="16" height="16" viewBox="0 0 16 16" fill="none" xmlns="http://www.w3.org/2000/svg">
<path d="M15.9568 7.92316C15.8128 7.66556 12.3616 1.58716 8 1.58716C3.6384 1.58716 0.1872 7.66556 0.0432 7.92316L0 7.99996L0.0432 8.07676C0.1872 8.33436 3.6384 14.4128 8 14.4128C12.3616 14.4128 15.8128 8.33276 15.9568 8.07676L16 7.99996L15.9568 7.92316ZM14.5408 7.99996C14.0192 8.82396 11.104 13.1616 8 13.1616C6.1792 13.1616 4.4416 11.6704 3.3056 10.4192C2.62546 9.66424 2.00795 8.85516 1.4592 7.99996C1.9808 7.17596 4.896 2.83836 8 2.83836C9.8208 2.83836 11.5584 4.32956 12.6944 5.58076C13.3745 6.33568 13.992 7.14476 14.5408 7.99996Z" fill="#4E4A65"/>
<path d="M8.00014 4.71521C7.35046 4.71521 6.71538 4.90786 6.1752 5.2688C5.63501 5.62974 5.21399 6.14275 4.96537 6.74297C4.71676 7.34319 4.65171 8.00365 4.77845 8.64084C4.90519 9.27803 5.21804 9.86333 5.67743 10.3227C6.13682 10.7821 6.72211 11.095 7.3593 11.2217C7.99649 11.3484 8.65696 11.2834 9.25717 11.0348C9.85739 10.7862 10.3704 10.3651 10.7313 9.82495C11.0923 9.28477 11.2849 8.64968 11.2849 8.00001C11.2841 7.12909 10.9377 6.29408 10.3219 5.67824C9.70607 5.06241 8.87106 4.71606 8.00014 4.71521Z" fill="#4E4A65"/>
</svg>
