<svg width="20" height="20" viewBox="0 0 20 20" fill="none" xmlns="http://www.w3.org/2000/svg">
<g clip-path="url(#clip0)">
<path d="M17 0H3C2.20435 0 1.44129 0.316071 0.87868 0.87868C0.316071 1.44129 0 2.20435 0 3L0 17C0 17.7957 0.316071 18.5587 0.87868 19.1213C1.44129 19.6839 2.20435 20 3 20H9.558V12.762H7.238V10.64H9.558V7.64C9.558 6.89739 9.853 6.1852 10.3781 5.6601C10.9032 5.135 11.6154 4.84 12.358 4.84H15.158V6.962H12.94C12.6062 6.962 12.286 7.09447 12.0498 7.33034C11.8135 7.5662 11.6805 7.88617 11.68 8.22V10.64H15.038L14.684 12.762H11.684V20H17C17.7957 20 18.5587 19.6839 19.1213 19.1213C19.6839 18.5587 20 17.7957 20 17V3C20 2.20435 19.6839 1.44129 19.1213 0.87868C18.5587 0.316071 17.7957 0 17 0V0ZM16.642 9.282H13.042V8.32H16.52V3.48H12.36C11.257 3.48106 10.1995 3.91968 9.41961 4.69961C8.63968 5.47953 8.20106 6.53702 8.2 7.64V9.282H5.878V14.122H8.2V18.642H3C2.56468 18.6415 2.14734 18.4683 1.83952 18.1605C1.5317 17.8527 1.35853 17.4353 1.358 17V3C1.35853 2.56468 1.5317 2.14734 1.83952 1.83952C2.14734 1.5317 2.56468 1.35853 3 1.358H17C17.4353 1.35853 17.8527 1.5317 18.1605 1.83952C18.4683 2.14734 18.6415 2.56468 18.642 3V17C18.6415 17.4353 18.4683 17.8527 18.1605 18.1605C17.8527 18.4683 17.4353 18.6415 17 18.642H13.038V14.122H15.838L16.642 9.282Z" fill="white"/>
</g>
<defs>
<clipPath id="clip0">
<rect width="20" height="20" fill="white"/>
</clipPath>
</defs>
</svg>
