<svg width="48" height="48" viewBox="0 0 48 48" fill="none" xmlns="http://www.w3.org/2000/svg">
<g clip-path="url(#clip0)">
<path d="M24.1801 46.6417C24.1153 46.7598 24.055 46.8693 23.9996 46.9697C23.9442 46.8693 23.8839 46.7598 23.8191 46.6417C23.4262 45.9264 22.8646 44.8953 22.1907 43.633C20.8426 41.108 19.0457 37.6595 17.2493 33.964C15.4522 30.267 13.6591 26.3301 12.3165 22.8265C10.9648 19.2992 10.0996 16.2848 10.0996 14.4C10.0996 10.7135 11.5641 7.17797 14.1708 4.57122C16.7776 1.96446 20.3131 0.5 23.9996 0.5C27.6861 0.5 31.2216 1.96446 33.8284 4.57122C36.4352 7.17797 37.8996 10.7135 37.8996 14.4C37.8996 16.2848 37.0344 19.2992 35.6827 22.8265C34.3401 26.3301 32.547 30.267 30.7499 33.964C28.9535 37.6595 27.1566 41.108 25.8085 43.633C25.1346 44.8953 24.573 45.9264 24.1801 46.6417ZM19.455 21.763C20.8002 22.6619 22.3818 23.1416 23.9996 23.1416C26.1691 23.1416 28.2497 22.2798 29.7837 20.7457C31.3178 19.2117 32.1796 17.1311 32.1796 14.9616C32.1796 13.3438 31.6999 11.7622 30.801 10.417C29.9022 9.07184 28.6247 8.02339 27.13 7.40427C25.6353 6.78514 23.9905 6.62315 22.4038 6.93878C20.817 7.2544 19.3595 8.03347 18.2155 9.17747C17.0715 10.3215 16.2924 11.779 15.9768 13.3658C15.6612 14.9525 15.8232 16.5972 16.4423 18.0919C17.0614 19.5866 18.1099 20.8642 19.455 21.763Z" fill="#A8D3FF" stroke="#2D8CFF"/>
</g>
<defs>
<clipPath id="clip0">
<rect width="48" height="48" fill="white"/>
</clipPath>
</defs>
</svg>
