<svg width="16" height="10" viewBox="0 0 16 10" fill="none" xmlns="http://www.w3.org/2000/svg">
<path fill-rule="evenodd" clip-rule="evenodd" d="M0.185049 4.56189C-0.0616829 4.80381 -0.0616831 5.19605 0.185049 5.43798C0.188984 5.44183 0.192957 5.44563 0.196969 5.44937L4.65295 9.81853C4.89968 10.0605 5.29971 10.0605 5.54644 9.81853C5.79318 9.57661 5.79317 9.18437 5.54644 8.94244L2.19568 5.65696L15.3432 5.65696C15.7061 5.65696 16.0003 5.36278 16.0003 4.9999C16.0003 4.63701 15.7061 4.34283 15.3432 4.34283L2.19545 4.34283L5.54602 1.05753C5.79276 0.815607 5.79276 0.423369 5.54602 0.181444C5.29929 -0.0604816 4.89926 -0.060481 4.65253 0.181444L0.185049 4.56189Z" fill="#0B0F30"/>
</svg>
