<svg width="40" height="40" viewBox="0 0 40 40" fill="none" xmlns="http://www.w3.org/2000/svg">
<path d="M34.9038 9.776L25.3838 0.26C25.218 0.0948212 24.9939 0.00144135 24.7598 0L8.10384 0C7.2385 0.00105852 6.40891 0.345283 5.79702 0.957173C5.18513 1.56906 4.8409 2.39866 4.83984 3.264V36.736C4.8409 37.6013 5.18513 38.4309 5.79702 39.0428C6.40891 39.6547 7.2385 39.9989 8.10384 40H31.8958C32.7612 39.9989 33.5908 39.6547 34.2027 39.0428C34.8146 38.4309 35.1588 37.6013 35.1598 36.736V10.4C35.1588 10.1659 35.0654 9.94159 34.8998 9.776H34.9038Z" fill="#A8D3FF"/>
<path d="M34.9038 9.776L25.3838 0.26C25.218 0.0948212 24.9939 0.00144135 24.7598 0L8.10384 0C7.2385 0.00105852 6.40891 0.345283 5.79702 0.957173C5.18513 1.56906 4.8409 2.39866 4.83984 3.264V36.736C4.8409 37.6013 5.18513 38.4309 5.79702 39.0428C6.40891 39.6547 7.2385 39.9989 8.10384 40H31.8958C32.7612 39.9989 33.5908 39.6547 34.2027 39.0428C34.8146 38.4309 35.1588 37.6013 35.1598 36.736V10.4C35.1588 10.1659 35.0654 9.94159 34.8998 9.776H34.9038ZM25.6438 3.024L32.1398 9.516H27.1398C26.7431 9.516 26.3626 9.35839 26.082 9.07783C25.8015 8.79728 25.6438 8.41676 25.6438 8.02V3.024ZM33.3918 36.736C33.3918 37.1328 33.2342 37.5133 32.9537 37.7938C32.6731 38.0744 32.2926 38.232 31.8958 38.232H8.10384C7.70708 38.232 7.32657 38.0744 7.04601 37.7938C6.76546 37.5133 6.60784 37.1328 6.60784 36.736V3.264C6.60784 2.86724 6.76546 2.48672 7.04601 2.20617C7.32657 1.92561 7.70708 1.768 8.10384 1.768H23.8718V8.024C23.8729 8.88934 24.2171 9.71894 24.829 10.3308C25.4409 10.9427 26.2705 11.2869 27.1358 11.288H33.3918V36.736Z" fill="#2D8CFF"/>
<path d="M12.8626 16.8C12.6276 16.8 12.4022 16.8934 12.2361 17.0596C12.0699 17.2257 11.9766 17.4511 11.9766 17.6861C11.9766 17.921 12.0699 18.1464 12.2361 18.3125C12.4022 18.4787 12.6276 18.5721 12.8626 18.5721H27.1426C27.3775 18.5721 27.6029 18.4787 27.7691 18.3125C27.9352 18.1464 28.0286 17.921 28.0286 17.6861C28.0286 17.4511 27.9352 17.2257 27.7691 17.0596C27.6029 16.8934 27.3775 16.8 27.1426 16.8H12.8626Z" fill="#2D8CFF"/>
<path d="M27.1426 21.572H12.8626C12.6276 21.572 12.4022 21.6654 12.2361 21.8315C12.0699 21.9977 11.9766 22.223 11.9766 22.458C11.9766 22.693 12.0699 22.9184 12.2361 23.0845C12.4022 23.2507 12.6276 23.344 12.8626 23.344H27.1426C27.3775 23.344 27.6029 23.2507 27.7691 23.0845C27.9352 22.9184 28.0286 22.693 28.0286 22.458C28.0286 22.223 27.9352 21.9977 27.7691 21.8315C27.6029 21.6654 27.3775 21.572 27.1426 21.572Z" fill="#2D8CFF"/>
<path d="M27.1426 26.3318H12.8626C12.6276 26.3318 12.4022 26.4251 12.2361 26.5913C12.0699 26.7574 11.9766 26.9828 11.9766 27.2178C11.9766 27.4528 12.0699 27.6781 12.2361 27.8443C12.4022 28.0104 12.6276 28.1038 12.8626 28.1038H27.1426C27.3775 28.1038 27.6029 28.0104 27.7691 27.8443C27.9352 27.6781 28.0286 27.4528 28.0286 27.2178C28.0286 26.9828 27.9352 26.7574 27.7691 26.5913C27.6029 26.4251 27.3775 26.3318 27.1426 26.3318Z" fill="#2D8CFF"/>
<path d="M22.3826 31.092H12.8626C12.6276 31.092 12.4022 31.1854 12.2361 31.3515C12.0699 31.5177 11.9766 31.7431 11.9766 31.978C11.9766 32.213 12.0699 32.4384 12.2361 32.6045C12.4022 32.7707 12.6276 32.864 12.8626 32.864H22.3826C22.6175 32.864 22.8429 32.7707 23.0091 32.6045C23.1752 32.4384 23.2686 32.213 23.2686 31.978C23.2686 31.7431 23.1752 31.5177 23.0091 31.3515C22.8429 31.1854 22.6175 31.092 22.3826 31.092Z" fill="#2D8CFF"/>
</svg>
