<svg width="16" height="16" viewBox="0 0 16 16" fill="none" xmlns="http://www.w3.org/2000/svg">
<g clip-path="url(#clip0)">
<path d="M13.6 0H2.4C1.76348 0 1.15303 0.252856 0.702944 0.702944C0.252856 1.15303 0 1.76348 0 2.4L0 13.6C0 14.2365 0.252856 14.847 0.702944 15.2971C1.15303 15.7471 1.76348 16 2.4 16H7.6464V10.2096H5.7904V8.512H7.6464V6.112C7.6464 5.51792 7.8824 4.94816 8.30248 4.52808C8.72256 4.108 9.29232 3.872 9.8864 3.872H12.1264V5.5696H10.352C10.0849 5.5696 9.82879 5.67558 9.6398 5.86427C9.45081 6.05296 9.34442 6.30894 9.344 6.576V8.512H12.0304L11.7472 10.2096H9.3472V16H13.6C14.2365 16 14.847 15.7471 15.2971 15.2971C15.7471 14.847 16 14.2365 16 13.6V2.4C16 1.76348 15.7471 1.15303 15.2971 0.702944C14.847 0.252856 14.2365 0 13.6 0V0ZM13.3136 7.4256H10.4336V6.656H13.216V2.784H9.888C9.00562 2.78485 8.15962 3.13575 7.53568 3.75968C6.91175 4.38362 6.56085 5.22962 6.56 6.112V7.4256H4.7024V11.2976H6.56V14.9136H2.4C2.05174 14.9132 1.71787 14.7746 1.47161 14.5284C1.22536 14.2821 1.08682 13.9483 1.0864 13.6V2.4C1.08682 2.05174 1.22536 1.71787 1.47161 1.47161C1.71787 1.22536 2.05174 1.08682 2.4 1.0864H13.6C13.9483 1.08682 14.2821 1.22536 14.5284 1.47161C14.7746 1.71787 14.9132 2.05174 14.9136 2.4V13.6C14.9132 13.9483 14.7746 14.2821 14.5284 14.5284C14.2821 14.7746 13.9483 14.9132 13.6 14.9136H10.4304V11.2976H12.6704L13.3136 7.4256Z" fill="#0B0F30"/>
</g>
<defs>
<clipPath id="clip0">
<rect width="16" height="16" fill="white"/>
</clipPath>
</defs>
</svg>
