<svg width="100" height="100" viewBox="0 0 100 100" fill="none" xmlns="http://www.w3.org/2000/svg">
<g clip-path="url(#clip0)">
<path d="M73.1503 48.57V50.57C73.1494 53.472 72.2402 56.3009 70.5503 58.66L66.3203 64.6V95.75C66.3203 96.1317 66.245 96.5096 66.0986 96.8621C65.9522 97.2146 65.7377 97.5347 65.4674 97.8042C65.197 98.0736 64.8762 98.287 64.5232 98.4321C64.1702 98.5773 63.792 98.6513 63.4103 98.65H33.2303C32.8486 98.6513 32.4705 98.5773 32.1175 98.4321C31.7645 98.287 31.4436 98.0736 31.1732 97.8042C30.9029 97.5347 30.6884 97.2146 30.542 96.8621C30.3957 96.5096 30.3203 96.1317 30.3203 95.75V27H73.1503V48.57Z" fill="#2D8CFF"/>
<path d="M93.6166 4.56C94.1868 4.56 94.7337 4.78652 95.1368 5.18972C95.5401 5.59292 95.7666 6.13978 95.7666 6.71V46.21C95.7666 46.7802 95.5401 47.3271 95.1368 47.7303C94.7337 48.1335 94.1868 48.36 93.6166 48.36H6.37656C5.80635 48.36 5.25949 48.1335 4.85628 47.7303C4.45308 47.3271 4.22656 46.7802 4.22656 46.21V6.71C4.22656 6.13978 4.45308 5.59292 4.85628 5.18972C5.25949 4.78652 5.80635 4.56 6.37656 4.56H93.6166Z" fill="#FED674"/>
<path d="M49.9995 38.26C47.4818 38.26 45.0206 37.5134 42.9271 36.1146C40.8337 34.7158 39.2021 32.7277 38.2386 30.4016C37.275 28.0754 37.023 25.5159 37.5141 23.0465C38.0053 20.5771 39.2177 18.3088 40.9981 16.5285C42.7784 14.7482 45.0467 13.5358 47.516 13.0446C49.9854 12.5534 52.545 12.8055 54.8711 13.769C57.1972 14.7325 59.1854 16.3641 60.5842 18.4576C61.9829 20.551 62.7295 23.0122 62.7295 25.53C62.7269 28.9054 61.3848 32.1418 58.9981 34.5285C56.6113 36.9153 53.3749 38.2573 49.9995 38.26ZM49.9995 15.32C47.9782 15.322 46.0029 15.9233 44.3233 17.0479C42.6437 18.1726 41.3354 19.77 40.5637 21.6382C39.792 23.5064 39.5916 25.5615 39.9879 27.5436C40.3842 29.5257 41.3593 31.3458 42.79 32.7737C44.2207 34.2016 46.0427 35.1732 48.0255 35.5656C50.0084 35.958 52.0631 35.7536 53.9298 34.9782C55.7965 34.2029 57.3914 32.8914 58.5127 31.2096C59.6341 29.5278 60.2315 27.5513 60.2295 25.53C60.2282 24.1879 59.9626 22.8592 59.4478 21.6197C58.9329 20.3803 58.179 19.2544 57.2291 18.3063C56.2792 17.3582 55.1518 16.6065 53.9113 16.0941C52.6709 15.5817 51.3416 15.3187 49.9995 15.32Z" fill="#0B0F30"/>
<path d="M67.6178 4.68999V10.45C67.6178 11.7575 67.0984 13.0115 66.1739 13.936C65.2493 14.8606 63.9953 15.38 62.6878 15.38C61.3803 15.38 60.1263 14.8606 59.2018 13.936C58.2772 13.0115 57.7578 11.7575 57.7578 10.45V4.68999C57.7578 3.80417 58.1097 2.95463 58.7361 2.32825C59.3624 1.70188 60.212 1.34999 61.0978 1.34999H64.2778C64.7168 1.34867 65.1517 1.43416 65.5575 1.60154C65.9634 1.76893 66.3321 2.0149 66.6425 2.32531C66.9529 2.63572 67.1989 3.00444 67.3663 3.41027C67.5337 3.81609 67.6191 4.25101 67.6178 4.68999Z" fill="#2D8CFF"/>
<path d="M57.7623 10.45V12.45C57.7623 13.7575 57.2429 15.0115 56.3184 15.936C55.3938 16.8606 54.1399 17.38 52.8323 17.38C51.5248 17.38 50.2709 16.8606 49.3463 15.936C48.4218 15.0115 47.9023 13.7575 47.9023 12.45V4.68999C47.9023 3.80417 48.2542 2.95463 48.8806 2.32825C49.507 1.70188 50.3565 1.34999 51.2423 1.34999H54.4223C54.8613 1.34867 55.2962 1.43416 55.7021 1.60154C56.1079 1.76893 56.4766 2.0149 56.787 2.32531C57.0974 2.63572 57.3434 3.00444 57.5108 3.41027C57.6782 3.81609 57.7637 4.25101 57.7623 4.68999V10.45Z" fill="#2D8CFF"/>
<path d="M47.903 12.49V14.15C47.903 15.4575 47.3836 16.7115 46.459 17.636C45.5344 18.5606 44.2805 19.08 42.973 19.08C41.6655 19.08 40.4115 18.5606 39.4869 17.636C38.5624 16.7115 38.043 15.4575 38.043 14.15V4.68998C38.043 3.80415 38.3949 2.95461 39.0212 2.32824C39.6476 1.70187 40.4971 1.34998 41.383 1.34998H44.563C45.0016 1.34998 45.4359 1.43637 45.8411 1.60422C46.2464 1.77207 46.6146 2.01809 46.9247 2.32824C47.2349 2.63839 47.4809 3.00659 47.6487 3.41181C47.8166 3.81704 47.903 4.25136 47.903 4.68998V12.49Z" fill="#2D8CFF"/>
<path d="M38.0006 4.68998V12.49C38.0006 13.7975 37.4812 15.0515 36.5567 15.976C35.6321 16.9006 34.3781 17.42 33.0706 17.42C31.7631 17.42 30.5091 16.9006 29.5846 15.976C28.66 15.0515 28.1406 13.7975 28.1406 12.49V4.68998C28.1406 3.80415 28.4925 2.95461 29.1189 2.32824C29.7453 1.70187 30.5948 1.34998 31.4806 1.34998H34.7006C35.5803 1.3579 36.4211 1.7136 37.0394 2.3394C37.6578 2.9652 38.0033 3.81025 38.0006 4.68998Z" fill="#2D8CFF"/>
<path d="M45.4099 67.68C45.4102 68.6453 45.2175 69.6008 44.843 70.4905C44.4686 71.3802 43.9201 72.186 43.2296 72.8605C42.5392 73.5351 41.7209 74.0648 40.8228 74.4185C39.9247 74.7722 38.9649 74.9427 37.9999 74.92L30.3099 74.75L23.5899 68C21.6668 66.0695 20.5879 63.455 20.5899 60.73V34.88C20.5812 33.3786 21.1581 31.9329 22.1982 30.8499C23.2382 29.7669 24.6594 29.132 26.1599 29.08C26.9193 29.0614 27.6748 29.1947 28.3819 29.4721C29.0891 29.7496 29.7336 30.1656 30.2777 30.6957C30.8218 31.2258 31.2544 31.8593 31.5501 32.559C31.8459 33.2587 31.9988 34.0104 31.9999 34.77V46.88C31.9979 47.2675 32.1401 47.6418 32.3989 47.9302C32.6577 48.2186 33.0145 48.4003 33.3999 48.44C36.7008 48.7977 39.753 50.3628 41.9699 52.8344C44.1868 55.306 45.412 58.5098 45.4099 61.83V67.68Z" fill="#2D8CFF"/>
<path d="M93.6189 3.22001H68.7289V3.13001C68.4033 2.21125 67.8001 1.41646 67.0028 0.855675C66.2056 0.294893 65.2536 -0.00412979 64.2789 1.02644e-05H61.0989C59.8848 -0.00115085 58.7184 0.472595 57.8489 1.32001L57.7589 1.40001L57.6689 1.32001C56.7994 0.472595 55.633 -0.00115085 54.4189 1.02644e-05H51.2389C50.0282 0.00145634 48.8659 0.47501 47.9989 1.32001L47.9089 1.40001L47.8189 1.32001C46.947 0.470172 45.7765 -0.00376718 44.5589 1.02644e-05H41.3789C40.1648 -0.00115085 38.9984 0.472595 38.1289 1.32001L37.9989 1.40001V1.32001C37.1171 0.460394 35.9303 -0.0143241 34.6989 1.02644e-05H31.5189C30.5493 0.00207873 29.604 0.303985 28.8127 0.864343C28.0214 1.4247 27.4228 2.21608 27.0989 3.13001V3.22001H6.37891C5.45238 3.22001 4.56365 3.58738 3.90756 4.2416C3.25147 4.89581 2.88155 5.78349 2.87891 6.71001V46.21C2.87891 47.1383 3.24766 48.0285 3.90403 48.6849C4.56041 49.3413 5.45065 49.71 6.37891 49.71H19.2389V60.71C19.2243 62.2487 19.5176 63.7748 20.1015 65.1985C20.6854 66.6221 21.5481 67.9147 22.6389 69L28.9989 75.3V98.65C28.9962 99.0037 29.1335 99.3441 29.3808 99.597C29.628 99.8499 29.9653 99.9947 30.3189 100H66.3189C66.4957 100 66.6708 99.965 66.834 99.897C66.9972 99.8291 67.1454 99.7295 67.27 99.604C67.3945 99.4785 67.493 99.3296 67.5598 99.1659C67.6265 99.0021 67.6602 98.8268 67.6589 98.65V65L71.6589 59.48C73.5148 56.8918 74.5085 53.7848 74.4989 50.6V49.71H93.6189C94.5472 49.71 95.4374 49.3413 96.0938 48.6849C96.7502 48.0285 97.1189 47.1383 97.1189 46.21V6.71001C97.1163 5.78349 96.7463 4.89581 96.0902 4.2416C95.4342 3.58738 94.5454 3.22001 93.6189 3.22001ZM59.1089 4.69001C59.1089 4.15958 59.3196 3.65087 59.6947 3.2758C60.0698 2.90072 60.5785 2.69001 61.1089 2.69001H64.2889C64.8193 2.69001 65.328 2.90072 65.7031 3.2758C66.0782 3.65087 66.2889 4.15958 66.2889 4.69001V10.45C66.2404 11.3681 65.8415 12.2325 65.1745 12.8652C64.5075 13.4979 63.6232 13.8506 62.7039 13.8506C61.7846 13.8506 60.9003 13.4979 60.2333 12.8652C59.5663 12.2325 59.1674 11.3681 59.1189 10.45L59.1089 4.69001ZM49.2489 4.69001C49.2489 4.15958 49.4596 3.65087 49.8347 3.2758C50.2098 2.90072 50.7185 2.69001 51.2489 2.69001H54.4289C54.9593 2.69001 55.468 2.90072 55.8431 3.2758C56.2182 3.65087 56.4289 4.15958 56.4289 4.69001V12.48C56.4546 12.9667 56.381 13.4536 56.2124 13.9109C56.0439 14.3682 55.7839 14.7864 55.4485 15.1401C55.1131 15.4937 54.7092 15.7753 54.2614 15.9677C53.8136 16.1602 53.3313 16.2594 52.8439 16.2594C52.3565 16.2594 51.8742 16.1602 51.4264 15.9677C50.9786 15.7753 50.5747 15.4937 50.2393 15.1401C49.9039 14.7864 49.644 14.3682 49.4754 13.9109C49.3069 13.4536 49.2332 12.9667 49.2589 12.48L49.2489 4.69001ZM39.3889 4.69001C39.3889 4.15958 39.5996 3.65087 39.9747 3.2758C40.3498 2.90072 40.8585 2.69001 41.3889 2.69001H44.5689C45.0993 2.69001 45.608 2.90072 45.9831 3.2758C46.3582 3.65087 46.5689 4.15958 46.5689 4.69001V14.15C46.5689 15.0995 46.1917 16.0101 45.5203 16.6814C44.849 17.3528 43.9384 17.73 42.9889 17.73C42.0394 17.73 41.1288 17.3528 40.4575 16.6814C39.7861 16.0101 39.4089 15.0995 39.4089 14.15L39.3889 4.69001ZM29.5289 4.69001C29.5289 4.15958 29.7396 3.65087 30.1147 3.2758C30.4898 2.90072 30.9985 2.69001 31.5289 2.69001H34.6989C35.2293 2.69001 35.738 2.90072 36.1131 3.2758C36.4882 3.65087 36.6989 4.15958 36.6989 4.69001V12.48C36.6989 13.4295 36.3217 14.3401 35.6503 15.0115C34.979 15.6828 34.0684 16.06 33.1189 16.06C32.1694 16.06 31.2588 15.6828 30.5875 15.0115C29.9161 14.3401 29.5389 13.4295 29.5389 12.48L29.5289 4.69001ZM19.2389 47H6.37891C6.273 47 6.16815 46.979 6.07043 46.9382C5.97271 46.8973 5.88407 46.8375 5.80966 46.7622C5.73524 46.6868 5.67652 46.5974 5.63691 46.4992C5.5973 46.401 5.57758 46.2959 5.57891 46.19V6.71001C5.57891 6.49784 5.66319 6.29435 5.81322 6.14432C5.96325 5.9943 6.16673 5.91001 6.37891 5.91001H26.8289V9.10001H14.4189C14.2421 9.10001 14.067 9.13499 13.9038 9.20296C13.7406 9.27093 13.5924 9.37052 13.4678 9.49602C13.3433 9.62151 13.2448 9.77041 13.178 9.93414C13.1113 10.0979 13.0776 10.2732 13.0789 10.45C13.0789 11.2457 12.7628 12.0087 12.2002 12.5713C11.6376 13.1339 10.8746 13.45 10.0789 13.45C9.90125 13.4487 9.7251 13.4827 9.56071 13.5501C9.39632 13.6174 9.24697 13.7168 9.12135 13.8424C8.99572 13.9681 8.89633 14.1174 8.82896 14.2818C8.76158 14.4462 8.72757 14.6224 8.72891 14.8V38.17C8.72891 38.528 8.87114 38.8714 9.12431 39.1246C9.37749 39.3778 9.72086 39.52 10.0789 39.52C10.8746 39.52 11.6376 39.8361 12.2002 40.3987C12.7628 40.9613 13.0789 41.7244 13.0789 42.52C13.0789 42.696 13.1136 42.8702 13.1809 43.0328C13.2482 43.1954 13.347 43.3431 13.4714 43.4675C13.5958 43.592 13.7435 43.6907 13.9061 43.758C14.0687 43.8253 14.2429 43.86 14.4189 43.86H19.2389V47ZM19.2389 34.75V41.11H15.6089V41.02C15.3525 40.0605 14.8478 39.1856 14.1456 38.4834C13.4433 37.7811 12.5684 37.2764 11.6089 37.02H11.5089V15.94H11.6089C12.5675 15.6818 13.4414 15.1764 14.1434 14.4745C14.8453 13.7725 15.3507 12.8986 15.6089 11.94V11.84H26.8289V12.53C26.8259 13.7429 27.1747 14.9305 27.8331 15.9491C28.4914 16.9677 29.4311 17.7735 30.5382 18.2689C31.6453 18.7642 32.8723 18.9278 34.0705 18.7399C35.2687 18.5519 36.3866 18.0205 37.2889 17.21L37.4089 17.1L37.4889 17.24C38.029 18.2267 38.8246 19.05 39.7922 19.6235C40.7599 20.1969 41.8641 20.4995 42.9889 20.4995C44.1138 20.4995 45.2179 20.1969 46.1856 19.6235C47.1532 19.05 47.9488 18.2267 48.4889 17.24L48.5589 17.1L48.6789 17.21C49.3982 17.8547 50.2568 18.3244 51.1875 18.5826C52.1183 18.8408 53.0961 18.8804 54.0448 18.6985C54.9934 18.5165 55.8871 18.1178 56.6563 17.5335C57.4254 16.9492 58.0492 16.1951 58.4789 15.33L58.5489 15.18L58.6689 15.29C59.4922 15.9745 60.4768 16.4371 61.5292 16.6339C62.5816 16.8307 63.6669 16.7552 64.6819 16.4145C65.6969 16.0739 66.608 15.4793 67.3286 14.6874C68.0491 13.8955 68.5553 12.9326 68.7989 11.89V11.79H84.3889V11.89C84.6471 12.8486 85.1525 13.7225 85.8544 14.4245C86.5564 15.1264 87.4304 15.6318 88.3889 15.89H88.4889V37H88.3889C87.4294 37.2564 86.5545 37.7611 85.8522 38.4634C85.15 39.1656 84.6453 40.0405 84.3889 41V41.09H33.2889V34.77C33.2889 32.9135 32.5514 31.133 31.2387 29.8203C29.9259 28.5075 28.1454 27.77 26.2889 27.77C24.4324 27.77 22.6519 28.5075 21.3392 29.8203C20.0264 31.133 19.2889 32.9135 19.2889 34.77L19.2389 34.75ZM71.8089 50.6C71.8079 53.2222 70.9861 55.7784 69.4589 57.91L65.2189 63.82C65.058 64.0484 64.9707 64.3206 64.9689 64.6V97.31H31.6689V74.75C31.6769 74.5645 31.6454 74.3794 31.5764 74.207C31.5075 74.0346 31.4026 73.8788 31.2689 73.75L24.5389 67.02C23.7096 66.19 23.0521 65.2045 22.6043 64.12C22.1564 63.0355 21.9269 61.8733 21.9289 60.7V34.7C21.9007 34.1132 21.9919 33.5268 22.1971 32.9763C22.4022 32.4258 22.717 31.9227 23.1223 31.4974C23.5276 31.0722 24.015 30.7336 24.5551 30.5023C25.0951 30.271 25.6764 30.1517 26.2639 30.1517C26.8514 30.1517 27.4327 30.271 27.9727 30.5023C28.5128 30.7336 29.0002 31.0722 29.4055 31.4974C29.8108 31.9227 30.1256 32.4258 30.3307 32.9763C30.5359 33.5268 30.6271 34.1132 30.5989 34.7V48.36C30.5974 48.542 30.6329 48.7224 30.7034 48.8902C30.7738 49.0579 30.8777 49.2096 31.0087 49.3359C31.1397 49.4623 31.2951 49.5606 31.4653 49.6249C31.6356 49.6892 31.8171 49.7182 31.9989 49.71C35.203 49.7285 38.2699 51.0129 40.5309 53.2833C42.7919 55.5537 44.0637 58.6258 44.0689 61.83V62.77C44.0528 62.9564 44.0756 63.1441 44.1359 63.3212C44.1962 63.4982 44.2927 63.6609 44.4191 63.7987C44.5456 63.9366 44.6993 64.0466 44.8706 64.1219C45.0418 64.1972 45.2268 64.2361 45.4139 64.2361C45.601 64.2361 45.786 64.1972 45.9572 64.1219C46.1285 64.0466 46.2822 63.9366 46.4087 63.7987C46.5352 63.6609 46.6316 63.4982 46.6919 63.3212C46.7522 63.1441 46.775 62.9564 46.7589 62.77V61.83C46.7519 59.5181 46.206 57.2397 45.1644 55.1757C44.1229 53.1117 42.6145 51.319 40.7589 49.94L40.4589 49.71H71.8089V50.6ZM94.4189 46.21C94.4202 46.3159 94.4005 46.421 94.3609 46.5192C94.3213 46.6174 94.2626 46.7068 94.1881 46.7822C94.1137 46.8575 94.0251 46.9173 93.9274 46.9582C93.8297 46.999 93.7248 47.02 93.6189 47.02H33.2889V43.82H85.5789C85.9352 43.8174 86.276 43.674 86.527 43.4211C86.7781 43.1682 86.9189 42.8263 86.9189 42.47C86.9189 41.6744 87.235 40.9113 87.7976 40.3487C88.3602 39.7861 89.1233 39.47 89.9189 39.47C90.2769 39.47 90.6203 39.3278 90.8735 39.0746C91.1267 38.8214 91.2689 38.4781 91.2689 38.12V14.76C91.2702 14.5824 91.2362 14.4062 91.1688 14.2418C91.1015 14.0774 91.0021 13.9281 90.8765 13.8024C90.7508 13.6768 90.6015 13.5774 90.4371 13.5101C90.2727 13.4427 90.0966 13.4087 89.9189 13.41C89.1233 13.41 88.3602 13.0939 87.7976 12.5313C87.235 11.9687 86.9189 11.2057 86.9189 10.41C86.9111 10.0598 86.7664 9.72667 86.516 9.48182C86.2655 9.23697 85.9292 9.09992 85.5789 9.10001H68.9989V5.91001H93.6189C93.8311 5.91001 94.0346 5.9943 94.1846 6.14432C94.3346 6.29435 94.4189 6.49784 94.4189 6.71001V46.21Z" fill="#0B0F30"/>
</g>
<defs>
<clipPath id="clip0">
<rect width="100" height="100" fill="white"/>
</clipPath>
</defs>
</svg>
