<svg width="100" height="100" viewBox="0 0 100 100" fill="none" xmlns="http://www.w3.org/2000/svg">
<g clip-path="url(#clip0)">
<path d="M69.58 13.8C65.6017 13.8 61.7864 15.3804 58.9734 18.1934C56.1603 21.0065 54.58 24.8218 54.58 28.8V29C54.6163 31.5316 55.2928 34.0128 56.5465 36.2125C57.8002 38.4122 59.5903 40.2587 61.75 41.58C62.5914 42.01 63.3018 42.6583 63.8067 43.457C64.3117 44.2557 64.5925 45.1755 64.62 46.12V53H74.5399V46.13C74.5632 45.1858 74.8413 44.2654 75.3447 43.4662C75.8482 42.667 76.5583 42.0188 77.3999 41.59C80.1856 39.8832 82.3379 37.3135 83.5296 34.2716C84.7213 31.2296 84.8873 27.8818 84.0023 24.7369C83.1174 21.592 81.2299 18.822 78.6267 16.848C76.0235 14.8739 72.847 13.8037 69.58 13.8Z" fill="#FED674"/>
<path d="M64.62 57.83C64.62 58.3604 64.8307 58.8691 65.2058 59.2442C65.5809 59.6193 66.0896 59.83 66.62 59.83H72.5C73.0304 59.83 73.5391 59.6193 73.9142 59.2442C74.2893 58.8691 74.5 58.3604 74.5 57.83V53H64.62V57.83Z" fill="#FED674"/>
<path d="M70 59.86H66.65C66.1196 59.86 65.6109 59.6493 65.2358 59.2742C64.8607 58.8991 64.65 58.3904 64.65 57.86V46.13C64.6226 45.1854 64.3417 44.2657 63.8368 43.4669C63.3319 42.6682 62.6215 42.0199 61.78 41.59C59.6133 40.2713 57.8164 38.4248 56.5573 36.223C55.2981 34.0212 54.6178 31.5361 54.58 29C49.2057 25.5632 42.9593 23.7378 36.58 23.74C20.32 23.75 0.82002 39.24 7.09002 54.33C7.94002 56.38 2.77002 64.23 2.77002 66.56C2.77002 68.09 7.90002 70.22 8.10002 71.63C8.79002 76.5 6.94002 83.33 9.10002 86.4C12.72 91.62 16.64 89.52 28.36 89.52C32.59 88.86 31.5 98.78 33.95 98.78H62.24C61.06 95.08 56.03 84.9 58.5 82.78C65.217 76.9641 69.3528 68.7213 70 59.86Z" fill="#2D8CFF"/>
<path d="M69.58 8.10004C69.9045 8.0974 70.2147 7.96665 70.4433 7.73626C70.6718 7.50588 70.8 7.19453 70.8 6.87004V1.22004C70.7723 0.914249 70.6313 0.629861 70.4046 0.422762C70.178 0.215663 69.882 0.10083 69.575 0.10083C69.2679 0.10083 68.972 0.215663 68.7453 0.422762C68.5187 0.629861 68.3776 0.914249 68.35 1.22004V6.87004C68.35 7.19625 68.4796 7.50911 68.7102 7.73978C68.9409 7.97045 69.2538 8.10004 69.58 8.10004Z" fill="#0B0F30"/>
<path d="M97.23 27.65H91.58C91.2742 27.6777 90.9898 27.8187 90.7827 28.0454C90.5756 28.2721 90.4608 28.568 90.4608 28.875C90.4608 29.1821 90.5756 29.478 90.7827 29.7047C90.9898 29.9313 91.2742 30.0724 91.58 30.1H97.23C97.5358 30.0724 97.8201 29.9313 98.0272 29.7047C98.2343 29.478 98.3492 29.1821 98.3492 28.875C98.3492 28.568 98.2343 28.2721 98.0272 28.0454C97.8201 27.8187 97.5358 27.6777 97.23 27.65Z" fill="#0B0F30"/>
<path d="M80 10.88C80.2817 11.0317 80.6109 11.0696 80.9197 10.9859C81.2285 10.9022 81.4935 10.7032 81.66 10.43L84.49 5.54002C84.5709 5.40078 84.6231 5.24681 84.6438 5.08711C84.6644 4.92742 84.6529 4.76522 84.61 4.61002C84.5676 4.45004 84.4911 4.30111 84.3858 4.1734C84.2805 4.04569 84.1489 3.9422 84 3.87002C83.8609 3.78951 83.7073 3.73729 83.5479 3.71634C83.3886 3.69539 83.2267 3.70613 83.0715 3.74795C82.9163 3.78976 82.7709 3.86183 82.6437 3.96C82.5164 4.05818 82.4098 4.18052 82.33 4.32002L79.52 9.21002C79.4407 9.35091 79.3902 9.50616 79.3714 9.66675C79.3526 9.82733 79.366 9.99005 79.4106 10.1454C79.4553 10.3008 79.5304 10.4458 79.6316 10.5719C79.7328 10.698 79.858 10.8027 80 10.88Z" fill="#0B0F30"/>
<path d="M89.24 18.93L94.1401 16.11C94.2782 16.028 94.3987 15.9195 94.4948 15.7908C94.5909 15.6621 94.6607 15.5157 94.7 15.36C94.745 15.2067 94.7576 15.0458 94.7369 14.8874C94.7163 14.729 94.6629 14.5766 94.5801 14.44C94.4153 14.162 94.1478 13.96 93.8353 13.8776C93.5228 13.7953 93.1904 13.8393 92.9101 14L88 16.82C87.8611 16.8999 87.7392 17.0063 87.6414 17.1333C87.5436 17.2603 87.4718 17.4053 87.43 17.56C87.3679 17.7931 87.3763 18.0394 87.4542 18.2678C87.532 18.4961 87.6758 18.6963 87.8674 18.8429C88.059 18.9895 88.2898 19.0761 88.5305 19.0916C88.7713 19.1071 89.0112 19.0509 89.22 18.93H89.24Z" fill="#0B0F30"/>
<path d="M45.0001 16.11L49.8901 18.93C50.1716 19.0856 50.5022 19.1267 50.8133 19.0447C51.1243 18.9628 51.3918 18.7641 51.5601 18.49C51.72 18.2084 51.7624 17.8752 51.6782 17.5625C51.5939 17.2499 51.3898 16.9831 51.1101 16.82L46.2401 14C46.0545 13.8937 45.844 13.8385 45.6301 13.84C45.524 13.8247 45.4162 13.8247 45.3101 13.84C45.1544 13.8796 45.0085 13.9506 44.8813 14.0486C44.754 14.1467 44.6481 14.2696 44.5701 14.41C44.484 14.5491 44.4268 14.7041 44.4018 14.8658C44.3768 15.0275 44.3846 15.1925 44.4248 15.3511C44.4649 15.5097 44.5365 15.6586 44.6353 15.789C44.7342 15.9194 44.8582 16.0285 45.0001 16.11Z" fill="#0B0F30"/>
<path d="M94.1399 41.64L89.2399 38.82C88.9584 38.6601 88.6251 38.6177 88.3125 38.7019C87.9999 38.7862 87.733 38.9903 87.57 39.27C87.4114 39.5492 87.3683 39.8794 87.45 40.19C87.4896 40.3456 87.5606 40.4916 87.6586 40.6188C87.7566 40.746 87.8796 40.8519 88.0199 40.93L92.91 43.76C93.1926 43.9147 93.5242 43.9543 93.8353 43.8705C94.1465 43.7866 94.4133 43.5858 94.5799 43.31C94.6627 43.1734 94.7162 43.021 94.7368 42.8626C94.7575 42.7042 94.7449 42.5433 94.6999 42.39C94.6606 42.2343 94.5908 42.0879 94.4947 41.9592C94.3986 41.8305 94.2781 41.722 94.1399 41.64Z" fill="#0B0F30"/>
<path d="M82 48C81.8957 47.827 81.7493 47.6831 81.5745 47.5817C81.3997 47.4803 81.2021 47.4247 81 47.42C80.7864 47.4208 80.5765 47.4759 80.39 47.58C80.2514 47.6607 80.13 47.7679 80.0328 47.8955C79.9356 48.0231 79.8646 48.1687 79.8237 48.3238C79.7828 48.4789 79.773 48.6406 79.7946 48.7995C79.8163 48.9584 79.8691 49.1115 79.95 49.25L82.36 53.44C82.5283 53.7142 82.7958 53.9129 83.1068 53.9948C83.4179 54.0768 83.7485 54.0357 84.03 53.88C84.1715 53.8034 84.2954 53.698 84.3936 53.5705C84.4917 53.4431 84.5621 53.2964 84.6 53.14C84.6424 52.9848 84.6536 52.8227 84.633 52.6631C84.6124 52.5034 84.5604 52.3495 84.4801 52.21L82 48Z" fill="#0B0F30"/>
<path d="M57.52 10.43C57.6866 10.7032 57.9515 10.9022 58.2603 10.9859C58.5692 11.0696 58.8983 11.0317 59.18 10.88C59.3195 10.8002 59.4419 10.6936 59.54 10.5664C59.6382 10.4391 59.7103 10.2937 59.7521 10.1385C59.7939 9.98336 59.8047 9.82145 59.7837 9.66211C59.7628 9.50276 59.7105 9.34912 59.63 9.21002L56.81 4.32002C56.6482 4.03889 56.3814 3.83355 56.0682 3.74915C55.755 3.66476 55.4212 3.70824 55.14 3.87002C54.8589 4.0318 54.6536 4.29864 54.5692 4.61182C54.4848 4.92501 54.5282 5.25889 54.69 5.54002L57.52 10.43Z" fill="#0B0F30"/>
<path d="M85.79 28.8C85.8065 24.7442 84.3009 20.8297 81.5709 17.8301C78.8409 14.8306 75.085 12.9642 71.0455 12.5998C67.006 12.2355 62.9768 13.3996 59.7541 15.8622C56.5313 18.3248 54.3496 21.9067 53.64 25.9L53.45 26.9L52.54 26.42C47.595 23.8588 42.1089 22.5182 36.54 22.51C25.95 22.51 14.04 28.83 8.23 37.51C4.51 43.11 3.69 49.19 5.91 54.67L5.97 54.81V55C5.97 56 4.89 58.31 3.72 60.77C2.37 63.59 1.56 65.38 1.56 66.59C1.56 68.03 3.09 69.09 4.86 70.3C5.51437 70.7192 6.13614 71.1872 6.72 71.7L6.91 71.89V72.15C7.05995 74.0571 7.05995 75.973 6.91 77.88C6.71 81.49 6.53 84.88 8.07 87.13C11.14 91.56 14.56 91.37 20.77 91.03C22.91 90.91 25.33 90.77 28.33 90.77H28.52H28.73H28.89L29.12 90.85C29.76 91.2 30.19 92.31 30.83 95.24C31.015 96.2198 31.2792 97.183 31.62 98.12C32.13 99.39 32.91 100.04 33.92 100.04H62.24C62.4342 100.041 62.6259 99.996 62.7996 99.9091C62.9732 99.8223 63.1241 99.6959 63.24 99.54C63.3544 99.3857 63.4304 99.2063 63.4617 99.0168C63.493 98.8272 63.4787 98.633 63.42 98.45C63.14 97.58 62.68 96.45 62.14 95.04C61.27 92.86 60.32 90.48 59.7 88.31C58.92 85.58 59.03 84.44 59.16 84.01L59.23 83.81L59.39 83.67C65.8526 78.0673 70.019 70.2758 71.09 61.79L71.18 61.12H72.5C73.3629 61.12 74.1906 60.778 74.8017 60.1687C75.4127 59.5595 75.7574 58.7329 75.76 57.87V46.24C75.7669 45.4909 75.9795 44.758 76.3745 44.1214C76.7695 43.4848 77.3318 42.9689 78 42.63C80.3813 41.1927 82.3502 39.1637 83.7152 36.7403C85.0803 34.3169 85.795 31.5815 85.79 28.8ZM68.57 62C67.4565 69.7102 63.5965 76.7591 57.7 81.85C55.33 83.85 57.17 89.16 59.82 95.85L60.5 97.57H34L33.82 97.07C33.567 96.2895 33.36 95.4948 33.2 94.69C32.9713 93.2531 32.5683 91.8495 32 90.51C31.7212 89.7796 31.2045 89.1643 30.5333 88.7634C29.862 88.3624 29.0753 88.1992 28.3 88.3C25.2 88.3 22.68 88.45 20.64 88.56C14.23 88.92 12.28 88.88 10.08 85.71C9 84.18 9.19 81 9.36 78C9.56582 75.8316 9.56582 73.6485 9.36 71.48C9.19 70.28 7.85 69.35 6.29 68.29C5.58983 67.84 4.92157 67.3422 4.29 66.8L4 66.49L4.12 66.05C4.63174 64.5898 5.24318 63.1665 5.95 61.79C7.81 57.89 8.9 55.4 8.26 53.86C5.74 47.8 7.97 42.38 10.26 38.86C15.56 31 26.85 25 36.53 25C42.3445 25.0017 48.0512 26.57 53.05 29.54L53.39 29.75V30.14C53.5799 32.6877 54.3772 35.1529 55.7151 37.3293C57.053 39.5058 58.8926 41.3302 61.08 42.65C61.7481 42.9743 62.3141 43.4761 62.7162 44.1004C63.1183 44.7248 63.341 45.4477 63.36 46.19V57.83C63.3627 58.6929 63.7073 59.5195 64.3184 60.1287C64.9294 60.738 65.7571 61.08 66.62 61.08H68.62L68.57 62ZM73.31 58.64H72.5H65.89V57.83V54.22H73.36L73.31 58.64ZM73.31 51.82H65.84V47.35H73.31V51.82ZM76.76 40.6C76.0117 40.9973 75.3492 41.5384 74.8104 42.1922C74.2716 42.846 73.8671 43.5996 73.62 44.41L73.46 44.96H65.69L65.53 44.41C65.283 43.5996 64.8784 42.846 64.3396 42.1922C63.8008 41.5384 63.1383 40.9973 62.39 40.6C59.8266 39.0337 57.8453 36.6726 56.7477 33.8762C55.6501 31.0798 55.4964 28.0013 56.31 25.1095C57.1236 22.2177 58.8599 19.6709 61.2545 17.857C63.6491 16.0431 66.5709 15.0615 69.575 15.0615C72.5791 15.0615 75.5009 16.0431 77.8955 17.857C80.2902 19.6709 82.0265 22.2177 82.84 25.1095C83.6536 28.0013 83.4999 31.0798 82.4023 33.8762C81.3047 36.6726 79.3234 39.0337 76.76 40.6Z" fill="#0B0F30"/>
</g>
<defs>
<clipPath id="clip0">
<rect width="100" height="100" fill="white"/>
</clipPath>
</defs>
</svg>
