<svg width="32" height="32" viewBox="0 0 32 32" fill="none" xmlns="http://www.w3.org/2000/svg">
<g clip-path="url(#clip0)">
<path d="M22.336 30.8448H11.84C11.7158 30.8435 11.5931 30.8176 11.479 30.7686C11.3648 30.7195 11.2616 30.6482 11.1753 30.5589C11.0889 30.4696 11.0212 30.364 10.976 30.2483C10.9308 30.1325 10.9091 30.009 10.912 29.8848V26.1888L8.25924 26.928C8.01011 27.0131 7.74807 27.0542 7.48484 27.0496C6.74928 27.0403 6.04744 26.7396 5.53331 26.2135C5.01918 25.6874 4.73476 24.9788 4.74244 24.2432V20.7232H2.50244C2.29809 20.7219 2.09599 20.6803 1.90775 20.6008C1.71952 20.5212 1.54885 20.4053 1.40554 20.2596C1.26223 20.1139 1.1491 19.9413 1.07265 19.7518C0.996201 19.5623 0.957933 19.3595 0.960044 19.1552C0.960044 18.8064 1.12324 18.5152 1.47204 17.9616L4.20484 13.9104C4.45519 13.4945 4.62153 13.0335 4.69444 12.5536V12.4992C4.69444 12.3104 4.67204 12.1216 4.67204 11.9296C4.67003 10.2899 5.01805 8.66874 5.69284 7.17439C6.19731 5.93576 6.93248 4.80424 7.85924 3.83999C8.88681 2.77596 10.1183 1.93002 11.4802 1.35271C12.8421 0.775408 14.3064 0.478585 15.7856 0.479985C16.2336 0.481003 16.6813 0.506641 17.1264 0.556785C22.7904 1.21599 27.0464 6.07359 27.0464 11.9296C27.0486 14.5983 26.1309 17.1863 24.448 19.2576C23.6838 20.6071 23.2763 22.1292 23.264 23.68V29.8976C23.267 30.0218 23.2453 30.1453 23.2001 30.2611C23.1549 30.3768 23.0872 30.4824 23.0008 30.5717C22.9145 30.661 22.8113 30.7323 22.6971 30.7814C22.583 30.8304 22.4603 30.8563 22.336 30.8576V30.8448Z" fill="#A8D3FF"/>
<path d="M29.7889 2.07071C29.3404 1.55928 28.7863 1.15135 28.1647 0.875094C27.5431 0.598842 26.869 0.460867 26.1889 0.470706C23.5361 0.505906 21.3249 2.91551 21.2673 5.82751C21.2391 6.65771 21.3949 7.48387 21.7235 8.24678C22.0521 9.00969 22.5454 9.69046 23.1681 10.2403C23.6073 10.6105 23.8963 11.1282 23.9809 11.6963C23.9809 11.7923 24.0001 11.8915 24.0001 11.9875V13.5875C24.0001 14.6755 24.6401 15.1651 25.2449 15.1651H27.2897C27.6341 15.1493 27.9582 14.9976 28.1909 14.7433C28.4236 14.489 28.546 14.1527 28.5313 13.8083V12.1059C28.532 11.9676 28.5438 11.8296 28.5665 11.6931C28.6767 11.1029 28.9849 10.5679 29.4401 10.1763C30.0264 9.64005 30.4928 8.986 30.8088 8.25697C31.1248 7.52795 31.2832 6.74041 31.2737 5.94591C31.2888 4.5125 30.7579 3.12705 29.7889 2.07071Z" fill="#A8D3FF"/>
<path d="M25.1168 18.5118C24.9792 18.4269 24.8137 18.3993 24.656 18.435C24.5774 18.4534 24.5033 18.4871 24.4379 18.5344C24.3726 18.5816 24.3172 18.6414 24.2752 18.7102C23.1715 20.4912 22.5864 22.5446 22.5856 24.6398V30.7422H12.2112V26.019C12.211 25.9252 12.1893 25.8327 12.1476 25.7486C12.1059 25.6646 12.0455 25.5913 11.9709 25.5343C11.8963 25.4774 11.8097 25.4384 11.7176 25.4203C11.6255 25.4023 11.5305 25.4057 11.44 25.4302L7.1424 26.6014C7.03071 26.6367 6.91388 26.653 6.7968 26.6494C6.42732 26.6494 6.07293 26.5029 5.81137 26.2419C5.54982 25.981 5.40245 25.6269 5.4016 25.2574V20.4382C5.3983 20.28 5.33377 20.1292 5.22156 20.0176C5.10936 19.906 4.95824 19.8423 4.8 19.8398H1.216L4.5344 15.0398C5.10618 14.1412 5.40723 13.097 5.4016 12.0318C5.4016 9.05264 6.4576 6.35504 8.3776 4.43824C8.592 4.22384 8.8384 3.99664 9.1264 3.75344C9.4144 3.51024 9.6928 3.30864 9.9488 3.13264C10.2688 2.93104 10.5408 2.74864 10.8544 2.57904L10.9408 2.53744C11.2192 2.37424 11.52 2.23984 11.8016 2.10224C12.4721 1.8148 13.1716 1.60024 13.888 1.46224C14.224 1.39504 14.5536 1.34384 14.8672 1.30864C16.0094 1.19223 17.1628 1.25703 18.2848 1.50064C18.3662 1.53096 18.4531 1.54359 18.5397 1.5377C18.6263 1.5318 18.7107 1.50751 18.7872 1.46645C18.8638 1.42538 18.9306 1.36849 18.9834 1.29955C19.0362 1.23061 19.0737 1.15121 19.0935 1.06664C19.1132 0.982066 19.1146 0.894266 19.0977 0.809086C19.0809 0.723906 19.046 0.643301 18.9956 0.57264C18.9451 0.501979 18.8801 0.442885 18.805 0.399294C18.7299 0.355704 18.6464 0.328617 18.56 0.319838C17.3008 0.0363599 16.0037 -0.039305 14.72 0.0958378C14.368 0.140638 14.016 0.195038 13.6512 0.268638C12.8474 0.420192 12.0622 0.657273 11.3088 0.975838C10.9664 1.12624 10.6272 1.29584 10.2688 1.47824C9.9104 1.66064 9.6288 1.84944 9.2672 2.08624C8.976 2.28784 8.6816 2.50864 8.3424 2.78064C8.0032 3.05264 7.7472 3.30864 7.5104 3.54544C5.36 5.69584 4.176 8.70064 4.176 12.0062C4.18476 12.8285 3.95706 13.636 3.52 14.3326L0.4896 18.723C0.128 19.2766 0 19.5198 0 19.7694C0 20.1089 0.134857 20.4345 0.374903 20.6745C0.61495 20.9146 0.940523 21.0494 1.28 21.0494H4.16V25.2574C4.16085 25.9514 4.4369 26.6167 4.92761 27.1074C5.41832 27.5981 6.08363 27.8742 6.7776 27.875C7.01769 27.8814 7.25704 27.8456 7.4848 27.7694H7.5232L10.9696 26.8318V31.3598C10.9704 31.5222 11.0356 31.6777 11.1507 31.7922C11.2658 31.9067 11.4216 31.971 11.584 31.971H23.2C23.3618 31.9702 23.5168 31.9055 23.6313 31.7911C23.7457 31.6767 23.8104 31.5217 23.8112 31.3598V24.6398C23.8131 22.7714 24.3338 20.9402 25.3152 19.3502C25.3595 19.2813 25.3892 19.2039 25.4025 19.123C25.4157 19.0421 25.4121 18.9593 25.392 18.8798C25.3519 18.7259 25.2531 18.5938 25.1168 18.5118Z" fill="#2D8CFF"/>
<path d="M29.8368 1.28C28.8217 0.471144 27.5603 0.034121 26.2624 0.0415983C25.8079 0.0417343 25.3549 0.0932617 24.912 0.195198C23.8295 0.456917 22.847 1.02902 22.0852 1.84127C21.3233 2.65351 20.8151 3.67056 20.6231 4.76754C20.4311 5.86452 20.5636 6.99369 21.0043 8.01643C21.445 9.03917 22.1748 9.91097 23.104 10.5248C23.3717 10.7164 23.5886 10.9705 23.7358 11.2649C23.883 11.5593 23.9561 11.8853 23.9488 12.2144V13.968C23.9488 15.0368 24.656 15.5936 25.3504 15.5936H27.2C27.5715 15.5928 27.9275 15.4448 28.1902 15.1821C28.4528 14.9195 28.6008 14.5635 28.6016 14.192V12.2496C28.5916 11.9162 28.6627 11.5854 28.8087 11.2855C28.9547 10.9856 29.1714 10.7257 29.44 10.528C30.1947 10.0308 30.8205 9.3616 31.2661 8.57536C31.7117 7.78912 31.9642 6.90834 32.0029 6.00545C32.0417 5.10257 31.8655 4.20339 31.4889 3.38187C31.1123 2.56036 30.5461 1.83998 29.8368 1.28ZM28.7552 9.504C28.3138 9.81042 27.9555 10.2218 27.7125 10.701C27.4695 11.1803 27.3495 11.7124 27.3632 12.2496V14.368H25.1776V12.2144C25.189 11.6814 25.0671 11.154 24.8229 10.6801C24.5786 10.2062 24.2199 9.80083 23.7792 9.5008C23.045 9.0225 22.4672 8.33938 22.1172 7.536C21.7673 6.73262 21.6607 5.84427 21.8106 4.98091C21.9604 4.11754 22.3602 3.31708 22.9603 2.67861C23.5605 2.04014 24.3348 1.5917 25.1872 1.3888C25.857 1.22854 26.5544 1.22186 27.2271 1.36927C27.8999 1.51668 28.5306 1.81435 29.072 2.24C29.6295 2.67997 30.0744 3.24617 30.3701 3.89192C30.6657 4.53766 30.8036 5.24444 30.7723 5.95395C30.7411 6.66346 30.5416 7.35538 30.1903 7.97262C29.839 8.58987 29.346 9.11476 28.752 9.504H28.7552Z" fill="#2D8CFF"/>
</g>
<defs>
<clipPath id="clip0">
<rect width="32" height="32" fill="white"/>
</clipPath>
</defs>
</svg>
