<svg width="48" height="48" viewBox="0 0 48 48" fill="none" xmlns="http://www.w3.org/2000/svg">
<g clip-path="url(#clip0)">
<path d="M33.3982 6.62402C31.4887 6.62402 29.6573 7.38259 28.3071 8.73285C26.9568 10.0831 26.1982 11.9145 26.1982 13.824V13.92C26.2157 15.1352 26.5404 16.3262 27.1422 17.382C27.744 18.4378 28.6032 19.3242 29.6398 19.9584C30.0437 20.1648 30.3847 20.476 30.6271 20.8594C30.8695 21.2427 31.0043 21.6842 31.0174 22.1376V25.44H35.779V22.1424C35.7902 21.6892 35.9237 21.2474 36.1653 20.8638C36.407 20.4802 36.7479 20.169 37.1518 19.9632C38.489 19.1439 39.5221 17.9105 40.0941 16.4503C40.6661 14.9902 40.7458 13.3833 40.321 11.8737C39.8962 10.3642 38.9902 9.03457 37.7407 8.08702C36.4911 7.13947 34.9664 6.62578 33.3982 6.62402Z" fill="#A8D3FF"/>
<path d="M31.0176 27.7583C31.0176 28.0129 31.1187 28.2571 31.2988 28.4372C31.4788 28.6172 31.723 28.7183 31.9776 28.7183H34.8C35.0546 28.7183 35.2988 28.6172 35.4788 28.4372C35.6588 28.2571 35.76 28.0129 35.76 27.7583V25.4399H31.0176V27.7583Z" fill="#A8D3FF"/>
<path d="M33.6005 28.7329H31.9925C31.7379 28.7329 31.4937 28.6317 31.3137 28.4517C31.1336 28.2716 31.0325 28.0275 31.0325 27.7729V22.1425C31.0193 21.6891 30.8845 21.2476 30.6421 20.8642C30.3998 20.4808 30.0588 20.1696 29.6549 19.9633C28.6149 19.3303 27.7523 18.444 27.148 17.3871C26.5436 16.3303 26.217 15.1374 26.1989 13.9201C23.6192 12.2704 20.6209 11.3942 17.5589 11.3953C9.75408 11.4001 0.394078 18.8353 3.40368 26.0785C3.81168 27.0625 1.33008 30.8305 1.33008 31.9489C1.33008 32.6833 3.79248 33.7057 3.88848 34.3825C4.21968 36.7201 3.33168 39.9985 4.36848 41.4721C6.10608 43.9777 7.98768 42.9697 13.6133 42.9697C15.6437 42.6529 15.1205 47.4145 16.2965 47.4145H29.8757C29.3093 45.6385 26.8949 40.7521 28.0805 39.7345C31.3047 36.9429 33.2898 32.9863 33.6005 28.7329Z" fill="#A8D3FF"/>
<path d="M33.399 3.88796C33.5547 3.88669 33.7037 3.82393 33.8134 3.71335C33.9231 3.60276 33.9846 3.45332 33.9846 3.29756V0.585559C33.9713 0.438781 33.9036 0.302275 33.7948 0.202867C33.686 0.10346 33.544 0.0483398 33.3966 0.0483398C33.2492 0.0483398 33.1072 0.10346 32.9984 0.202867C32.8896 0.302275 32.8219 0.438781 32.8086 0.585559V3.29756C32.8086 3.45414 32.8708 3.60431 32.9815 3.71504C33.0922 3.82576 33.2424 3.88796 33.399 3.88796Z" fill="#2D8CFF"/>
<path d="M46.6711 13.272H43.9591C43.8123 13.2852 43.6758 13.3529 43.5764 13.4617C43.477 13.5705 43.4219 13.7126 43.4219 13.86C43.4219 14.0074 43.477 14.1494 43.5764 14.2582C43.6758 14.367 43.8123 14.4347 43.9591 14.448H46.6711C46.8179 14.4347 46.9544 14.367 47.0538 14.2582C47.1532 14.1494 47.2083 14.0074 47.2083 13.86C47.2083 13.7126 47.1532 13.5705 47.0538 13.4617C46.9544 13.3529 46.8179 13.2852 46.6711 13.272Z" fill="#2D8CFF"/>
<path d="M38.4004 5.22237C38.5356 5.29519 38.6936 5.31337 38.8419 5.27319C38.9901 5.23301 39.1173 5.13751 39.1972 5.00637L40.5556 2.65917C40.5944 2.59234 40.6195 2.51843 40.6294 2.44178C40.6393 2.36512 40.6338 2.28727 40.6132 2.21277C40.5928 2.13598 40.5561 2.06449 40.5056 2.00319C40.4551 1.94189 40.3919 1.89222 40.3204 1.85757C40.2536 1.81893 40.1799 1.79386 40.1034 1.7838C40.0269 1.77375 39.9492 1.77891 39.8747 1.79898C39.8002 1.81905 39.7304 1.85364 39.6694 1.90076C39.6083 1.94789 39.5571 2.00661 39.5188 2.07357L38.17 4.42077C38.1319 4.4884 38.1077 4.56292 38.0987 4.64C38.0897 4.71708 38.0961 4.79518 38.1175 4.86977C38.139 4.94436 38.175 5.01394 38.2236 5.07447C38.2721 5.135 38.3322 5.18527 38.4004 5.22237Z" fill="#2D8CFF"/>
<path d="M42.8348 9.08647L45.1868 7.73287C45.2531 7.69351 45.311 7.64145 45.3571 7.57967C45.4033 7.5179 45.4367 7.44762 45.4556 7.37287C45.4772 7.2993 45.4833 7.22203 45.4733 7.146C45.4634 7.06997 45.4378 6.99684 45.398 6.93127C45.319 6.79782 45.1905 6.70085 45.0405 6.66133C44.8905 6.62181 44.731 6.64291 44.5964 6.72007L42.2396 8.07367C42.1729 8.112 42.1144 8.1631 42.0675 8.22405C42.0205 8.28499 41.9861 8.35459 41.966 8.42887C41.9362 8.54077 41.9402 8.659 41.9776 8.76861C42.015 8.87821 42.084 8.97428 42.176 9.04467C42.2679 9.11505 42.3787 9.15659 42.4943 9.16403C42.6098 9.17147 42.725 9.14448 42.8252 9.08647H42.8348Z" fill="#2D8CFF"/>
<path d="M21.5997 7.73281L23.9469 9.08641C24.082 9.1611 24.2407 9.18083 24.39 9.14149C24.5393 9.10216 24.6677 9.00678 24.7485 8.87521C24.8253 8.74006 24.8456 8.5801 24.8052 8.43003C24.7647 8.27996 24.6668 8.15189 24.5325 8.07361L22.1949 6.72001C22.1058 6.66898 22.0048 6.64248 21.9021 6.64321C21.8512 6.63586 21.7994 6.63586 21.7485 6.64321C21.6738 6.66224 21.6037 6.69632 21.5427 6.74337C21.4816 6.79041 21.4308 6.84943 21.3933 6.91681C21.352 6.98358 21.3245 7.05799 21.3125 7.1356C21.3005 7.2132 21.3043 7.29243 21.3235 7.36856C21.3428 7.44468 21.3772 7.51616 21.4246 7.57874C21.4721 7.64132 21.5316 7.69371 21.5997 7.73281Z" fill="#2D8CFF"/>
<path d="M45.1876 19.9873L42.8356 18.6337C42.7005 18.5569 42.5405 18.5365 42.3905 18.577C42.2404 18.6174 42.1123 18.7154 42.034 18.8497C41.9579 18.9837 41.9372 19.1422 41.9764 19.2913C41.9955 19.366 42.0295 19.436 42.0766 19.4971C42.1236 19.5582 42.1826 19.609 42.25 19.6465L44.5972 21.0049C44.7329 21.0791 44.8921 21.0981 45.0414 21.0579C45.1908 21.0176 45.3188 20.9213 45.3988 20.7889C45.4386 20.7233 45.4642 20.6502 45.4741 20.5741C45.484 20.4981 45.478 20.4208 45.4564 20.3473C45.4375 20.2725 45.404 20.2022 45.3579 20.1405C45.3118 20.0787 45.2539 20.0266 45.1876 19.9873Z" fill="#2D8CFF"/>
<path d="M39.3599 23.04C39.3098 22.9569 39.2395 22.8879 39.1556 22.8392C39.0717 22.7905 38.9768 22.7638 38.8799 22.7616C38.7773 22.762 38.6766 22.7884 38.5871 22.8384C38.5205 22.8771 38.4622 22.9286 38.4156 22.9898C38.3689 23.0511 38.3348 23.1209 38.3152 23.1954C38.2956 23.2699 38.2909 23.3474 38.3013 23.4237C38.3117 23.5 38.337 23.5735 38.3759 23.64L39.5327 25.6512C39.6134 25.7828 39.7418 25.8781 39.8911 25.9175C40.0404 25.9568 40.1991 25.9371 40.3343 25.8624C40.4022 25.8256 40.4616 25.775 40.5088 25.7138C40.5559 25.6526 40.5897 25.5822 40.6079 25.5072C40.6282 25.4327 40.6336 25.3549 40.6237 25.2782C40.6138 25.2016 40.5888 25.1277 40.5503 25.0608L39.3599 23.04Z" fill="#2D8CFF"/>
<path d="M27.6095 5.00646C27.6894 5.1376 27.8166 5.23309 27.9648 5.27328C28.1131 5.31346 28.2711 5.29527 28.4063 5.22246C28.4732 5.18414 28.532 5.13298 28.5791 5.0719C28.6262 5.01082 28.6608 4.94103 28.6809 4.86655C28.701 4.79206 28.7061 4.71434 28.6961 4.63785C28.686 4.56137 28.6609 4.48762 28.6223 4.42086L27.2687 2.07365C27.191 1.93871 27.063 1.84015 26.9126 1.79964C26.7623 1.75913 26.602 1.78 26.4671 1.85765C26.3321 1.93531 26.2336 2.06339 26.1931 2.21372C26.1526 2.36405 26.1734 2.52431 26.2511 2.65925L27.6095 5.00646Z" fill="#2D8CFF"/>
<path d="M41.1794 13.824C41.1873 11.8772 40.4647 9.99826 39.1543 8.55848C37.8438 7.1187 36.041 6.22284 34.1021 6.04794C32.1631 5.87304 30.2291 6.43183 28.6822 7.61387C27.1353 8.79592 26.088 10.5152 25.7474 12.432L25.6562 12.912L25.2194 12.6816C22.8458 11.4523 20.2125 10.8087 17.5394 10.8048C12.4562 10.8048 6.73942 13.8384 3.95062 18.0048C2.16502 20.6928 1.77142 23.6112 2.83702 26.2416L2.86582 26.3088V26.4C2.86582 26.88 2.34742 27.9888 1.78582 29.1696C1.13782 30.5232 0.749023 31.3824 0.749023 31.9632C0.749023 32.6544 1.48342 33.1632 2.33302 33.744C2.64712 33.9452 2.94557 34.1699 3.22582 34.416L3.31702 34.5072V34.632C3.389 35.5474 3.389 36.467 3.31702 37.3824C3.22102 39.1152 3.13462 40.7424 3.87382 41.8224C5.34742 43.9488 6.98902 43.8576 9.96982 43.6944C10.997 43.6368 12.1586 43.5696 13.5986 43.5696H13.6898H13.7906H13.8674L13.9778 43.608C14.285 43.776 14.4914 44.3088 14.7986 45.7152C14.8874 46.1855 15.0143 46.6478 15.1778 47.0976C15.4226 47.7072 15.797 48.0192 16.2818 48.0192H29.8754C29.9686 48.0196 30.0606 47.9981 30.144 47.9564C30.2274 47.9147 30.2998 47.854 30.3554 47.7792C30.4103 47.7051 30.4468 47.619 30.4618 47.5281C30.4768 47.4371 30.47 47.3438 30.4418 47.256C30.3074 46.8384 30.0866 46.296 29.8274 45.6192C29.4098 44.5728 28.9538 43.4304 28.6562 42.3888C28.2818 41.0784 28.3346 40.5312 28.397 40.3248L28.4306 40.2288L28.5074 40.1616C31.6095 37.4723 33.6093 33.7324 34.1234 29.6592L34.1666 29.3376H34.8002C35.2144 29.3376 35.6117 29.1734 35.905 28.881C36.1983 28.5886 36.3638 28.1918 36.365 27.7776V22.1952C36.3683 21.8356 36.4704 21.4838 36.66 21.1783C36.8496 20.8727 37.1195 20.6251 37.4402 20.4624C38.5832 19.7725 39.5283 18.7986 40.1835 17.6354C40.8387 16.4721 41.1818 15.1591 41.1794 13.824ZM32.9138 29.76C32.3794 33.4609 30.5265 36.8444 27.6962 39.288C26.5586 40.248 27.4418 42.7968 28.7138 46.008L29.0402 46.8336H16.3202L16.2338 46.5936C16.1124 46.219 16.013 45.8375 15.9362 45.4512C15.8264 44.7615 15.633 44.0878 15.3602 43.4448C15.2264 43.0942 14.9784 42.7989 14.6562 42.6064C14.334 42.414 13.9564 42.3356 13.5842 42.384C12.0962 42.384 10.8866 42.456 9.90742 42.5088C6.83062 42.6816 5.89462 42.6624 4.83862 41.1408C4.32022 40.4064 4.41142 38.88 4.49302 37.44C4.59182 36.3992 4.59182 35.3513 4.49302 34.3104C4.41142 33.7344 3.76822 33.288 3.01942 32.7792C2.68334 32.5632 2.36258 32.3242 2.05942 32.064L1.92022 31.9152L1.97782 31.704C2.22346 31.0031 2.51695 30.3199 2.85622 29.6592C3.74902 27.7872 4.27222 26.592 3.96502 25.8528C2.75542 22.944 3.82582 20.3424 4.92502 18.6528C7.46902 14.88 12.8882 12 17.5346 12C20.3256 12.0008 23.0648 12.7536 25.4642 14.1792L25.6274 14.28V14.4672C25.7186 15.6901 26.1013 16.8734 26.7435 17.9181C27.3856 18.9628 28.2687 19.8385 29.3186 20.472C29.6393 20.6277 29.911 20.8685 30.104 21.1682C30.297 21.4679 30.4039 21.8149 30.413 22.1712V27.7584C30.4143 28.1726 30.5797 28.5694 30.873 28.8618C31.1664 29.1542 31.5636 29.3184 31.9778 29.3184H32.9378L32.9138 29.76ZM35.189 28.1472H34.8002H31.6274V27.7584V26.0256H35.213L35.189 28.1472ZM35.189 24.8736H31.6034V22.728H35.189V24.8736ZM36.845 19.488C36.4859 19.6787 36.1678 19.9384 35.9092 20.2523C35.6506 20.5661 35.4564 20.9278 35.3378 21.3168L35.261 21.5808H31.5314L31.4546 21.3168C31.336 20.9278 31.1419 20.5661 30.8832 20.2523C30.6246 19.9384 30.3066 19.6787 29.9474 19.488C28.717 18.7362 27.7659 17.6028 27.2391 16.2606C26.7123 14.9183 26.6385 13.4406 27.029 12.0526C27.4195 10.6645 28.253 9.44206 29.4024 8.57139C30.5518 7.70072 31.9543 7.22951 33.3962 7.22951C34.8382 7.22951 36.2406 7.70072 37.3901 8.57139C38.5395 9.44206 39.3729 10.6645 39.7634 12.0526C40.154 13.4406 40.0802 14.9183 39.5533 16.2606C39.0265 17.6028 38.0755 18.7362 36.845 19.488Z" fill="#2D8CFF"/>
</g>
<defs>
<clipPath id="clip0">
<rect width="48" height="48" fill="white"/>
</clipPath>
</defs>
</svg>
