<svg width="38" height="39" viewBox="0 0 68 69" fill="none" xmlns="http://www.w3.org/2000/svg">
<g clip-path="url(#clip0)">
<path d="M34.172 0.965332C28.7988 0.965332 23.6456 3.09985 19.8461 6.89933C16.0466 10.6988 13.9121 15.852 13.9121 21.2253C13.9121 32.4155 34.172 68.4985 34.172 68.4985C34.172 68.4985 54.432 32.4155 54.432 21.2253C54.432 15.852 52.2975 10.6988 48.498 6.89933C44.6985 3.09985 39.5453 0.965332 34.172 0.965332V0.965332ZM34.172 32.8207C32.035 32.8207 29.9459 32.187 28.1689 30.9997C26.392 29.8124 25.0071 28.1248 24.1893 26.1504C23.3714 24.176 23.1574 22.0034 23.5744 19.9074C23.9913 17.8114 25.0204 15.8861 26.5315 14.3749C28.0427 12.8638 29.968 11.8347 32.064 11.4177C34.1601 11.0008 36.3326 11.2148 38.3071 12.0326C40.2815 12.8504 41.969 14.2354 43.1563 16.0123C44.3436 17.7892 44.9773 19.8783 44.9773 22.0154C44.9773 24.8812 43.8389 27.6295 41.8125 29.6559C39.7862 31.6823 37.0378 32.8207 34.172 32.8207Z" fill="#2D8CFF"/>
</g>
<defs>
<clipPath id="clip0">
<rect width="67.5331" height="67.5331" fill="white" transform="translate(0.40625 0.965332)"/>
</clipPath>
</defs>
</svg>
