<svg width="100" height="100" viewBox="0 0 100 100" fill="none" xmlns="http://www.w3.org/2000/svg">
<g clip-path="url(#clip0)">
<path d="M91.22 38.75L53.72 1.21997H46.33L8.77999 38.75C8.0158 39.5143 7.40964 40.4217 6.99613 41.4203C6.58262 42.4189 6.36986 43.4891 6.37 44.57V90.57C6.37264 92.7519 7.24058 94.8437 8.78343 96.3865C10.3263 97.9294 12.4181 98.7973 14.6 98.8H85.4C87.5819 98.7973 89.6737 97.9294 91.2166 96.3865C92.7594 94.8437 93.6273 92.7519 93.63 90.57V44.57C93.6307 43.4891 93.4182 42.4186 93.0046 41.42C92.5911 40.4213 91.9846 39.514 91.22 38.75Z" fill="#2D8CFF"/>
<path d="M15.89 50.64V17.89C15.89 16.2987 16.5222 14.7726 17.6474 13.6474C18.7726 12.5222 20.2987 11.89 21.89 11.89H78.14C79.7313 11.89 81.2574 12.5222 82.3826 13.6474C83.5079 14.7726 84.14 16.2987 84.14 17.89V50.67L55.82 78.72C54.2281 80.3102 52.0701 81.2033 49.82 81.2033C47.57 81.2033 45.4119 80.3102 43.82 78.72L15.89 50.64Z" fill="#FED674"/>
<path d="M85.33 31.13V17.87C85.3273 15.9692 84.5711 14.147 83.227 12.803C81.8829 11.4589 80.0607 10.7026 78.16 10.7H64.91L54.58 0.360004C54.4679 0.245658 54.334 0.154898 54.1863 0.0930708C54.0386 0.0312439 53.8801 -0.000399793 53.72 3.81275e-06H46.33C46.1698 -0.000399793 46.0113 0.0312439 45.8636 0.0930708C45.7159 0.154898 45.582 0.245658 45.47 0.360004L35.12 10.7H21.84C19.9392 10.7026 18.117 11.4589 16.7729 12.803C15.4289 14.147 14.6726 15.9692 14.67 17.87V31.15L7.91995 37.88C7.03844 38.7563 6.33967 39.7989 5.86417 40.9473C5.38868 42.0957 5.14591 43.3271 5.14995 44.57V90.57C5.14794 93.0197 6.10236 95.3735 7.80995 97.13L7.99995 97.3C9.76174 99.0292 12.1314 99.9986 14.6 100H85.4C87.8635 100.012 90.2335 99.0573 92 97.34L92.2 97.14C93.924 95.3797 94.8896 93.0139 94.89 90.55V44.55C94.8932 43.3087 94.6501 42.079 94.1746 40.9323C93.6991 39.7857 93.0007 38.7448 92.12 37.87L85.33 31.13ZM85.33 34.58L90.33 39.58C90.7122 39.9587 91.048 40.3817 91.33 40.84L91.65 41.35L85.31 47.7L85.33 34.58ZM46.84 2.44H53.2099L61.4599 10.7H38.58L46.84 2.44ZM17.11 17.87C17.11 16.6155 17.6083 15.4124 18.4953 14.5254C19.3824 13.6383 20.5855 13.14 21.84 13.14H78.16C79.4144 13.14 80.6175 13.6383 81.5046 14.5254C82.3916 15.4124 82.89 16.6155 82.89 17.87V31.38C82.8758 31.5063 82.8758 31.6337 82.89 31.76V50.17L55 78.1C54.3497 78.7516 53.5774 79.2685 52.7272 79.6212C51.8769 79.974 50.9655 80.1555 50.0449 80.1555C49.1244 80.1555 48.213 79.974 47.3627 79.6212C46.5125 79.2685 45.7402 78.7516 45.09 78.1L17.09 50.16L17.11 17.87ZM8.64995 40.87C8.93195 40.4117 9.26766 39.9887 9.64995 39.61L14.65 34.61V47.72L8.32995 41.38L8.64995 40.87ZM8.32995 93.67C7.84135 92.7027 7.58781 91.6337 7.58995 90.55V44.1L33.46 70L8.79995 94.62L8.32995 93.67ZM88.52 96.82C87.5522 97.3075 86.4836 97.561 85.4 97.56H14.6C13.5164 97.561 12.4477 97.3075 11.48 96.82L10.48 96.35L35.19 71.69L43.34 79.83C44.2176 80.7084 45.2597 81.4052 46.4067 81.8806C47.5538 82.356 48.7833 82.6007 50.025 82.6007C51.2666 82.6007 52.4961 82.356 53.6432 81.8806C54.7902 81.4052 55.8323 80.7084 56.7099 79.83L64.83 71.7L89.47 96.35L88.52 96.82ZM92.41 90.55C92.411 91.6336 92.1575 92.7023 91.67 93.67L91.2 94.67L66.55 70L92.41 44.11V90.55Z" fill="#0B0F30"/>
<path d="M63.53 57.9401C63.53 57.6165 63.4015 57.3062 63.1727 57.0774C62.9439 56.8486 62.6336 56.7201 62.31 56.7201H50.26C46.0765 56.7148 42.0659 55.0505 39.1077 52.0924C36.1496 49.1342 34.4853 45.1236 34.48 40.9401C34.3732 38.8383 34.695 36.7368 35.4257 34.7633C36.1564 32.7898 37.2809 30.9856 38.7307 29.4602C40.1805 27.9349 41.9254 26.7203 43.8593 25.8903C45.7931 25.0604 47.8756 24.6324 49.98 24.6324C52.0845 24.6324 54.1669 25.0604 56.1008 25.8903C58.0347 26.7203 59.7796 27.9349 61.2294 29.4602C62.6792 30.9856 63.8036 32.7898 64.5344 34.7633C65.2651 36.7368 65.5868 38.8383 65.48 40.9401V45.0001C65.4315 45.9207 65.0315 46.7877 64.3627 47.4222C63.6938 48.0567 62.807 48.4104 61.885 48.4104C60.9631 48.4104 60.0763 48.0567 59.4074 47.4222C58.7386 46.7877 58.3386 45.9207 58.29 45.0001V40.4201C58.29 38.011 57.3337 35.7004 55.6312 33.996C53.9286 32.2916 51.6191 31.3327 49.21 31.3301C47.9239 31.2885 46.6426 31.506 45.4422 31.9695C44.2418 32.433 43.1469 33.1331 42.2224 34.0282C41.298 34.9233 40.5629 35.995 40.0609 37.1799C39.5589 38.3647 39.3002 39.6383 39.3002 40.9251C39.3002 42.2118 39.5589 43.4855 40.0609 44.6703C40.5629 45.8551 41.298 46.9269 42.2224 47.8219C43.1469 48.717 44.2418 49.4171 45.4422 49.8806C46.6426 50.3441 47.9239 50.5616 49.21 50.5201H52.4C52.7058 50.4924 52.9902 50.3514 53.1973 50.1247C53.4044 49.898 53.5192 49.6021 53.5192 49.2951C53.5192 48.988 53.4044 48.6921 53.1973 48.4654C52.9902 48.2387 52.7058 48.0977 52.4 48.0701H49.25C47.3537 48.0701 45.5351 47.3168 44.1942 45.9759C42.8533 44.635 42.1 42.8164 42.1 40.9201C42.1 39.0238 42.8533 37.2051 44.1942 35.8642C45.5351 34.5234 47.3537 33.7701 49.25 33.7701C51.012 33.7727 52.7009 34.4745 53.9458 35.7213C55.1908 36.9682 55.89 38.6581 55.89 40.4201V45.0001C55.89 46.6059 56.528 48.1461 57.6635 49.2816C58.799 50.4171 60.3391 51.0551 61.945 51.0551C63.5509 51.0551 65.091 50.4171 66.2266 49.2816C67.3621 48.1461 68 46.6059 68 45.0001V40.9401C68.1643 38.4807 67.8216 36.0138 66.9934 33.6923C66.1652 31.3708 64.869 29.2442 63.1851 27.4441C61.5013 25.6441 59.4657 24.2091 57.2046 23.228C54.9434 22.2469 52.5049 21.7407 50.04 21.7407C47.5752 21.7407 45.1367 22.2469 42.8755 23.228C40.6143 24.2091 38.5788 25.6441 36.8949 27.4441C35.2111 29.2442 33.9149 31.3708 33.0867 33.6923C32.2584 36.0138 31.9158 38.4807 32.08 40.9401C32.0853 45.7638 34.0011 50.389 37.4082 53.8036C40.8154 57.2182 45.4364 59.1442 50.26 59.1601H62.31C62.6336 59.1601 62.9439 59.0315 63.1727 58.8027C63.4015 58.5739 63.53 58.2636 63.53 57.9401Z" fill="#0B0F30"/>
</g>
<defs>
<clipPath id="clip0">
<rect width="100" height="100" fill="white"/>
</clipPath>
</defs>
</svg>
