<svg width="48" height="80" viewBox="0 0 48 80" fill="none" xmlns="http://www.w3.org/2000/svg">
<path d="M41.328 78.4398H6.672C5.44139 78.4398 4.26119 77.951 3.39102 77.0808C2.52085 76.2107 2.032 75.0305 2.032 73.7999V6.19985C2.04255 4.97619 2.53605 3.80624 3.40508 2.94471C4.27411 2.08317 5.44829 1.59981 6.672 1.59985H41.328C42.5586 1.59985 43.7388 2.08871 44.609 2.95888C45.4791 3.82905 45.968 5.00925 45.968 6.23985V73.8399C45.9574 75.0635 45.4639 76.2335 44.5949 77.095C43.7259 77.9565 42.5517 78.4399 41.328 78.4398Z" fill="#A8D3FF"/>
<path d="M27.096 71.7839H20.904C20.5106 71.8122 20.1425 71.9884 19.8738 72.2771C19.605 72.5657 19.4556 72.9455 19.4556 73.3399C19.4556 73.7343 19.605 74.1141 19.8738 74.4028C20.1425 74.6915 20.5106 74.8677 20.904 74.8959H27.096C27.4894 74.8677 27.8575 74.6915 28.1262 74.4028C28.395 74.1141 28.5444 73.7343 28.5444 73.3399C28.5444 72.9455 28.395 72.5657 28.1262 72.2771C27.8575 71.9884 27.4894 71.8122 27.096 71.7839Z" fill="#2D8CFF"/>
<path d="M11.008 62.904H37.6C38.3405 62.904 39.0506 62.6098 39.5742 62.0862C40.0978 61.5626 40.392 60.8524 40.392 60.112V43.096C40.3899 42.3561 40.0951 41.6472 39.5719 41.124C39.0488 40.6009 38.3398 40.3061 37.6 40.304H11.008C10.2668 40.304 9.5558 40.5979 9.03093 41.1212C8.50606 41.6446 8.21013 42.3547 8.20801 43.096V60.112C8.21013 60.8532 8.50606 61.5633 9.03093 62.0867C9.5558 62.6101 10.2668 62.904 11.008 62.904ZM11.32 59.792V43.416H37.296V59.792H11.32Z" fill="#2D8CFF"/>
<path d="M11.008 36.608H37.6C38.3412 36.6059 39.0514 36.31 39.5747 35.7851C40.0981 35.2602 40.392 34.5492 40.392 33.808V16.8C40.392 16.0588 40.0981 15.3478 39.5747 14.8229C39.0514 14.2981 38.3412 14.0021 37.6 14H11.008C10.2654 14 9.55321 14.295 9.02811 14.8201C8.50301 15.3452 8.20801 16.0574 8.20801 16.8V33.808C8.20801 34.5506 8.50301 35.2628 9.02811 35.7879C9.55321 36.313 10.2654 36.608 11.008 36.608ZM11.32 33.496V17.112H37.296V33.496H11.32Z" fill="#2D8CFF"/>
<path d="M47.36 6.2C47.3558 4.55696 46.7012 2.98241 45.5394 1.8206C44.3776 0.658793 42.803 0.00422378 41.16 0L6.672 0C5.02831 0.0021168 3.45254 0.656009 2.29028 1.81828C1.12801 2.98054 0.474117 4.55631 0.472 6.2V73.8C0.474117 75.4437 1.12801 77.0195 2.29028 78.1817C3.45254 79.344 5.02831 79.9979 6.672 80H41.328C42.9717 79.9979 44.5475 79.344 45.7097 78.1817C46.872 77.0195 47.5259 75.4437 47.528 73.8L47.36 6.2ZM41.328 76.888H6.672C5.8544 76.8859 5.07101 76.5596 4.49362 75.9807C3.91624 75.4018 3.592 74.6176 3.592 73.8V69.944H44.392V73.8C44.392 74.6148 44.07 75.3967 43.4961 75.9751C42.9221 76.5535 42.1428 76.8817 41.328 76.888ZM34.344 5.344C34.344 5.588 34.2471 5.822 34.0745 5.99454C33.902 6.16707 33.668 6.264 33.424 6.264H14.4C14.156 6.264 13.922 6.16707 13.7495 5.99454C13.5769 5.822 13.48 5.588 13.48 5.344V3.2H34.344V5.344ZM6.672 3.112H10.4V5.344C10.4 6.40487 10.8214 7.42228 11.5716 8.17243C12.3217 8.92257 13.3391 9.344 14.4 9.344H33.424C34.4849 9.344 35.5023 8.92257 36.2524 8.17243C37.0026 7.42228 37.424 6.40487 37.424 5.344V3.112H41.128C41.5355 3.10883 41.9397 3.18637 42.3171 3.34014C42.6945 3.4939 43.0378 3.72086 43.3271 4.00793C43.6164 4.29499 43.846 4.63648 44.0027 5.0127C44.1594 5.38893 44.24 5.79245 44.24 6.2L44.408 66.832H3.608V6.2C3.60798 5.38515 3.93002 4.60332 4.50395 4.0249C5.07788 3.44647 5.85718 3.11833 6.672 3.112Z" fill="#2D8CFF"/>
</svg>
