<svg width="32" height="32" viewBox="0 0 32 32" fill="none" xmlns="http://www.w3.org/2000/svg">
<g clip-path="url(#clip0)">
<path d="M16.0006 31.3599C12.9627 31.3599 9.99301 30.459 7.46707 28.7713C4.94113 27.0835 2.9724 24.6846 1.80984 21.8779C0.64728 19.0712 0.343101 15.9829 0.93577 13.0033C1.52844 10.0238 2.99134 7.28687 5.13947 5.13874C7.28761 2.9906 10.0245 1.52771 13.004 0.935038C15.9836 0.342369 19.072 0.646548 21.8786 1.80911C24.6853 2.97167 27.0842 4.9404 28.772 7.46634C30.4598 9.99228 31.3606 12.962 31.3606 15.9999C31.3564 20.0723 29.7368 23.9767 26.8571 26.8564C23.9775 29.736 20.0731 31.3557 16.0006 31.3599Z" fill="#FE7B7C"/>
<path d="M16 1.28C18.9113 1.28 21.7573 2.14331 24.178 3.76077C26.5987 5.37822 28.4854 7.67717 29.5995 10.3669C30.7136 13.0566 31.0051 16.0163 30.4372 18.8717C29.8692 21.7271 28.4672 24.35 26.4086 26.4086C24.35 28.4672 21.7271 29.8692 18.8717 30.4372C16.0163 31.0051 13.0566 30.7136 10.3669 29.5995C7.67718 28.4854 5.37823 26.5987 3.76077 24.178C2.14332 21.7573 1.28001 18.9113 1.28001 16C1.28424 12.0973 2.83646 8.35568 5.59607 5.59607C8.35569 2.83645 12.0973 1.28424 16 1.28ZM16 0C12.8355 0 9.74207 0.938384 7.11088 2.69649C4.4797 4.45459 2.42894 6.95345 1.21793 9.87706C0.00693253 12.8007 -0.309921 16.0177 0.307443 19.1214C0.924806 22.2251 2.44866 25.0761 4.6863 27.3137C6.92394 29.5513 9.77487 31.0752 12.8786 31.6926C15.9823 32.3099 19.1993 31.9931 22.1229 30.7821C25.0466 29.5711 27.5454 27.5203 29.3035 24.8891C31.0616 22.2579 32 19.1645 32 16C32 11.7565 30.3143 7.68687 27.3137 4.68629C24.3131 1.68571 20.2435 0 16 0V0Z" fill="#B00E23"/>
<path d="M26.0915 10.4386C25.8806 10.0542 25.6477 9.68242 25.3939 9.32495L24.4691 10.2402L19.6243 15.0946L18.7188 16.0002L19.6243 16.9058L24.4691 21.7602L25.3939 22.685C26.65 20.9176 27.3818 18.8317 27.5052 16.667C27.6286 14.5023 27.1386 12.3468 26.0915 10.4482V10.4386ZM25.1315 20.6114L20.53 16.0002L25.1411 11.389C25.8649 12.8183 26.242 14.398 26.242 16.0002C26.242 17.6023 25.8649 19.182 25.1411 20.6114H25.1315Z" fill="#B00E23"/>
<path d="M16.9068 19.6224L16.0012 18.7168L15.0956 19.6224L10.2412 24.4672L9.31641 25.392C11.0837 26.648 13.1696 27.3798 15.3343 27.5032C17.499 27.6267 19.6546 27.1367 21.5532 26.0896C21.9375 25.8787 22.3093 25.6458 22.6668 25.392L21.7612 24.4672L16.9068 19.6224ZM16.0012 26.24C14.3988 26.2421 12.8187 25.8648 11.39 25.1392L16.0012 20.528L20.6124 25.1392C19.1837 25.8648 17.6036 26.2421 16.0012 26.24Z" fill="#B00E23"/>
<path d="M15.092 12.3775L15.9976 13.2831L16.9032 12.3775L21.7576 7.53273L22.6824 6.60793C20.7314 5.22483 18.3988 4.48193 16.0072 4.48193C13.6156 4.48193 11.2831 5.22483 9.33203 6.60793L10.2376 7.53273L15.092 12.3775ZM15.9976 5.75993C17.6 5.75786 19.1802 6.13507 20.6088 6.86073L15.9976 11.4719L11.3864 6.86073C12.8151 6.13507 14.3952 5.75786 15.9976 5.75993Z" fill="#B00E23"/>
<path d="M13.2817 16L12.3761 15.0944L7.53126 10.24L6.60646 9.31519C5.22336 11.2663 4.48047 13.5988 4.48047 15.9904C4.48047 18.382 5.22336 20.7145 6.60646 22.6656L7.53126 21.76L12.3761 16.9056L13.2817 16ZM6.85926 20.6112C6.13553 19.1818 5.75841 17.6021 5.75841 16C5.75841 14.3978 6.13553 12.8182 6.85926 11.3888L11.4705 16L6.85926 20.6112Z" fill="#B00E23"/>
</g>
<defs>
<clipPath id="clip0">
<rect width="32" height="32" fill="white"/>
</clipPath>
</defs>
</svg>
