<svg width="16" height="16" viewBox="0 0 20 20" fill="none" xmlns="http://www.w3.org/2000/svg">
<g >
<path d="M19.768 1.93964C19.368 1.44364 18.652 1.30364 17.906 1.58964L0.975995 8.05164C0.0199951 8.41564 -0.108005 8.97764 -0.100005 9.28164C-0.0920047 9.58564 0.0679951 10.1376 1.04399 10.4476L4.52599 11.4476L6.39999 16.8256C6.67199 17.6076 7.28999 18.0936 8.00999 18.0936C8.49095 18.0819 8.94936 17.8874 9.29199 17.5496L11.41 15.5996L14.534 18.1236C14.8628 18.3955 15.2734 18.5491 15.7 18.5596C16.48 18.5596 17.1 17.9896 17.278 17.1036L20.052 3.39964C20.1162 3.15048 20.124 2.89013 20.0749 2.63756C20.0258 2.38499 19.9209 2.14656 19.768 1.93964ZM10.328 14.7396L8.52799 16.3976L9.16799 13.7976L10.328 14.7396ZM12.084 8.06364L8.26199 12.1256C8.17993 12.2102 8.12194 12.3152 8.09399 12.4296L7.36199 15.3996L5.89999 11.2216L12.084 8.06364ZM15.8 6.12164C15.9101 6.00381 15.9753 5.85093 15.9839 5.68986C15.9925 5.52879 15.9441 5.36983 15.8472 5.2409C15.7503 5.11197 15.611 5.02133 15.4539 4.98489C15.2967 4.94845 15.1318 4.96854 14.988 5.04164L4.98799 10.1496L1.75199 9.22364L18.4 2.86964C18.484 2.83525 18.5733 2.81563 18.664 2.81164C18.694 2.81164 18.712 2.81164 18.712 2.81164C18.7421 2.91823 18.7421 3.03106 18.712 3.13764L15.934 16.8316C15.922 16.8916 15.854 17.1876 15.7 17.1876C15.5811 17.1733 15.4695 17.1231 15.38 17.0436L9.76799 12.5256L15.8 6.12164Z" fill="#0B0F30"/>
</g>

</svg>
