<svg width="18" height="18" viewBox="0 0 18 18" fill="none" xmlns="http://www.w3.org/2000/svg">
<path fill-rule="evenodd" clip-rule="evenodd" d="M17.6997 1.75024C18.1001 1.34985 18.1001 0.700687 17.6997 0.300294C17.2993 -0.100098 16.6501 -0.100098 16.2497 0.300294L9 7.55004L1.75026 0.300294C1.34986 -0.100098 0.7007 -0.100098 0.300307 0.300295C-0.100085 0.700687 -0.100085 1.34985 0.300307 1.75024L7.55005 8.99999L0.300294 16.2497C-0.100098 16.6501 -0.100098 17.2993 0.300294 17.6997C0.700687 18.1001 1.34985 18.1001 1.75024 17.6997L9 10.4499L16.2498 17.6997C16.6501 18.1001 17.2993 18.1001 17.6997 17.6997C18.1001 17.2993 18.1001 16.6501 17.6997 16.2497L10.4499 8.99999L17.6997 1.75024Z" fill="#0B0F30"/>
</svg>
