<svg width="16" height="16" viewBox="0 0 20 20" fill="none" xmlns="http://www.w3.org/2000/svg">
<g>
<path d="M19.25 7.0579C19.2453 5.16094 18.4896 3.34304 17.1482 2.00168C15.8069 0.660325 13.989 -0.0953453 12.092 -0.100098H7.90801C6.01105 -0.0953453 4.19314 0.660325 2.85179 2.00168C1.51043 3.34304 0.75476 5.16094 0.750008 7.0579V10.3459C0.747832 11.8158 1.20284 13.2501 2.05201 14.4499C2.78324 15.4902 3.77692 16.3182 4.93201 16.8499V18.6739C4.93201 19.7239 5.53201 20.0959 6.04601 20.0959C6.24943 20.0849 6.44857 20.0332 6.63167 19.9439C6.81477 19.8545 6.9781 19.7294 7.11201 19.5759L9.18601 17.5059H12.092C13.9893 17.5011 15.8075 16.7452 17.1489 15.4034C18.4903 14.0616 19.2458 12.2432 19.25 10.3459V7.0579ZM5.86201 15.7559C4.76626 15.3357 3.82295 14.5944 3.15561 13.6291C2.48827 12.6638 2.12801 11.5194 2.12201 10.3459V7.0579C2.1257 5.52449 2.73649 4.05495 3.82077 2.97066C4.90506 1.88638 6.3746 1.2756 7.90801 1.2719H12.092C13.6254 1.2756 15.095 1.88638 16.1792 2.97066C17.2635 4.05495 17.8743 5.52449 17.878 7.0579V10.3459C17.8748 11.8797 17.2643 13.3497 16.1799 14.4344C15.0956 15.5191 13.6258 16.1302 12.092 16.1339H8.89201C8.80178 16.1333 8.71234 16.1507 8.62891 16.185C8.54547 16.2194 8.4697 16.27 8.40601 16.3339L6.30401 18.4479V16.3999C6.30348 16.2606 6.26104 16.1247 6.18221 16.0098C6.10338 15.895 5.99181 15.8065 5.86201 15.7559Z" fill="#0B0F30"/>
<path d="M10.7 14.9143C10.997 14.9162 11.2915 14.8591 11.5662 14.7461C11.8409 14.6331 12.0903 14.4666 12.3 14.2563L13.854 12.7023C13.9179 12.6386 13.9685 12.5628 14.0029 12.4794C14.0372 12.3959 14.0546 12.3065 14.054 12.2163C14.0537 12.0349 13.9819 11.8609 13.854 11.7323L11.634 9.51226C11.5032 9.3879 11.3295 9.31855 11.149 9.31855C10.9685 9.31855 10.7949 9.3879 10.664 9.51226L10.264 9.91226L8.57201 8.21826L8.97201 7.81826C9.03592 7.7547 9.08665 7.67913 9.12126 7.59589C9.15587 7.51266 9.17369 7.4234 9.17369 7.33326C9.17369 7.24312 9.15587 7.15386 9.12126 7.07063C9.08665 6.9874 9.03592 6.91182 8.97201 6.84826L6.74801 4.63226C6.61763 4.50698 6.44382 4.43701 6.26301 4.43701C6.08219 4.43701 5.90839 4.50698 5.77801 4.63226L4.22401 6.18426C3.80205 6.60784 3.56512 7.18137 3.56512 7.77926C3.56512 8.37715 3.80205 8.95068 4.22401 9.37426L9.10601 14.2563C9.31498 14.4659 9.56347 14.632 9.83709 14.745C10.1107 14.8579 10.404 14.9155 10.7 14.9143ZM7.10001 7.73826C6.97189 7.86716 6.89998 8.04152 6.89998 8.22326C6.89998 8.405 6.97189 8.57936 7.10001 8.70826L9.77201 11.3703C9.90065 11.4989 10.0751 11.5711 10.257 11.5711C10.4389 11.5711 10.6134 11.4989 10.742 11.3703L11.142 10.9703L12.4 12.2163L11.332 13.2843C11.1663 13.4494 10.9419 13.5421 10.708 13.5421C10.4741 13.5421 10.2497 13.4494 10.084 13.2843L5.20001 8.40026C5.03476 8.23423 4.942 8.00951 4.942 7.77526C4.942 7.54101 5.03476 7.31629 5.20001 7.15026L6.26801 6.08226L7.51801 7.33026L7.10001 7.73826Z" fill="#0B0F30"/>
<path d="M10.142 3.86419C11.4469 3.86419 12.6983 4.38254 13.621 5.30522C14.5436 6.2279 15.062 7.47932 15.062 8.78419C15.062 8.96613 15.1343 9.14061 15.2629 9.26926C15.3916 9.39791 15.5661 9.47019 15.748 9.47019C15.9299 9.47019 16.1044 9.39791 16.2331 9.26926C16.3617 9.14061 16.434 8.96613 16.434 8.78419C16.4345 7.95776 16.2721 7.13934 15.9561 6.37572C15.6401 5.6121 15.1767 4.91827 14.5923 4.3339C14.0079 3.74953 13.3141 3.28608 12.5505 2.97007C11.7868 2.65405 10.9684 2.49166 10.142 2.49219C9.96006 2.49219 9.78557 2.56446 9.65692 2.69311C9.52827 2.82176 9.45599 2.99625 9.45599 3.17819C9.45599 3.36013 9.52827 3.53461 9.65692 3.66326C9.78557 3.79191 9.96006 3.86419 10.142 3.86419Z" fill="#0B0F30"/>
<path d="M10.142 6.374C10.7793 6.37717 11.3894 6.63242 11.8391 7.08398C12.2888 7.53554 12.5415 8.14672 12.542 8.784C12.542 8.96594 12.6143 9.14042 12.7429 9.26907C12.8716 9.39772 13.0461 9.47 13.228 9.47C13.4099 9.47 13.5844 9.39772 13.7131 9.26907C13.8417 9.14042 13.914 8.96594 13.914 8.784C13.9135 7.78266 13.5163 6.8223 12.8093 6.11312C12.1024 5.40394 11.1433 5.0037 10.142 5C9.96006 5 9.78557 5.07227 9.65692 5.20092C9.52827 5.32957 9.45599 5.50406 9.45599 5.686C9.45599 5.86794 9.52827 6.04243 9.65692 6.17108C9.78557 6.29973 9.96006 6.372 10.142 6.372V6.374Z" fill="#0B0F30"/>
</g>
</svg>
