<svg width="16" height="16" viewBox="0 0 16 16" fill="none" xmlns="http://www.w3.org/2000/svg">
<g clip-path="url(#clip0)">
<path d="M10.7011 7.86079L6.56031 5.47359C6.53606 5.45958 6.50856 5.45219 6.48055 5.45215C6.45255 5.45211 6.42502 5.45941 6.40073 5.47334C6.37643 5.48727 6.35622 5.50733 6.34211 5.53152C6.328 5.55571 6.32048 5.58318 6.32031 5.61119V10.3888C6.32048 10.4168 6.328 10.4443 6.34211 10.4685C6.35622 10.4926 6.37643 10.5127 6.40073 10.5266C6.42502 10.5406 6.45255 10.5479 6.48055 10.5478C6.50856 10.5478 6.53606 10.5404 6.56031 10.5264L10.7011 8.13919C10.7257 8.12523 10.7462 8.105 10.7605 8.08054C10.7747 8.05609 10.7822 8.02829 10.7822 7.99999C10.7822 7.97168 10.7747 7.94389 10.7605 7.91943C10.7462 7.89498 10.7257 7.87474 10.7011 7.86079Z" fill="#0B0F30"/>
<path d="M13.44 3.03992C13.8219 3.03992 14.1882 3.19164 14.4582 3.46169C14.7283 3.73174 14.88 4.09801 14.88 4.47992V11.5199C14.88 11.9018 14.7283 12.2681 14.4582 12.5382C14.1882 12.8082 13.8219 12.9599 13.44 12.9599H2.56C2.17809 12.9599 1.81182 12.8082 1.54177 12.5382C1.27171 12.2681 1.12 11.9018 1.12 11.5199V4.47992C1.12 4.09801 1.27171 3.73174 1.54177 3.46169C1.81182 3.19164 2.17809 3.03992 2.56 3.03992H13.44ZM13.44 1.91992H2.56C1.88105 1.91992 1.2299 2.18964 0.749807 2.66973C0.269714 3.14982 0 3.80097 0 4.47992L0 11.5199C0 12.1989 0.269714 12.85 0.749807 13.3301C1.2299 13.8102 1.88105 14.0799 2.56 14.0799H13.44C14.119 14.0799 14.7701 13.8102 15.2502 13.3301C15.7303 12.85 16 12.1989 16 11.5199V4.47992C16 3.80097 15.7303 3.14982 15.2502 2.66973C14.7701 2.18964 14.119 1.91992 13.44 1.91992Z" fill="#0B0F30"/>
</g>
<defs>
<clipPath id="clip0">
<rect width="16" height="16" fill="white"/>
</clipPath>
</defs>
</svg>
