<svg width="20" height="12" viewBox="0 0 20 12" fill="none" xmlns="http://www.w3.org/2000/svg">
<path fill-rule="evenodd" clip-rule="evenodd" d="M19.7686 6.52572C20.077 6.2354 20.077 5.76472 19.7686 5.47441C19.7665 5.47246 19.7644 5.47053 19.7623 5.46861L14.184 0.217691C13.8756 -0.07262 13.3756 -0.07262 13.0671 0.217691C12.7587 0.508003 12.7587 0.97869 13.0671 1.269L17.2555 5.21154L0.788481 5.21154C0.353015 5.21154 -3.25209e-06 5.56456 -3.29016e-06 6.00003C-3.32823e-06 6.43549 0.353013 6.78851 0.788481 6.78851L17.2557 6.78851L13.0674 10.731C12.759 11.0213 12.759 11.492 13.0674 11.7823C13.3758 12.0726 13.8758 12.0726 14.1843 11.7823L19.7686 6.52572Z" fill="white"/>
</svg>
