<svg width="32" height="32" viewBox="0 0 32 32" fill="none" xmlns="http://www.w3.org/2000/svg">
<g clip-path="url(#clip0)">
<path d="M26.8608 11.9838L22.1472 19.2542L15.8752 25.6286C15.6734 25.8189 15.432 25.9622 15.1683 26.0483C14.9046 26.1344 14.6252 26.1611 14.35 26.1265C14.0747 26.092 13.8106 25.997 13.5764 25.8484C13.3421 25.6998 13.1437 25.5013 12.9952 25.267C12.576 24.5758 12.08 23.027 12.7168 22.387L18.2848 16.835C18.5152 16.5886 18.7328 16.3582 18.5312 16.067C18.3904 15.9454 17.6672 14.1662 14.9056 14.2942C13.1616 14.3966 11.2896 17.203 11.1744 17.7758H7.49117C7.49117 17.747 7.47517 17.7182 7.47517 17.6894C6.17917 13.2414 8.20477 8.48301 12.8384 7.28621L20.3392 5.36621L26.8608 11.9838Z" fill="#A8D3FF"/>
<path d="M30.7776 10.2654C29.1776 11.7758 29.1264 12.115 28.6368 12.115C27.7152 11.9518 21.136 4.54696 20.4256 4.11496C20.32 3.97736 19.5584 3.37896 20.1376 2.79976C21.2768 1.72776 22.0192 0.476559 22.7552 1.19976C29.872 8.71656 31.744 9.29576 30.7776 10.2654Z" fill="#A8D3FF"/>
<path d="M20.3232 18.5825H3.49121V31.1329H20.3232V18.5825Z" fill="#A8D3FF"/>
<path d="M31.4208 8.17855L23.824 0.581754C23.64 0.397051 23.4213 0.250496 23.1805 0.150498C22.9397 0.0504991 22.6815 -0.000976563 22.4208 -0.000976562C22.1601 -0.000976562 21.9019 0.0504991 21.6611 0.150498C21.4203 0.250496 21.2016 0.397051 21.0176 0.581754L19.52 2.08575C19.2695 2.33843 19.0917 2.65402 19.0056 2.99926C18.9194 3.3445 18.928 3.70658 19.0304 4.04735L19.1488 4.45375L12.6496 6.10175C10.8365 6.55622 9.22721 7.60355 8.0775 9.07737C6.92778 10.5512 6.30356 12.3669 6.304 14.2362C6.30972 15.2577 6.50616 16.2691 6.8832 17.2186L7.1008 17.7754H3.3504C3.26945 17.7754 3.18929 17.7914 3.11454 17.8224C3.03979 17.8535 2.97191 17.899 2.91482 17.9564C2.85772 18.0138 2.81253 18.0819 2.78185 18.1569C2.75116 18.2318 2.73558 18.312 2.736 18.393V30.7642H0.6176C0.453802 30.7642 0.296713 30.8292 0.180891 30.945C0.0650684 31.0609 0 31.218 0 31.3818C0 31.5456 0.0650684 31.7026 0.180891 31.8185C0.296713 31.9343 0.453802 31.9994 0.6176 31.9994H23.1776C23.3414 31.9994 23.4985 31.9343 23.6143 31.8185C23.7301 31.7026 23.7952 31.5456 23.7952 31.3818C23.7952 31.218 23.7301 31.0609 23.6143 30.945C23.4985 30.8292 23.3414 30.7642 23.1776 30.7642H21.088V21.241L22.7712 19.5354C22.8008 19.5056 22.8266 19.4723 22.848 19.4362L27.216 12.7002L27.536 12.8762C27.8156 13.0296 28.129 13.111 28.448 13.113C28.71 13.1139 28.9696 13.0629 29.2119 12.9629C29.4541 12.863 29.6741 12.716 29.8592 12.5306L31.408 10.9818C31.7793 10.6098 31.9878 10.1057 31.9878 9.58015C31.9878 9.0546 31.7793 8.55052 31.408 8.17855H31.4208ZM19.84 30.7642H3.968V19.0074H14.816L12.576 21.2634C12.0788 21.7426 11.7544 22.3732 11.6537 23.0564C11.5529 23.7396 11.6815 24.437 12.0192 25.0394C12.2853 25.4906 12.6649 25.8645 13.1201 26.1238C13.5753 26.3832 14.0905 26.519 14.6144 26.5178C15.017 26.5183 15.4157 26.4391 15.7875 26.2848C16.1593 26.1304 16.4969 25.904 16.7808 25.6186L19.84 22.4954V30.7642ZM12.032 17.7754L12.6112 16.7706C12.8511 16.3402 13.1975 15.9785 13.6171 15.7202C14.0368 15.462 14.5157 15.3157 15.008 15.2954C15.3998 15.2713 15.7924 15.3276 16.1616 15.4608C16.5308 15.5939 16.869 15.8012 17.1552 16.0698L17.4752 16.3578L16.0608 17.7754H12.032ZM26.2976 11.8394L21.8176 18.7354L15.8944 24.7482C15.7269 24.9171 15.5275 25.0511 15.3077 25.1423C15.088 25.2334 14.8523 25.28 14.6144 25.2794C14.3053 25.2802 14.0012 25.2004 13.7324 25.0477C13.4636 24.8951 13.2392 24.6749 13.0816 24.409C12.8873 24.042 12.8171 23.6219 12.8818 23.2116C12.9464 22.8014 13.1422 22.4232 13.44 22.1338L18.6752 16.8858C18.7759 16.7843 18.8386 16.6513 18.8526 16.509C18.8666 16.3668 18.831 16.2241 18.752 16.105L18.5312 15.785C18.1238 15.2192 17.5808 14.765 16.9521 14.4639C16.3234 14.1628 15.629 14.0245 14.9329 14.0618C14.2368 14.0991 13.5612 14.3107 12.9682 14.6772C12.3752 15.0437 11.8838 15.5534 11.5392 16.1594L10.608 17.7786H8.5088L8.3936 17.5642C7.83645 16.5441 7.54174 15.4016 7.536 14.2394C7.53985 13.129 7.7982 12.0343 8.2912 11.0394C8.75338 10.1176 9.40881 9.30637 10.2128 8.66084C11.0169 8.0153 11.9506 7.55065 12.9504 7.29855L20.096 5.48415L26.3328 11.7914L26.2976 11.8394ZM30.544 10.1114L28.9984 11.657C28.9285 11.7271 28.8455 11.7828 28.7541 11.8207C28.6626 11.8587 28.5646 11.8783 28.4656 11.8783C28.3666 11.8783 28.2686 11.8587 28.1771 11.8207C28.0857 11.7828 28.0027 11.7271 27.9328 11.657L20.288 3.90015C20.1943 3.75535 20.1527 3.5829 20.1701 3.41129C20.1876 3.23967 20.263 3.07913 20.384 2.95615L21.888 1.45215C22.0247 1.31778 22.2083 1.242 22.4 1.24095C22.5989 1.23888 22.7907 1.31468 22.9344 1.45215L30.544 9.04895C30.614 9.11855 30.6696 9.20131 30.7076 9.29248C30.7455 9.38364 30.765 9.48141 30.765 9.58015C30.765 9.6789 30.7455 9.77667 30.7076 9.86783C30.6696 9.959 30.614 10.0418 30.544 10.1114Z" fill="#2D8CFF"/>
</g>
<defs>
<clipPath id="clip0">
<rect width="32" height="32" fill="white"/>
</clipPath>
</defs>
</svg>
