<svg width="100" height="100" viewBox="0 0 100 100" fill="none" xmlns="http://www.w3.org/2000/svg">
<g clip-path="url(#clip0)">
<path d="M8.37 67.63H99V99H8.37V67.63Z" fill="#2D8CFF"/>
<path d="M8.37 53.6H99V80.18H8.37V53.6Z" fill="#2D8CFF"/>
<path d="M23.83 60.62H85.3V67.62H23.83V60.62Z" fill="#464849"/>
<path d="M30.85 1H78.28V67.67H30.85V1Z" fill="#FED674"/>
<path d="M1 11.51H13.36V43.08H1V11.51Z" fill="#2D8CFF"/>
<path d="M36.47 16.78H41.4701C41.9519 16.8165 42.4361 16.753 42.8923 16.5937C43.3486 16.4343 43.767 16.1824 44.1213 15.8539C44.4757 15.5253 44.7584 15.1271 44.9517 14.6842C45.145 14.2413 45.2448 13.7633 45.2448 13.28C45.2448 12.7968 45.145 12.3187 44.9517 11.8758C44.7584 11.4329 44.4757 11.0347 44.1213 10.7062C43.767 10.3776 43.3486 10.1257 42.8923 9.96638C42.4361 9.80701 41.9519 9.74357 41.4701 9.78002H32.21C28.774 9.7707 25.4323 10.9034 22.71 13L20.13 15H13.36V39.51H20.13L26.9 44H30.9V22.38C30.9014 21.6433 31.0478 20.9141 31.3309 20.2339C31.614 19.5538 32.0284 18.9361 32.5502 18.4161C33.0721 17.8961 33.6913 17.4839 34.3724 17.2032C35.0536 16.9225 35.7833 16.7787 36.52 16.78H36.47Z" fill="#2D8CFF"/>
<path d="M38.43 29.68C38.426 30.7666 38.7446 31.83 39.3455 32.7355C39.9463 33.6409 40.8023 34.3477 41.8051 34.7663C42.808 35.1849 43.9124 35.2965 44.9787 35.0869C46.045 34.8773 47.0251 34.356 47.7949 33.5891C48.5646 32.8221 49.0895 31.8439 49.303 30.7784C49.5164 29.7129 49.4089 28.608 48.994 27.6037C48.579 26.5993 47.8754 25.7407 46.9721 25.1366C46.0689 24.5325 45.0066 24.21 43.92 24.21C42.4674 24.21 41.074 24.7856 40.045 25.8109C39.016 26.8361 38.4353 28.2274 38.43 29.68ZM43.92 26.16C44.6186 26.16 45.3014 26.3673 45.8822 26.7556C46.4629 27.1439 46.9153 27.6958 47.1822 28.3414C47.4491 28.987 47.5184 29.6973 47.3814 30.3823C47.2444 31.0673 46.9072 31.6963 46.4125 32.1896C45.9178 32.6829 45.2879 33.0183 44.6025 33.1533C43.9171 33.2884 43.207 33.2171 42.5622 32.9484C41.9173 32.6797 41.3667 32.2257 40.98 31.6438C40.5933 31.062 40.388 30.3786 40.39 29.68C40.3926 28.7455 40.7657 27.8502 41.4274 27.1903C42.0891 26.5305 42.9855 26.16 43.92 26.16Z" fill="#0B0F30"/>
<path d="M43.92 44.17C42.8362 44.17 41.7767 44.4914 40.8755 45.0936C39.9743 45.6957 39.2719 46.5516 38.8571 47.5529C38.4424 48.5543 38.3339 49.6561 38.5453 50.7191C38.7567 51.7822 39.2787 52.7586 40.0451 53.525C40.8115 54.2914 41.7879 54.8133 42.8509 55.0247C43.9139 55.2362 45.0158 55.1277 46.0171 54.7129C47.0185 54.2981 47.8743 53.5957 48.4765 52.6946C49.0786 51.7934 49.4 50.7339 49.4 49.65C49.3974 48.1975 48.8192 46.8051 47.792 45.778C46.7649 44.7509 45.3726 44.1727 43.92 44.17ZM43.92 53.17C43.2238 53.17 42.5433 52.9636 41.9644 52.5768C41.3855 52.19 40.9344 51.6403 40.668 50.9971C40.4015 50.3539 40.3318 49.6461 40.4676 48.9633C40.6035 48.2805 40.9387 47.6533 41.431 47.161C41.9233 46.6687 42.5505 46.3335 43.2333 46.1977C43.9161 46.0619 44.6239 46.1316 45.2671 46.398C45.9102 46.6644 46.46 47.1156 46.8468 47.6944C47.2336 48.2733 47.44 48.9539 47.44 49.65C47.4374 50.5828 47.0657 51.4766 46.4061 52.1361C45.7466 52.7957 44.8528 53.1674 43.92 53.17Z" fill="#0B0F30"/>
<path d="M99 52.61H79.27V1C79.27 0.734784 79.1646 0.48043 78.9771 0.292893C78.7896 0.105357 78.5352 0 78.27 0L30.85 0C30.5848 0 30.3304 0.105357 30.1429 0.292893C29.9554 0.48043 29.85 0.734784 29.85 1V8.94L29.22 9.05C26.6226 9.52847 24.1777 10.6223 22.09 12.24L19.79 14H14.35V11.51C14.35 11.2448 14.2446 10.9904 14.0571 10.8029C13.8696 10.6154 13.6152 10.51 13.35 10.51H1C0.734784 10.51 0.48043 10.6154 0.292893 10.8029C0.105357 10.9904 0 11.2448 0 11.51L0 43.09C0 43.3552 0.105357 43.6096 0.292893 43.7971C0.48043 43.9846 0.734784 44.09 1 44.09H13.36C13.6252 44.09 13.8796 43.9846 14.0671 43.7971C14.2546 43.6096 14.36 43.3552 14.36 43.09V40.5H19.84L26.36 44.84C26.5227 44.9494 26.714 45.0085 26.91 45.01H29.91V52.61H8.38C8.11478 52.61 7.86043 52.7154 7.67289 52.9029C7.48536 53.0904 7.38 53.3448 7.38 53.61V99C7.38 99.2652 7.48536 99.5196 7.67289 99.7071C7.86043 99.8946 8.11478 100 8.38 100H99C99.2652 100 99.5196 99.8946 99.7071 99.7071C99.8946 99.5196 100 99.2652 100 99V53.6C99.9974 53.3365 99.8908 53.0847 99.7036 52.8993C99.5163 52.714 99.2635 52.61 99 52.61ZM12.37 42.09H2V12.51H12.37V42.09ZM79.27 61.61H84.27V66.61H79.27V61.61ZM31.85 2H77.28V66.64H31.85V22.39C31.846 21.7822 31.9628 21.1796 32.1936 20.6173C32.4243 20.055 32.7645 19.5441 33.1943 19.1143C33.6241 18.6845 34.135 18.3443 34.6973 18.1136C35.2596 17.8828 35.8622 17.766 36.47 17.77H41.47C42.061 17.77 42.6461 17.6536 43.1921 17.4275C43.738 17.2013 44.2341 16.8698 44.652 16.452C45.0698 16.0341 45.4013 15.538 45.6275 14.9921C45.8536 14.4461 45.97 13.8609 45.97 13.27C45.97 12.6791 45.8536 12.0939 45.6275 11.5479C45.4013 11.002 45.0698 10.5059 44.652 10.088C44.2341 9.67016 43.738 9.33869 43.1921 9.11254C42.6461 8.8864 42.061 8.77 41.47 8.77H31.85V2ZM27.2 43L20.68 38.65C20.5162 38.5442 20.325 38.4886 20.13 38.49H14.35V16H20.13C20.3471 16.0046 20.5591 15.934 20.73 15.8L23.32 13.8C25.8629 11.8252 28.9904 10.7522 32.21 10.75H41.44C41.7948 10.705 42.1552 10.7361 42.4971 10.8412C42.839 10.9462 43.1546 11.1229 43.423 11.3594C43.6913 11.5959 43.9063 11.8868 44.0535 12.2127C44.2007 12.5387 44.2769 12.8923 44.2769 13.25C44.2769 13.6077 44.2007 13.9613 44.0535 14.2873C43.9063 14.6132 43.6913 14.9041 43.423 15.1406C43.1546 15.3771 42.839 15.5538 42.4971 15.6588C42.1552 15.7639 41.7948 15.795 41.44 15.75H36.44C35.2156 15.7513 34.0163 16.0979 32.98 16.75C32.5639 16.9978 32.1779 17.2931 31.83 17.63C31.0539 18.384 30.4767 19.3185 30.15 20.35V20.83L29.74 20.94L28.4 22.29C26.9689 23.7267 25.0278 24.5391 23 24.55H22.09C21.8248 24.55 21.5704 24.6554 21.3829 24.8429C21.1954 25.0304 21.09 25.2848 21.09 25.55C21.09 25.8152 21.1954 26.0696 21.3829 26.2571C21.5704 26.4446 21.8248 26.55 22.09 26.55H23C25.036 26.5554 27.0213 25.9146 28.67 24.72L29.88 23.83V43H27.2ZM98 98H9.37V81.18H98V98ZM98 79.17H9.37V54.6H29.86V59.6H23.86C23.5948 59.6 23.3404 59.7054 23.1529 59.8929C22.9654 60.0804 22.86 60.3348 22.86 60.6V67.6C22.86 67.8652 22.9654 68.1196 23.1529 68.3071C23.3404 68.4946 23.5948 68.6 23.86 68.6H85.31C85.5752 68.6 85.8296 68.4946 86.0171 68.3071C86.2046 68.1196 86.31 67.8652 86.31 67.6V60.6C86.31 60.3348 86.2046 60.0804 86.0171 59.8929C85.8296 59.7054 85.5752 59.6 85.31 59.6H79.31V54.6H98V79.17ZM29.86 61.61V66.61H24.86V61.61H29.86Z" fill="#0B0F30"/>
<path d="M55.68 31L60.88 34.46C61.0976 34.5995 61.3608 34.6493 61.6144 34.599C61.8679 34.5487 62.0921 34.4021 62.24 34.19L69.15 23.82C69.2922 23.6051 69.3459 23.3436 69.3 23.09C69.2762 22.9634 69.2266 22.843 69.1544 22.7364C69.0821 22.6297 68.9887 22.5391 68.88 22.47C68.6623 22.3305 68.3991 22.2807 68.1456 22.331C67.892 22.3814 67.6678 22.5279 67.52 22.74L61.15 32.29L56.77 29.38C56.6101 29.2725 56.4226 29.2135 56.23 29.21H56.04C55.783 29.262 55.5568 29.4128 55.41 29.63C55.2712 29.8463 55.2211 30.1077 55.27 30.36C55.3171 30.619 55.4644 30.849 55.68 31Z" fill="#0B0F30"/>
<path d="M51.9 13.0699H69.2C69.4652 13.0699 69.7196 12.9646 69.9071 12.7771C70.0947 12.5895 70.2 12.3352 70.2 12.0699C70.2 11.8047 70.0947 11.5504 69.9071 11.3628C69.7196 11.1753 69.4652 11.0699 69.2 11.0699H51.9C51.6348 11.0699 51.3805 11.1753 51.1929 11.3628C51.0054 11.5504 50.9 11.8047 50.9 12.0699C50.9 12.3352 51.0054 12.5895 51.1929 12.7771C51.3805 12.9646 51.6348 13.0699 51.9 13.0699Z" fill="#0B0F30"/>
<path d="M69.4999 49.1H57.2C56.9347 49.1 56.6804 49.2053 56.4928 49.3929C56.3053 49.5804 56.2 49.8348 56.2 50.1C56.2 50.3652 56.3053 50.6195 56.4928 50.8071C56.6804 50.9946 56.9347 51.1 57.2 51.1H69.4999C69.7652 51.1 70.0195 50.9946 70.207 50.8071C70.3946 50.6195 70.4999 50.3652 70.4999 50.1C70.4999 49.8348 70.3946 49.5804 70.207 49.3929C70.0195 49.2053 69.7652 49.1 69.4999 49.1Z" fill="#0B0F30"/>
</g>
<defs>
<clipPath id="clip0">
<rect width="100" height="100" fill="white"/>
</clipPath>
</defs>
</svg>
