<svg width="16" height="16" viewBox="0 0 16 16" fill="none" xmlns="http://www.w3.org/2000/svg">
<path d="M8 3.3599C11.0976 3.3599 13.8624 6.6927 14.8272 7.9999C13.8672 9.3087 11.0976 12.6399 8 12.6399C4.9024 12.6399 2.1376 9.3071 1.1728 7.9999C2.1328 6.6911 4.9024 3.3599 8 3.3599ZM8 2.3999C3.5824 2.3999 0 7.9999 0 7.9999C0 7.9999 3.5824 13.5999 8 13.5999C12.4176 13.5999 16 7.9999 16 7.9999C16 7.9999 12.4176 2.3999 8 2.3999Z" fill="#0B0F30"/>
<path d="M8 11C9.65685 11 11 9.65685 11 8C11 6.34315 9.65685 5 8 5C6.34315 5 5 6.34315 5 8C5 9.65685 6.34315 11 8 11Z" fill="#0B0F30"/>
</svg>
