<svg width="16" height="16" viewBox="0 0 16 16" fill="none" xmlns="http://www.w3.org/2000/svg">
<g clip-path="url(#clip0)">
<path d="M12.16 1.12C12.8814 1.12 13.5732 1.40657 14.0833 1.91667C14.5934 2.42677 14.88 3.11861 14.88 3.84V12.16C14.88 12.8814 14.5934 13.5732 14.0833 14.0833C13.5732 14.5934 12.8814 14.88 12.16 14.88H3.84C3.11861 14.88 2.42677 14.5934 1.91667 14.0833C1.40657 13.5732 1.12 12.8814 1.12 12.16V3.84C1.12 3.11861 1.40657 2.42677 1.91667 1.91667C2.42677 1.40657 3.11861 1.12 3.84 1.12H12.16ZM12.16 0H3.84C2.82157 0 1.84485 0.40457 1.12471 1.12471C0.40457 1.84485 0 2.82157 0 3.84L0 12.16C0 13.1784 0.40457 14.1552 1.12471 14.8753C1.84485 15.5954 2.82157 16 3.84 16H12.16C13.1784 16 14.1552 15.5954 14.8753 14.8753C15.5954 14.1552 16 13.1784 16 12.16V3.84C16 2.82157 15.5954 1.84485 14.8753 1.12471C14.1552 0.40457 13.1784 0 12.16 0V0Z" fill="#0B0F30"/>
<path d="M8.00016 5.28016C8.53812 5.28016 9.064 5.43968 9.51131 5.73856C9.95861 6.03744 10.3072 6.46224 10.5131 6.95926C10.719 7.45627 10.7728 8.00317 10.6679 8.5308C10.5629 9.05843 10.3039 9.54309 9.92349 9.92348C9.54309 10.3039 9.05843 10.5629 8.5308 10.6679C8.00317 10.7728 7.45627 10.719 6.95926 10.5131C6.46224 10.3072 6.03744 9.95861 5.73856 9.5113C5.43968 9.064 5.28016 8.53812 5.28016 8.00015C5.28016 7.27877 5.56673 6.58692 6.07683 6.07682C6.58693 5.56673 7.27877 5.28016 8.00016 5.28016ZM8.00016 4.16016C7.24068 4.16016 6.49825 4.38537 5.86677 4.80731C5.23528 5.22926 4.7431 5.82898 4.45246 6.53065C4.16182 7.23232 4.08578 8.00441 4.23394 8.7493C4.38211 9.49419 4.74783 10.1784 5.28487 10.7154C5.8219 11.2525 6.50612 11.6182 7.25101 11.7664C7.9959 11.9145 8.76799 11.8385 9.46966 11.5479C10.1713 11.2572 10.7711 10.765 11.193 10.1335C11.6149 9.50206 11.8402 8.75963 11.8402 8.00015C11.8402 6.98172 11.4356 6.00501 10.7154 5.28487C9.99531 4.56473 9.01859 4.16016 8.00016 4.16016Z" fill="#0B0F30"/>
<path d="M12.3199 4.64021C12.8501 4.64021 13.2799 4.21041 13.2799 3.68021C13.2799 3.15002 12.8501 2.72021 12.3199 2.72021C11.7897 2.72021 11.3599 3.15002 11.3599 3.68021C11.3599 4.21041 11.7897 4.64021 12.3199 4.64021Z" fill="#0B0F30"/>
</g>
<defs>
<clipPath id="clip0">
<rect width="16" height="16" fill="white"/>
</clipPath>
</defs>
</svg>
