<svg width="100" height="100" viewBox="0 0 100 100" fill="none" xmlns="http://www.w3.org/2000/svg">
<path d="M94 50.82V42.82C94.0004 41.3662 93.5143 39.9541 92.619 38.8088C91.7237 37.6634 90.4708 36.8506 89.0599 36.5L80.96 34.5V31.58C82.4466 30.724 83.6814 29.4913 84.5399 28.006C85.3984 26.5208 85.8503 24.8355 85.85 23.12V20.27C85.9003 17.6762 84.9406 15.1644 83.1736 13.2649C81.4066 11.3654 78.9706 10.227 76.38 10.09C75.0711 10.0485 73.7672 10.2704 72.5459 10.7428C71.3245 11.2152 70.2106 11.9282 69.2702 12.8396C68.3299 13.751 67.5824 14.8422 67.0722 16.0482C66.5619 17.2542 66.2993 18.5505 66.3 19.86V23.12C66.2996 24.8355 66.7515 26.5208 67.61 28.006C68.4685 29.4913 69.7033 30.724 71.19 31.58V34.52L63.09 36.52C61.681 36.8725 60.4303 37.6861 59.537 38.8313C58.6436 39.9765 58.1589 41.3876 58.16 42.84V50.84L94 50.82Z" fill="#FED674"/>
<path d="M41.85 50.82V42.82C41.851 41.3676 41.3663 39.9565 40.473 38.8113C39.5796 37.6661 38.329 36.8525 36.92 36.5L28.82 34.5V31.58C30.3067 30.724 31.5415 29.4913 32.4 28.006C33.2584 26.5208 33.7103 24.8355 33.71 23.12V20.27C33.7478 17.6797 32.7839 15.1749 31.0194 13.2781C29.255 11.3814 26.8262 10.2392 24.24 10.09C22.9311 10.0485 21.6273 10.2704 20.4059 10.7428C19.1845 11.2152 18.0706 11.9282 17.1303 12.8396C16.1899 13.751 15.4424 14.8421 14.9322 16.0482C14.4219 17.2542 14.1593 18.5505 14.16 19.86V23.12C14.1597 24.8355 14.6115 26.5208 15.47 28.006C16.3285 29.4913 17.5633 30.724 19.05 31.58V34.52L10.95 36.52C9.53226 36.8699 8.27335 37.6863 7.37558 38.838C6.47781 39.9897 5.99332 41.4098 5.99998 42.87V50.87L41.85 50.82Z" fill="#FED674"/>
<path d="M67.92 50.8201V42.8201C67.9122 41.3771 67.4245 39.9777 66.5337 38.8425C65.6429 37.7073 64.3997 36.9008 63 36.5501L54.91 34.5501V31.5801C56.398 30.7256 57.634 29.4932 58.4927 28.0076C59.3514 26.522 59.8023 24.836 59.8 23.1201V20.2701C59.85 17.6713 58.8862 15.1553 57.1129 13.255C55.3395 11.3547 52.896 10.2195 50.3 10.0901C48.9919 10.0499 47.6892 10.2729 46.469 10.7458C45.2488 11.2188 44.136 11.9321 43.1968 12.8434C42.2575 13.7546 41.5109 14.8453 41.0013 16.0506C40.4917 17.256 40.2294 18.5514 40.23 19.8601V23.1201C40.2276 24.8348 40.6775 26.5198 41.5343 28.0051C42.3911 29.4905 43.6245 30.7236 45.11 31.5801V34.5201L37.02 36.5201C35.6083 36.8691 34.3544 37.6814 33.4588 38.8271C32.5632 39.9729 32.0777 41.3858 32.08 42.8401V50.8401L67.92 50.8201Z" fill="#2D8CFF"/>
<path d="M68.43 69.3601L54.66 57.0001L52 47.5601L44.55 45.1701C42.7555 44.5972 40.8836 44.3038 39 44.3001C37.6543 44.2949 36.3123 44.4425 35 44.7401L15.79 49.1901L14.16 62.1901L25.64 69.4101L46.54 86.8301L49.06 89.0501C49.666 89.5883 50.4494 89.8838 51.26 89.8801H51.56C52.2449 89.8834 52.9141 89.6748 53.4758 89.2828C54.0375 88.8909 54.4643 88.3348 54.6976 87.6909C54.9308 87.0469 54.9592 86.3465 54.7788 85.6857C54.5985 85.025 54.2181 84.4362 53.69 84.0001C54.4655 84.6446 55.4416 84.9983 56.45 85.0001C57.132 84.9946 57.7959 84.7804 58.3526 84.3864C58.9093 83.9924 59.332 83.4374 59.5639 82.796C59.7959 82.1547 59.8259 81.4577 59.65 80.7987C59.4741 80.1398 59.1007 79.5505 58.58 79.1101L52.33 73.9101L58.85 79.3401C59.4478 79.8385 60.2017 80.111 60.98 80.1101H61.33C62.2131 80.1101 63.0601 79.7592 63.6846 79.1347C64.3091 78.5102 64.66 77.6632 64.66 76.7801C64.6592 76.2926 64.5524 75.8111 64.3469 75.369C64.1414 74.927 63.8422 74.5349 63.47 74.2201L63.72 74.4401C64.3295 74.9464 65.0976 75.2225 65.89 75.2201H66.17C66.853 75.2193 67.5198 75.0117 68.0824 74.6244C68.6451 74.2372 69.0773 73.6886 69.3219 73.0509C69.5666 72.4132 69.6124 71.7163 69.4532 71.0521C69.2939 70.3879 68.9372 69.7875 68.43 69.3301V69.3601Z" fill="#2D8CFF"/>
<path d="M68.43 69.36L54.66 57C53.7594 56.1822 52.5864 55.7294 51.37 55.73C50.4759 55.7321 49.5988 55.9738 48.83 56.43L42.76 60C42.1576 60.3662 41.4649 60.5567 40.76 60.55C39.7624 60.5344 38.8106 60.1291 38.108 59.4209C37.4053 58.7126 37.0077 57.7576 37 56.76V56.44C36.9927 55.7299 37.1834 55.0319 37.5509 54.4243C37.9183 53.8166 38.4478 53.3234 39.08 53L48.17 48.45C50.1088 47.4866 52.3369 47.2798 54.42 47.87L64.66 50.8H66.29L97.2899 34.5H98.91V55.7L69.55 70.36L68.43 69.36Z" fill="#FED674"/>
<path d="M40.23 84.83C40.2249 85.5146 40.4243 86.1852 40.8026 86.7559C41.1808 87.3265 41.7208 87.7713 42.3533 88.0334C42.9859 88.2954 43.6822 88.3627 44.3532 88.2267C45.0242 88.0907 45.6394 87.7576 46.12 87.27L49 84.41C49.6103 83.7539 49.9424 82.8867 49.9262 81.9908C49.9101 81.0949 49.547 80.2402 48.9134 79.6066C48.2798 78.9729 47.4251 78.6099 46.5292 78.5937C45.6333 78.5776 44.766 78.9096 44.11 79.52L41.25 82.38C40.9271 82.7011 40.6708 83.0829 40.4957 83.5033C40.3207 83.9237 40.2304 84.3746 40.23 84.83Z" fill="#FED674"/>
<path d="M35.34 79.9401C35.34 80.856 35.7032 81.7345 36.3499 82.3831C36.9966 83.0317 37.8741 83.3974 38.79 83.4001C39.7061 83.4002 40.5857 83.0412 41.24 82.4001L44.1 79.5301C44.4199 79.2098 44.673 78.8292 44.8447 78.4103C45.0163 77.9915 45.1031 77.5427 45.1 77.0901C45.1022 76.4055 44.9007 75.7358 44.5212 75.1661C44.1416 74.5964 43.6011 74.1525 42.9685 73.8909C42.3359 73.6293 41.6398 73.5618 40.9688 73.697C40.2977 73.8322 39.682 74.1639 39.2 74.6501L36.35 77.5001C36.0297 77.8205 35.7756 78.2009 35.6023 78.6196C35.429 79.0382 35.3399 79.4869 35.34 79.9401Z" fill="#FED674"/>
<path d="M30.4499 75.0599C30.4525 75.7424 30.6569 76.4088 31.0372 76.9753C31.4176 77.5419 31.957 77.9834 32.5876 78.2442C33.2182 78.505 33.9119 78.5735 34.5813 78.441C35.2508 78.3086 35.8661 77.9812 36.3499 77.4999L39.2099 74.6399C39.6912 74.1561 40.0186 73.5408 40.151 72.8713C40.2835 72.2019 40.215 71.5082 39.9542 70.8776C39.6934 70.247 39.2519 69.7076 38.6853 69.3272C38.1188 68.9469 37.4524 68.7425 36.7699 68.7399C36.3173 68.7369 35.8685 68.8237 35.4497 68.9953C35.0308 69.167 34.6502 69.4201 34.3299 69.7399L31.4599 72.5999C31.1377 72.9231 30.8825 73.3068 30.7092 73.729C30.5358 74.1512 30.4477 74.6036 30.4499 75.0599Z" fill="#FED674"/>
<path d="M25.56 70.17C25.5626 70.8525 25.7669 71.5189 26.1473 72.0854C26.5276 72.652 27.067 73.0935 27.6977 73.3543C28.3283 73.6151 29.0219 73.6836 29.6914 73.5511C30.3608 73.4187 30.9761 73.0913 31.46 72.61L34.32 69.75C34.6411 69.4296 34.8959 69.0491 35.0699 68.6302C35.2439 68.2113 35.3337 67.7622 35.3342 67.3086C35.3347 66.855 35.2458 66.4057 35.0726 65.9864C34.8994 65.5672 34.6454 65.1861 34.325 64.865C34.0046 64.544 33.624 64.2891 33.2051 64.1151C32.7862 63.9411 32.3371 63.8513 31.8835 63.8508C31.4299 63.8504 30.9806 63.9393 30.5614 64.1124C30.1421 64.2856 29.7611 64.5396 29.44 64.86L26.58 67.72C25.9288 68.3693 25.5619 69.2505 25.56 70.17Z" fill="#FED674"/>
<path d="M23.93 44.3L17.42 67.11H15.79L1.13004 62.22V31.27H4.38004L23.93 42.67V44.3Z" fill="#2D8CFF"/>
<path d="M91.38 36.34L91.14 36.21C90.5692 35.878 89.9573 35.6225 89.32 35.45L82.08 33.64V32.21L82.29 32.06C83.7366 31.0589 84.9202 29.7234 85.7402 28.1669C86.5601 26.6105 86.9923 24.8792 87 23.12V20.27C87.0246 17.3879 85.9362 14.6074 83.9615 12.5079C81.9868 10.4084 79.2782 9.15183 76.4 8.99997C76.11 8.99997 75.81 8.99997 75.52 8.99997C74.8494 9.03161 74.1814 9.10509 73.52 9.21997C72.95 9.36997 71.75 9.86997 71.74 9.86997C70.5328 10.3813 69.4257 11.1024 68.47 12C68.0083 12.395 67.5893 12.8374 67.22 13.32C66.8743 13.8559 66.57 14.4176 66.31 15C65.5571 16.5092 65.1667 18.1733 65.17 19.86V23.12C65.1714 24.8746 65.5968 26.6028 66.4099 28.1577C67.223 29.7125 68.3998 31.0478 69.84 32.05L70.05 32.21V33.64L63 35.4L56 33.64V32.21L56.21 32.06C57.651 31.0555 58.8288 29.7186 59.6434 28.1624C60.4581 26.6062 60.8857 24.8765 60.89 23.12V20.27C60.9151 17.3944 59.8322 14.6196 57.866 12.5211C55.8997 10.4227 53.2011 9.16176 50.33 8.99997C48.6936 8.94806 47.0667 9.26645 45.5706 9.93138C44.0746 10.5963 42.748 11.5906 41.69 12.84C39.9779 14.9067 39.0595 17.5165 39.1 20.2V23.15C39.1031 24.9043 39.5292 26.6319 40.3422 28.1865C41.1551 29.741 42.331 31.0766 43.77 32.08L43.99 32.23V33.67L37 35.4L30 33.64V32.21L30.22 32.05C31.6602 31.0478 32.837 29.7125 33.6501 28.1577C34.4632 26.6028 34.8886 24.8746 34.89 23.12V20.27C34.8889 18.4894 34.4747 16.7334 33.68 15.14C33.4669 14.6641 33.2161 14.2059 32.93 13.77C32.56 13.26 31.7 12.33 31.7 12.32C30.7053 11.2842 29.5159 10.455 28.2 9.87997H28.11C27.5618 9.62581 26.9931 9.4184 26.41 9.25997C25.85 9.16997 24.46 9.01997 24.41 9.01997H24.29C22.6195 8.95934 20.9573 9.28305 19.4316 9.96615C17.9059 10.6492 16.5574 11.6735 15.49 12.96C13.8473 15.0125 12.9672 17.5712 13 20.2V23.12C13.0034 24.8753 13.4307 26.6038 14.2455 28.1586C15.0603 29.7133 16.2385 31.0483 17.68 32.05L17.89 32.21V33.64L12.83 34.91L12.66 34.8L4.66 30.14H0V63L16 68.38C16.2565 68.466 16.5278 68.4991 16.7975 68.4773C17.0672 68.4554 17.3296 68.3791 17.5689 68.2529C17.8083 68.1267 18.0195 67.9532 18.1898 67.743C18.3602 67.5328 18.4861 67.2903 18.56 67.03L18.63 66.8L18.88 66.69L19.01 66.76L24.44 70V70.26C24.4769 71.4216 24.9522 72.5263 25.7703 73.3518C26.5884 74.1773 27.6887 74.6626 28.85 74.71H29.3V75.15C29.3491 76.3091 29.8316 77.4076 30.652 78.228C31.4723 79.0484 32.5708 79.5309 33.73 79.58H34.16V80.03C34.2068 81.1899 34.6885 82.2897 35.5094 83.1106C36.3303 83.9314 37.4301 84.4132 38.59 84.46H39.02V84.73C39.0298 85.6727 39.3204 86.591 39.8548 87.3677C40.3892 88.1443 41.1431 88.744 42.02 89.09C42.6976 89.3294 43.4222 89.4053 44.1347 89.3115C44.8473 89.2176 45.5275 88.9567 46.12 88.55L46.44 88.34L48.16 89.86C48.9884 90.5893 50.0563 90.9881 51.16 90.98H51.42C52.6015 91.0069 53.7458 90.5659 54.6036 89.753C55.4615 88.9401 55.9634 87.8212 56 86.64V86.17H56.47C57.6349 86.1494 58.7461 85.6768 59.569 84.852C60.3919 84.0272 60.862 82.9149 60.88 81.75V81.31H61.35C62.5141 81.2869 63.6239 80.8135 64.4463 79.9892C65.2686 79.165 65.7395 78.0541 65.76 76.89V76.4H66.13C66.7613 76.4095 67.3875 76.2846 67.9668 76.0334C68.5462 75.7823 69.0655 75.4108 69.4902 74.9435C69.9148 74.4763 70.2352 73.924 70.43 73.3234C70.6248 72.7228 70.6896 72.0876 70.62 71.46V71.12L100 56.4V33.4H97L91.38 36.34ZM72.3 35.4V30.93L71.74 30.6C70.4283 29.8403 69.3389 28.7497 68.5808 27.437C67.8227 26.1244 67.4224 24.6358 67.42 23.12V20.12C67.3873 18.0997 68.0354 16.1272 69.26 14.52C70.1001 13.4556 71.1785 12.6033 72.4082 12.0319C73.638 11.4604 74.9847 11.1858 76.34 11.23C78.6248 11.3684 80.7689 12.3799 82.3288 14.0551C83.8886 15.7304 84.7447 17.9411 84.72 20.23V23.08C84.7143 24.5977 84.3116 26.0874 83.552 27.4014C82.7924 28.7153 81.7023 29.8077 80.39 30.57L79.82 30.89V35.4L88.32 37.53L88.38 37.89L88.22 38L69.33 48L69.06 47.85V42.87C69.0558 40.8751 68.2695 38.9615 66.87 37.54L66.25 36.92L72.3 35.4ZM37.3 37.64L46.3 35.4V30.93L45.74 30.6C44.4271 29.8408 43.3363 28.7505 42.5765 27.438C41.8167 26.1255 41.4145 24.6366 41.41 23.12V19.86C41.4004 18.7037 41.625 17.5574 42.0701 16.4902C42.5152 15.4229 43.1717 14.4568 44 13.65C44.834 12.8467 45.8199 12.2181 46.9 11.8008C47.9801 11.3835 49.1326 11.1861 50.29 11.22C52.5748 11.3584 54.7189 12.3699 56.2788 14.0451C57.8386 15.7204 58.6947 17.9311 58.67 20.22V23.07C58.6643 24.5877 58.2616 26.0774 57.502 27.3914C56.7424 28.7053 55.6523 29.7977 54.34 30.56L53.78 30.88V35.4L62.78 37.64C63.9458 37.9321 64.9805 38.6054 65.7198 39.553C66.459 40.5006 66.8604 41.6681 66.86 42.87V49.28L66.08 49.69H64.82L54.82 46.83C54.0689 46.6303 53.2969 46.5195 52.52 46.5H52.42L44.93 44.1C41.6371 43.0489 38.1243 42.8902 34.75 43.64L33.21 44V42.87C33.2096 41.6681 33.611 40.5006 34.3502 39.553C35.0895 38.6054 36.1242 37.9321 37.29 37.64H37.3ZM16.13 36.44L16.31 36.37L20.18 35.37V30.93L19.62 30.6C18.3071 29.8408 17.2163 28.7505 16.4565 27.438C15.6967 26.1255 15.2945 24.6366 15.29 23.12V20.12C15.2564 18.1057 15.9048 16.1392 17.13 14.54C17.9685 13.4699 19.0475 12.6126 20.2793 12.0375C21.5112 11.4624 22.8612 11.1857 24.22 11.23C26.503 11.3709 28.6447 12.3834 30.2024 14.0584C31.7601 15.7334 32.6149 17.9427 32.59 20.23V23.08C32.5843 24.5977 32.1816 26.0874 31.422 27.4014C30.6624 28.7153 29.5723 29.8077 28.26 30.57L27.7 30.89V35.4L33.76 36.92L33.14 37.54C31.7588 38.9695 30.9908 40.8822 31 42.87V44.45L30.79 44.53L25 45.81L24.78 45.58L24.83 45.42L25.27 44C25.4178 43.5629 25.4099 43.0882 25.2477 42.6562C25.0855 42.2243 24.779 41.8617 24.38 41.63L16.09 36.79L16.13 36.44ZM16.56 66L16.36 66.12H16.24L2.24 61.45V61.25V32.42H2.52H4.09H4.17L23.1 43.28V43.5L16.56 66ZM30.67 71.82C30.2241 72.2569 29.6243 72.5011 29 72.5C28.5343 72.505 28.0778 72.3704 27.6893 72.1135C27.3009 71.8566 26.9983 71.4892 26.8207 71.0586C26.6431 70.6281 26.5986 70.1542 26.693 69.6981C26.7873 69.2421 27.0162 68.8247 27.35 68.5L30.21 65.64C30.4306 65.422 30.692 65.2496 30.9793 65.1326C31.2665 65.0156 31.574 64.9564 31.8841 64.9582C32.1943 64.9601 32.501 65.023 32.7869 65.1434C33.0727 65.2638 33.332 65.4394 33.55 65.66C33.768 65.8806 33.9404 66.142 34.0574 66.4292C34.1743 66.7165 34.2336 67.024 34.2317 67.3341C34.2299 67.6443 34.167 67.951 34.0465 68.2368C33.9261 68.5227 33.7506 68.782 33.53 69L30.67 71.82ZM35.55 76.7C35.3353 76.9163 35.0798 77.0879 34.7983 77.2046C34.5167 77.3213 34.2148 77.3809 33.91 77.38C33.6032 77.3813 33.2991 77.322 33.0153 77.2055C32.7314 77.089 32.4734 76.9176 32.256 76.7011C32.0386 76.4846 31.866 76.2273 31.7483 75.9439C31.6306 75.6606 31.57 75.3568 31.57 75.05C31.5709 74.7446 31.6323 74.4424 31.7508 74.1609C31.8692 73.8794 32.0423 73.6242 32.26 73.41L35.12 70.54C35.561 70.1079 36.1526 69.8641 36.77 69.86C37.2357 69.8549 37.6922 69.9895 38.0807 70.2464C38.4691 70.5034 38.7717 70.8708 38.9493 71.3013C39.1269 71.7319 39.1714 72.2058 39.077 72.6618C38.9827 73.1179 38.7538 73.5352 38.42 73.86L35.55 76.7ZM40.44 81.59C40.1153 81.9238 39.6979 82.1527 39.2418 82.247C38.7858 82.3413 38.3119 82.2969 37.8814 82.1193C37.4508 81.9417 37.0834 81.6391 36.8265 81.2507C36.5695 80.8622 36.4349 80.4057 36.44 79.94C36.4441 79.3226 36.6879 78.731 37.12 78.29L40 75.43C40.3247 75.0961 40.7421 74.8673 41.1982 74.7729C41.6542 74.6786 42.1281 74.7231 42.5586 74.9007C42.9892 75.0783 43.3566 75.3808 43.6135 75.7693C43.8704 76.1577 44.0051 76.6143 44 77.08C43.9959 77.6974 43.7521 78.289 43.32 78.73L40.44 81.59ZM48.19 83.59L45.33 86.46C44.889 86.8921 44.2974 87.1359 43.68 87.14C43.062 87.14 42.4694 86.8945 42.0324 86.4575C41.5955 86.0206 41.35 85.4279 41.35 84.81C41.3511 84.2037 41.5836 83.6207 42 83.18L44.87 80.32C45.0847 80.1036 45.3402 79.9321 45.6217 79.8154C45.9033 79.6986 46.2052 79.639 46.51 79.64C46.821 79.6359 47.1297 79.6942 47.4179 79.8114C47.706 79.9286 47.9678 80.1023 48.1878 80.3222C48.4077 80.5422 48.5814 80.8039 48.6986 81.0921C48.8157 81.3802 48.874 81.6889 48.87 82C48.864 82.6052 48.6197 83.1837 48.19 83.61V83.59ZM53.59 87.45C53.4027 87.854 53.1011 88.1943 52.7226 88.4288C52.3441 88.6634 51.9052 88.782 51.46 88.77H51.26C50.7228 88.7693 50.2041 88.5739 49.8 88.22L48.32 86.91V86.7L48.4 86.6L49.79 85.21C50.1847 84.8169 50.5004 84.3519 50.72 83.84L50.99 83.24L52.99 84.89C53.3488 85.2022 53.5999 85.6196 53.7076 86.0829C53.8153 86.5461 53.7742 87.0315 53.59 87.47V87.45ZM68 73.23C67.775 73.5198 67.4847 73.7523 67.1528 73.9087C66.8209 74.0651 66.4567 74.1409 66.09 74.13H65.92C65.3896 74.1281 64.8766 73.9406 64.47 73.6L56.03 66.6L54.59 68.33L62.78 75.16C63.1443 75.4682 63.4002 75.8851 63.51 76.3495C63.6198 76.8139 63.5778 77.3013 63.39 77.74C63.1919 78.1376 62.8819 78.4687 62.4981 78.6925C62.1144 78.9164 61.6736 79.0232 61.23 79H61C60.4845 79.002 59.9849 78.8213 59.59 78.49L51.13 71.49L49.68 73.22L57.86 80C58.2965 80.3699 58.5756 80.8923 58.6406 81.4607C58.7057 82.0292 58.5517 82.601 58.21 83.06C58.058 83.2758 57.8633 83.4582 57.638 83.5958C57.4126 83.7334 57.1615 83.8233 56.9 83.86C56.7502 83.8699 56.5998 83.8699 56.45 83.86C55.7203 83.8481 55.0158 83.591 54.45 83.13L50.64 80C50.2848 79.247 49.7294 78.6062 49.0345 78.1476C48.3396 77.6891 47.532 77.4304 46.7 77.4H46.24V76.95C46.1932 75.79 45.7115 74.6902 44.8906 73.8694C44.0697 73.0485 42.9699 72.5668 41.81 72.52H41.4L41.35 72.07C41.3008 70.9118 40.8179 69.8145 39.9973 68.9957C39.1767 68.177 38.0783 67.6966 36.92 67.65H36.48V67.19C36.4623 66.564 36.2979 65.9508 36 65.4C35.6741 64.7179 35.1902 64.1235 34.5884 63.6661C33.9866 63.2086 33.2844 62.9014 32.54 62.77C31.8344 62.6681 31.1148 62.7316 30.438 62.9555C29.7612 63.1793 29.1457 63.5575 28.64 64.06L25.78 66.93C25.6407 67.0661 25.5167 67.217 25.41 67.38L25.16 67.7L24.71 67.56L19.39 64.37V64.16L23.9 48.36H24.07L35.2 45.89C38.1822 45.2208 41.2889 45.3589 44.2 46.29L47.29 47.29L47.34 47.65L47.17 47.75L38.58 52C37.7545 52.408 37.06 53.0395 36.5757 53.8226C36.0913 54.6058 35.8364 55.5091 35.84 56.43V56.58C35.8169 57.4873 36.0387 58.3841 36.4822 59.1759C36.9257 59.9678 37.5743 60.6256 38.36 61.08C39.1271 61.5067 39.993 61.724 40.8707 61.71C41.7484 61.6959 42.6069 61.451 43.36 61L49.43 57.36C50.1314 56.954 50.9421 56.7771 51.7489 56.8542C52.5556 56.9313 53.3182 57.2585 53.93 57.79L67.68 70.19C68.1043 70.5646 68.3727 71.0848 68.4319 71.6477C68.4912 72.2106 68.337 72.7752 68 73.23ZM97.74 35.82V55L97.61 55.09L69.69 69L69.43 68.73L69.18 68.48L55.42 56.13C54.3104 55.1265 52.866 54.5737 51.37 54.58C50.2715 54.5805 49.1936 54.8776 48.25 55.44L42.18 59.08C41.7507 59.3467 41.2554 59.488 40.75 59.488C40.2446 59.488 39.7493 59.3467 39.32 59.08C38.9319 58.8206 38.6156 58.4673 38.4006 58.053C38.1855 57.6386 38.0787 57.1767 38.09 56.71V56.51C38.0796 55.9918 38.2158 55.4813 38.483 55.0372C38.7502 54.5931 39.1374 54.2336 39.6 54L48.68 49.47C50.3722 48.6439 52.3111 48.4764 54.12 49L64.29 51.91L66.58 51.97L97.47 35.68L97.74 35.82Z" fill="#0B0F30"/>
</svg>
