<svg width="100" height="100" viewBox="0 0 100 100" fill="none" xmlns="http://www.w3.org/2000/svg">
<g clip-path="url(#clip0)">
<path d="M27.65 20.3101H22.33C21.6501 20.3101 20.998 20.5794 20.5163 21.0593C20.0346 21.5391 19.7627 22.1902 19.76 22.8701V26.8701C19.76 27.5517 20.0308 28.2054 20.5127 28.6873C20.9947 29.1693 21.6484 29.4401 22.33 29.4401H27.65V20.3101Z" fill="#FED674"/>
<path d="M50.37 20.3101H55.69C56.3699 20.3101 57.022 20.5794 57.5037 21.0593C57.9854 21.5391 58.2573 22.1902 58.26 22.8701V26.8701C58.26 27.5517 57.9892 28.2054 57.5073 28.6873C57.0253 29.1693 56.3716 29.4401 55.69 29.4401H50.37V20.3101Z" fill="#FED674"/>
<path d="M52.3399 20.31L25.6799 22.31V9.40001C25.6852 7.16862 26.576 5.03058 28.1567 3.45556C29.7373 1.88054 31.8785 0.99735 34.1099 1.00001H43.9099C46.1413 0.99735 48.2825 1.88054 49.8632 3.45556C51.4438 5.03058 52.3346 7.16862 52.3399 9.40001V20.31Z" fill="#2D8CFF"/>
<path d="M56.9999 47.55L47.9199 45C47.0377 44.7501 46.2608 44.2197 45.7069 43.489C45.153 42.7582 44.8522 41.867 44.8499 40.95V35.77H33.1699V40.93C33.1585 41.8388 32.8533 42.7195 32.3 43.4405C31.7466 44.1614 30.9748 44.684 30.0999 44.93L20.9999 47.54C17.6073 48.2157 14.5525 50.0432 12.3529 52.713C10.1533 55.3828 8.94402 58.7308 8.92993 62.19V72.3H69.0899V62.19C69.0726 58.7297 67.8595 55.3818 65.6561 52.7137C63.4527 50.0456 60.3945 48.2213 56.9999 47.55Z" fill="#2D8CFF"/>
<path d="M30.1 45C32.767 46.6783 35.8539 47.5687 39.005 47.5687C42.1561 47.5687 45.243 46.6783 47.91 45C47.0296 44.7483 46.255 44.2171 45.703 43.4865C45.151 42.756 44.8516 41.8657 44.85 40.95V35.77H33.17V40.93C33.1586 41.8388 32.8534 42.7195 32.3 43.4405C31.7467 44.1614 30.9749 44.684 30.1 44.93V45Z" fill="#2D8CFF"/>
<path d="M52.3399 20.31V30.71C52.3376 33.2606 51.3234 35.7062 49.5199 37.51L48.1999 38.83C46.7712 40.2615 44.8325 41.0672 42.8099 41.07H35.2099C33.1874 41.0672 31.2487 40.2615 29.8199 38.83L28.4999 37.51C26.6965 35.7062 25.6823 33.2606 25.6799 30.71V20.31C29.0859 21.1298 32.6493 21.0228 35.9999 20C39.0137 19.0715 41.7584 17.4282 43.9999 15.21C44.6885 16.7736 45.8313 18.0941 47.2799 19C48.7917 19.9468 50.5587 20.4042 52.3399 20.31Z" fill="#FED674"/>
<path d="M71.68 46.5C71.1201 47.0437 70.3704 47.3478 69.59 47.3478C68.8095 47.3478 68.0598 47.0437 67.5 46.5L63.14 42.14C62.7717 41.8921 62.4631 41.5655 62.2363 41.1839C62.0096 40.8023 61.8703 40.3751 61.8287 39.9331C61.787 39.4912 61.8439 39.0455 61.9954 38.6282C62.1468 38.2109 62.3889 37.8324 62.7043 37.52C63.0197 37.2076 63.4005 36.9691 63.8193 36.8217C64.238 36.6743 64.6842 36.6217 65.1258 36.6676C65.5673 36.7135 65.9931 36.8568 66.3726 37.0873C66.752 37.3177 67.0756 37.6294 67.32 38L71.68 42.35C72.2148 42.9084 72.5133 43.6518 72.5133 44.425C72.5133 45.1982 72.2148 45.9416 71.68 46.5Z" fill="#FED674"/>
<path d="M5.49001 46.5C6.04988 47.0437 6.79959 47.3478 7.58001 47.3478C8.36043 47.3478 9.11014 47.0437 9.67001 46.5L14 42.14C14.377 41.8974 14.6949 41.5735 14.9303 41.1919C15.1656 40.8104 15.3125 40.3809 15.36 39.9352C15.4076 39.4894 15.3546 39.0386 15.205 38.616C15.0555 38.1934 14.8131 37.8097 14.4957 37.4931C14.1783 37.1765 13.794 36.935 13.3711 36.7864C12.9481 36.6379 12.4972 36.586 12.0515 36.6346C11.6059 36.6833 11.1768 36.8312 10.7958 37.0674C10.4148 37.3037 10.0916 37.6224 9.85001 38L5.49001 42.31C4.94333 42.8703 4.63733 43.6221 4.63733 44.405C4.63733 45.1878 4.94333 45.9396 5.49001 46.5Z" fill="#FED674"/>
<path d="M7.48999 98.52V81H70.49V98.52H7.48999Z" fill="#2D8CFF"/>
<path d="M74.0899 86.89H3.92993C3.13428 86.89 2.37122 86.5739 1.80861 86.0113C1.246 85.4487 0.929932 84.6857 0.929932 83.89V75.26C0.929932 74.4644 1.246 73.7013 1.80861 73.1387C2.37122 72.5761 3.13428 72.26 3.92993 72.26H74.0899C74.8856 72.26 75.6486 72.5761 76.2113 73.1387C76.7739 73.7013 77.0899 74.4644 77.0899 75.26V83.93C77.0794 84.7187 76.7587 85.4715 76.1972 86.0255C75.6358 86.5795 74.8787 86.8901 74.0899 86.89Z" fill="#FED674"/>
<path d="M70.42 1H93.11C94.6697 1.00788 96.1633 1.63097 97.2662 2.73385C98.369 3.83674 98.9921 5.33031 99 6.89V14.78C99 16.3501 98.3763 17.8559 97.2661 18.9661C96.1559 20.0763 94.6501 20.7 93.08 20.7H79.62C79.3687 20.6989 79.1199 20.7499 78.8893 20.8497C78.6587 20.9496 78.4512 21.0961 78.28 21.28L74.42 25.49C74.3149 25.6042 74.1785 25.6849 74.0278 25.7221C73.8771 25.7592 73.7188 25.7511 73.5727 25.6989C73.4265 25.6466 73.299 25.5524 73.2061 25.4282C73.1131 25.3039 73.0588 25.155 73.05 25V22.51C73.05 22.2715 73.0029 22.0353 72.9113 21.815C72.8197 21.5948 72.6855 21.3948 72.5163 21.2266C72.3472 21.0584 72.1465 20.9253 71.9257 20.8349C71.705 20.7445 71.4685 20.6987 71.23 20.7H70.42C68.8499 20.7 67.3441 20.0763 66.2339 18.9661C65.1237 17.8559 64.5 16.3501 64.5 14.78V6.89C64.5079 5.32512 65.1351 3.82704 66.2445 2.72331C67.3539 1.61957 68.8551 0.99998 70.42 1Z" fill="#FED674"/>
<path d="M87.51 12.92H77.2C77.0535 12.8866 76.9014 12.8867 76.755 12.9201C76.6086 12.9536 76.4716 13.0196 76.3542 13.1133C76.2367 13.207 76.1419 13.3259 76.0768 13.4612C76.0116 13.5965 75.9778 13.7448 75.9778 13.895C75.9778 14.0452 76.0116 14.1935 76.0768 14.3288C76.1419 14.4642 76.2367 14.5831 76.3542 14.6767C76.4716 14.7704 76.6086 14.8364 76.755 14.8699C76.9014 14.9034 77.0535 14.9034 77.2 14.87H87.51C87.6564 14.9034 87.8085 14.9034 87.955 14.8699C88.1014 14.8364 88.2384 14.7704 88.3558 14.6767C88.4732 14.5831 88.568 14.4642 88.6332 14.3288C88.6984 14.1935 88.7322 14.0452 88.7322 13.895C88.7322 13.7448 88.6984 13.5965 88.6332 13.4612C88.568 13.3259 88.4732 13.207 88.3558 13.1133C88.2384 13.0196 88.1014 12.9536 87.955 12.9201C87.8085 12.8867 87.6564 12.8866 87.51 12.92Z" fill="#0B0F30"/>
<path d="M93.11 0H70.42C68.5935 0.00264523 66.8425 0.729403 65.551 2.02096C64.2594 3.31251 63.5327 5.06347 63.53 6.89V14.78C63.5327 16.6075 64.2591 18.3595 65.5504 19.6526C66.8416 20.9457 68.5926 21.6747 70.42 21.68H71.23C71.3412 21.6787 71.4515 21.6994 71.5546 21.7411C71.6576 21.7827 71.7514 21.8443 71.8305 21.9225C71.9095 22.0006 71.9723 22.0937 72.0151 22.1962C72.058 22.2988 72.08 22.4088 72.08 22.52V25C72.0793 25.3552 72.1861 25.7024 72.3864 25.9958C72.5867 26.2892 72.871 26.5152 73.2021 26.6439C73.5332 26.7727 73.8955 26.7982 74.2414 26.7172C74.5873 26.6362 74.9006 26.4524 75.14 26.19L79 22C79.0774 21.9125 79.173 21.8429 79.2801 21.7963C79.3872 21.7496 79.5033 21.727 79.62 21.73H93.11C94.9375 21.7247 96.6884 20.9957 97.9797 19.7026C99.271 18.4095 99.9974 16.6575 100 14.83V6.89C99.9974 5.06347 99.2706 3.31251 97.9791 2.02096C96.6875 0.729403 94.9366 0.00264523 93.11 0V0ZM98.05 14.78C98.0501 16.0958 97.5316 17.3585 96.6069 18.2945C95.6821 19.2305 94.4257 19.7642 93.11 19.78H79.62C79.2333 19.7807 78.8509 19.861 78.4965 20.0159C78.1421 20.1707 77.8233 20.3968 77.56 20.68L74 24.49V22.49C74 21.75 73.7061 21.0404 73.1829 20.5172C72.6596 19.9939 71.95 19.7 71.21 19.7H70.4C69.0844 19.6842 67.828 19.1505 66.9032 18.2145C65.9785 17.2785 65.4599 16.0158 65.46 14.7V6.89C65.4732 5.58504 66.0023 4.33833 66.9316 3.42212C67.8609 2.50591 69.115 1.99465 70.42 2H93.11C94.4154 2.01557 95.6629 2.54103 96.5859 3.46411C97.509 4.38719 98.0345 5.63467 98.05 6.94V14.78Z" fill="#0B0F30"/>
<path d="M87.51 7H77.2C76.9347 7 76.6804 7.10536 76.4928 7.29289C76.3053 7.48043 76.2 7.73478 76.2 8C76.2 8.26522 76.3053 8.51957 76.4928 8.70711C76.6804 8.89464 76.9347 9 77.2 9H87.51C87.6564 9.03338 87.8085 9.03333 87.9549 8.99987C88.1014 8.96642 88.2384 8.9004 88.3558 8.80673C88.4732 8.71306 88.568 8.59414 88.6332 8.45881C88.6983 8.32348 88.7322 8.1752 88.7322 8.025C88.7322 7.8748 88.6983 7.72652 88.6332 7.59119C88.568 7.45586 88.4732 7.33694 88.3558 7.24327C88.2384 7.1496 88.1014 7.08359 87.9549 7.05013C87.8085 7.01667 87.6564 7.01662 87.51 7.05V7Z" fill="#0B0F30"/>
<path d="M77.24 72.92L77.1 72.74L77.15 72.52C77.1599 72.4503 77.1599 72.3797 77.15 72.31V53.06C77.1508 52.2837 76.9984 51.5149 76.7015 50.7976C76.4047 50.0803 75.9692 49.4287 75.42 48.88L73 46.43L73.16 46.1C73.5108 45.367 73.6251 44.5431 73.4872 43.7423C73.3492 42.9415 72.9658 42.2034 72.39 41.63L68 37.27C67.6377 36.9075 67.2074 36.6203 66.7337 36.4246C66.2601 36.229 65.7525 36.1289 65.24 36.13C64.7216 36.1246 64.2073 36.2229 63.7274 36.4192C63.2475 36.6154 62.8117 36.9056 62.4455 37.2726C62.0794 37.6397 61.7903 38.0763 61.5953 38.5567C61.4003 39.0371 61.3033 39.5516 61.31 40.07C61.3066 40.5828 61.4058 41.0911 61.6015 41.565C61.7973 42.039 62.0858 42.4691 62.45 42.83L66.81 47.19C67.3895 47.7558 68.1271 48.1323 68.9253 48.2698C69.7235 48.4073 70.5446 48.2993 71.28 47.96L71.61 47.8L74.06 50.26C74.4291 50.6267 74.7216 51.063 74.9208 51.5437C75.1199 52.0243 75.2216 52.5397 75.22 53.06V71.46L74.65 71.38C74.4603 71.3652 74.2697 71.3652 74.08 71.38H70.08V62.2C70.0601 58.527 68.777 54.9727 66.4462 52.1338C64.1154 49.295 60.8789 47.3446 57.28 46.61C56.9 46.53 48.14 44 48.08 44C47.5948 43.8461 47.1532 43.5791 46.7915 43.2209C46.4298 42.8627 46.1585 42.4237 46 41.94L45.86 41.51L46.27 41.32C47.2506 40.8925 48.1426 40.2854 48.9 39.53L50.22 38.21C52.1584 36.2731 53.2697 33.6598 53.32 30.92V30.42H55.69C56.1549 30.42 56.6152 30.3284 57.0447 30.1505C57.4742 29.9726 57.8644 29.7119 58.1932 29.3832C58.5219 29.0544 58.7826 28.6642 58.9605 28.2347C59.1384 27.8052 59.23 27.3449 59.23 26.88V22.88C59.2313 22.4147 59.1407 21.9538 58.9632 21.5237C58.7858 21.0937 58.5251 20.7029 58.1961 20.3739C57.8671 20.0449 57.4764 19.7842 57.0463 19.6068C56.6162 19.4293 56.1553 19.3387 55.69 19.34H53.31V9.4C53.3047 6.90859 52.3127 4.52073 50.551 2.75903C48.7893 0.997335 46.4014 0.00528403 43.91 0L34.11 0C31.617 0 29.226 0.990354 27.4632 2.7532C25.7004 4.51604 24.71 6.90696 24.71 9.4V19.4H24.18C23.5739 19.3643 22.9661 19.3643 22.36 19.4C21.893 19.3974 21.43 19.4869 20.9976 19.6635C20.5653 19.8401 20.172 20.1003 19.8404 20.4291C19.5087 20.758 19.2452 21.1491 19.065 21.5799C18.8848 22.0108 18.7913 22.473 18.79 22.94V26.94C18.79 27.4049 18.8816 27.8652 19.0595 28.2947C19.2374 28.7242 19.4981 29.1144 19.8268 29.4432C20.1556 29.7719 20.5458 30.0326 20.9753 30.2105C21.4048 30.3884 21.8651 30.48 22.33 30.48H24.7V30.97C24.7482 33.7102 25.8598 36.3243 27.8 38.26L29.13 39.59C29.8801 40.345 30.7655 40.9522 31.74 41.38L32.16 41.57L32.02 42C31.8528 42.5059 31.5638 42.963 31.1784 43.3309C30.793 43.6989 30.3231 43.9664 29.81 44.11L20.81 46.66C17.2193 47.3904 13.9881 49.3311 11.6565 52.1578C9.32484 54.9846 8.03411 58.5259 8 62.19V71.33H4C3.5502 71.3319 3.10394 71.4097 2.68 71.56L2 71.8V53.06C2.00442 52.0106 2.42103 51.005 3.16 50.26L5.62 47.81L5.94 47.96C6.67543 48.2993 7.49653 48.4073 8.29469 48.2698C9.09286 48.1323 9.83048 47.7558 10.41 47.19L14.6 43C15.2878 42.3404 15.7289 41.4652 15.85 40.52C15.9208 39.8879 15.8367 39.2481 15.605 38.6557C15.3733 38.0634 15.0009 37.5363 14.52 37.12C13.7244 36.4847 12.7238 36.1625 11.707 36.2141C10.6901 36.2657 9.72729 36.6875 9 37.4L4.8 41.63C4.22177 42.2015 3.83449 42.9379 3.69126 43.7382C3.54803 44.5384 3.65588 45.3634 4 46.1L4.16 46.43L1.73 48.88C1.18083 49.4287 0.745327 50.0803 0.44846 50.7976C0.151592 51.5149 -0.000804373 52.2837 3.19277e-06 53.06V83.94C3.19277e-06 84.9823 0.414056 85.9819 1.15107 86.7189C1.88809 87.4559 2.8877 87.87 3.93 87.87H6.51V98C6.51 98.5304 6.72072 99.0391 7.09579 99.4142C7.47086 99.7893 7.97957 100 8.51 100H69.51C70.0404 100 70.5491 99.7893 70.9242 99.4142C71.2993 99.0391 71.51 98.5304 71.51 98V87.87H74.08C75.1206 87.8674 76.1176 87.4521 76.8525 86.7154C77.5873 85.9787 78 84.9806 78 83.94V75.25C78.008 74.4112 77.741 73.5928 77.24 72.92ZM71.1 45.7C70.9213 45.9062 70.7024 46.0736 70.4566 46.192C70.2109 46.3104 69.9435 46.3773 69.6709 46.3886C69.3983 46.3998 69.1264 46.3552 68.8717 46.2574C68.617 46.1596 68.385 46.0108 68.19 45.82L63.83 41.46C63.5592 41.18 63.3761 40.827 63.3031 40.4444C63.2301 40.0618 63.2704 39.6662 63.4191 39.3062C63.5678 38.9462 63.8184 38.6374 64.1401 38.4178C64.4617 38.1982 64.8406 38.0773 65.23 38.07C65.7547 38.0722 66.2575 38.2805 66.63 38.65L70.9 42.92C71.2735 43.2753 71.501 43.7571 71.538 44.2713C71.575 44.7855 71.4188 45.2949 71.1 45.7ZM53.31 21.29H55.69C56.1117 21.29 56.5161 21.4575 56.8143 21.7557C57.1125 22.0539 57.28 22.4583 57.28 22.88V26.88C57.28 27.3017 57.1125 27.7061 56.8143 28.0043C56.5161 28.3025 56.1117 28.47 55.69 28.47H53.31V21.29ZM24.71 28.47H22.33C21.9083 28.47 21.5039 28.3025 21.2057 28.0043C20.9075 27.7061 20.74 27.3017 20.74 26.88V22.88C20.74 22.4583 20.9075 22.0539 21.2057 21.7557C21.5039 21.4575 21.9083 21.29 22.33 21.29H24.71V28.47ZM6.18 43L10.54 38.64C10.821 38.372 11.174 38.1916 11.5559 38.1208C11.9377 38.05 12.3319 38.0919 12.6904 38.2415C13.0488 38.391 13.3559 38.6416 13.5743 38.9628C13.7926 39.2839 13.9128 39.6617 13.92 40.05C13.9178 40.5747 13.7095 41.0775 13.34 41.45L9 45.81C8.8232 46.0259 8.60318 46.2024 8.35407 46.3282C8.10497 46.454 7.8323 46.5262 7.55361 46.5403C7.27491 46.5544 6.99634 46.51 6.73583 46.41C6.47531 46.31 6.23861 46.1566 6.04094 45.9596C5.84326 45.7626 5.689 45.5265 5.58806 45.2663C5.48712 45.0061 5.44174 44.7277 5.45484 44.449C5.46794 44.1702 5.53922 43.8973 5.66411 43.6478C5.789 43.3982 5.96473 43.1776 6.18 43ZM50.23 5.11L50.85 6.68C51.1882 7.54692 51.3611 8.46946 51.36 9.4V19.4L50.78 19.31C49.6948 19.1515 48.657 18.7591 47.7385 18.16C46.8199 17.5608 46.0425 16.7692 45.46 15.84L45.25 15.51L45.52 15.23C46.3774 14.3128 47.135 13.3072 47.78 12.23C48.7762 10.5525 49.486 8.72078 49.88 6.81L50.23 5.11ZM26.66 9.4C26.6732 7.43281 27.4639 5.5507 28.8597 4.16435C30.2554 2.778 32.1428 1.99996 34.11 2H43.9C45.3976 1.99986 46.8607 2.44925 48.1 3.29L48.33 3.45V3.73C48.2116 6.37523 47.4532 8.95224 46.12 11.24C43.73 14.79 41.28 17.24 35.78 19.16C34.1394 19.6759 32.4298 19.9389 30.71 19.94C29.5054 19.9196 28.3032 19.8261 27.11 19.66L26.67 19.6L26.66 9.4ZM30.51 38.15L29.19 36.83C28.387 36.0261 27.7502 35.0718 27.3161 34.0217C26.882 32.9716 26.6591 31.8463 26.66 30.71V21.53L27.24 21.62C30.2749 22.0966 33.3781 21.8847 36.32 21C38.899 20.2117 41.2979 18.9239 43.38 17.21L43.8 16.86L44.04 17.21C44.483 17.8456 45 18.4264 45.58 18.94C47.0717 20.2495 48.9351 21.0606 50.91 21.26L51.36 21.31V30.73C51.3609 31.8663 51.138 32.9916 50.7039 34.0417C50.2698 35.0918 49.633 36.0461 48.83 36.85L47.51 38.17C46.2689 39.4251 44.5849 40.1432 42.82 40.17H35.07C33.352 40.0859 31.7266 39.3659 30.51 38.15ZM45.82 45.05L45.15 45.33C43.4068 46.0727 41.5433 46.4928 39.65 46.57H39C36.8894 46.5672 34.8011 46.1387 32.86 45.31L32.2 45L32.71 44.46C33.2818 43.8582 33.7002 43.1276 33.93 42.33L34.05 41.94H34.46C34.71 41.94 34.96 41.94 35.21 41.94H42.81C43.06 41.94 43.31 41.94 43.56 41.94L44 42L44.11 42.39C44.3491 43.194 44.7738 43.9304 45.35 44.54L45.82 45.05ZM9.9 62.2C9.93169 58.9491 11.0842 55.8087 13.163 53.3091C15.2417 50.8095 18.1194 49.1038 21.31 48.48L30 46L30.18 46.11C32.8753 47.6661 35.9327 48.4854 39.045 48.4854C42.1573 48.4854 45.2147 47.6661 47.91 46.11L48.1 46.01L56.79 48.45C59.9725 49.0862 62.8375 50.8022 64.9003 53.3078C66.963 55.8133 68.0969 58.9546 68.11 62.2V71.33H59V67.89C59 67.6248 58.8946 67.3704 58.7071 67.1829C58.5196 66.9954 58.2652 66.89 58 66.89C57.7348 66.89 57.4804 66.9954 57.2929 67.1829C57.1054 67.3704 57 67.6248 57 67.89V71.33H21V67.89C20.9497 67.6691 20.8258 67.4718 20.6486 67.3305C20.4715 67.1892 20.2516 67.1122 20.025 67.1122C19.7984 67.1122 19.5785 67.1892 19.4014 67.3305C19.2242 67.4718 19.1004 67.6691 19.05 67.89V71.33H9.9V62.2ZM8.46 98V87.87H69.56V98H8.46ZM76.07 84C76.07 84.5304 75.8593 85.0391 75.4842 85.4142C75.1091 85.7893 74.6004 86 74.07 86H3.93C3.39957 86 2.89086 85.7893 2.51579 85.4142C2.14072 85.0391 1.93 84.5304 1.93 84V75.27C1.93 74.7396 2.14072 74.2309 2.51579 73.8558C2.89086 73.4807 3.39957 73.27 3.93 73.27H74.08C74.6104 73.27 75.1191 73.4807 75.4942 73.8558C75.8693 74.2309 76.08 74.7396 76.08 75.27L76.07 84Z" fill="#0B0F30"/>
</g>
<defs>
<clipPath id="clip0">
<rect width="100" height="100" fill="white"/>
</clipPath>
</defs>
</svg>
