<svg width="48" height="48" viewBox="0 0 48 48" fill="none" xmlns="http://www.w3.org/2000/svg">
<g clip-path="url(#clip0)">
<path d="M40.7616 47.2703H7.2384C6.48349 47.2703 5.75949 46.9704 5.22569 46.4366C4.69189 45.9028 4.392 45.1788 4.392 44.4239V3.57589C4.392 2.82098 4.69189 2.09699 5.22569 1.56318C5.75949 1.02938 6.48349 0.729492 7.2384 0.729492H40.7616C41.5165 0.729492 42.2405 1.02938 42.7743 1.56318C43.3081 2.09699 43.608 2.82098 43.608 3.57589V44.4239C43.608 44.7977 43.5344 45.1678 43.3913 45.5132C43.2483 45.8585 43.0386 46.1723 42.7743 46.4366C42.51 46.7009 42.1962 46.9106 41.8509 47.0536C41.5055 47.1967 41.1354 47.2703 40.7616 47.2703Z" fill="#A8D3FF"/>
<path d="M40.6464 0H7.3536C6.37502 0.00127006 5.43689 0.390571 4.74493 1.08253C4.05297 1.77449 3.66367 2.71262 3.6624 3.6912V44.3088C3.66367 45.2874 4.05297 46.2255 4.74493 46.9175C5.43689 47.6094 6.37502 47.9987 7.3536 48H40.6464C41.625 47.9987 42.5631 47.6094 43.2551 46.9175C43.947 46.2255 44.3363 45.2874 44.3376 44.3088V3.6912C44.3363 2.71262 43.947 1.77449 43.2551 1.08253C42.5631 0.390571 41.625 0.00127006 40.6464 0V0ZM42.8736 44.3088C42.8768 44.6033 42.8215 44.8955 42.711 45.1685C42.6005 45.4415 42.437 45.6898 42.2298 45.8992C42.0227 46.1086 41.7761 46.2748 41.5043 46.3882C41.2325 46.5016 40.9409 46.56 40.6464 46.56H7.3536C6.76291 46.56 6.19641 46.3253 5.77873 45.9077C5.36105 45.49 5.1264 44.9235 5.1264 44.3328V3.6912C5.1264 3.10051 5.36105 2.53401 5.77873 2.11633C6.19641 1.69865 6.76291 1.464 7.3536 1.464H40.6464C41.2371 1.464 41.8036 1.69865 42.2213 2.11633C42.639 2.53401 42.8736 3.10051 42.8736 3.6912V44.3088Z" fill="#2D8CFF"/>
<path d="M13.8432 4.72314C12.7446 4.72314 11.6707 5.04898 10.7573 5.65943C9.84389 6.26988 9.13208 7.13752 8.71188 8.15258C8.29168 9.16765 8.18199 10.2845 8.39666 11.362C8.61134 12.4394 9.14074 13.4289 9.91791 14.2054C10.6951 14.9819 11.6851 15.5105 12.7627 15.7242C13.8403 15.938 14.9571 15.8273 15.9718 15.4062C16.9865 14.9851 17.8535 14.2726 18.4632 13.3587C19.0728 12.4447 19.3977 11.3705 19.3968 10.2719C19.3943 8.80026 18.8082 7.38965 17.7671 6.34946C16.726 5.30927 15.3149 4.72441 13.8432 4.72314ZM13.8432 14.3615C13.0341 14.3615 12.2433 14.1216 11.5706 13.672C10.898 13.2224 10.3738 12.5834 10.0644 11.8359C9.75505 11.0883 9.67434 10.2658 9.83253 9.47234C9.99072 8.6789 10.3807 7.95021 10.9531 7.37846C11.5255 6.80671 12.2547 6.4176 13.0483 6.26034C13.8419 6.10308 14.6644 6.18476 15.4115 6.49503C16.1587 6.80529 16.7971 7.33022 17.2459 8.00338C17.6947 8.67654 17.9337 9.46769 17.9328 10.2767C17.9315 11.3605 17.5001 12.3995 16.7333 13.1654C15.9665 13.9313 14.927 14.3615 13.8432 14.3615Z" fill="#2D8CFF"/>
<path d="M22.8096 7.55038H38.7552C38.9391 7.53548 39.1106 7.4519 39.2357 7.31627C39.3608 7.18063 39.4303 7.00289 39.4303 6.81838C39.4303 6.63388 39.3608 6.45613 39.2357 6.3205C39.1106 6.18487 38.9391 6.10129 38.7552 6.08638H22.8096C22.7085 6.07819 22.6068 6.09103 22.5109 6.1241C22.415 6.15717 22.327 6.20975 22.2524 6.27852C22.1778 6.34729 22.1183 6.43077 22.0776 6.52368C22.0369 6.6166 22.0159 6.71694 22.0159 6.81838C22.0159 6.91983 22.0369 7.02017 22.0776 7.11308C22.1183 7.206 22.1778 7.28948 22.2524 7.35825C22.327 7.42702 22.415 7.4796 22.5109 7.51267C22.6068 7.54574 22.7085 7.55858 22.8096 7.55038Z" fill="#2D8CFF"/>
<path d="M22.8096 11.0064H34.3296C34.4307 11.0146 34.5324 11.0018 34.6283 10.9687C34.7242 10.9357 34.8122 10.8831 34.8868 10.8143C34.9614 10.7455 35.0209 10.6621 35.0616 10.5691C35.1023 10.4762 35.1233 10.3759 35.1233 10.2744C35.1233 10.173 35.1023 10.0727 35.0616 9.97974C35.0209 9.88682 34.9614 9.80335 34.8868 9.73457C34.8122 9.6658 34.7242 9.61322 34.6283 9.58016C34.5324 9.54709 34.4307 9.53424 34.3296 9.54244H22.8096C22.7085 9.53424 22.6068 9.54709 22.5109 9.58016C22.415 9.61322 22.327 9.6658 22.2524 9.73457C22.1778 9.80335 22.1183 9.88682 22.0776 9.97974C22.0369 10.0727 22.0159 10.173 22.0159 10.2744C22.0159 10.3759 22.0369 10.4762 22.0776 10.5691C22.1183 10.6621 22.1778 10.7455 22.2524 10.8143C22.327 10.8831 22.415 10.9357 22.5109 10.9687C22.6068 11.0018 22.7085 11.0146 22.8096 11.0064Z" fill="#2D8CFF"/>
<path d="M22.8096 14.4625H36.7296C36.9135 14.4476 37.085 14.364 37.2101 14.2284C37.3352 14.0927 37.4047 13.915 37.4047 13.7305C37.4047 13.546 37.3352 13.3682 37.2101 13.2326C37.085 13.097 36.9135 13.0134 36.7296 12.9985H22.8096C22.7085 12.9903 22.6068 13.0031 22.5109 13.0362C22.415 13.0693 22.327 13.1219 22.2524 13.1906C22.1778 13.2594 22.1183 13.3429 22.0776 13.4358C22.0369 13.5287 22.0159 13.6291 22.0159 13.7305C22.0159 13.8319 22.0369 13.9323 22.0776 14.0252C22.1183 14.1181 22.1778 14.2016 22.2524 14.2704C22.327 14.3391 22.415 14.3917 22.5109 14.4248C22.6068 14.4578 22.7085 14.4707 22.8096 14.4625Z" fill="#2D8CFF"/>
<path d="M22.8096 21.2882H38.7552C38.9391 21.2733 39.1106 21.1897 39.2357 21.0541C39.3608 20.9184 39.4303 20.7407 39.4303 20.5562C39.4303 20.3717 39.3608 20.1939 39.2357 20.0583C39.1106 19.9227 38.9391 19.8391 38.7552 19.8242H22.8096C22.7085 19.816 22.6068 19.8288 22.5109 19.8619C22.415 19.895 22.327 19.9475 22.2524 20.0163C22.1778 20.0851 22.1183 20.1686 22.0776 20.2615C22.0369 20.3544 22.0159 20.4547 22.0159 20.5562C22.0159 20.6576 22.0369 20.758 22.0776 20.8509C22.1183 20.9438 22.1778 21.0273 22.2524 21.096C22.327 21.1648 22.415 21.2174 22.5109 21.2505C22.6068 21.2835 22.7085 21.2964 22.8096 21.2882Z" fill="#2D8CFF"/>
<path d="M22.8096 24.7439H34.3296C34.4362 24.7654 34.5462 24.7629 34.6517 24.7366C34.7572 24.7104 34.8555 24.661 34.9397 24.5921C35.0238 24.5232 35.0915 24.4365 35.1381 24.3383C35.1846 24.24 35.2087 24.1327 35.2087 24.024C35.2087 23.9152 35.1846 23.8079 35.1381 23.7096C35.0915 23.6114 35.0238 23.5247 34.9397 23.4558C34.8555 23.3869 34.7572 23.3375 34.6517 23.3113C34.5462 23.285 34.4362 23.2825 34.3296 23.304H22.8096C22.703 23.2825 22.593 23.285 22.4875 23.3113C22.382 23.3375 22.2837 23.3869 22.1996 23.4558C22.1154 23.5247 22.0477 23.6114 22.0011 23.7096C21.9546 23.8079 21.9305 23.9152 21.9305 24.024C21.9305 24.1327 21.9546 24.24 22.0011 24.3383C22.0477 24.4365 22.1154 24.5232 22.1996 24.5921C22.2837 24.661 22.382 24.7104 22.4875 24.7366C22.593 24.7629 22.703 24.7654 22.8096 24.7439Z" fill="#2D8CFF"/>
<path d="M22.8096 28.2H36.7296C36.8959 28.1666 37.0456 28.0766 37.1531 27.9453C37.2605 27.8141 37.3193 27.6497 37.3193 27.48C37.3193 27.3104 37.2605 27.1459 37.1531 27.0147C37.0456 26.8834 36.8959 26.7934 36.7296 26.76H22.8096C22.703 26.7386 22.593 26.7411 22.4875 26.7673C22.382 26.7936 22.2837 26.843 22.1996 26.9118C22.1154 26.9807 22.0477 27.0674 22.0011 27.1657C21.9546 27.2639 21.9305 27.3713 21.9305 27.48C21.9305 27.5887 21.9546 27.6961 22.0011 27.7943C22.0477 27.8926 22.1154 27.9793 22.1996 28.0482C22.2837 28.1171 22.382 28.1664 22.4875 28.1927C22.593 28.2189 22.703 28.2214 22.8096 28.2Z" fill="#2D8CFF"/>
<path d="M13.8432 32.1938C12.7448 32.1938 11.6711 32.5196 10.7578 33.1298C9.8445 33.74 9.13268 34.6074 8.71234 35.6222C8.292 36.637 8.18202 37.7536 8.39631 38.8309C8.6106 39.9082 9.13953 40.8978 9.91621 41.6744C10.6929 42.4511 11.6825 42.9801 12.7597 43.1943C13.837 43.4086 14.9537 43.2986 15.9685 42.8783C16.9833 42.458 17.8506 41.7461 18.4608 40.8329C19.0711 39.9196 19.3968 38.8458 19.3968 37.7474C19.3955 36.2749 18.81 34.8631 17.7688 33.8219C16.7276 32.7806 15.3157 32.1951 13.8432 32.1938ZM13.8432 41.8371C13.0344 41.8371 12.2437 41.5972 11.5711 41.1478C10.8986 40.6985 10.3744 40.0597 10.0649 39.3125C9.75537 38.5652 9.67438 37.7429 9.83218 36.9496C9.98998 36.1563 10.3795 35.4276 10.9514 34.8557C11.5234 34.2837 12.2521 33.8942 13.0454 33.7364C13.8387 33.5786 14.6609 33.6596 15.4082 33.9692C16.1555 34.2787 16.7942 34.8029 17.2436 35.4754C17.6929 36.1479 17.9328 36.9386 17.9328 37.7474C17.9315 38.8317 17.5003 39.8712 16.7336 40.6378C15.9669 41.4045 14.9274 41.8358 13.8432 41.8371Z" fill="#2D8CFF"/>
<path d="M22.8096 35.0399H38.7552C38.9215 35.0064 39.0711 34.9164 39.1786 34.7852C39.2861 34.6539 39.3449 34.4895 39.3449 34.3199C39.3449 34.1502 39.2861 33.9858 39.1786 33.8545C39.0711 33.7233 38.9215 33.6333 38.7552 33.5998H22.8096C22.703 33.5784 22.593 33.5809 22.4875 33.6072C22.382 33.6334 22.2837 33.6828 22.1996 33.7517C22.1154 33.8206 22.0477 33.9073 22.0011 34.0055C21.9546 34.1038 21.9305 34.2111 21.9305 34.3199C21.9305 34.4286 21.9546 34.5359 22.0011 34.6342C22.0477 34.7324 22.1154 34.8191 22.1996 34.888C22.2837 34.9569 22.382 35.0063 22.4875 35.0325C22.593 35.0588 22.703 35.0613 22.8096 35.0399Z" fill="#2D8CFF"/>
<path d="M22.8096 38.4817H34.3296C34.4362 38.5032 34.5462 38.5007 34.6517 38.4744C34.7572 38.4482 34.8555 38.3988 34.9397 38.3299C35.0238 38.261 35.0915 38.1743 35.1381 38.0761C35.1846 37.9778 35.2087 37.8705 35.2087 37.7617C35.2087 37.653 35.1846 37.5457 35.1381 37.4474C35.0915 37.3492 35.0238 37.2625 34.9397 37.1936C34.8555 37.1247 34.7572 37.0753 34.6517 37.0491C34.5462 37.0228 34.4362 37.0203 34.3296 37.0417H22.8096C22.703 37.0203 22.593 37.0228 22.4875 37.0491C22.382 37.0753 22.2837 37.1247 22.1996 37.1936C22.1154 37.2625 22.0477 37.3492 22.0011 37.4474C21.9546 37.5457 21.9305 37.653 21.9305 37.7617C21.9305 37.8705 21.9546 37.9778 22.0011 38.0761C22.0477 38.1743 22.1154 38.261 22.1996 38.3299C22.2837 38.3988 22.382 38.4482 22.4875 38.4744C22.593 38.5007 22.703 38.5032 22.8096 38.4817Z" fill="#2D8CFF"/>
<path d="M22.8096 41.9376H36.7296C36.9135 41.9227 37.085 41.8391 37.2101 41.7035C37.3352 41.5678 37.4047 41.3901 37.4047 41.2056C37.4047 41.0211 37.3352 40.8433 37.2101 40.7077C37.085 40.5721 36.9135 40.4885 36.7296 40.4736H22.8096C22.7085 40.4654 22.6068 40.4782 22.5109 40.5113C22.415 40.5444 22.327 40.597 22.2524 40.6657C22.1778 40.7345 22.1183 40.818 22.0776 40.9109C22.0369 41.0038 22.0159 41.1041 22.0159 41.2056C22.0159 41.307 22.0369 41.4074 22.0776 41.5003C22.1183 41.5932 22.1778 41.6767 22.2524 41.7455C22.327 41.8142 22.415 41.8668 22.5109 41.8999C22.6068 41.9329 22.7085 41.9458 22.8096 41.9376Z" fill="#2D8CFF"/>
<path d="M12.8352 22.8816C12.6977 22.7448 12.5115 22.6681 12.3175 22.6686C12.1235 22.669 11.9377 22.7465 11.8008 22.884C11.664 23.0215 11.5873 23.2077 11.5878 23.4017C11.5882 23.5957 11.6657 23.7816 11.8032 23.9184L13.608 25.7232C13.6755 25.7905 13.7556 25.8437 13.8438 25.88C13.9319 25.9162 14.0263 25.9347 14.1216 25.9344C14.3153 25.9342 14.5013 25.8584 14.64 25.7232L18.4176 21.9456L20.9232 19.44C21.0476 19.3 21.1138 19.1178 21.1083 18.9306C21.1028 18.7433 21.026 18.5653 20.8936 18.4329C20.7611 18.3004 20.5831 18.2236 20.3959 18.2181C20.2087 18.2126 20.0264 18.2788 19.8864 18.4032L17.9664 20.3232C17.0962 19.3589 15.9154 18.7301 14.6295 18.5462C13.3437 18.3623 12.034 18.635 10.9284 19.3168C9.82274 19.9986 8.99107 21.0464 8.57803 22.2779C8.16498 23.5095 8.1967 24.8468 8.66765 26.0574C9.13861 27.268 10.019 28.2752 11.1557 28.9038C12.2924 29.5324 13.6135 29.7427 14.8893 29.4981C16.165 29.2535 17.3146 28.5694 18.1381 27.5649C18.9617 26.5604 19.4071 25.2989 19.3968 24C19.3634 23.8337 19.2734 23.6841 19.1421 23.5766C19.0109 23.4691 18.8465 23.4103 18.6768 23.4103C18.5071 23.4103 18.3427 23.4691 18.2115 23.5766C18.0802 23.6841 17.9902 23.8337 17.9568 24C17.9578 24.9608 17.6209 25.8912 17.0051 26.6287C16.3893 27.3661 15.5338 27.8635 14.5883 28.0338C13.6427 28.2041 12.6674 28.0365 11.833 27.5603C10.9986 27.0841 10.3582 26.3297 10.0239 25.429C9.68958 24.5283 9.68265 23.5387 10.0043 22.6334C10.326 21.7281 10.9557 20.9648 11.7834 20.477C12.611 19.9891 13.5839 19.8079 14.5317 19.9649C15.4795 20.122 16.3419 20.6073 16.968 21.336L14.1456 24.1584L12.8352 22.8816Z" fill="#2D8CFF"/>
</g>
<defs>
<clipPath id="clip0">
<rect width="48" height="48" fill="white"/>
</clipPath>
</defs>
</svg>
