<svg width="16" height="16" viewBox="0 0 16 16" fill="none" xmlns="http://www.w3.org/2000/svg">
<g clip-path="url(#clip0)">
<path d="M0.235001 13.12C1.74443 14.0732 3.49463 14.5755 5.2798 14.568C6.51335 14.5849 7.73773 14.3539 8.88033 13.8887C10.0229 13.4236 11.0605 12.7337 11.9315 11.86C12.8025 10.9863 13.4892 9.94665 13.9508 8.80262C14.4125 7.65859 14.6397 6.43351 14.619 5.20001C15.259 4.65761 15.9998 3.62081 15.9998 2.60961C15.9997 2.52062 15.976 2.43323 15.9313 2.35629C15.8866 2.27935 15.8223 2.21559 15.745 2.17143C15.6678 2.12727 15.5802 2.1043 15.4912 2.10482C15.4022 2.10535 15.3149 2.12935 15.2382 2.17441C14.643 2.52481 14.099 2.61601 13.539 2.45921C12.9836 1.91586 12.2677 1.56629 11.4977 1.46251C10.7277 1.35873 9.9448 1.50628 9.2654 1.88321C8.67198 2.18751 8.1787 2.65619 7.84448 3.23328C7.51025 3.81036 7.34922 4.47147 7.3806 5.13761C5.25814 4.87835 3.31525 3.81703 1.9502 2.17121C1.89832 2.1077 1.83176 2.05777 1.75627 2.02571C1.68079 1.99366 1.59864 1.98045 1.51691 1.98722C1.43518 1.99399 1.35632 2.02054 1.28714 2.06458C1.21796 2.10862 1.16053 2.16883 1.1198 2.24001C0.80649 2.76333 0.634535 3.35907 0.620791 3.96885C0.607047 4.57863 0.751987 5.18152 1.0414 5.71841C0.918801 5.73965 0.807736 5.80376 0.728022 5.8993C0.648309 5.99484 0.605134 6.11559 0.606201 6.24001C0.607697 6.75145 0.719372 7.25657 0.933626 7.72096C1.14788 8.18536 1.45968 8.59815 1.8478 8.93121C1.77889 8.99721 1.73013 9.08141 1.70718 9.17403C1.68424 9.26665 1.68806 9.36388 1.7182 9.45441C1.88293 9.94651 2.15147 10.3975 2.50564 10.7767C2.85981 11.156 3.29133 11.4548 3.771 11.6528C2.77577 12.1282 1.66683 12.314 0.571001 12.1888C0.45524 12.1705 0.336718 12.1931 0.235825 12.2528C0.134932 12.3124 0.0579771 12.4053 0.0181987 12.5156C-0.0215797 12.6258 -0.0216942 12.7465 0.0178747 12.8568C0.0574437 12.9671 0.134222 13.0602 0.235001 13.12ZM5.411 11.84C5.49857 11.7781 5.56418 11.6899 5.59834 11.5882C5.6325 11.4865 5.63344 11.3766 5.60102 11.2744C5.5686 11.1722 5.5045 11.0829 5.418 11.0195C5.33149 10.956 5.22706 10.9218 5.1198 10.9216C4.71353 10.9148 4.31435 10.814 3.95351 10.6272C3.59266 10.4404 3.27994 10.1726 3.0398 9.84481C3.27275 9.83085 3.50374 9.79387 3.7294 9.73441C3.83872 9.70404 3.93465 9.63778 4.00175 9.54628C4.06885 9.45479 4.10323 9.34338 4.09935 9.22999C4.09547 9.11659 4.05357 9.00779 3.98037 8.9211C3.90717 8.8344 3.80694 8.77485 3.6958 8.75201C3.24089 8.66105 2.81867 8.4498 2.47312 8.14026C2.12756 7.83072 1.8713 7.43421 1.731 6.99201C1.98334 7.05534 2.24208 7.08969 2.5022 7.09441C2.6114 7.0961 2.7182 7.06239 2.80664 6.99831C2.89508 6.93424 2.9604 6.84326 2.99282 6.73897C3.02524 6.63468 3.02302 6.52271 2.9865 6.41978C2.94997 6.31686 2.88111 6.22854 2.7902 6.16801C2.34504 5.88274 2.00138 5.46412 1.80829 4.97192C1.6152 4.47971 1.58255 3.93908 1.715 3.42721C3.37058 5.098 5.59273 6.08689 7.9422 6.19841C8.02019 6.20243 8.09804 6.18827 8.16962 6.15705C8.24119 6.12583 8.30454 6.07841 8.35465 6.01852C8.40476 5.95863 8.44028 5.88792 8.45839 5.81196C8.47649 5.736 8.4767 5.65687 8.459 5.58081C8.139 4.19361 8.9134 3.22241 9.739 2.77441C10.5646 2.32641 11.8846 2.19041 12.8974 3.25441C13.1982 3.57441 14.2142 3.58401 14.731 3.46401C14.5075 3.88867 14.1928 4.25859 13.8094 4.54721C13.7403 4.5967 13.6849 4.66284 13.6483 4.73949C13.6116 4.81613 13.595 4.9008 13.5998 4.98561C13.649 6.09201 13.4741 7.19694 13.0856 8.23404C12.6971 9.27115 12.103 10.219 11.339 11.0208C10.5556 11.8347 9.61387 12.4796 8.5718 12.9158C7.52972 13.3519 6.40939 13.5701 5.2798 13.5568C4.35486 13.5574 3.43606 13.4066 2.5598 13.1104C3.59981 12.9115 4.57925 12.4733 5.4206 11.8304L5.411 11.84Z" fill="#0B0F30"/>
</g>
<defs>
<clipPath id="clip0">
<rect width="16" height="16" fill="white"/>
</clipPath>
</defs>
</svg>
