<svg width="20" height="20" viewBox="0 0 20 20" fill="none" xmlns="http://www.w3.org/2000/svg">
<g clip-path="url(#clip0)">
<path d="M12.21 7.97598H3.246V9.14998H12.21V7.97598Z" fill="#4E4A65"/>
<path d="M12.21 10.918H3.246V12.092H12.21V10.918Z" fill="#4E4A65"/>
<path d="M17.814 0.836012L6.732 0.812012C6.15268 0.815163 5.59798 1.0467 5.18833 1.45634C4.77868 1.86599 4.54715 2.42069 4.544 3.00001V4.40001H2.188C1.60661 4.40318 1.0501 4.63637 0.640117 5.0486C0.230128 5.46084 -8.64879e-06 6.01861 2.43778e-10 6.60001L2.43778e-10 13.78C0.00105677 14.2735 0.197571 14.7465 0.546534 15.0955C0.895498 15.4444 1.36849 15.641 1.862 15.642H3.894V20.13L7.988 15.642L13.268 15.62C13.749 15.6182 14.2162 15.4588 14.598 15.1663C14.9798 14.8737 15.2552 14.464 15.382 14L17.728 16.6V12.072H18.128C18.3732 12.0728 18.6162 12.0252 18.843 11.9321C19.0698 11.8389 19.2761 11.7019 19.4499 11.529C19.6238 11.3561 19.7619 11.1506 19.8562 10.9243C19.9506 10.6979 19.9995 10.4552 20 10.21V3.02201C19.9995 2.44241 19.769 1.8867 19.3592 1.47686C18.9493 1.06702 18.3936 0.836541 17.814 0.836012ZM5.07 17.106V14.468H1.87C1.68735 14.4675 1.51236 14.3946 1.38339 14.2652C1.25442 14.1359 1.182 13.9607 1.182 13.778V6.60001C1.18253 6.33143 1.2896 6.07403 1.4797 5.8843C1.6698 5.69457 1.92742 5.58801 2.196 5.58801L13.276 5.56601C13.5446 5.56601 13.8022 5.67257 13.9923 5.8623C14.1824 6.05203 14.2895 6.30943 14.29 6.57801V13.432C14.2889 13.7008 14.1814 13.9582 13.991 14.1478C13.8006 14.3375 13.5428 14.444 13.274 14.444L7.474 14.468L5.07 17.106ZM13.27 4.38201L5.718 4.40001V3.00001C5.718 2.73143 5.82456 2.47382 6.01429 2.28371C6.20402 2.09361 6.46142 1.98654 6.73 1.98601L17.812 2.01001C18.0806 2.01001 18.3382 2.11657 18.5283 2.3063C18.7184 2.49603 18.8255 2.75343 18.826 3.02201V9.88401C18.8255 10.1526 18.7184 10.41 18.5283 10.5997C18.3382 10.7895 18.0806 10.896 17.812 10.896H16.554V13.536L15.456 12.336V6.57001C15.4528 5.99069 15.2213 5.43599 14.8117 5.02634C14.402 4.6167 13.8473 4.38516 13.268 4.38201H13.27Z" fill="#4E4A65"/>
</g>
<defs>
<clipPath id="clip0">
<rect width="20" height="20" fill="white"/>
</clipPath>
</defs>
</svg>
