<svg width="40" height="40" viewBox="0 0 40 40" fill="none" xmlns="http://www.w3.org/2000/svg">
<path d="M31.6 0H29.2V3.2H21.2V0H18.8V3.2H10.8V0H8.4V3.2H0V40H40V3.2H31.6V0ZM29.2 8.8H31.6V5.6H37.6V12H2.4V5.6H8.4V8.8H10.8V5.6H18.8V8.8H21.2V5.6H29.2V8.8ZM2.4 37.6V14.4H37.6V37.6H2.4Z" fill="#E9484A"/>
<path d="M12.4 32.8354H9.684V22.3994L6.448 23.3994V21.1994L12.1 19.1714H12.4V32.8354Z" fill="#E9484A"/>
<path d="M22.208 28.08H16.928V25.896H22.208V28.08Z" fill="#E9484A"/>
<path d="M33.552 20.6962L28.272 32.8362H25.416L30.7 21.3682H23.9V19.2002H33.552V20.6962Z" fill="#E9484A"/>
</svg>
