<svg width="16" height="16" viewBox="0 0 16 16" fill="none" xmlns="http://www.w3.org/2000/svg">
<path d="M15.9568 7.9232C15.8128 7.6656 12.3616 1.5872 8 1.5872C3.6384 1.5872 0.1872 7.6656 0.0432 7.9232L0 8.00001L0.0432 8.0768C0.1872 8.3344 3.6384 14.4128 8 14.4128C12.3616 14.4128 15.8128 8.3328 15.9568 8.0768L16 8.00001L15.9568 7.9232ZM14.5408 8.00001C14.0192 8.82401 11.104 13.1616 8 13.1616C6.1792 13.1616 4.4416 11.6704 3.3056 10.4192C2.62546 9.66428 2.00795 8.8552 1.4592 8.00001C1.9808 7.17601 4.896 2.8384 8 2.8384C9.8208 2.8384 11.5584 4.3296 12.6944 5.5808C13.3745 6.33573 13.992 7.14481 14.5408 8.00001Z" fill="#4E4A65"/>
<path d="M8.00014 4.71519C7.35046 4.71519 6.71538 4.90784 6.1752 5.26878C5.63501 5.62972 5.21399 6.14274 4.96537 6.74296C4.71676 7.34318 4.65171 8.00364 4.77845 8.64083C4.90519 9.27802 5.21804 9.86331 5.67743 10.3227C6.13682 10.7821 6.72211 11.0949 7.3593 11.2217C7.99649 11.3484 8.65696 11.2834 9.25717 11.0348C9.85739 10.7861 10.3704 10.3651 10.7313 9.82493C11.0923 9.28475 11.2849 8.64967 11.2849 8C11.2841 7.12907 10.9377 6.29406 10.3219 5.67823C9.70607 5.06239 8.87106 4.71604 8.00014 4.71519Z" fill="#4E4A65"/>
<path d="M15 1L1 15" stroke="#07021B"/>
</svg>
