<svg width="16" height="16" viewBox="0 0 16 16" fill="none" xmlns="http://www.w3.org/2000/svg">
<g clip-path="url(#clip0)">
<path d="M8.00003 7.84C8.77579 7.84 9.53411 7.60992 10.1791 7.17887C10.8241 6.74782 11.3267 6.13516 11.6234 5.41839C11.9201 4.70163 11.9976 3.91296 11.846 3.15216C11.6945 2.39135 11.3207 1.6926 10.7719 1.14428C10.2231 0.59596 9.52406 0.222716 8.76313 0.071762C8.00221 -0.0791922 7.2136 -0.00107475 6.49708 0.296233C5.78056 0.59354 5.16831 1.09668 4.73778 1.742C4.30726 2.38733 4.0778 3.14584 4.07843 3.9216C4.08055 4.96073 4.4945 5.95664 5.22957 6.69112C5.96465 7.4256 6.9609 7.83873 8.00003 7.84ZM8.00003 1.2544C8.52755 1.2544 9.04323 1.41083 9.48185 1.7039C9.92047 1.99698 10.2623 2.41354 10.4642 2.90091C10.6661 3.38827 10.7189 3.92456 10.616 4.44195C10.5131 4.95933 10.259 5.43458 9.88603 5.8076C9.51301 6.18061 9.03776 6.43464 8.52038 6.53755C8.00299 6.64047 7.4667 6.58765 6.97934 6.38577C6.49197 6.1839 6.07541 5.84204 5.78234 5.40342C5.48926 4.9648 5.33283 4.44912 5.33283 3.9216C5.33368 3.21447 5.61496 2.53655 6.11497 2.03654C6.61498 1.53653 7.29291 1.25525 8.00003 1.2544Z" fill="#07021B"/>
<path d="M14.8992 11.432C14.7599 10.686 14.3634 10.0124 13.7787 9.52853C13.194 9.04468 12.4581 8.78122 11.6992 8.784H11.624L11.576 8.8448C11.5648 8.8592 10.3584 10.3536 7.99676 10.3536C5.63516 10.3536 4.42876 8.8592 4.41756 8.8448L4.36956 8.784H4.29436C3.53543 8.78122 2.79955 9.04468 2.21485 9.52853C1.63014 10.0124 1.23364 10.686 1.09436 11.432V16H14.9024V11.4624L14.8992 11.432ZM3.88156 10.08C5.01709 11.0829 6.48508 11.6275 7.99996 11.608C9.51484 11.6275 10.9828 11.0829 12.1184 10.08C12.4886 10.1606 12.8286 10.3443 13.099 10.6099C13.3693 10.8754 13.5591 11.212 13.6464 11.5808V14.7456H2.35356V11.5824C2.44056 11.2133 2.63021 10.8764 2.9006 10.6105C3.17098 10.3447 3.51107 10.1608 3.88156 10.08Z" fill="#07021B"/>
</g>
<defs>
<clipPath id="clip0">
<rect width="16" height="16" fill="white"/>
</clipPath>
</defs>
</svg>
