<svg width="20" height="20" viewBox="0 0 20 20" fill="none" xmlns="http://www.w3.org/2000/svg">
<g>
<path d="M15.1998 13.23C14.5458 12.584 13.7298 12.584 13.0818 13.23C12.5858 13.722 12.0818 14.212 11.6038 14.712C11.5599 14.7739 11.4935 14.8163 11.4188 14.8301C11.3441 14.8439 11.267 14.8281 11.2038 14.786C10.8838 14.612 10.5418 14.47 10.2338 14.278C8.82245 13.3649 7.57048 12.2265 6.52782 10.908C5.9857 10.2665 5.53847 9.55053 5.19982 8.78197C5.16056 8.71793 5.14639 8.64163 5.16006 8.56777C5.17372 8.49391 5.21424 8.42772 5.27382 8.38197C5.76982 7.90397 6.25182 7.41197 6.73782 6.92197C7.41582 6.23997 7.41582 5.43997 6.73782 4.75397C6.34982 4.35397 5.96382 3.97997 5.57582 3.58797C5.18782 3.19597 4.77582 2.78797 4.37582 2.38797C3.72182 1.75997 2.90782 1.75997 2.25782 2.39997C1.75782 2.89197 1.27982 3.39997 0.771816 3.87797C0.319021 4.30284 0.0475173 4.88596 0.0138164 5.50597C-0.0661836 6.54197 0.187816 7.51997 0.545816 8.47397C1.29688 10.4212 2.3803 12.2233 3.74782 13.8C5.54588 15.9564 7.78202 17.7058 10.3078 18.932C11.4558 19.49 12.6458 19.918 13.9418 19.99C14.8318 20.04 15.6058 19.816 16.2258 19.12C16.6498 18.646 17.1298 18.212 17.5778 17.76C18.2438 17.086 18.2478 16.27 17.5778 15.604C16.7925 14.8106 15.9998 14.0193 15.1998 13.23Z" fill="white"/>
<path d="M14.4104 9.914L15.9464 9.652C15.6978 8.21416 14.9995 6.89227 13.9518 5.8766C12.9041 4.86094 11.5612 4.20388 10.1164 4L9.90039 5.54C11.0186 5.69706 12.0581 6.20535 12.8687 6.99152C13.6793 7.77769 14.2192 8.80108 14.4104 9.914Z" fill="white"/>
<path d="M16.8116 3.238C15.0612 1.47593 12.7801 0.338189 10.3196 0L10.1016 1.544C12.1739 1.83536 14.1002 2.7771 15.603 4.23351C17.1058 5.68992 18.1074 7.58581 18.4636 9.648L19.9996 9.384C19.5998 7.05437 18.4857 4.90662 16.8116 3.238Z" fill="white"/>
</g>
<defs>
</defs>
</svg>
