<svg width="20" height="20" viewBox="0 0 20 20" fill="none" xmlns="http://www.w3.org/2000/svg">
<path d="M20 9.93799C19.9971 8.63096 19.7342 7.33755 19.2268 6.13305C18.7193 4.92856 17.9773 3.83703 17.044 2.922C15.1703 1.05949 12.6358 0.0140686 9.99397 0.0140686C7.35212 0.0140686 4.8176 1.05949 2.94398 2.922C1.41442 4.41346 0.417069 6.36601 0.105234 8.47948C-0.206602 10.593 0.184347 12.7503 1.21798 14.62L1.24598 14.67L0.0759775 19.986L5.45198 18.762L5.50198 18.786C7.37738 19.7291 9.50165 20.0592 11.5748 19.7297C13.648 19.4003 15.5653 18.428 17.056 16.95C17.9883 16.0357 18.7288 14.9446 19.2343 13.7406C19.7398 12.5365 20.0001 11.2438 20 9.93799ZM9.99997 18.572C8.55163 18.5714 7.12616 18.2106 5.85198 17.522L5.63598 17.4L1.76198 18.288L2.59998 14.462L2.47598 14.246C1.70398 12.9391 1.29008 11.4518 1.27598 9.934C1.2896 8.21785 1.80967 6.54394 2.77096 5.12223C3.73224 3.70051 5.09194 2.59431 6.67949 1.94237C8.26704 1.29043 10.0117 1.12179 11.6948 1.4576C13.3778 1.79341 14.9242 2.61872 16.14 3.83C16.9535 4.62607 17.6005 5.57614 18.0431 6.6248C18.4857 7.67347 18.7151 8.79975 18.718 9.93799C18.7037 12.238 17.7779 14.4385 16.1437 16.0571C14.5094 17.6756 12.3 18.58 9.99997 18.572Z" fill="#4E4A65"/>
<path d="M6.42801 10.012L6.48401 10.094C7.58601 11.722 8.95201 12.918 10.33 13.46C12.068 14.142 12.54 14.086 12.92 14.042L13.048 14.028C13.416 13.996 14.312 13.512 14.486 13.028C14.6148 12.7198 14.6643 12.3842 14.63 12.052C14.5552 11.992 14.4716 11.9441 14.382 11.91L14.252 11.846L14.222 11.83C13.114 11.278 12.774 11.122 12.684 11.09C12.484 11.016 12.43 11.012 12.34 11.148C12.172 11.4 11.692 11.96 11.582 12.084C11.5005 12.1831 11.3846 12.2478 11.2574 12.2653C11.1303 12.2827 11.0012 12.2515 10.896 12.178L10.754 12.114C10.1115 11.8427 9.51872 11.4662 9.00001 11C8.47434 10.5142 8.02405 9.95265 7.66401 9.334C7.59842 9.2287 7.57595 9.10217 7.60128 8.98073C7.62661 8.85929 7.69779 8.75229 7.80001 8.682C7.91401 8.568 8.04601 8.434 8.15401 8.31C8.21996 8.23029 8.27387 8.14135 8.31401 8.046L8.36001 7.954C8.38017 7.91142 8.38892 7.86433 8.38542 7.81735C8.38191 7.77037 8.36626 7.72511 8.34001 7.686C8.31401 7.634 8.23801 7.444 8.10401 7.114C7.94401 6.714 7.74601 6.226 7.62601 5.962C7.49001 5.658 7.38001 5.652 7.24001 5.646H6.80001C6.70373 5.64925 6.60915 5.67223 6.52212 5.71352C6.43508 5.7548 6.35744 5.8135 6.29401 5.886L6.24601 5.936C6.0091 6.16641 5.82234 6.44326 5.69741 6.74921C5.57248 7.05516 5.51209 7.38362 5.52001 7.714C5.51201 8.688 6.15201 9.646 6.42801 10.012Z" fill="#4E4A65"/>
</svg>
