<svg width="130" height="56" viewBox="0 0 130 56" fill="none" xmlns="http://www.w3.org/2000/svg">
<rect width="130" height="56" rx="4" fill="#0B0F30"/>
<path d="M24.234 34V32.092C25.05 32.2 25.644 32.002 26.016 31.498C26.4 30.982 26.592 30.046 26.592 28.69V21.4H35.034V34H32.964V23.38H28.662V28.654C28.662 30.85 28.212 32.35 27.312 33.154C26.508 33.85 25.482 34.132 24.234 34ZM48.0771 32.344C46.8171 33.604 45.2751 34.234 43.4511 34.234C41.6271 34.234 40.0791 33.604 38.8071 32.344C37.5471 31.072 36.9171 29.524 36.9171 27.7C36.9171 25.876 37.5471 24.334 38.8071 23.074C40.0791 21.802 41.6271 21.166 43.4511 21.166C45.2751 21.166 46.8171 21.802 48.0771 23.074C49.3491 24.334 49.9851 25.876 49.9851 27.7C49.9851 29.524 49.3491 31.072 48.0771 32.344ZM40.2651 30.94C41.1411 31.792 42.2031 32.218 43.4511 32.218C44.7111 32.218 45.7671 31.792 46.6191 30.94C47.4831 30.076 47.9151 28.996 47.9151 27.7C47.9151 26.404 47.4831 25.33 46.6191 24.478C45.7671 23.614 44.7111 23.182 43.4511 23.182C42.1911 23.182 41.1291 23.614 40.2651 24.478C39.4131 25.33 38.9871 26.404 38.9871 27.7C38.9871 28.984 39.4131 30.064 40.2651 30.94ZM51.8733 21.4H58.9833V23.38H53.9433V34H51.8733V21.4ZM70.2431 32.344C68.9831 33.604 67.4411 34.234 65.6171 34.234C63.7931 34.234 62.2451 33.604 60.9731 32.344C59.7131 31.072 59.0831 29.524 59.0831 27.7C59.0831 25.876 59.7131 24.334 60.9731 23.074C62.2451 21.802 63.7931 21.166 65.6171 21.166C67.4411 21.166 68.9831 21.802 70.2431 23.074C71.5151 24.334 72.1511 25.876 72.1511 27.7C72.1511 29.524 71.5151 31.072 70.2431 32.344ZM62.4311 30.94C63.3071 31.792 64.3691 32.218 65.6171 32.218C66.8771 32.218 67.9331 31.792 68.7851 30.94C69.6491 30.076 70.0811 28.996 70.0811 27.7C70.0811 26.404 69.6491 25.33 68.7851 24.478C67.9331 23.614 66.8771 23.182 65.6171 23.182C64.3571 23.182 63.2951 23.614 62.4311 24.478C61.5791 25.33 61.1531 26.404 61.1531 27.7C61.1531 28.984 61.5791 30.064 62.4311 30.94ZM72.3286 21.4H81.5086V23.38H77.9626V34H75.8926V23.38H72.3286V21.4ZM92.6693 34H90.5993V25.45L84.6593 34H83.0393V21.4H85.1093V29.95L91.0493 21.4H92.6693V34ZM95.1858 21.4H104.456V34H102.386V23.38H97.2558V34H95.1858V21.4Z" fill="white"/>
</svg>
