<svg width="32" height="32" viewBox="0 0 32 32" fill="none" xmlns="http://www.w3.org/2000/svg">
<path d="M13.8944 5.0625H19.3696L16.8512 8.1537L13.8944 5.0625Z" fill="#A8D3FF"/>
<path d="M21.296 3.66397L20.8832 3.21597C20.5522 2.86161 20.1518 2.57905 19.7071 2.38583C19.2623 2.19262 18.7825 2.09287 18.2976 2.09277H13.3888V2.91197C13.3892 3.20289 13.447 3.49087 13.5589 3.7594C13.6709 4.02794 13.8347 4.27175 14.041 4.47686C14.2473 4.68198 14.492 4.84437 14.7612 4.95472C15.0304 5.06508 15.3187 5.12124 15.6096 5.11997H19.7216L21.296 3.66397Z" fill="#A8D3FF"/>
<path d="M15.7375 25.3985C16.7693 26.2083 18.0686 26.5991 19.3759 26.4929L19.5743 26.4769L23.0015 29.9041L31.376 22.6849L26.6271 17.9585L15.7375 25.3985Z" fill="#A8D3FF"/>
<path d="M7.20641 18.355L0.640015 24.9342L11.2448 29.907L16.8448 24.2846C19.1482 24.2026 21.3347 23.25 22.9632 21.619L29.0272 15.539C29.1878 15.3785 29.3152 15.188 29.4022 14.9782C29.4891 14.7685 29.5339 14.5437 29.5339 14.3166C29.5339 14.0896 29.4891 13.8648 29.4022 13.655C29.3152 13.4453 29.1878 13.2547 29.0272 13.0942C28.8667 12.9331 28.6759 12.8053 28.4659 12.7181C28.2558 12.6309 28.0306 12.586 27.8032 12.586C27.5758 12.586 27.3506 12.6309 27.1406 12.7181C26.9305 12.8053 26.7397 12.9331 26.5792 13.0942L25.8112 13.8622L27.4112 12.2622C27.7358 11.9376 27.9181 11.4973 27.9181 11.0382C27.9181 10.5792 27.7358 10.1389 27.4112 9.81423C27.0866 9.48965 26.6463 9.30731 26.1872 9.30731C25.7281 9.30731 25.2879 9.48965 24.9632 9.81423L23.3632 11.4142L25.6 9.20943C25.9246 8.88477 26.1069 8.4445 26.1069 7.98543C26.1069 7.52635 25.9246 7.08608 25.6 6.76143C25.2754 6.43685 24.8351 6.25451 24.376 6.25451C23.9169 6.25451 23.4767 6.43685 23.152 6.76143L20.9344 8.98223L23.7664 6.15023C24.091 5.82557 24.2733 5.3853 24.2733 4.92623C24.2733 4.46715 24.091 4.02688 23.7664 3.70223C23.4418 3.37765 23.0015 3.19531 22.5424 3.19531C22.0833 3.19531 21.6431 3.37765 21.3184 3.70223L16.8512 8.15343" fill="#A8D3FF"/>
<path d="M9.6544 15.9074L7.9648 14.2179C7.64015 13.8933 7.19987 13.7109 6.7408 13.7109C6.28173 13.7109 5.84145 13.8933 5.5168 14.2179C5.19223 14.5425 5.00989 14.9828 5.00989 15.4419C5.00989 15.9009 5.19223 16.3412 5.5168 16.6659L7.2064 18.3554C7.53105 18.68 7.97133 18.8624 8.4304 18.8624C8.88947 18.8624 9.32975 18.68 9.6544 18.3554C9.97898 18.0308 10.1613 17.5905 10.1613 17.1314C10.1613 16.6724 9.97898 16.2321 9.6544 15.9074Z" fill="#A8D3FF"/>
<path d="M12.1025 13.4592L9.5713 10.9312C9.41125 10.7698 9.22083 10.6417 9.01103 10.5543C8.80122 10.4669 8.57618 10.4219 8.3489 10.4219C8.12161 10.4219 7.89657 10.4669 7.68677 10.5543C7.47696 10.6417 7.28655 10.7698 7.1265 10.9312C6.96512 11.0912 6.83702 11.2817 6.74961 11.4915C6.66219 11.7013 6.61719 11.9263 6.61719 12.1536C6.61719 12.3809 6.66219 12.6059 6.74961 12.8157C6.83702 13.0255 6.96512 13.2159 7.1265 13.376L9.6545 15.9072C9.97915 16.2318 10.4194 16.4141 10.8785 16.4141C11.3376 16.4141 11.7778 16.2318 12.1025 15.9072C12.4271 15.5825 12.6094 15.1423 12.6094 14.6832C12.6094 14.2241 12.4271 13.7838 12.1025 13.4592Z" fill="#A8D3FF"/>
<path d="M14.5472 11.0112L11.408 7.87201C11.2475 7.71092 11.0567 7.5831 10.8467 7.49588C10.6366 7.40866 10.4114 7.36377 10.184 7.36377C9.95658 7.36377 9.73139 7.40866 9.52135 7.49588C9.3113 7.5831 9.12055 7.71092 8.96001 7.87201C8.79939 8.03249 8.67198 8.22305 8.58505 8.4328C8.49811 8.64254 8.45337 8.86736 8.45337 9.09441C8.45337 9.32146 8.49811 9.54628 8.58505 9.75603C8.67198 9.96578 8.79939 10.1563 8.96001 10.3168L12.1024 13.4592C12.2629 13.6198 12.4534 13.7472 12.6632 13.8342C12.8729 13.9211 13.0978 13.9659 13.3248 13.9659C13.5519 13.9659 13.7767 13.9211 13.9864 13.8342C14.1962 13.7472 14.3867 13.6198 14.5472 13.4592C14.7083 13.2987 14.8361 13.1079 14.9233 12.8979C15.0106 12.6878 15.0555 12.4626 15.0555 12.2352C15.0555 12.0078 15.0106 11.7826 14.9233 11.5726C14.8361 11.3625 14.7083 11.1718 14.5472 11.0112Z" fill="#A8D3FF"/>
<path d="M16.9952 8.56344L13.2448 4.80023C13.0843 4.63914 12.8935 4.51132 12.6835 4.4241C12.4734 4.33689 12.2482 4.29199 12.0208 4.29199C11.7934 4.29199 11.5682 4.33689 11.3581 4.4241C11.1481 4.51132 10.9573 4.63914 10.7968 4.80023C10.6362 4.96071 10.5088 5.15127 10.4218 5.36102C10.3349 5.57077 10.2902 5.79559 10.2902 6.02263C10.2902 6.24968 10.3349 6.4745 10.4218 6.68425C10.5088 6.894 10.6362 7.08456 10.7968 7.24503L14.5472 11.0114C14.8719 11.336 15.3121 11.5183 15.7712 11.5183C16.2303 11.5183 16.6706 11.336 16.9952 11.0114C17.3198 10.6868 17.5021 10.2465 17.5021 9.78743C17.5021 9.32836 17.3198 8.88809 16.9952 8.56344Z" fill="#A8D3FF"/>
<path d="M31.8144 22.2398L27.52 17.9518L29.4688 15.9998C29.9098 15.5577 30.1575 14.9587 30.1575 14.3342C30.1575 13.7097 29.9098 13.1108 29.4688 12.6686C29.1586 12.3517 28.7646 12.1297 28.3328 12.0286C28.4856 11.7006 28.5607 11.3417 28.5523 10.98C28.544 10.6182 28.4524 10.2632 28.2846 9.94254C28.1169 9.62189 27.8775 9.34421 27.585 9.13105C27.2926 8.91789 26.955 8.77499 26.5984 8.71344C26.7045 8.39201 26.7401 8.05145 26.7026 7.71503C26.665 7.37861 26.5553 7.05426 26.3809 6.76412C26.2066 6.47399 25.9716 6.22492 25.6921 6.03392C25.4127 5.84293 25.0952 5.71451 24.7616 5.65744C24.841 5.41913 24.881 5.16944 24.88 4.91824C24.8812 4.60844 24.8212 4.30146 24.7033 4.01496C24.5855 3.72846 24.4121 3.46811 24.1932 3.2489C23.9743 3.02969 23.7142 2.85596 23.4278 2.7377C23.1415 2.61944 22.8346 2.55899 22.5248 2.55984C22.1322 2.55725 21.7455 2.6553 21.4016 2.84464L21.3408 2.77744C20.9516 2.35958 20.4806 2.02631 19.957 1.79839C19.4335 1.57047 18.8686 1.45278 18.2976 1.45264H13.3888C13.219 1.45264 13.0563 1.52007 12.9362 1.64009C12.8162 1.76011 12.7488 1.9229 12.7488 2.09264V2.91184C12.7479 3.23881 12.8031 3.56351 12.912 3.87184C12.4951 3.69872 12.0373 3.64903 11.5931 3.72868C11.1488 3.80833 10.7367 4.01397 10.406 4.32111C10.0753 4.62825 9.83974 5.02396 9.72748 5.46114C9.61522 5.89831 9.63094 6.35854 9.77278 6.78704C9.43871 6.84412 9.1209 6.97263 8.84105 7.16379C8.5612 7.35495 8.3259 7.60425 8.15122 7.89467C7.97654 8.1851 7.8666 8.5098 7.8289 8.8466C7.7912 9.18341 7.82663 9.52438 7.93278 9.84624C7.5766 9.90794 7.2394 10.0508 6.9473 10.2638C6.6552 10.4767 6.41604 10.754 6.24834 11.0743C6.08064 11.3945 5.98891 11.749 5.98025 12.1104C5.97158 12.4718 6.04622 12.8303 6.19838 13.1582C5.76664 13.2594 5.37262 13.4814 5.06238 13.7982C4.62134 14.2404 4.37366 14.8393 4.37366 15.4638C4.37366 16.0883 4.62134 16.6873 5.06238 17.1294L6.31038 18.3774L0.182377 24.4926C0.068912 24.6117 0.00561523 24.7698 0.00561523 24.9342C0.00561523 25.0987 0.068912 25.2568 0.182377 25.3758C0.239896 25.4347 0.308589 25.4814 0.384422 25.5133C0.460256 25.5452 0.541702 25.5617 0.623977 25.5617C0.706252 25.5617 0.787698 25.5452 0.863532 25.5133C0.939366 25.4814 1.00806 25.4347 1.06558 25.3758L7.26718 19.1774C7.71551 19.4318 8.23485 19.5323 8.74573 19.4636C9.2566 19.3948 9.73088 19.1605 10.096 18.7966C10.3259 18.566 10.5057 18.2903 10.6241 17.9869C10.7425 17.6835 10.7969 17.3589 10.784 17.0334H10.88C11.1895 17.0343 11.4961 16.9739 11.7823 16.8559C12.0684 16.7378 12.3284 16.5644 12.5472 16.3455C12.7661 16.1266 12.9396 15.8667 13.0576 15.5805C13.1757 15.2944 13.236 14.9878 13.2352 14.6782V14.5854H13.328C13.6367 14.5859 13.9425 14.5254 14.2278 14.4076C14.5131 14.2897 14.7725 14.1168 14.9909 13.8986C15.2093 13.6805 15.3826 13.4214 15.5009 13.1362C15.6191 12.851 15.68 12.5454 15.68 12.2366C15.68 12.2046 15.68 12.1726 15.68 12.1406H15.776C16.2199 12.138 16.6541 12.0101 17.0286 11.7716C17.4031 11.5332 17.7027 11.1939 17.8929 10.7927C18.0831 10.3916 18.1562 9.94488 18.1038 9.50402C18.0514 9.06316 17.8757 8.64605 17.5968 8.30064L21.76 4.15984C21.8627 4.0573 21.9847 3.97601 22.1188 3.92059C22.253 3.86518 22.3968 3.83674 22.5419 3.83689C22.6871 3.83704 22.8308 3.86577 22.9648 3.92146C23.0989 3.97715 23.2206 4.05869 23.3232 4.16144C23.4257 4.26418 23.507 4.38612 23.5624 4.52028C23.6178 4.65445 23.6463 4.79821 23.6461 4.94337C23.646 5.08852 23.6172 5.23223 23.5616 5.36628C23.5059 5.50033 23.4243 5.6221 23.3216 5.72464L22.7104 6.33584L20.48 8.54064C20.4021 8.66346 20.3684 8.80914 20.3844 8.95368C20.4004 9.09823 20.4651 9.23301 20.568 9.33584C20.6708 9.43867 20.8056 9.50342 20.9501 9.51941C21.0947 9.53541 21.2404 9.5017 21.3632 9.42384L23.5808 7.20304C23.6821 7.09413 23.8043 7.00675 23.9402 6.94613C24.076 6.88551 24.2227 6.85288 24.3714 6.8502C24.5202 6.84752 24.6679 6.87484 24.8059 6.93052C24.9438 6.98621 25.0691 7.06912 25.1743 7.17431C25.2795 7.2795 25.3624 7.40481 25.4181 7.54275C25.4738 7.68069 25.5011 7.82844 25.4984 7.97718C25.4957 8.12591 25.4631 8.27258 25.4025 8.40843C25.3419 8.54427 25.2545 8.66651 25.1456 8.76784L24.5344 9.37904L22.9344 10.979C22.8518 11.0676 22.796 11.1777 22.7735 11.2967C22.751 11.4157 22.7627 11.5386 22.8073 11.6512C22.8518 11.7638 22.9274 11.8614 23.0253 11.9328C23.1231 12.0041 23.2392 12.0462 23.36 12.0542C23.5263 12.0535 23.6859 11.9881 23.8048 11.8718L25.4048 10.2718C25.6127 10.0631 25.8951 9.94543 26.1897 9.94483C26.4844 9.94423 26.7672 10.0607 26.976 10.2686C27.1848 10.4766 27.3024 10.7589 27.303 11.0536C27.3036 11.3482 27.1871 11.6311 26.9792 11.8398L26.1376 12.6782L25.3696 13.4398C25.2552 13.559 25.1913 13.7178 25.1913 13.883C25.1913 14.0482 25.2552 14.2071 25.3696 14.3262C25.4886 14.4397 25.6467 14.503 25.8112 14.503C25.9756 14.503 26.1338 14.4397 26.2528 14.3262L27.024 13.5582C27.2311 13.3512 27.5119 13.2348 27.8048 13.2348C28.0976 13.2348 28.3785 13.3512 28.5856 13.5582C28.7927 13.7653 28.909 14.0462 28.909 14.339C28.909 14.6319 28.7927 14.9128 28.5856 15.1198L22.5056 21.1998C20.9898 22.7208 18.9524 23.6085 16.8064 23.683C16.649 23.6902 16.4997 23.7551 16.3872 23.8654L10.8 29.4686C10.7196 29.5585 10.6663 29.6692 10.6461 29.788C10.6259 29.9068 10.6397 30.0289 10.6858 30.1402C10.732 30.2516 10.8086 30.3476 10.9069 30.4173C11.0052 30.487 11.1212 30.5275 11.2416 30.5342C11.3244 30.5349 11.4065 30.5188 11.4829 30.4869C11.5594 30.455 11.6286 30.408 11.6864 30.3486L15.8048 26.2142C16.8507 26.8858 18.0844 27.2044 19.3248 27.123L22.56 30.3454C22.6175 30.4043 22.6862 30.451 22.762 30.4829C22.8379 30.5148 22.9193 30.5313 23.0016 30.5313C23.0839 30.5313 23.1653 30.5148 23.2411 30.4829C23.317 30.451 23.3857 30.4043 23.4432 30.3454C23.5016 30.2877 23.548 30.2189 23.5797 30.1431C23.6113 30.0673 23.6277 29.986 23.6277 29.9038C23.6277 29.8217 23.6113 29.7403 23.5797 29.6645C23.548 29.5887 23.5016 29.52 23.4432 29.4622L20.016 26.035C19.9518 25.97 19.8741 25.92 19.7884 25.8884C19.7026 25.8569 19.611 25.8447 19.52 25.8526H19.3216C18.4153 25.927 17.5074 25.7298 16.7136 25.2862L17.1136 24.883C19.4865 24.7392 21.7241 23.7292 23.4016 22.0446L26.6304 18.8382L30.9344 23.1294C31.0534 23.2429 31.2115 23.3062 31.376 23.3062C31.5404 23.3062 31.6986 23.2429 31.8176 23.1294C31.9325 23.0097 31.9964 22.85 31.9958 22.684C31.9952 22.518 31.9302 22.3588 31.8144 22.2398ZM9.21278 17.9198C9.11042 18.0233 8.98856 18.1054 8.85427 18.1614C8.71997 18.2174 8.5759 18.2463 8.43038 18.2463C8.28486 18.2463 8.14079 18.2174 8.00649 18.1614C7.87219 18.1054 7.75034 18.0233 7.64798 17.9198L5.95838 16.2238C5.80419 16.0688 5.69935 15.8716 5.65708 15.6571C5.61481 15.4426 5.637 15.2203 5.72085 15.0184C5.8047 14.8165 5.94646 14.6439 6.12825 14.5224C6.31004 14.401 6.52373 14.336 6.74238 14.3358C6.8872 14.335 7.03075 14.3629 7.16476 14.4178C7.29877 14.4727 7.42058 14.5536 7.52318 14.6558L9.21278 16.3454C9.31688 16.4484 9.39953 16.571 9.45594 16.7061C9.51234 16.8412 9.54138 16.9862 9.54138 17.1326C9.54138 17.2791 9.51234 17.424 9.45594 17.5592C9.39953 17.6943 9.31688 17.8169 9.21278 17.9198ZM11.6608 15.475C11.4524 15.6808 11.1713 15.7962 10.8784 15.7962C10.5855 15.7962 10.3044 15.6808 10.096 15.475L8.40638 13.7854L7.56798 12.9438C7.46542 12.8413 7.38406 12.7196 7.32855 12.5856C7.27304 12.4516 7.24447 12.3081 7.24447 12.163C7.24447 12.018 7.27304 11.8744 7.32855 11.7405C7.38406 11.6065 7.46542 11.4848 7.56798 11.3822C7.6705 11.2797 7.79222 11.1983 7.9262 11.1428C8.06017 11.0873 8.20376 11.0587 8.34878 11.0587C8.49379 11.0587 8.63739 11.0873 8.77136 11.1428C8.90533 11.1983 9.02706 11.2797 9.12958 11.3822L11.6576 13.9102C11.7602 14.0125 11.8414 14.1343 11.8964 14.2683C11.9513 14.4024 11.9789 14.5461 11.9776 14.691C11.9773 14.9807 11.8636 15.2587 11.6608 15.4654V15.475ZM14.1056 13.027C13.8981 13.2334 13.6174 13.3492 13.3248 13.3492C13.0322 13.3492 12.7514 13.2334 12.544 13.027L9.40158 9.88464C9.19407 9.67713 9.0775 9.39569 9.0775 9.10224C9.0775 8.95693 9.10612 8.81305 9.16172 8.6788C9.21733 8.54456 9.29883 8.42258 9.40158 8.31984C9.50432 8.21709 9.6263 8.13559 9.76055 8.07998C9.89479 8.02438 10.0387 7.99576 10.184 7.99576C10.4774 7.99576 10.7589 8.11233 10.9664 8.31984L12.3968 9.75024L14.1056 11.459C14.3129 11.6666 14.4294 11.948 14.4294 12.2414C14.4294 12.5348 14.3129 12.8162 14.1056 13.0238V13.027ZM16.5536 10.5598C16.4511 10.6624 16.3293 10.7438 16.1954 10.7993C16.0614 10.8548 15.9178 10.8833 15.7728 10.8833C15.6278 10.8833 15.4842 10.8548 15.3502 10.7993C15.2162 10.7438 15.0945 10.6624 14.992 10.5598L11.84 7.42704L11.2384 6.81584C11.0839 6.66144 10.9787 6.4647 10.9361 6.2505C10.8935 6.03631 10.9153 5.81428 10.9989 5.61251C11.0825 5.41074 11.2241 5.2383 11.4057 5.117C11.5873 4.99569 11.8008 4.93098 12.0192 4.93104C12.1641 4.92969 12.3078 4.95731 12.4419 5.01226C12.5759 5.06721 12.6977 5.14839 12.8 5.25104L16.5536 9.00464C16.7609 9.21223 16.8774 9.49364 16.8774 9.78704C16.8774 10.0804 16.7609 10.3618 16.5536 10.5694V10.5598ZM16.7168 7.39184L15.0016 5.67664C15.1982 5.71897 15.3988 5.74043 15.6 5.74064H17.3152C17.4582 5.70978 17.5863 5.63086 17.6782 5.51703C17.7701 5.4032 17.8202 5.26133 17.8202 5.11504C17.8202 4.96875 17.7701 4.82687 17.6782 4.71304C17.5863 4.59921 17.4582 4.52029 17.3152 4.48944H15.5968C15.1724 4.48944 14.7655 4.32087 14.4654 4.02081C14.1653 3.72075 13.9968 3.31378 13.9968 2.88944V2.71664H18.2976C18.697 2.71712 19.092 2.79976 19.4581 2.9594C19.8241 3.11905 20.1535 3.35229 20.4256 3.64464L20.4512 3.67024L16.7168 7.39184Z" fill="#2D8CFF"/>
</svg>
