<svg width="10" height="16" viewBox="0 0 10 16" fill="none" xmlns="http://www.w3.org/2000/svg">
<path d="M5.0002 0C3.72716 0 2.50626 0.505713 1.60608 1.40589C0.705908 2.30606 0.200195 3.52696 0.200195 4.8C0.200195 7.4512 5.0002 16 5.0002 16C5.0002 16 9.8002 7.4512 9.8002 4.8C9.8002 3.52696 9.29448 2.30606 8.39431 1.40589C7.49413 0.505713 6.27323 0 5.0002 0V0ZM5.0002 7.36C4.49388 7.36 3.99893 7.20986 3.57794 6.92856C3.15695 6.64727 2.82882 6.24745 2.63506 5.77967C2.4413 5.31189 2.39061 4.79716 2.48938 4.30057C2.58816 3.80398 2.83198 3.34783 3.19 2.98981C3.54802 2.63178 4.00417 2.38797 4.50076 2.28919C4.99736 2.19041 5.51209 2.24111 5.97987 2.43487C6.44764 2.62863 6.84746 2.95675 7.12876 3.37774C7.41005 3.79873 7.5602 4.29368 7.5602 4.8C7.5602 5.47895 7.29048 6.1301 6.81039 6.61019C6.3303 7.09029 5.67915 7.36 5.0002 7.36Z" fill="#2D8CFF"/>
</svg>
