<svg width="48" height="48" viewBox="0 0 48 48" fill="none" xmlns="http://www.w3.org/2000/svg">
<path d="M39.4078 42.4321V46.3681C39.4078 46.8001 39.0718 47.1841 38.5918 47.1841H9.4078C8.9758 47.1841 8.5918 46.8481 8.5918 46.3681V42.4321C8.5918 38.3041 11.9518 35.0401 16.0798 34.9921C17.4718 34.9921 18.6718 34.3201 19.4398 33.2161C20.2558 32.0161 20.2078 30.9601 20.2078 30.1441V30.0961C16.6078 28.6081 14.1118 25.0561 14.1118 20.9761V20.6401C12.6718 20.6401 11.6158 19.4881 11.6158 18.1921C11.6158 17.2801 11.6158 9.55207 11.6158 8.44807C11.6158 6.96007 12.8158 5.76007 14.3038 5.76007C15.5038 2.73607 18.4318 0.768066 21.6958 0.768066H32.4478C33.0238 0.768066 33.4078 1.34407 33.2158 1.87207L32.5438 3.69607C32.3998 4.12807 32.6398 4.60807 33.0718 4.75207L33.6478 4.89607C35.3278 5.37607 36.5758 6.91207 36.5758 8.73607C36.5758 9.50407 36.5758 14.7841 36.5758 18.0481C36.5758 19.4881 35.4238 20.6401 33.9838 20.6401V20.9761C33.9838 25.1041 31.4398 28.6561 27.8398 30.1441V30.1921C27.8398 30.9601 27.7438 32.0641 28.6078 33.2641C29.3278 34.3201 30.5758 35.0401 31.9678 35.0401C36.0478 35.0401 39.4078 38.3041 39.4078 42.4321Z" fill="#A8D3FF"/>
<path d="M39.4078 42.4321V46.3681C39.4078 46.8001 39.0718 47.1841 38.5918 47.1841H9.4078C8.9758 47.1841 8.5918 46.8481 8.5918 46.3681V42.4321C8.5918 38.3041 11.9518 35.0401 16.0798 34.9921C17.4238 34.9921 18.6718 34.3201 19.4398 33.2161C22.1278 36.2401 22.6558 36.7681 23.3758 37.5841C23.7118 37.9201 24.2398 37.9201 24.5758 37.5841C25.3438 36.7201 25.8718 36.1441 28.5118 33.2161C29.2318 34.2721 30.4798 34.9441 31.8718 34.9921C36.0478 35.0401 39.4078 38.3041 39.4078 42.4321Z" fill="#A8D3FF"/>
<path d="M36.5281 8.78401C36.5281 9.55201 36.5281 14.832 36.5281 18.096C36.5281 19.536 35.3761 20.688 33.9361 20.688C33.9361 19.584 33.9361 16.944 33.9361 14.544C33.9361 11.904 31.7761 9.74401 29.1361 9.74401H18.9601C16.3201 9.74401 14.1601 11.904 14.1601 14.544V20.736C12.7201 20.736 11.6641 19.584 11.6641 18.288C11.6641 17.376 11.6641 9.64801 11.6641 8.54401C11.6641 7.05601 12.8641 5.85601 14.3521 5.85601C15.5521 2.83201 18.4801 0.864014 21.7441 0.864014H32.4961C33.0721 0.864014 33.4561 1.44001 33.2641 1.96801L32.5921 3.79201C32.4481 4.22401 32.6881 4.70401 33.1201 4.84801L33.6961 4.99201C35.2801 5.37601 36.5281 6.91201 36.5281 8.78401Z" fill="#A8D3FF"/>
<path d="M29.1353 9.74402C31.7753 9.74402 33.9353 11.904 33.9353 14.544C33.9353 16.8 33.9353 21.024 33.9353 21.024C33.9353 25.152 31.3913 28.704 27.7913 30.192C21.2633 32.88 14.1113 28.08 14.1113 21.024C14.1113 20.496 14.1113 15.168 14.1113 14.544C14.1113 11.904 16.2713 9.74402 18.9113 9.74402H29.1353Z" fill="#A8D3FF"/>
<path d="M31.9693 34.224C30.7693 34.224 29.7133 33.6 29.0893 32.64C28.8493 32.256 28.3693 32.16 27.9853 32.352C27.6013 32.592 27.5053 33.072 27.6973 33.456C28.1293 34.176 28.7053 34.704 29.3773 35.136L28.5613 38.88L26.5453 36.576C26.9293 36.144 26.8333 35.664 26.4973 35.376C26.1613 35.088 25.6813 35.136 25.3453 35.472L24.0013 37.104L20.4493 33.168C20.7373 32.592 20.9293 31.968 20.9773 31.296C27.8413 33.312 34.6573 28.176 34.7053 21.072C34.7053 20.784 34.7053 14.976 34.7053 14.544C34.7053 11.472 32.2093 8.928 29.0893 8.928H18.9133C15.7933 8.928 13.2973 11.424 13.2973 14.544V19.728C12.7693 19.44 12.3853 18.912 12.3853 18.24V8.496C12.3853 7.44 13.2493 6.576 14.3053 6.576C14.6413 6.576 14.9293 6.384 15.0733 6.096C16.1293 3.408 18.7693 1.584 21.6973 1.584H32.4493L31.4413 4.176C31.2973 4.608 31.5373 5.088 31.9693 5.232L33.3613 5.616C34.7053 6 35.7133 7.2 35.7133 8.688V18.192C35.7133 18.624 36.0493 19.008 36.5293 19.008C36.9613 19.008 37.3453 18.672 37.3453 18.192C37.3453 18.144 37.3453 8.736 37.3453 8.688C37.3453 6.576 35.9053 4.704 33.8413 4.08L33.2653 3.936L34.3693 1.056C34.5613 0.576 34.1773 0 33.6493 0H21.6973C18.2413 0 15.1693 1.968 13.7773 5.04C12.0973 5.28 10.8013 6.768 10.8013 8.496V18.24C10.8013 19.776 11.9053 21.072 13.2973 21.408C13.4413 25.536 15.9373 29.04 19.3933 30.672V30.864C19.3933 32.688 17.9053 34.176 16.0333 34.176C11.7133 34.08 7.77734 37.68 7.77734 42.432V47.136C7.77734 47.568 8.11334 47.952 8.59334 47.952C9.02534 47.952 9.40934 47.616 9.40934 47.136V42.432C9.40934 38.736 12.3853 35.76 16.0813 35.76C16.3693 35.76 16.7533 35.712 17.1373 35.664L18.2413 40.752C18.3853 41.376 19.2013 41.616 19.6333 41.088L22.5133 37.776L23.2333 38.592V43.392C23.2333 43.824 23.5693 44.208 24.0493 44.208C24.4813 44.208 24.8653 43.872 24.8653 43.392V38.592L25.5853 37.776L28.4653 41.088C28.8973 41.568 29.7133 41.376 29.8573 40.752L30.9613 35.664C31.2973 35.76 31.6333 35.76 32.0173 35.76C35.7133 35.76 38.6893 38.736 38.6893 42.432V47.136C38.6893 47.568 39.0253 47.952 39.5053 47.952C39.9373 47.952 40.3213 47.616 40.3213 47.136V42.432C40.2253 37.92 36.5293 34.224 31.9693 34.224ZM14.9293 20.976V14.496C14.9293 12.288 16.7053 10.512 18.9133 10.512C18.9133 10.512 29.0893 10.512 29.1373 10.512C31.3453 10.512 33.1213 12.288 33.1213 14.496V21.024C33.1213 26.016 29.0413 30.096 24.0013 30.096C19.0093 30.096 14.9293 26.064 14.9293 20.976ZM19.4413 38.88L18.6253 35.136C18.9133 34.944 19.2013 34.752 19.4893 34.464L21.4093 36.624L19.4413 38.88Z" fill="#2D8CFF"/>
</svg>
