<svg width="16" height="16" viewBox="0 0 16 16" fill="none" xmlns="http://www.w3.org/2000/svg">
<g clip-path="url(#clip0)">
<path d="M9.41238 7.08575C10.1935 7.86683 10.1935 9.13319 9.41238 9.91427C8.6313 10.6953 7.36493 10.6953 6.58386 9.91427C5.80278 9.13319 5.80278 7.86683 6.58386 7.08575C7.36493 6.30467 8.6313 6.30467 9.41238 7.08575Z" fill="#0B0F30"/>
<path d="M14 2.99983H12.6181L11.6176 0.999756H4.38149L3.38193 3.00081L2.002 3.00326C0.90188 3.00523 0.00632197 3.90174 0.00537204 5.00235L0 12.9996C0 14.1027 0.897 15.0002 2.00007 15.0002H14C15.103 15.0002 16 14.1032 16 13.0001V4.99986C16 3.89683 15.103 2.99983 14 2.99983ZM7.99975 12.5001C5.79411 12.5001 3.99961 10.7056 3.99961 8.49998C3.99961 6.29433 5.79411 4.49984 7.99975 4.49984C10.2054 4.49984 11.9999 6.29433 11.9999 8.49998C11.9999 10.7056 10.2054 12.5001 7.99975 12.5001Z" fill="#0B0F30"/>
</g>
<defs>
<clipPath id="clip0">
<rect width="16" height="16" fill="white"/>
</clipPath>
</defs>
</svg>
