<svg width="32" height="32" viewBox="0 0 32 32" fill="none" xmlns="http://www.w3.org/2000/svg">
<g clip-path="url(#clip0)">
<path d="M8.92159 6.59521H7.23199C7.01642 6.59521 6.80968 6.68085 6.65725 6.83328C6.50482 6.98571 6.41919 7.19245 6.41919 7.40801V8.68801C6.41919 8.90358 6.50482 9.11032 6.65725 9.26275C6.80968 9.41518 7.01642 9.50081 7.23199 9.50081H8.92159V6.59521Z" fill="#A8D3FF"/>
<path d="M16.1152 6.59522H17.8016C17.9085 6.5948 18.0144 6.61553 18.1132 6.65623C18.212 6.69693 18.3018 6.75678 18.3773 6.83234C18.4529 6.9079 18.5127 6.99767 18.5534 7.09648C18.5941 7.19528 18.6149 7.30116 18.6144 7.40802V8.68802C18.6144 8.90359 18.5288 9.11033 18.3764 9.26276C18.2239 9.41519 18.0172 9.50082 17.8016 9.50082H16.1152V6.59522Z" fill="#A8D3FF"/>
<path d="M16.7392 6.59529L8.29443 7.21929V3.13609C8.29443 2.78535 8.36357 2.43804 8.49789 2.11404C8.63221 1.79004 8.82908 1.49569 9.07724 1.24783C9.3254 0.999965 9.61998 0.80345 9.94414 0.669518C10.2683 0.535587 10.6157 0.466867 10.9664 0.467287H14.08C14.7862 0.469827 15.4625 0.752124 15.961 1.25235C16.4594 1.75257 16.7392 2.42994 16.7392 3.13609V6.59529Z" fill="#A8D3FF"/>
<path d="M18.2208 15.2253L15.3408 14.4125C15.0637 14.3321 14.8202 14.1637 14.647 13.9329C14.4739 13.702 14.3804 13.4211 14.3808 13.1325V11.4941H10.6656V13.1197C10.6649 13.4081 10.5711 13.6884 10.3981 13.9191C10.2251 14.1498 9.98219 14.3184 9.7056 14.3997L6.8256 15.2093C5.7472 15.4184 4.7748 15.9952 4.07445 16.8415C3.3741 17.6878 2.98925 18.7509 2.9856 19.8493V23.0493H22.048V19.8493C22.045 18.7507 21.6603 17.6873 20.9599 16.8409C20.2594 15.9945 19.2867 15.4178 18.208 15.2093L18.2208 15.2253Z" fill="#A8D3FF"/>
<path d="M9.69592 14.3997C10.5412 14.9317 11.5196 15.2139 12.5183 15.2139C13.517 15.2139 14.4954 14.9317 15.3407 14.3997C15.0636 14.3193 14.8201 14.1509 14.647 13.9201C14.4738 13.6892 14.3804 13.4083 14.3807 13.1197V11.4941H10.6655V13.1197C10.6648 13.4081 10.571 13.6884 10.398 13.9191C10.225 14.1498 9.98212 14.3183 9.70552 14.3997H9.69592Z" fill="#A8D3FF"/>
<path d="M16.7392 6.59539V9.88819C16.7398 10.2888 16.6612 10.6856 16.508 11.0557C16.3548 11.4258 16.1299 11.762 15.8464 12.045L15.4272 12.4802C15.2035 12.7047 14.9377 12.8828 14.645 13.0041C14.3523 13.1255 14.0384 13.1878 13.7216 13.1874H11.3152C10.9968 13.1883 10.6813 13.1264 10.387 13.005C10.0926 12.8836 9.82516 12.7053 9.59996 12.4802L9.18396 12.061C8.89995 11.7782 8.67459 11.4421 8.52082 11.072C8.36706 10.7018 8.28793 10.305 8.28796 9.90419V6.59539C9.37038 6.86091 10.5042 6.83107 11.5712 6.50899C12.5349 6.21863 13.4136 5.69805 14.1312 4.99219C14.3555 5.49156 14.7254 5.91151 15.1925 6.19702C15.6596 6.48253 16.2021 6.62027 16.7488 6.59219L16.7392 6.59539Z" fill="#A8D3FF"/>
<path d="M22.8705 14.893C22.6918 15.0642 22.4539 15.1597 22.2065 15.1597C21.959 15.1597 21.7212 15.0642 21.5425 14.893L20.1601 13.5106C20.067 13.425 19.9922 13.3215 19.9401 13.2063C19.8881 13.0911 19.8599 12.9665 19.8573 12.8401C19.8546 12.7137 19.8776 12.588 19.9247 12.4707C19.9719 12.3534 20.0423 12.2468 20.1317 12.1574C20.2211 12.068 20.3276 11.9976 20.445 11.9505C20.5623 11.9033 20.6879 11.8804 20.8143 11.883C20.9407 11.8857 21.0653 11.9139 21.1805 11.9659C21.2958 12.0179 21.3993 12.0927 21.4849 12.1858L22.8673 13.5682C23.0432 13.7436 23.1423 13.9816 23.1429 14.23C23.1435 14.4783 23.0455 14.7168 22.8705 14.893Z" fill="#A8D3FF"/>
<path d="M1.89757 14.8926C2.07627 15.0637 2.31414 15.1593 2.56157 15.1593C2.809 15.1593 3.04687 15.0637 3.22557 14.8926L4.60477 13.5102C4.76847 13.3321 4.85703 13.0977 4.85196 12.8559C4.84688 12.6141 4.74857 12.3836 4.57755 12.2126C4.40653 12.0416 4.17603 11.9433 3.93423 11.9382C3.69242 11.9331 3.45801 12.0217 3.27997 12.1854L1.89757 13.5678C1.72209 13.7436 1.62354 13.9818 1.62354 14.2302C1.62354 14.4786 1.72209 14.7168 1.89757 14.8926Z" fill="#A8D3FF"/>
<path d="M2.53125 31.3601V25.8145H22.5057V31.3601C22.5015 31.527 22.4322 31.6857 22.3126 31.8023C22.1931 31.9189 22.0327 31.9841 21.8657 31.9841H3.15845C2.99367 31.9808 2.8365 31.9141 2.71966 31.7979C2.60283 31.6816 2.53534 31.5248 2.53125 31.3601Z" fill="#A8D3FF"/>
<path d="M23.6289 27.6897H1.40488C1.15622 27.6897 0.917736 27.5909 0.741902 27.4151C0.566068 27.2392 0.467285 27.0008 0.467285 26.7521V24.0001C0.467285 23.7514 0.566068 23.513 0.741902 23.3371C0.917736 23.1613 1.15622 23.0625 1.40488 23.0625H23.6289C23.8775 23.0625 24.116 23.1613 24.2919 23.3371C24.4677 23.513 24.5665 23.7514 24.5665 24.0001V26.7521C24.5665 27.0008 24.4677 27.2392 24.2919 27.4151C24.116 27.5909 23.8775 27.6897 23.6289 27.6897Z" fill="#A8D3FF"/>
<path d="M22.4673 0.467296H29.6577C30.155 0.467296 30.632 0.664861 30.9836 1.01653C31.3353 1.3682 31.5329 1.84516 31.5329 2.3425V4.84169C31.5333 5.08822 31.4851 5.33241 31.3911 5.56028C31.297 5.78816 31.1589 5.99526 30.9848 6.16973C30.8106 6.3442 30.6037 6.48261 30.376 6.57705C30.1483 6.67148 29.9042 6.72009 29.6577 6.72009H25.3825C25.3026 6.72019 25.2236 6.73672 25.1504 6.76865C25.0772 6.80058 25.0113 6.84722 24.9569 6.90569L23.7377 8.24009C23.7031 8.27617 23.6585 8.30119 23.6097 8.31197C23.5609 8.32275 23.51 8.31881 23.4634 8.30066C23.4168 8.28251 23.3767 8.25095 23.348 8.20998C23.3194 8.16902 23.3035 8.12047 23.3025 8.07049V7.29289C23.3008 7.13984 23.2386 6.99367 23.1294 6.88634C23.0203 6.77901 22.8731 6.71924 22.7201 6.72009H22.4609C22.2148 6.72009 21.9711 6.67157 21.7437 6.57729C21.5164 6.48301 21.3099 6.34484 21.136 6.17067C20.9622 5.9965 20.8243 5.78975 20.7304 5.56226C20.6366 5.33477 20.5884 5.091 20.5889 4.84489V2.3425C20.5884 2.09585 20.6368 1.85156 20.7311 1.62365C20.8253 1.39574 20.9637 1.18871 21.1383 1.01445C21.3128 0.840199 21.5201 0.702155 21.7482 0.608256C21.9763 0.514357 22.2206 0.466453 22.4673 0.467296Z" fill="#A8D3FF"/>
<path d="M27.8848 4.09277H24.6144C24.4967 4.1025 24.387 4.15611 24.3071 4.24295C24.2271 4.32979 24.1827 4.44353 24.1827 4.56157C24.1827 4.67962 24.2271 4.79335 24.3071 4.8802C24.387 4.96704 24.4967 5.02065 24.6144 5.03037H27.8848C28.0024 5.02065 28.1121 4.96704 28.1921 4.8802C28.272 4.79335 28.3164 4.67962 28.3164 4.56157C28.3164 4.44353 28.272 4.32979 28.1921 4.24295C28.1121 4.15611 28.0024 4.1025 27.8848 4.09277Z" fill="#2D8CFF"/>
<path d="M24.7584 23.168C24.7617 23.135 24.7617 23.1018 24.7584 23.0688V16.96C24.7589 16.6931 24.7066 16.4287 24.6044 16.1821C24.5023 15.9355 24.3523 15.7116 24.1632 15.5232L23.4656 14.8256C23.5905 14.5631 23.6311 14.2684 23.5818 13.9819C23.5325 13.6955 23.3958 13.4313 23.1904 13.2256L21.8112 11.8432C21.6829 11.6999 21.5265 11.5844 21.3518 11.5039C21.1771 11.4234 20.9877 11.3795 20.7954 11.375C20.6031 11.3705 20.4119 11.4055 20.2336 11.4777C20.0554 11.55 19.8938 11.658 19.7588 11.7951C19.6239 11.9322 19.5185 12.0955 19.4492 12.2749C19.3798 12.4544 19.3479 12.6461 19.3555 12.8383C19.3631 13.0305 19.41 13.2191 19.4934 13.3925C19.5767 13.5659 19.6947 13.7204 19.84 13.8464L21.2224 15.2256C21.3526 15.3569 21.5077 15.4611 21.6785 15.5319C21.8494 15.6028 22.0326 15.639 22.2176 15.6384C22.4268 15.637 22.6332 15.5901 22.8224 15.5008L23.52 16.1984C23.6215 16.2995 23.702 16.4197 23.7569 16.5521C23.8118 16.6844 23.8401 16.8263 23.84 16.9696V22.6144C23.7728 22.611 23.7056 22.611 23.6384 22.6144H22.5152V19.8656C22.5109 18.6643 22.092 17.5014 21.3294 16.5732C20.5668 15.645 19.5072 15.0085 18.3296 14.7712C18.24 14.752 15.5136 13.9808 15.4496 13.9552C15.3191 13.9129 15.2004 13.8404 15.1031 13.7437C15.0058 13.647 14.9327 13.5287 14.8896 13.3984C15.2149 13.2556 15.5102 13.0526 15.76 12.8L16.1792 12.3808C16.8251 11.74 17.1939 10.8714 17.2064 9.9616H17.8048C18.1443 9.9616 18.4698 9.82674 18.7099 9.5867C18.9499 9.34665 19.0848 9.02108 19.0848 8.6816V7.4016C19.0848 7.06212 18.9499 6.73655 18.7099 6.4965C18.4698 6.25646 18.1443 6.1216 17.8048 6.1216H17.2096V3.1392C17.2054 2.30958 16.8747 1.51499 16.2889 0.927452C15.7032 0.339917 14.9096 0.00672075 14.08 0L10.976 0C10.1437 0.000847133 9.34572 0.331855 8.75719 0.920386C8.16866 1.50892 7.83765 2.30689 7.8368 3.1392V6.1216C7.63856 6.11048 7.43984 6.11048 7.2416 6.1216C6.90212 6.1216 6.57655 6.25646 6.3365 6.4965C6.09646 6.73655 5.9616 7.06212 5.9616 7.4016V8.6816C5.9616 9.02108 6.09646 9.34665 6.3365 9.5867C6.57655 9.82674 6.90212 9.9616 7.2416 9.9616H7.8368C7.85185 10.8715 8.22157 11.7395 8.8672 12.3808L9.28 12.8C9.53121 13.0546 9.82883 13.2588 10.1568 13.4016C10.1136 13.5367 10.0375 13.6589 9.93523 13.7573C9.83299 13.8556 9.70789 13.9269 9.5712 13.9648L6.72 14.768C5.54004 15.0039 4.47776 15.6401 3.71277 16.5689C2.94777 17.4978 2.527 18.6623 2.5216 19.8656V22.6016H1.4048C1.24568 22.6019 1.08774 22.6289 0.9376 22.6816V16.96C0.937529 16.8167 0.965762 16.6748 1.02068 16.5425C1.07559 16.4101 1.15611 16.2899 1.2576 16.1888L1.9552 15.4912C2.14366 15.5838 2.35008 15.634 2.56 15.6384C2.74497 15.639 2.9282 15.6028 3.09905 15.5319C3.26991 15.4611 3.42496 15.3569 3.5552 15.2256L4.9376 13.8464C5.07449 13.7171 5.18406 13.5617 5.25982 13.3893C5.33559 13.217 5.37601 13.0311 5.3787 12.8429C5.38139 12.6546 5.34629 12.4677 5.27548 12.2932C5.20467 12.1188 5.09959 11.9603 4.96645 11.8272C4.83331 11.694 4.67482 11.5889 4.50036 11.5181C4.32589 11.4473 4.139 11.4122 3.95073 11.4149C3.76246 11.4176 3.57665 11.458 3.40427 11.5338C3.2319 11.6095 3.07648 11.7191 2.9472 11.856L1.568 13.2384C1.36258 13.4441 1.22585 13.7083 1.17658 13.9947C1.1273 14.2812 1.1679 14.5759 1.2928 14.8384L0.5952 15.5328C0.215578 15.9109 0.00151219 16.4242 0 16.96L0 26.7552C0.000845216 27.1275 0.149122 27.4843 0.41239 27.7476C0.675658 28.0109 1.03248 28.1592 1.4048 28.16H2.064V31.5328C2.07373 31.6504 2.12733 31.7601 2.21418 31.8401C2.30102 31.9201 2.41475 31.9644 2.5328 31.9644C2.65085 31.9644 2.76458 31.9201 2.85142 31.8401C2.93827 31.7601 2.99187 31.6504 3.0016 31.5328V28.16H22.0352V31.5328C22.0449 31.6504 22.0985 31.7601 22.1854 31.8401C22.2722 31.9201 22.386 31.9644 22.504 31.9644C22.622 31.9644 22.7358 31.9201 22.8226 31.8401C22.9095 31.7601 22.9631 31.6504 22.9728 31.5328V28.16H23.6128C23.9857 28.16 24.3433 28.0121 24.6073 27.7487C24.8712 27.4854 25.02 27.1281 25.0208 26.7552V24C25.0234 23.7019 24.9315 23.4107 24.7584 23.168ZM22.5376 14.5632C22.4495 14.6505 22.3305 14.6996 22.2064 14.6996C22.0823 14.6996 21.9633 14.6505 21.8752 14.5632L20.48 13.1808C20.4009 13.0909 20.359 12.9742 20.3629 12.8545C20.3669 12.7348 20.4164 12.6211 20.5013 12.5366C20.5862 12.4521 20.7001 12.4031 20.8198 12.3998C20.9396 12.3964 21.0561 12.4388 21.1456 12.5184L22.5248 13.9008C22.6139 13.9872 22.6652 14.1053 22.6676 14.2294C22.67 14.3534 22.6233 14.4734 22.5376 14.5632ZM17.2096 7.0656H17.8048C17.8956 7.0656 17.9827 7.10168 18.0469 7.16589C18.1111 7.2301 18.1472 7.31719 18.1472 7.408V8.688C18.1476 8.73323 18.1391 8.7781 18.1221 8.82001C18.105 8.86193 18.0799 8.90005 18.0481 8.93219C18.0162 8.96432 17.9783 8.98983 17.9366 9.00723C17.8948 9.02464 17.85 9.0336 17.8048 9.0336H17.2096V7.0656ZM7.8272 9.0208H7.232C7.18676 9.0208 7.14198 9.01184 7.10023 8.99443C7.05847 8.97703 7.02059 8.95152 6.98875 8.91938C6.95691 8.88725 6.93176 8.84913 6.91474 8.80721C6.89772 8.7653 6.88918 8.72043 6.8896 8.6752V7.3952C6.8896 7.30439 6.92567 7.2173 6.98989 7.15309C7.0541 7.08887 7.14119 7.0528 7.232 7.0528H7.8272V9.0208ZM2.24 13.9008L3.6224 12.5184C3.7105 12.4311 3.82954 12.382 3.9536 12.382C4.07766 12.382 4.1967 12.4311 4.2848 12.5184C4.37063 12.6073 4.41861 12.726 4.41861 12.8496C4.41861 12.9732 4.37063 13.0919 4.2848 13.1808L2.88 14.5632C2.78893 14.6254 2.6788 14.6534 2.56909 14.6422C2.45939 14.6309 2.35718 14.5813 2.28055 14.502C2.20393 14.4227 2.15783 14.3188 2.15041 14.2088C2.14298 14.0988 2.17472 13.9897 2.24 13.9008ZM16.1184 2.336C16.2203 2.59151 16.2724 2.86413 16.272 3.1392V6.1056C15.9508 6.05868 15.6437 5.94251 15.3718 5.76515C15.1 5.58779 14.8699 5.35346 14.6976 5.0784C15.4162 4.31364 15.9082 3.36416 16.1184 2.336ZM8.7584 3.1392C8.75925 2.55556 8.99147 1.99607 9.40417 1.58337C9.81686 1.17067 10.3764 0.938447 10.96 0.9376H14.08C14.5207 0.937096 14.9513 1.06984 15.3152 1.3184C15.2824 2.13057 15.0494 2.92205 14.6368 3.6224C13.8784 4.7584 13.1104 5.4752 11.4368 6.064C10.569 6.32184 9.65287 6.37334 8.7616 6.2144L8.7584 3.1392ZM9.9328 12.1344L9.5136 11.7152C9.27326 11.4763 9.08274 11.192 8.9531 10.8789C8.82347 10.5658 8.75729 10.2301 8.7584 9.8912V7.168C9.68373 7.31231 10.6292 7.25857 11.5322 7.01034C12.4352 6.7621 13.2753 6.32503 13.9968 5.728C14.2326 6.06224 14.5315 6.34706 14.8768 6.5664C15.2987 6.83064 15.7764 6.99281 16.272 7.04V9.8816C16.2731 10.2205 16.2069 10.5562 16.0773 10.8693C15.9477 11.1824 15.7571 11.4667 15.5168 11.7056L15.0976 12.1248C14.7313 12.4876 14.2372 12.6921 13.7216 12.6944H11.3152C10.8021 12.6891 10.3102 12.4889 9.9392 12.1344H9.9328ZM14.3936 14.3744C13.799 14.6292 13.1589 14.7605 12.512 14.7605C11.8651 14.7605 11.225 14.6292 10.6304 14.3744C10.8306 14.1652 10.9766 13.9104 11.056 13.632C11.1402 13.6369 11.2246 13.6369 11.3088 13.632H13.7152C13.7983 13.6369 13.8817 13.6369 13.9648 13.632C14.0488 13.9105 14.198 14.165 14.4 14.3744H14.3936ZM3.456 19.8656C3.46577 18.8733 3.8179 17.9147 4.45286 17.1521C5.08783 16.3894 5.96667 15.8694 6.9408 15.68L9.6288 14.9216C10.5105 15.4272 11.5084 15.6951 12.5248 15.6992H12.752C13.6855 15.6621 14.5959 15.3985 15.4048 14.9312L18.0928 15.68C19.0672 15.8689 19.9464 16.3887 20.5814 17.1515C21.2165 17.9143 21.5684 18.8731 21.5776 19.8656V22.6016H18.9952V21.6704C18.9855 21.5528 18.9319 21.4431 18.845 21.3631C18.7582 21.2832 18.6444 21.2388 18.5264 21.2388C18.4084 21.2388 18.2946 21.2832 18.2078 21.3631C18.1209 21.4431 18.0673 21.5528 18.0576 21.6704V22.6016H6.9792V21.6704C6.96947 21.5528 6.91587 21.4431 6.82902 21.3631C6.74218 21.2832 6.62845 21.2388 6.5104 21.2388C6.39235 21.2388 6.27862 21.2832 6.19178 21.3631C6.10493 21.4431 6.05133 21.5528 6.0416 21.6704V22.6016H3.456V19.8656ZM24.0992 26.7552C24.0992 26.8168 24.087 26.8778 24.0633 26.9347C24.0397 26.9916 24.005 27.0433 23.9612 27.0867C23.9175 27.1301 23.8656 27.1645 23.8086 27.1878C23.7515 27.2111 23.6904 27.2228 23.6288 27.2224H1.4048C1.28089 27.2224 1.16206 27.1732 1.07444 27.0856C0.986823 26.9979 0.9376 26.8791 0.9376 26.7552V24C0.938438 23.8764 0.98793 23.758 1.07537 23.6706C1.1628 23.5831 1.28115 23.5336 1.4048 23.5328H23.6288C23.753 23.5328 23.8722 23.5819 23.9603 23.6694C24.0484 23.757 24.0984 23.8758 24.0992 24V26.7552Z" fill="#2D8CFF"/>
<path d="M29.6576 0H22.4672C21.8464 0.00168905 21.2516 0.249019 20.8127 0.687939C20.3738 1.12686 20.1264 1.72168 20.1248 2.3424V4.8448C20.1256 5.46578 20.3727 6.06109 20.8118 6.50019C21.2509 6.93929 21.8462 7.18635 22.4672 7.1872H22.72C22.748 7.1872 22.7748 7.19833 22.7946 7.21813C22.8144 7.23793 22.8256 7.26479 22.8256 7.2928V8.0704C22.8261 8.21528 22.8704 8.35663 22.9526 8.47595C23.0347 8.59528 23.151 8.68703 23.2862 8.73923C23.4213 8.79143 23.5691 8.80163 23.7101 8.76851C23.8512 8.7354 23.979 8.66049 24.0768 8.5536L25.296 7.2224C25.317 7.20061 25.3457 7.18797 25.376 7.1872H29.6576C30.2785 7.18635 30.8738 6.93929 31.3129 6.50019C31.7521 6.06109 31.9991 5.46578 32 4.8448V2.3424C31.9983 1.72168 31.7509 1.12686 31.312 0.687939C30.8731 0.249019 30.2783 0.00168905 29.6576 0V0ZM31.0624 4.8448C31.0615 5.21712 30.9132 5.57394 30.65 5.83721C30.3867 6.10048 30.0299 6.24876 29.6576 6.2496H25.3824C25.2374 6.25019 25.0941 6.2806 24.9615 6.33896C24.8288 6.39732 24.7095 6.48236 24.6112 6.5888L23.7696 7.5072V7.2928C23.7696 7.15527 23.7424 7.01909 23.6895 6.8921C23.6367 6.76512 23.5593 6.64983 23.4618 6.55288C23.3642 6.45592 23.2484 6.37921 23.1211 6.32717C22.9938 6.27512 22.8575 6.24876 22.72 6.2496H22.4608C22.0884 6.24876 21.7316 6.10048 21.4683 5.83721C21.2051 5.57394 21.0568 5.21712 21.056 4.8448V2.3424C21.0568 1.97008 21.2051 1.61326 21.4683 1.34999C21.7316 1.08672 22.0884 0.938445 22.4608 0.9376H29.6576C30.0299 0.938445 30.3867 1.08672 30.65 1.34999C30.9132 1.61326 31.0615 1.97008 31.0624 2.3424V4.8448Z" fill="#2D8CFF"/>
<path d="M27.8848 2.21729H24.6144C24.4967 2.22701 24.387 2.28062 24.3071 2.36746C24.2271 2.45431 24.1827 2.56804 24.1827 2.68609C24.1827 2.80413 24.2271 2.91786 24.3071 3.00471C24.387 3.09155 24.4967 3.14516 24.6144 3.15488H27.8848C28.0024 3.14516 28.1121 3.09155 28.1921 3.00471C28.272 2.91786 28.3164 2.80413 28.3164 2.68609C28.3164 2.56804 28.272 2.45431 28.1921 2.36746C28.1121 2.28062 28.0024 2.22701 27.8848 2.21729Z" fill="#2D8CFF"/>
</g>
<defs>
<clipPath id="clip0">
<rect width="32" height="32" fill="white"/>
</clipPath>
</defs>
</svg>
