<svg width="12" height="10" viewBox="0 0 12 10" fill="none" xmlns="http://www.w3.org/2000/svg">
<path fill-rule="evenodd" clip-rule="evenodd" d="M11.6649 0.382524C11.2179 -0.127508 10.4932 -0.127508 10.0463 0.382524L4.38159 6.84648L1.95407 4.07644C1.50711 3.5664 0.782433 3.5664 0.335468 4.07644C-0.111497 4.58647 -0.111497 5.41339 0.335468 5.92343L3.54523 9.58609C3.55392 9.59668 3.56279 9.60714 3.57185 9.61748C3.81551 9.89552 4.14171 10.022 4.46046 9.99688C4.72669 9.97613 4.98777 9.84964 5.19128 9.61741C5.19971 9.60778 5.20799 9.59804 5.21611 9.5882L11.6649 2.22951C12.1118 1.71948 12.1118 0.892557 11.6649 0.382524Z" fill="#2D8CFF"/>
</svg>
