<svg width="100" height="83" viewBox="0 0 100 83" fill="none" xmlns="http://www.w3.org/2000/svg">
<path d="M91.38 28.34L91.14 28.21C90.5692 27.878 89.9573 27.6225 89.32 27.45L82.08 25.64V24.21L82.29 24.06C83.7366 23.0589 84.9202 21.7234 85.7402 20.1669C86.5601 18.6105 86.9923 16.8792 87 15.12V12.27C87.0246 9.38786 85.9362 6.60739 83.9615 4.50791C81.9868 2.40842 79.2782 1.15183 76.4 0.999973C76.11 0.999973 75.81 0.999973 75.52 0.999973C74.8494 1.03161 74.1814 1.10509 73.52 1.21997C72.95 1.36997 71.75 1.86997 71.74 1.86997C70.5328 2.38129 69.4257 3.10243 68.47 3.99997C68.0083 4.39501 67.5893 4.83743 67.22 5.31997C66.8743 5.85594 66.57 6.41758 66.31 6.99997C65.5571 8.50922 65.1667 10.1733 65.17 11.86V15.12C65.1714 16.8746 65.5968 18.6028 66.4099 20.1577C67.223 21.7125 68.3998 23.0478 69.84 24.05L70.05 24.21V25.64L63 27.4L56 25.64V24.21L56.21 24.06C57.651 23.0555 58.8288 21.7186 59.6434 20.1624C60.4581 18.6062 60.8857 16.8765 60.89 15.12V12.27C60.9151 9.39441 59.8322 6.61955 57.866 4.52112C55.8997 2.42268 53.2011 1.16176 50.33 0.999973C48.6936 0.948063 47.0667 1.26645 45.5706 1.93138C44.0746 2.5963 42.748 3.59057 41.69 4.83997C39.9779 6.90667 39.0595 9.51651 39.1 12.2V15.15C39.1031 16.9043 39.5292 18.6319 40.3422 20.1865C41.1551 21.741 42.331 23.0766 43.77 24.08L43.99 24.23V25.67L37 27.4L30 25.64V24.21L30.22 24.05C31.6602 23.0478 32.837 21.7125 33.6501 20.1577C34.4632 18.6028 34.8886 16.8746 34.89 15.12V12.27C34.8889 10.4894 34.4747 8.73336 33.68 7.13997C33.4669 6.66406 33.2161 6.20594 32.93 5.76997C32.56 5.25997 31.7 4.32997 31.7 4.31997C30.7053 3.28422 29.5159 2.45503 28.2 1.87997H28.11C27.5618 1.62581 26.9931 1.4184 26.41 1.25997C25.85 1.16997 24.46 1.01997 24.41 1.01997H24.29C22.6195 0.959344 20.9573 1.28305 19.4316 1.96615C17.9059 2.64924 16.5574 3.67349 15.49 4.95997C13.8473 7.01248 12.9672 9.57122 13 12.2V15.12C13.0034 16.8753 13.4307 18.6038 14.2455 20.1586C15.0603 21.7133 16.2385 23.0483 17.68 24.05L17.89 24.21V25.64L12.83 26.91L12.66 26.8L4.66 22.14H0V55L16 60.38C16.2565 60.466 16.5278 60.4991 16.7975 60.4773C17.0672 60.4554 17.3296 60.3791 17.5689 60.2529C17.8083 60.1267 18.0195 59.9532 18.1898 59.743C18.3602 59.5328 18.4861 59.2903 18.56 59.03L18.63 58.8L18.88 58.69L19.01 58.76L24.44 62V62.26C24.4769 63.4216 24.9522 64.5263 25.7703 65.3518C26.5884 66.1773 27.6887 66.6626 28.85 66.71H29.3V67.15C29.3491 68.3091 29.8316 69.4076 30.652 70.228C31.4723 71.0484 32.5708 71.5309 33.73 71.58H34.16V72.03C34.2068 73.1899 34.6885 74.2897 35.5094 75.1106C36.3303 75.9314 37.4301 76.4132 38.59 76.46H39.02V76.73C39.0298 77.6727 39.3204 78.591 39.8548 79.3677C40.3892 80.1443 41.1431 80.744 42.02 81.09C42.6976 81.3294 43.4222 81.4053 44.1347 81.3115C44.8473 81.2176 45.5275 80.9567 46.12 80.55L46.44 80.34L48.16 81.86C48.9884 82.5893 50.0563 82.9881 51.16 82.98H51.42C52.6015 83.0069 53.7458 82.5659 54.6036 81.753C55.4615 80.9401 55.9634 79.8212 56 78.64V78.17H56.47C57.6349 78.1494 58.7461 77.6768 59.569 76.852C60.3919 76.0272 60.862 74.9149 60.88 73.75V73.31H61.35C62.5141 73.2869 63.6239 72.8135 64.4463 71.9892C65.2686 71.165 65.7395 70.0541 65.76 68.89V68.4H66.13C66.7613 68.4095 67.3875 68.2846 67.9668 68.0334C68.5462 67.7823 69.0655 67.4108 69.4902 66.9435C69.9148 66.4763 70.2352 65.924 70.43 65.3234C70.6248 64.7228 70.6896 64.0876 70.62 63.46V63.12L100 48.4V25.4H97L91.38 28.34ZM72.3 27.4V22.93L71.74 22.6C70.4283 21.8403 69.3389 20.7497 68.5808 19.437C67.8227 18.1244 67.4224 16.6358 67.42 15.12V12.12C67.3873 10.0997 68.0354 8.12717 69.26 6.51997C70.1001 5.45557 71.1785 4.60333 72.4082 4.03188C73.638 3.46044 74.9847 3.18576 76.34 3.22997C78.6248 3.36841 80.7689 4.37989 82.3288 6.05512C83.8886 7.73036 84.7447 9.94112 84.72 12.23V15.08C84.7143 16.5977 84.3116 18.0874 83.552 19.4014C82.7924 20.7153 81.7023 21.8077 80.39 22.57L79.82 22.89V27.4L88.32 29.53L88.38 29.89L88.22 30L69.33 40L69.06 39.85V34.87C69.0558 32.8751 68.2695 30.9615 66.87 29.54L66.25 28.92L72.3 27.4ZM37.3 29.64L46.3 27.4V22.93L45.74 22.6C44.4271 21.8408 43.3363 20.7505 42.5765 19.438C41.8167 18.1255 41.4145 16.6366 41.41 15.12V11.86C41.4004 10.7037 41.625 9.5574 42.0701 8.49016C42.5152 7.42293 43.1717 6.45681 44 5.64997C44.834 4.84674 45.8199 4.21807 46.9 3.8008C47.9801 3.38353 49.1326 3.18606 50.29 3.21997C52.5748 3.35841 54.7189 4.36989 56.2788 6.04512C57.8386 7.72036 58.6947 9.93112 58.67 12.22V15.07C58.6643 16.5877 58.2616 18.0774 57.502 19.3914C56.7424 20.7053 55.6523 21.7977 54.34 22.56L53.78 22.88V27.4L62.78 29.64C63.9458 29.9321 64.9805 30.6054 65.7198 31.553C66.459 32.5006 66.8604 33.6681 66.86 34.87V41.28L66.08 41.69H64.82L54.82 38.83C54.0689 38.6303 53.2969 38.5195 52.52 38.5H52.42L44.93 36.1C41.6371 35.0489 38.1243 34.8902 34.75 35.64L33.21 36V34.87C33.2096 33.6681 33.611 32.5006 34.3502 31.553C35.0895 30.6054 36.1242 29.9321 37.29 29.64H37.3ZM16.13 28.44L16.31 28.37L20.18 27.37V22.93L19.62 22.6C18.3071 21.8408 17.2163 20.7505 16.4565 19.438C15.6967 18.1255 15.2945 16.6366 15.29 15.12V12.12C15.2564 10.1057 15.9048 8.13918 17.13 6.53997C17.9685 5.46991 19.0475 4.61257 20.2793 4.03747C21.5112 3.46238 22.8612 3.18573 24.22 3.22997C26.503 3.37087 28.6447 4.38343 30.2024 6.0584C31.7601 7.73337 32.6149 9.94275 32.59 12.23V15.08C32.5843 16.5977 32.1816 18.0874 31.422 19.4014C30.6624 20.7153 29.5723 21.8077 28.26 22.57L27.7 22.89V27.4L33.76 28.92L33.14 29.54C31.7588 30.9695 30.9908 32.8822 31 34.87V36.45L30.79 36.53L25 37.81L24.78 37.58L24.83 37.42L25.27 36C25.4178 35.5629 25.4099 35.0882 25.2477 34.6562C25.0855 34.2243 24.779 33.8617 24.38 33.63L16.09 28.79L16.13 28.44ZM16.56 58L16.36 58.12H16.24L2.24 53.45V53.25V24.42H2.52H4.09H4.17L23.1 35.28V35.5L16.56 58ZM30.67 63.82C30.2241 64.2569 29.6243 64.5011 29 64.5C28.5343 64.505 28.0778 64.3704 27.6893 64.1135C27.3009 63.8566 26.9983 63.4892 26.8207 63.0586C26.6431 62.6281 26.5986 62.1542 26.693 61.6981C26.7873 61.2421 27.0162 60.8247 27.35 60.5L30.21 57.64C30.4306 57.422 30.692 57.2496 30.9793 57.1326C31.2665 57.0156 31.574 56.9564 31.8841 56.9582C32.1943 56.9601 32.501 57.023 32.7869 57.1434C33.0727 57.2638 33.332 57.4394 33.55 57.66C33.768 57.8806 33.9404 58.142 34.0574 58.4292C34.1743 58.7165 34.2336 59.024 34.2317 59.3341C34.2299 59.6443 34.167 59.951 34.0465 60.2368C33.9261 60.5227 33.7506 60.782 33.53 61L30.67 63.82ZM35.55 68.7C35.3353 68.9163 35.0798 69.0879 34.7983 69.2046C34.5167 69.3213 34.2148 69.3809 33.91 69.38C33.6032 69.3813 33.2991 69.322 33.0153 69.2055C32.7314 69.089 32.4734 68.9176 32.256 68.7011C32.0386 68.4846 31.866 68.2273 31.7483 67.9439C31.6306 67.6606 31.57 67.3568 31.57 67.05C31.5709 66.7446 31.6323 66.4424 31.7508 66.1609C31.8692 65.8794 32.0423 65.6242 32.26 65.41L35.12 62.54C35.561 62.1079 36.1526 61.8641 36.77 61.86C37.2357 61.8549 37.6922 61.9895 38.0807 62.2464C38.4691 62.5034 38.7717 62.8708 38.9493 63.3013C39.1269 63.7319 39.1714 64.2058 39.077 64.6618C38.9827 65.1179 38.7538 65.5352 38.42 65.86L35.55 68.7ZM40.44 73.59C40.1153 73.9238 39.6979 74.1527 39.2418 74.247C38.7858 74.3413 38.3119 74.2969 37.8814 74.1193C37.4508 73.9417 37.0834 73.6391 36.8265 73.2507C36.5695 72.8622 36.4349 72.4057 36.44 71.94C36.4441 71.3226 36.6879 70.731 37.12 70.29L40 67.43C40.3247 67.0961 40.7421 66.8673 41.1982 66.7729C41.6542 66.6786 42.1281 66.7231 42.5586 66.9007C42.9892 67.0783 43.3566 67.3808 43.6135 67.7693C43.8704 68.1577 44.0051 68.6143 44 69.08C43.9959 69.6974 43.7521 70.289 43.32 70.73L40.44 73.59ZM48.19 75.59L45.33 78.46C44.889 78.8921 44.2974 79.1359 43.68 79.14C43.062 79.14 42.4694 78.8945 42.0324 78.4575C41.5955 78.0206 41.35 77.4279 41.35 76.81C41.3511 76.2037 41.5836 75.6207 42 75.18L44.87 72.32C45.0847 72.1036 45.3402 71.9321 45.6217 71.8154C45.9033 71.6986 46.2052 71.639 46.51 71.64C46.821 71.6359 47.1297 71.6942 47.4179 71.8114C47.706 71.9286 47.9678 72.1023 48.1878 72.3222C48.4077 72.5422 48.5814 72.8039 48.6986 73.0921C48.8157 73.3802 48.874 73.6889 48.87 74C48.864 74.6052 48.6197 75.1837 48.19 75.61V75.59ZM53.59 79.45C53.4027 79.854 53.1011 80.1943 52.7226 80.4288C52.3441 80.6634 51.9052 80.782 51.46 80.77H51.26C50.7228 80.7693 50.2041 80.5739 49.8 80.22L48.32 78.91V78.7L48.4 78.6L49.79 77.21C50.1847 76.8169 50.5004 76.3519 50.72 75.84L50.99 75.24L52.99 76.89C53.3488 77.2022 53.5999 77.6196 53.7076 78.0829C53.8153 78.5461 53.7742 79.0315 53.59 79.47V79.45ZM68 65.23C67.775 65.5198 67.4847 65.7523 67.1528 65.9087C66.8209 66.0651 66.4567 66.1409 66.09 66.13H65.92C65.3896 66.1281 64.8766 65.9406 64.47 65.6L56.03 58.6L54.59 60.33L62.78 67.16C63.1443 67.4682 63.4002 67.8851 63.51 68.3495C63.6198 68.8139 63.5778 69.3013 63.39 69.74C63.1919 70.1376 62.8819 70.4687 62.4981 70.6925C62.1144 70.9164 61.6736 71.0232 61.23 71H61C60.4845 71.002 59.9849 70.8213 59.59 70.49L51.13 63.49L49.68 65.22L57.86 72C58.2965 72.3699 58.5756 72.8923 58.6406 73.4607C58.7057 74.0292 58.5517 74.601 58.21 75.06C58.058 75.2758 57.8633 75.4582 57.638 75.5958C57.4126 75.7334 57.1615 75.8233 56.9 75.86C56.7502 75.8699 56.5998 75.8699 56.45 75.86C55.7203 75.8481 55.0158 75.591 54.45 75.13L50.64 72C50.2848 71.247 49.7294 70.6062 49.0345 70.1476C48.3396 69.6891 47.532 69.4304 46.7 69.4H46.24V68.95C46.1932 67.79 45.7115 66.6902 44.8906 65.8694C44.0697 65.0485 42.9699 64.5668 41.81 64.52H41.4L41.35 64.07C41.3008 62.9118 40.8179 61.8145 39.9973 60.9957C39.1767 60.177 38.0783 59.6966 36.92 59.65H36.48V59.19C36.4623 58.564 36.2979 57.9508 36 57.4C35.6741 56.7179 35.1902 56.1235 34.5884 55.6661C33.9866 55.2086 33.2844 54.9014 32.54 54.77C31.8344 54.6681 31.1148 54.7316 30.438 54.9555C29.7612 55.1793 29.1457 55.5575 28.64 56.06L25.78 58.93C25.6407 59.0661 25.5167 59.217 25.41 59.38L25.16 59.7L24.71 59.56L19.39 56.37V56.16L23.9 40.36H24.07L35.2 37.89C38.1822 37.2208 41.2889 37.3589 44.2 38.29L47.29 39.29L47.34 39.65L47.17 39.75L38.58 44C37.7545 44.408 37.06 45.0395 36.5757 45.8226C36.0913 46.6058 35.8364 47.5091 35.84 48.43V48.58C35.8169 49.4873 36.0387 50.3841 36.4822 51.1759C36.9257 51.9678 37.5743 52.6256 38.36 53.08C39.1271 53.5067 39.993 53.724 40.8707 53.71C41.7484 53.6959 42.6069 53.451 43.36 53L49.43 49.36C50.1314 48.954 50.9421 48.7771 51.7489 48.8542C52.5556 48.9313 53.3182 49.2585 53.93 49.79L67.68 62.19C68.1043 62.5646 68.3727 63.0848 68.4319 63.6477C68.4912 64.2106 68.337 64.7752 68 65.23ZM97.74 27.82V47L97.61 47.09L69.69 61L69.43 60.73L69.18 60.48L55.42 48.13C54.3104 47.1265 52.866 46.5737 51.37 46.58C50.2715 46.5805 49.1936 46.8776 48.25 47.44L42.18 51.08C41.7507 51.3467 41.2554 51.488 40.75 51.488C40.2446 51.488 39.7493 51.3467 39.32 51.08C38.9319 50.8206 38.6156 50.4673 38.4006 50.053C38.1855 49.6386 38.0787 49.1767 38.09 48.71V48.51C38.0796 47.9918 38.2158 47.4813 38.483 47.0372C38.7502 46.5931 39.1374 46.2336 39.6 46L48.68 41.47C50.3722 40.6439 52.3111 40.4764 54.12 41L64.29 43.91L66.58 43.97L97.47 27.68L97.74 27.82Z" fill="#0B0F30"/>
</svg>
